<?xml version="1.0" encoding="UTF-8" standalone="no"?>
<!DOCTYPE svg PUBLIC "-//W3C//DTD SVG 1.1//EN"
 "http://www.w3.org/Graphics/SVG/1.1/DTD/svg11.dtd">
<!-- Generated by graphviz version 2.40.1 (20161225.0304)
 -->
<!-- Title: orphans Pages: 1 -->
<svg width="282pt" height="304pt"
 viewBox="0.00 0.00 282.00 304.00" xmlns="http://www.w3.org/2000/svg" xmlns:xlink="http://www.w3.org/1999/xlink">
<g id="graph0" class="graph" transform="scale(1 1) rotate(0) translate(4 300)">
<title>orphans</title>
<polygon fill="#ffffff" stroke="transparent" points="-4,4 -4,-300 278,-300 278,4 -4,4"/>
<!-- case_note_deleted -->
<g id="node1" class="node">
<title>case_note_deleted</title>
<g id="a_node1"><a xlink:href="../../tables/case_note_deleted.html" xlink:title="case_note_deleted" target="_top">
<polygon fill="#ffffff" stroke="transparent" points="8,-4 8,-292 266,-292 266,-4 8,-4"/>
<polygon fill="#f5f5f5" stroke="transparent" points="10,-267 10,-290 264,-290 264,-267 10,-267"/>
<polygon fill="none" stroke="#000000" points="10,-267 10,-290 264,-290 264,-267 10,-267"/>
<text text-anchor="start" x="15" y="-275.6" font-family="Helvetica,sans-Serif" font-weight="bold" font-size="11.00" fill="#000000">case_note_deleted</text>
<text text-anchor="start" x="229.0437" y="-275.1" font-family="Helvetica,sans-Serif" font-size="11.00" fill="#000000">[table]</text>
<polygon fill="#ffffff" stroke="transparent" points="10,-245 10,-267 155,-267 155,-245 10,-245"/>
<polygon fill="none" stroke="#000000" points="10,-245 10,-267 155,-267 155,-245 10,-245"/>
<text text-anchor="start" x="30" y="-252.1" font-family="Helvetica,sans-Serif" font-size="11.00" fill="#000000">person_identifier</text>
<polygon fill="none" stroke="#000000" points="155,-245 155,-267 264,-267 264,-245 155,-245"/>
<text text-anchor="start" x="157.5344" y="-252.7" font-family="Helvetica,sans-Serif" font-size="11.00" fill="#000000">varchar[2147483647]</text>
<polygon fill="none" stroke="#000000" points="10,-223 10,-245 155,-245 155,-223 10,-223"/>
<text text-anchor="start" x="30" y="-230.1" font-family="Helvetica,sans-Serif" font-size="11.00" fill="#000000">case_note_id</text>
<polygon fill="none" stroke="#000000" points="155,-223 155,-245 264,-245 264,-223 155,-223"/>
<text text-anchor="start" x="158" y="-230.7" font-family="Helvetica,sans-Serif" font-size="11.00" fill="#000000">uuid[2147483647]</text>
<polygon fill="#ffffff" stroke="transparent" points="10,-201 10,-223 155,-223 155,-201 10,-201"/>
<polygon fill="none" stroke="#000000" points="10,-201 10,-223 155,-223 155,-201 10,-201"/>
<text text-anchor="start" x="30" y="-208.1" font-family="Helvetica,sans-Serif" font-size="11.00" fill="#000000">legacy_id</text>
<polygon fill="none" stroke="#000000" points="155,-201 155,-223 264,-223 264,-201 155,-201"/>
<text text-anchor="start" x="158" y="-208.7" font-family="Helvetica,sans-Serif" font-size="11.00" fill="#000000">int8[19]</text>
<polygon fill="none" stroke="#000000" points="10,-179 10,-201 155,-201 155,-179 10,-179"/>
<text text-anchor="start" x="30" y="-186.1" font-family="Helvetica,sans-Serif" font-size="11.00" fill="#000000">case_note</text>
<polygon fill="none" stroke="#000000" points="155,-179 155,-201 264,-201 264,-179 155,-179"/>
<text text-anchor="start" x="158" y="-186.7" font-family="Helvetica,sans-Serif" font-size="11.00" fill="#000000">jsonb[2147483647]</text>
<polygon fill="none" stroke="#000000" points="10,-157 10,-179 155,-179 155,-157 10,-157"/>
<text text-anchor="start" x="30" y="-164.1" font-family="Helvetica,sans-Serif" font-size="11.00" fill="#000000">deleted_at</text>
<polygon fill="none" stroke="#000000" points="155,-157 155,-179 264,-179 264,-157 155,-157"/>
<text text-anchor="start" x="158" y="-164.7" font-family="Helvetica,sans-Serif" font-size="11.00" fill="#000000">timestamp[29,6]</text>
<polygon fill="none" stroke="#000000" points="10,-135 10,-157 155,-157 155,-135 10,-135"/>
<text text-anchor="start" x="30" y="-142.1" font-family="Helvetica,sans-Serif" font-size="11.00" fill="#000000">deleted_by</text>
<polygon fill="none" stroke="#000000" points="155,-135 155,-157 264,-157 264,-135 155,-135"/>
<text text-anchor="start" x="158" y="-142.7" font-family="Helvetica,sans-Serif" font-size="11.00" fill="#000000">varchar[64]</text>
<polygon fill="#ffffff" stroke="transparent" points="10,-113 10,-135 155,-135 155,-113 10,-113"/>
<polygon fill="none" stroke="#000000" points="10,-113 10,-135 155,-135 155,-113 10,-113"/>
<text text-anchor="start" x="30" y="-120.1" font-family="Helvetica,sans-Serif" font-size="11.00" fill="#000000">caseload_id</text>
<polygon fill="none" stroke="#000000" points="155,-113 155,-135 264,-135 264,-113 155,-113"/>
<text text-anchor="start" x="158" y="-120.7" font-family="Helvetica,sans-Serif" font-size="11.00" fill="#000000">varchar[12]</text>
<polygon fill="none" stroke="#000000" points="10,-91 10,-113 155,-113 155,-91 10,-91"/>
<text text-anchor="start" x="30" y="-98.1" font-family="Helvetica,sans-Serif" font-size="11.00" fill="#000000">system</text>
<polygon fill="none" stroke="#000000" points="155,-91 155,-113 264,-113 264,-91 155,-91"/>
<text text-anchor="start" x="158" y="-98.7" font-family="Helvetica,sans-Serif" font-size="11.00" fill="#000000">varchar[6]</text>
<polygon fill="#ffffff" stroke="transparent" points="10,-69 10,-91 155,-91 155,-69 10,-69"/>
<polygon fill="none" stroke="#000000" points="10,-69 10,-91 155,-91 155,-69 10,-69"/>
<text text-anchor="start" x="30" y="-76.1" font-family="Helvetica,sans-Serif" font-size="11.00" fill="#000000">cause</text>
<polygon fill="none" stroke="#000000" points="155,-69 155,-91 264,-91 264,-69 155,-69"/>
<text text-anchor="start" x="158" y="-76.7" font-family="Helvetica,sans-Serif" font-size="11.00" fill="#000000">varchar[6]</text>
<polygon fill="none" stroke="#000000" points="10,-47 10,-69 155,-69 155,-47 10,-47"/>
<image xlink:href="../../images/primaryKeys.png" width="11px" height="12px" preserveAspectRatio="xMinYMin meet" x="15" y="-64"/>
<text text-anchor="start" x="30" y="-54.1" font-family="Helvetica,sans-Serif" font-size="11.00" fill="#000000">id</text>
<polygon fill="none" stroke="#000000" points="155,-47 155,-69 264,-69 264,-47 155,-47"/>
<text text-anchor="start" x="158" y="-54.7" font-family="Helvetica,sans-Serif" font-size="11.00" fill="#000000">uuid[2147483647]</text>
<polygon fill="none" stroke="#000000" points="10,-25 10,-47 155,-47 155,-25 10,-25"/>
<text text-anchor="start" x="30" y="-32.1" font-family="Helvetica,sans-Serif" font-size="11.00" fill="#000000">reason</text>
<polygon fill="none" stroke="#000000" points="155,-25 155,-47 264,-47 264,-25 155,-25"/>
<text text-anchor="start" x="158" y="-32.7" font-family="Helvetica,sans-Serif" font-size="11.00" fill="#000000">text[2147483647]</text>
<polygon fill="#ffffff" stroke="transparent" points="10,-6 10,-25 87,-25 87,-6 10,-6"/>
<polygon fill="none" stroke="#000000" points="10,-6 10,-25 87,-25 87,-6 10,-6"/>
<text text-anchor="start" x="13" y="-12.1" font-family="Helvetica,sans-Serif" font-size="11.00" fill="#000000">&lt; 0</text>
<polygon fill="#ffffff" stroke="transparent" points="87,-6 87,-25 155,-25 155,-6 87,-6"/>
<polygon fill="none" stroke="#000000" points="87,-6 87,-25 155,-25 155,-6 87,-6"/>
<text text-anchor="start" x="145.8862" y="-12.1" font-family="Helvetica,sans-Serif" font-size="11.00" fill="#000000"> &#160;</text>
<polygon fill="#ffffff" stroke="transparent" points="155,-6 155,-25 264,-25 264,-6 155,-6"/>
<polygon fill="none" stroke="#000000" points="155,-6 155,-25 264,-25 264,-6 155,-6"/>
<text text-anchor="start" x="245.4053" y="-12.1" font-family="Helvetica,sans-Serif" font-size="11.00" fill="#000000">0 &gt;</text>
<polygon fill="none" stroke="#000000" stroke-width="2" points="9,-5 9,-291 265,-291 265,-5 9,-5"/>
</a>
</g>
</g>
</g>
</svg>
