<?xml version="1.0" encoding="UTF-8" standalone="no"?>
<!DOCTYPE svg PUBLIC "-//W3C//DTD SVG 1.1//EN"
 "http://www.w3.org/Graphics/SVG/1.1/DTD/svg11.dtd">
<!-- Generated by graphviz version 2.40.1 (20161225.0304)
 -->
<!-- Title: orphans Pages: 1 -->
<svg width="292pt" height="304pt"
 viewBox="0.00 0.00 292.00 304.00" xmlns="http://www.w3.org/2000/svg" xmlns:xlink="http://www.w3.org/1999/xlink">
<g id="graph0" class="graph" transform="scale(1 1) rotate(0) translate(4 300)">
<title>orphans</title>
<polygon fill="#ffffff" stroke="transparent" points="-4,4 -4,-300 288,-300 288,4 -4,4"/>
<!-- case_note_deleted -->
<g id="node1" class="node">
<title>case_note_deleted</title>
<g id="a_node1"><a xlink:href="../../tables/case_note_deleted.html" xlink:title="case_note_deleted" target="_top">
<polygon fill="#ffffff" stroke="transparent" points="8,-4 8,-292 276,-292 276,-4 8,-4"/>
<polygon fill="#f5f5f5" stroke="transparent" points="10,-267 10,-290 274,-290 274,-267 10,-267"/>
<polygon fill="none" stroke="#000000" points="10,-267 10,-290 274,-290 274,-267 10,-267"/>
<text text-anchor="start" x="15" y="-275.6" font-family="Helvetica,sans-Serif" font-weight="bold" font-size="11.00" fill="#000000">case_note_deleted</text>
<text text-anchor="start" x="239.0437" y="-275.1" font-family="Helvetica,sans-Serif" font-size="11.00" fill="#000000">[table]</text>
<polygon fill="#ffffff" stroke="transparent" points="10,-245 10,-267 165,-267 165,-245 10,-245"/>
<polygon fill="none" stroke="#000000" points="10,-245 10,-267 165,-267 165,-245 10,-245"/>
<text text-anchor="start" x="30" y="-252.1" font-family="Helvetica,sans-Serif" font-size="11.00" fill="#000000">person_identifier</text>
<polygon fill="none" stroke="#000000" points="165,-245 165,-267 274,-267 274,-245 165,-245"/>
<text text-anchor="start" x="167.5344" y="-252.7" font-family="Helvetica,sans-Serif" font-size="11.00" fill="#000000">varchar[2147483647]</text>
<polygon fill="none" stroke="#000000" points="10,-223 10,-245 165,-245 165,-223 10,-223"/>
<text text-anchor="start" x="30" y="-230.1" font-family="Helvetica,sans-Serif" font-size="11.00" fill="#000000">case_note_id</text>
<polygon fill="none" stroke="#000000" points="165,-223 165,-245 274,-245 274,-223 165,-223"/>
<text text-anchor="start" x="168" y="-230.7" font-family="Helvetica,sans-Serif" font-size="11.00" fill="#000000">uuid[2147483647]</text>
<polygon fill="#ffffff" stroke="transparent" points="10,-201 10,-223 165,-223 165,-201 10,-201"/>
<polygon fill="none" stroke="#000000" points="10,-201 10,-223 165,-223 165,-201 10,-201"/>
<text text-anchor="start" x="30" y="-208.1" font-family="Helvetica,sans-Serif" font-size="11.00" fill="#000000">legacy_id</text>
<polygon fill="none" stroke="#000000" points="165,-201 165,-223 274,-223 274,-201 165,-201"/>
<text text-anchor="start" x="168" y="-208.7" font-family="Helvetica,sans-Serif" font-size="11.00" fill="#000000">int8[19]</text>
<polygon fill="none" stroke="#000000" points="10,-179 10,-201 165,-201 165,-179 10,-179"/>
<text text-anchor="start" x="30" y="-186.1" font-family="Helvetica,sans-Serif" font-size="11.00" fill="#000000">case_note</text>
<polygon fill="none" stroke="#000000" points="165,-179 165,-201 274,-201 274,-179 165,-179"/>
<text text-anchor="start" x="168" y="-186.7" font-family="Helvetica,sans-Serif" font-size="11.00" fill="#000000">jsonb[2147483647]</text>
<polygon fill="none" stroke="#000000" points="10,-157 10,-179 165,-179 165,-157 10,-157"/>
<text text-anchor="start" x="30" y="-164.1" font-family="Helvetica,sans-Serif" font-size="11.00" fill="#000000">deleted_at</text>
<polygon fill="none" stroke="#000000" points="165,-157 165,-179 274,-179 274,-157 165,-157"/>
<text text-anchor="start" x="168" y="-164.7" font-family="Helvetica,sans-Serif" font-size="11.00" fill="#000000">timestamp[29,6]</text>
<polygon fill="none" stroke="#000000" points="10,-135 10,-157 165,-157 165,-135 10,-135"/>
<text text-anchor="start" x="30" y="-142.1" font-family="Helvetica,sans-Serif" font-size="11.00" fill="#000000">deleted_by</text>
<polygon fill="none" stroke="#000000" points="165,-135 165,-157 274,-157 274,-135 165,-135"/>
<text text-anchor="start" x="168" y="-142.7" font-family="Helvetica,sans-Serif" font-size="11.00" fill="#000000">varchar[64]</text>
<polygon fill="#ffffff" stroke="transparent" points="10,-113 10,-135 165,-135 165,-113 10,-113"/>
<polygon fill="none" stroke="#000000" points="10,-113 10,-135 165,-135 165,-113 10,-113"/>
<text text-anchor="start" x="30" y="-120.1" font-family="Helvetica,sans-Serif" font-size="11.00" fill="#000000">caseload_id</text>
<polygon fill="none" stroke="#000000" points="165,-113 165,-135 274,-135 274,-113 165,-113"/>
<text text-anchor="start" x="168" y="-120.7" font-family="Helvetica,sans-Serif" font-size="11.00" fill="#000000">varchar[12]</text>
<polygon fill="none" stroke="#000000" points="10,-91 10,-113 165,-113 165,-91 10,-91"/>
<text text-anchor="start" x="30" y="-98.1" font-family="Helvetica,sans-Serif" font-size="11.00" fill="#000000">system</text>
<polygon fill="none" stroke="#000000" points="165,-91 165,-113 274,-113 274,-91 165,-91"/>
<text text-anchor="start" x="168" y="-98.7" font-family="Helvetica,sans-Serif" font-size="11.00" fill="#000000">varchar[6]</text>
<polygon fill="#ffffff" stroke="transparent" points="10,-69 10,-91 165,-91 165,-69 10,-69"/>
<polygon fill="none" stroke="#000000" points="10,-69 10,-91 165,-91 165,-69 10,-69"/>
<text text-anchor="start" x="30" y="-76.1" font-family="Helvetica,sans-Serif" font-size="11.00" fill="#000000">cause</text>
<polygon fill="none" stroke="#000000" points="165,-69 165,-91 274,-91 274,-69 165,-69"/>
<text text-anchor="start" x="168" y="-76.7" font-family="Helvetica,sans-Serif" font-size="11.00" fill="#000000">varchar[6]</text>
<polygon fill="none" stroke="#000000" points="10,-47 10,-69 165,-69 165,-47 10,-47"/>
<image xlink:href="../../images/primaryKeys.png" width="11px" height="12px" preserveAspectRatio="xMinYMin meet" x="15" y="-64"/>
<text text-anchor="start" x="30" y="-54.1" font-family="Helvetica,sans-Serif" font-size="11.00" fill="#000000">id</text>
<polygon fill="none" stroke="#000000" points="165,-47 165,-69 274,-69 274,-47 165,-47"/>
<text text-anchor="start" x="168" y="-54.7" font-family="Helvetica,sans-Serif" font-size="11.00" fill="#000000">uuid[2147483647]</text>
<polygon fill="none" stroke="#000000" points="10,-25 10,-47 165,-47 165,-25 10,-25"/>
<text text-anchor="start" x="30" y="-32.1" font-family="Helvetica,sans-Serif" font-size="11.00" fill="#000000">reason</text>
<polygon fill="none" stroke="#000000" points="165,-25 165,-47 274,-47 274,-25 165,-25"/>
<text text-anchor="start" x="168" y="-32.7" font-family="Helvetica,sans-Serif" font-size="11.00" fill="#000000">text[2147483647]</text>
<polygon fill="#ffffff" stroke="transparent" points="10,-6 10,-25 274,-25 274,-6 10,-6"/>
<polygon fill="none" stroke="#000000" points="10,-6 10,-25 274,-25 274,-6 10,-6"/>
<polygon fill="#ffffff" stroke="transparent" points="11,-7 11,-24 102,-24 102,-7 11,-7"/>
<text text-anchor="start" x="13" y="-12.1" font-family="Helvetica,sans-Serif" font-size="11.00" fill="#000000">&lt; 0</text>
<polygon fill="#ffffff" stroke="transparent" points="102,-7 102,-24 183,-24 183,-7 102,-7"/>
<text text-anchor="start" x="139.4431" y="-12.1" font-family="Helvetica,sans-Serif" font-size="11.00" fill="#000000"> &#160;</text>
<polygon fill="#ffffff" stroke="transparent" points="183,-7 183,-24 273,-24 273,-7 183,-7"/>
<text text-anchor="start" x="255.4053" y="-12.1" font-family="Helvetica,sans-Serif" font-size="11.00" fill="#000000">0 &gt;</text>
<polygon fill="#000000" stroke="#000000" points="102,-7 102,-24 102,-24 102,-7 102,-7"/>
<polygon fill="#000000" stroke="#000000" points="183,-7 183,-24 183,-24 183,-7 183,-7"/>
<polygon fill="none" stroke="#000000" stroke-width="2" points="9,-5 9,-291 275,-291 275,-5 9,-5"/>
</a>
</g>
</g>
</g>
</svg>
