<?xml version="1.0" encoding="UTF-8" standalone="no"?>
<!DOCTYPE svg PUBLIC "-//W3C//DTD SVG 1.1//EN"
 "http://www.w3.org/Graphics/SVG/1.1/DTD/svg11.dtd">
<!-- Generated by graphviz version 2.40.1 (20161225.0304)
 -->
<!-- Title: largeImpliedRelationshipsDiagram Pages: 1 -->
<svg width="822pt" height="488pt"
 viewBox="0.00 0.00 822.00 488.20" xmlns="http://www.w3.org/2000/svg" xmlns:xlink="http://www.w3.org/1999/xlink">
<g id="graph0" class="graph" transform="scale(1 1) rotate(0) translate(4 484.2)">
<title>largeImpliedRelationshipsDiagram</title>
<polygon fill="#ffffff" stroke="transparent" points="-4,4 -4,-484.2 818,-484.2 818,4 -4,4"/>
<text text-anchor="middle" x="72.4936" y="-7.3" font-family="Helvetica,sans-Serif" font-size="11.00" fill="#000000">Generated by SchemaSpy</text>
<!-- case_note_amendment -->
<g id="node1" class="node">
<title>case_note_amendment</title>
<g id="a_node1"><a xlink:href="../../tables/case_note_amendment.html" xlink:title="case_note_amendment" target="_top">
<polygon fill="#ffffff" stroke="transparent" points="614,-236.2 614,-476.2 806,-476.2 806,-236.2 614,-236.2"/>
<polygon fill="#f5f5f5" stroke="transparent" points="614,-453.2 614,-476.2 806,-476.2 806,-453.2 614,-453.2"/>
<polygon fill="none" stroke="#000000" points="614,-453.2 614,-476.2 806,-476.2 806,-453.2 614,-453.2"/>
<text text-anchor="start" x="619" y="-461.8" font-family="Helvetica,sans-Serif" font-weight="bold" font-size="11.00" fill="#000000">case_note_amendment</text>
<text text-anchor="start" x="771.5219" y="-461.3" font-family="Helvetica,sans-Serif" font-size="11.00" fill="#000000">[table]</text>
<polygon fill="#ffffff" stroke="transparent" points="614,-431.2 614,-453.2 806,-453.2 806,-431.2 614,-431.2"/>
<polygon fill="none" stroke="#000000" points="614,-431.2 614,-453.2 806,-453.2 806,-431.2 614,-431.2"/>
<image xlink:href="../../images/foreignKeys.png" width="11px" height="12px" preserveAspectRatio="xMinYMin meet" x="619" y="-448.2"/>
<text text-anchor="start" x="643" y="-438.3" font-family="Helvetica,sans-Serif" font-size="11.00" fill="#000000">case_note_id</text>
<polygon fill="none" stroke="#000000" points="614,-409.2 614,-431.2 806,-431.2 806,-409.2 614,-409.2"/>
<text text-anchor="start" x="643" y="-416.3" font-family="Helvetica,sans-Serif" font-size="11.00" fill="#000000">author_username</text>
<polygon fill="none" stroke="#000000" points="614,-387.2 614,-409.2 806,-409.2 806,-387.2 614,-387.2"/>
<text text-anchor="start" x="643" y="-394.3" font-family="Helvetica,sans-Serif" font-size="11.00" fill="#000000">author_name</text>
<polygon fill="none" stroke="#000000" points="614,-365.2 614,-387.2 806,-387.2 806,-365.2 614,-365.2"/>
<text text-anchor="start" x="643" y="-372.3" font-family="Helvetica,sans-Serif" font-size="11.00" fill="#000000">note_text</text>
<polygon fill="#ffffff" stroke="transparent" points="614,-343.2 614,-365.2 806,-365.2 806,-343.2 614,-343.2"/>
<polygon fill="none" stroke="#000000" points="614,-343.2 614,-365.2 806,-365.2 806,-343.2 614,-343.2"/>
<text text-anchor="start" x="643" y="-350.3" font-family="Helvetica,sans-Serif" font-size="11.00" fill="#000000">created_at</text>
<polygon fill="none" stroke="#000000" points="614,-321.2 614,-343.2 806,-343.2 806,-321.2 614,-321.2"/>
<text text-anchor="start" x="643" y="-328.3" font-family="Helvetica,sans-Serif" font-size="11.00" fill="#000000">created_by</text>
<polygon fill="none" stroke="#000000" points="614,-299.2 614,-321.2 806,-321.2 806,-299.2 614,-299.2"/>
<text text-anchor="start" x="643" y="-306.3" font-family="Helvetica,sans-Serif" font-size="11.00" fill="#000000">author_user_id</text>
<polygon fill="none" stroke="#000000" points="614,-277.2 614,-299.2 806,-299.2 806,-277.2 614,-277.2"/>
<image xlink:href="../../images/primaryKeys.png" width="11px" height="12px" preserveAspectRatio="xMinYMin meet" x="619" y="-294.2"/>
<text text-anchor="start" x="643" y="-284.3" font-family="Helvetica,sans-Serif" font-size="11.00" fill="#000000">id</text>
<polygon fill="none" stroke="#000000" points="614,-255.2 614,-277.2 806,-277.2 806,-255.2 614,-255.2"/>
<text text-anchor="start" x="643" y="-262.3" font-family="Helvetica,sans-Serif" font-size="11.00" fill="#000000">system</text>
<polygon fill="#ffffff" stroke="transparent" points="614,-236.2 614,-255.2 708,-255.2 708,-236.2 614,-236.2"/>
<polygon fill="none" stroke="#000000" points="614,-236.2 614,-255.2 708,-255.2 708,-236.2 614,-236.2"/>
<text text-anchor="start" x="617" y="-242.3" font-family="Helvetica,sans-Serif" font-size="11.00" fill="#000000">&lt; 1</text>
<polygon fill="#ffffff" stroke="transparent" points="708,-236.2 708,-255.2 757,-255.2 757,-236.2 708,-236.2"/>
<polygon fill="none" stroke="#000000" points="708,-236.2 708,-255.2 757,-255.2 757,-236.2 708,-236.2"/>
<text text-anchor="start" x="747.8862" y="-242.3" font-family="Helvetica,sans-Serif" font-size="11.00" fill="#000000"> &#160;</text>
<polygon fill="#ffffff" stroke="transparent" points="757,-236.2 757,-255.2 806,-255.2 806,-236.2 757,-236.2"/>
<polygon fill="none" stroke="#000000" points="757,-236.2 757,-255.2 806,-255.2 806,-236.2 757,-236.2"/>
<text text-anchor="start" x="796.8862" y="-242.3" font-family="Helvetica,sans-Serif" font-size="11.00" fill="#000000"> &#160;</text>
</a>
</g>
</g>
<!-- case_note -->
<g id="node3" class="node">
<title>case_note</title>
<g id="a_node3"><a xlink:href="../../tables/case_note.html" xlink:title="case_note" target="_top">
<polygon fill="#ffffff" stroke="transparent" points="420,-126.2 420,-476.2 565,-476.2 565,-126.2 420,-126.2"/>
<polygon fill="#f5f5f5" stroke="transparent" points="420.5,-453.2 420.5,-476.2 565.5,-476.2 565.5,-453.2 420.5,-453.2"/>
<polygon fill="none" stroke="#000000" points="420.5,-453.2 420.5,-476.2 565.5,-476.2 565.5,-453.2 420.5,-453.2"/>
<text text-anchor="start" x="425.5" y="-461.8" font-family="Helvetica,sans-Serif" font-weight="bold" font-size="11.00" fill="#000000">case_note</text>
<text text-anchor="start" x="530.5437" y="-461.3" font-family="Helvetica,sans-Serif" font-size="11.00" fill="#000000">[table]</text>
<polygon fill="none" stroke="#000000" points="420.5,-431.2 420.5,-453.2 565.5,-453.2 565.5,-431.2 420.5,-431.2"/>
<image xlink:href="../../images/primaryKeys.png" width="11px" height="12px" preserveAspectRatio="xMinYMin meet" x="425.5" y="-448.2"/>
<text text-anchor="start" x="440.5" y="-438.3" font-family="Helvetica,sans-Serif" font-size="11.00" fill="#000000">id</text>
<polygon fill="#ffffff" stroke="transparent" points="420.5,-409.2 420.5,-431.2 565.5,-431.2 565.5,-409.2 420.5,-409.2"/>
<polygon fill="none" stroke="#000000" points="420.5,-409.2 420.5,-431.2 565.5,-431.2 565.5,-409.2 420.5,-409.2"/>
<text text-anchor="start" x="440.5" y="-416.3" font-family="Helvetica,sans-Serif" font-size="11.00" fill="#000000">person_identifier</text>
<polygon fill="#ffffff" stroke="transparent" points="420.5,-387.2 420.5,-409.2 565.5,-409.2 565.5,-387.2 420.5,-387.2"/>
<polygon fill="none" stroke="#000000" points="420.5,-387.2 420.5,-409.2 565.5,-409.2 565.5,-387.2 420.5,-387.2"/>
<text text-anchor="start" x="440.5" y="-394.3" font-family="Helvetica,sans-Serif" font-size="11.00" fill="#000000">location_id</text>
<polygon fill="#ffffff" stroke="transparent" points="420.5,-365.2 420.5,-387.2 565.5,-387.2 565.5,-365.2 420.5,-365.2"/>
<polygon fill="none" stroke="#000000" points="420.5,-365.2 420.5,-387.2 565.5,-387.2 565.5,-365.2 420.5,-365.2"/>
<text text-anchor="start" x="440.5" y="-372.3" font-family="Helvetica,sans-Serif" font-size="11.00" fill="#000000">author_username</text>
<polygon fill="none" stroke="#000000" points="420.5,-343.2 420.5,-365.2 565.5,-365.2 565.5,-343.2 420.5,-343.2"/>
<text text-anchor="start" x="440.5" y="-350.3" font-family="Helvetica,sans-Serif" font-size="11.00" fill="#000000">author_name</text>
<polygon fill="#ffffff" stroke="transparent" points="420.5,-321.2 420.5,-343.2 565.5,-343.2 565.5,-321.2 420.5,-321.2"/>
<polygon fill="none" stroke="#000000" points="420.5,-321.2 420.5,-343.2 565.5,-343.2 565.5,-321.2 420.5,-321.2"/>
<image xlink:href="../../images/foreignKeys.png" width="11px" height="12px" preserveAspectRatio="xMinYMin meet" x="425.5" y="-338.2"/>
<text text-anchor="start" x="440.5" y="-328.3" font-family="Helvetica,sans-Serif" font-size="11.00" fill="#000000">sub_type_id</text>
<polygon fill="#ffffff" stroke="transparent" points="420.5,-299.2 420.5,-321.2 565.5,-321.2 565.5,-299.2 420.5,-299.2"/>
<polygon fill="none" stroke="#000000" points="420.5,-299.2 420.5,-321.2 565.5,-321.2 565.5,-299.2 420.5,-299.2"/>
<text text-anchor="start" x="440.5" y="-306.3" font-family="Helvetica,sans-Serif" font-size="11.00" fill="#000000">occurred_at</text>
<polygon fill="none" stroke="#000000" points="420.5,-277.2 420.5,-299.2 565.5,-299.2 565.5,-277.2 420.5,-277.2"/>
<text text-anchor="start" x="440.5" y="-284.3" font-family="Helvetica,sans-Serif" font-size="11.00" fill="#000000">note_text</text>
<polygon fill="#ffffff" stroke="transparent" points="420.5,-255.2 420.5,-277.2 565.5,-277.2 565.5,-255.2 420.5,-255.2"/>
<polygon fill="none" stroke="#000000" points="420.5,-255.2 420.5,-277.2 565.5,-277.2 565.5,-255.2 420.5,-255.2"/>
<text text-anchor="start" x="440.5" y="-262.3" font-family="Helvetica,sans-Serif" font-size="11.00" fill="#000000">created_at</text>
<polygon fill="none" stroke="#000000" points="420.5,-233.2 420.5,-255.2 565.5,-255.2 565.5,-233.2 420.5,-233.2"/>
<text text-anchor="start" x="440.5" y="-240.3" font-family="Helvetica,sans-Serif" font-size="11.00" fill="#000000">created_by</text>
<polygon fill="#ffffff" stroke="transparent" points="420.5,-211.2 420.5,-233.2 565.5,-233.2 565.5,-211.2 420.5,-211.2"/>
<polygon fill="none" stroke="#000000" points="420.5,-211.2 420.5,-233.2 565.5,-233.2 565.5,-211.2 420.5,-211.2"/>
<text text-anchor="start" x="440.5" y="-218.3" font-family="Helvetica,sans-Serif" font-size="11.00" fill="#000000">legacy_id</text>
<polygon fill="#ffffff" stroke="transparent" points="420.5,-189.2 420.5,-211.2 565.5,-211.2 565.5,-189.2 420.5,-189.2"/>
<polygon fill="none" stroke="#000000" points="420.5,-189.2 420.5,-211.2 565.5,-211.2 565.5,-189.2 420.5,-189.2"/>
<text text-anchor="start" x="440.5" y="-196.3" font-family="Helvetica,sans-Serif" font-size="11.00" fill="#000000">author_user_id</text>
<polygon fill="none" stroke="#000000" points="420.5,-167.2 420.5,-189.2 565.5,-189.2 565.5,-167.2 420.5,-167.2"/>
<text text-anchor="start" x="440.5" y="-174.3" font-family="Helvetica,sans-Serif" font-size="11.00" fill="#000000">system_generated</text>
<polygon fill="none" stroke="#000000" points="420.5,-145.2 420.5,-167.2 565.5,-167.2 565.5,-145.2 420.5,-145.2"/>
<text text-anchor="start" x="440.5" y="-152.3" font-family="Helvetica,sans-Serif" font-size="11.00" fill="#000000">system</text>
<polygon fill="#ffffff" stroke="transparent" points="420.5,-126.2 420.5,-145.2 486.5,-145.2 486.5,-126.2 420.5,-126.2"/>
<polygon fill="none" stroke="#000000" points="420.5,-126.2 420.5,-145.2 486.5,-145.2 486.5,-126.2 420.5,-126.2"/>
<text text-anchor="start" x="423.5" y="-132.3" font-family="Helvetica,sans-Serif" font-size="11.00" fill="#000000">&lt; 1</text>
<polygon fill="#ffffff" stroke="transparent" points="486.5,-126.2 486.5,-145.2 521.5,-145.2 521.5,-126.2 486.5,-126.2"/>
<polygon fill="none" stroke="#000000" points="486.5,-126.2 486.5,-145.2 521.5,-145.2 521.5,-126.2 486.5,-126.2"/>
<text text-anchor="start" x="512.3862" y="-132.3" font-family="Helvetica,sans-Serif" font-size="11.00" fill="#000000"> &#160;</text>
<polygon fill="#ffffff" stroke="transparent" points="521.5,-126.2 521.5,-145.2 565.5,-145.2 565.5,-126.2 521.5,-126.2"/>
<polygon fill="none" stroke="#000000" points="521.5,-126.2 521.5,-145.2 565.5,-145.2 565.5,-126.2 521.5,-126.2"/>
<text text-anchor="start" x="546.9053" y="-132.3" font-family="Helvetica,sans-Serif" font-size="11.00" fill="#000000">1 &gt;</text>
</a>
</g>
</g>
<!-- case_note_amendment&#45;&gt;case_note -->
<g id="edge2" class="edge">
<title>case_note_amendment:w&#45;&gt;case_note:e</title>
<path fill="none" stroke="#000000" d="M599.2829,-442.2C588.2886,-442.2 581.1615,-442.2 565.5,-442.2"/>
<polygon fill="#000000" stroke="#000000" points="606,-442.2001 614,-445.8 610,-442.2 614,-442.2 614,-442.2 614,-442.2 610,-442.2 614,-438.6 606,-442.2001 606,-442.2001"/>
<ellipse fill="none" stroke="#000000" cx="602.8" cy="-442.2001" rx="3.2" ry="3.2"/>
</g>
<!-- case_note_type -->
<g id="node2" class="node">
<title>case_note_type</title>
<g id="a_node2"><a xlink:href="../../tables/case_note_type.html" xlink:title="case_note_type" target="_top">
<polygon fill="#ffffff" stroke="transparent" points="8,-159.2 8,-333.2 150,-333.2 150,-159.2 8,-159.2"/>
<polygon fill="#f5f5f5" stroke="transparent" points="8,-310.2 8,-333.2 150,-333.2 150,-310.2 8,-310.2"/>
<polygon fill="none" stroke="#000000" points="8,-310.2 8,-333.2 150,-333.2 150,-310.2 8,-310.2"/>
<text text-anchor="start" x="13" y="-318.8" font-family="Helvetica,sans-Serif" font-weight="bold" font-size="11.00" fill="#000000">case_note_type</text>
<text text-anchor="start" x="115.5219" y="-318.3" font-family="Helvetica,sans-Serif" font-size="11.00" fill="#000000">[table]</text>
<polygon fill="none" stroke="#000000" points="8,-288.2 8,-310.2 150,-310.2 150,-288.2 8,-288.2"/>
<image xlink:href="../../images/primaryKeys.png" width="11px" height="12px" preserveAspectRatio="xMinYMin meet" x="13" y="-305.2"/>
<text text-anchor="start" x="32" y="-295.3" font-family="Helvetica,sans-Serif" font-size="11.00" fill="#000000">code</text>
<polygon fill="none" stroke="#000000" points="8,-266.2 8,-288.2 150,-288.2 150,-266.2 8,-266.2"/>
<text text-anchor="start" x="32" y="-273.3" font-family="Helvetica,sans-Serif" font-size="11.00" fill="#000000">description</text>
<polygon fill="none" stroke="#000000" points="8,-244.2 8,-266.2 150,-266.2 150,-244.2 8,-244.2"/>
<text text-anchor="start" x="32" y="-251.3" font-family="Helvetica,sans-Serif" font-size="11.00" fill="#000000">created_at</text>
<polygon fill="none" stroke="#000000" points="8,-222.2 8,-244.2 150,-244.2 150,-222.2 8,-222.2"/>
<text text-anchor="start" x="32" y="-229.3" font-family="Helvetica,sans-Serif" font-size="11.00" fill="#000000">created_by</text>
<polygon fill="none" stroke="#000000" points="8,-200.2 8,-222.2 150,-222.2 150,-200.2 8,-200.2"/>
<text text-anchor="start" x="32" y="-207.3" font-family="Helvetica,sans-Serif" font-size="11.00" fill="#000000">last_modified_at</text>
<polygon fill="none" stroke="#000000" points="8,-178.2 8,-200.2 150,-200.2 150,-178.2 8,-178.2"/>
<text text-anchor="start" x="32" y="-185.3" font-family="Helvetica,sans-Serif" font-size="11.00" fill="#000000">last_modified_by</text>
<polygon fill="#ffffff" stroke="transparent" points="8,-159.2 8,-178.2 68,-178.2 68,-159.2 8,-159.2"/>
<polygon fill="none" stroke="#000000" points="8,-159.2 8,-178.2 68,-178.2 68,-159.2 8,-159.2"/>
<text text-anchor="start" x="11" y="-165.3" font-family="Helvetica,sans-Serif" font-size="11.00" fill="#000000"> &#160;</text>
<polygon fill="#ffffff" stroke="transparent" points="68,-159.2 68,-178.2 104,-178.2 104,-159.2 68,-159.2"/>
<polygon fill="none" stroke="#000000" points="68,-159.2 68,-178.2 104,-178.2 104,-159.2 68,-159.2"/>
<text text-anchor="start" x="94.8862" y="-165.3" font-family="Helvetica,sans-Serif" font-size="11.00" fill="#000000"> &#160;</text>
<polygon fill="#ffffff" stroke="transparent" points="104,-159.2 104,-178.2 150,-178.2 150,-159.2 104,-159.2"/>
<polygon fill="none" stroke="#000000" points="104,-159.2 104,-178.2 150,-178.2 150,-159.2 104,-159.2"/>
<text text-anchor="start" x="131.4053" y="-165.3" font-family="Helvetica,sans-Serif" font-size="11.00" fill="#000000">1 &gt;</text>
</a>
</g>
</g>
<!-- case_note_sub_type -->
<g id="node4" class="node">
<title>case_note_sub_type</title>
<g id="a_node4"><a xlink:href="../../tables/case_note_sub_type.html" xlink:title="case_note_sub_type" target="_top">
<polygon fill="#ffffff" stroke="transparent" points="199,-38.2 199,-366.2 371,-366.2 371,-38.2 199,-38.2"/>
<polygon fill="#f5f5f5" stroke="transparent" points="199,-343.2 199,-366.2 371,-366.2 371,-343.2 199,-343.2"/>
<polygon fill="none" stroke="#000000" points="199,-343.2 199,-366.2 371,-366.2 371,-343.2 199,-343.2"/>
<text text-anchor="start" x="204" y="-351.8" font-family="Helvetica,sans-Serif" font-weight="bold" font-size="11.00" fill="#000000">case_note_sub_type</text>
<text text-anchor="start" x="336.5219" y="-351.3" font-family="Helvetica,sans-Serif" font-size="11.00" fill="#000000">[table]</text>
<polygon fill="none" stroke="#000000" points="199,-321.2 199,-343.2 371,-343.2 371,-321.2 199,-321.2"/>
<image xlink:href="../../images/primaryKeys.png" width="11px" height="12px" preserveAspectRatio="xMinYMin meet" x="204" y="-338.2"/>
<text text-anchor="start" x="227" y="-328.3" font-family="Helvetica,sans-Serif" font-size="11.00" fill="#000000">id</text>
<polygon fill="#ffffff" stroke="transparent" points="199,-299.2 199,-321.2 371,-321.2 371,-299.2 199,-299.2"/>
<polygon fill="none" stroke="#000000" points="199,-299.2 199,-321.2 371,-321.2 371,-299.2 199,-299.2"/>
<image xlink:href="../../images/foreignKeys.png" width="11px" height="12px" preserveAspectRatio="xMinYMin meet" x="204" y="-316.2"/>
<text text-anchor="start" x="227" y="-306.3" font-family="Helvetica,sans-Serif" font-size="11.00" fill="#000000">type_code</text>
<polygon fill="#ffffff" stroke="transparent" points="199,-277.2 199,-299.2 371,-299.2 371,-277.2 199,-277.2"/>
<polygon fill="none" stroke="#000000" points="199,-277.2 199,-299.2 371,-299.2 371,-277.2 199,-277.2"/>
<image xlink:href="../../images/foreignKeys.png" width="11px" height="12px" preserveAspectRatio="xMinYMin meet" x="204" y="-294.2"/>
<text text-anchor="start" x="227" y="-284.3" font-family="Helvetica,sans-Serif" font-size="11.00" fill="#000000">code</text>
<polygon fill="none" stroke="#000000" points="199,-255.2 199,-277.2 371,-277.2 371,-255.2 199,-255.2"/>
<text text-anchor="start" x="227" y="-262.3" font-family="Helvetica,sans-Serif" font-size="11.00" fill="#000000">description</text>
<polygon fill="none" stroke="#000000" points="199,-233.2 199,-255.2 371,-255.2 371,-233.2 199,-233.2"/>
<text text-anchor="start" x="227" y="-240.3" font-family="Helvetica,sans-Serif" font-size="11.00" fill="#000000">active</text>
<polygon fill="none" stroke="#000000" points="199,-211.2 199,-233.2 371,-233.2 371,-211.2 199,-211.2"/>
<text text-anchor="start" x="227" y="-218.3" font-family="Helvetica,sans-Serif" font-size="11.00" fill="#000000">created_at</text>
<polygon fill="none" stroke="#000000" points="199,-189.2 199,-211.2 371,-211.2 371,-189.2 199,-189.2"/>
<text text-anchor="start" x="227" y="-196.3" font-family="Helvetica,sans-Serif" font-size="11.00" fill="#000000">created_by</text>
<polygon fill="none" stroke="#000000" points="199,-167.2 199,-189.2 371,-189.2 371,-167.2 199,-167.2"/>
<text text-anchor="start" x="227" y="-174.3" font-family="Helvetica,sans-Serif" font-size="11.00" fill="#000000">last_modified_at</text>
<polygon fill="none" stroke="#000000" points="199,-145.2 199,-167.2 371,-167.2 371,-145.2 199,-145.2"/>
<text text-anchor="start" x="227" y="-152.3" font-family="Helvetica,sans-Serif" font-size="11.00" fill="#000000">last_modified_by</text>
<polygon fill="none" stroke="#000000" points="199,-123.2 199,-145.2 371,-145.2 371,-123.2 199,-123.2"/>
<text text-anchor="start" x="227" y="-130.3" font-family="Helvetica,sans-Serif" font-size="11.00" fill="#000000">sensitive</text>
<polygon fill="none" stroke="#000000" points="199,-101.2 199,-123.2 371,-123.2 371,-101.2 199,-101.2"/>
<text text-anchor="start" x="227" y="-108.3" font-family="Helvetica,sans-Serif" font-size="11.00" fill="#000000">restricted_use</text>
<polygon fill="#ffffff" stroke="transparent" points="199,-79.2 199,-101.2 371,-101.2 371,-79.2 199,-79.2"/>
<polygon fill="none" stroke="#000000" points="199,-79.2 199,-101.2 371,-101.2 371,-79.2 199,-79.2"/>
<text text-anchor="start" x="227" y="-86.3" font-family="Helvetica,sans-Serif" font-size="11.00" fill="#000000">sync_to_nomis</text>
<polygon fill="none" stroke="#000000" points="199,-57.2 199,-79.2 371,-79.2 371,-57.2 199,-57.2"/>
<text text-anchor="start" x="227" y="-64.3" font-family="Helvetica,sans-Serif" font-size="11.00" fill="#000000">dps_user_selectable</text>
<polygon fill="#ffffff" stroke="transparent" points="199,-38.2 199,-57.2 260,-57.2 260,-38.2 199,-38.2"/>
<polygon fill="none" stroke="#000000" points="199,-38.2 199,-57.2 260,-57.2 260,-38.2 199,-38.2"/>
<text text-anchor="start" x="202" y="-44.3" font-family="Helvetica,sans-Serif" font-size="11.00" fill="#000000">&lt; 1</text>
<polygon fill="#ffffff" stroke="transparent" points="260,-38.2 260,-57.2 330,-57.2 330,-38.2 260,-38.2"/>
<polygon fill="none" stroke="#000000" points="260,-38.2 260,-57.2 330,-57.2 330,-38.2 260,-38.2"/>
<text text-anchor="start" x="282.3807" y="-44.3" font-family="Helvetica,sans-Serif" font-size="11.00" fill="#000000">386 rows</text>
<polygon fill="#ffffff" stroke="transparent" points="330,-38.2 330,-57.2 371,-57.2 371,-38.2 330,-38.2"/>
<polygon fill="none" stroke="#000000" points="330,-38.2 330,-57.2 371,-57.2 371,-38.2 330,-38.2"/>
<text text-anchor="start" x="352.4053" y="-44.3" font-family="Helvetica,sans-Serif" font-size="11.00" fill="#000000">1 &gt;</text>
</a>
</g>
</g>
<!-- case_note&#45;&gt;case_note_sub_type -->
<g id="edge1" class="edge">
<title>case_note:w&#45;&gt;case_note_sub_type:e</title>
<path fill="none" stroke="#000000" d="M405.8428,-332.2C394.4139,-332.2 387.1563,-332.2 371,-332.2"/>
<polygon fill="#000000" stroke="#000000" points="412.5,-332.2001 420.5,-335.8 416.5,-332.2 420.5,-332.2 420.5,-332.2 420.5,-332.2 416.5,-332.2 420.5,-328.6 412.5,-332.2001 412.5,-332.2001"/>
<ellipse fill="none" stroke="#000000" cx="409.3" cy="-332.2001" rx="3.2" ry="3.2"/>
</g>
<!-- case_note_sub_type&#45;&gt;case_note_type -->
<g id="edge3" class="edge">
<title>case_note_sub_type:w&#45;&gt;case_note_type:e</title>
<path fill="none" stroke="#000000" stroke-dasharray="5,2" d="M184.7027,-290.0164C173.2382,-293.1407 166.5655,-299.2 150,-299.2"/>
<polygon fill="#000000" stroke="#000000" points="191.0638,-289.2083 199.4537,-291.7713 195.0319,-288.7042 199,-288.2 199,-288.2 199,-288.2 195.0319,-288.7042 198.5463,-284.6287 191.0638,-289.2083 191.0638,-289.2083"/>
<ellipse fill="none" stroke="#000000" cx="187.8893" cy="-289.6116" rx="3.2" ry="3.2"/>
</g>
<!-- case_note_sub_type&#45;&gt;case_note_type -->
<g id="edge4" class="edge">
<title>case_note_sub_type:w&#45;&gt;case_note_type:e</title>
<path fill="none" stroke="#000000" d="M184.7027,-308.3836C173.2382,-305.2593 166.5655,-299.2 150,-299.2"/>
<polygon fill="#000000" stroke="#000000" points="191.0638,-309.1917 198.5463,-313.7713 195.0319,-309.6958 199,-310.2 199,-310.2 199,-310.2 195.0319,-309.6958 199.4537,-306.6287 191.0638,-309.1917 191.0638,-309.1917"/>
<ellipse fill="none" stroke="#000000" cx="187.8893" cy="-308.7884" rx="3.2" ry="3.2"/>
</g>
</g>
</svg>
