<?xml version="1.0" encoding="UTF-8" standalone="no"?>
<!DOCTYPE svg PUBLIC "-//W3C//DTD SVG 1.1//EN"
 "http://www.w3.org/Graphics/SVG/1.1/DTD/svg11.dtd">
<!-- Generated by graphviz version 2.40.1 (20161225.0304)
 -->
<!-- Title: compactImpliedRelationshipsDiagram Pages: 1 -->
<svg width="822pt" height="309pt"
 viewBox="0.00 0.00 822.00 309.20" xmlns="http://www.w3.org/2000/svg" xmlns:xlink="http://www.w3.org/1999/xlink">
<g id="graph0" class="graph" transform="scale(1 1) rotate(0) translate(4 305.2)">
<title>compactImpliedRelationshipsDiagram</title>
<polygon fill="#ffffff" stroke="transparent" points="-4,4 -4,-305.2 818,-305.2 818,4 -4,4"/>
<text text-anchor="middle" x="72.4936" y="-7.3" font-family="Helvetica,sans-Serif" font-size="11.00" fill="#000000">Generated by SchemaSpy</text>
<!-- case_note_amendment -->
<g id="node1" class="node">
<title>case_note_amendment</title>
<g id="a_node1"><a xlink:href="../../tables/case_note_amendment.html" xlink:title="case_note_amendment" target="_top">
<polygon fill="#ffffff" stroke="transparent" points="614,-170.2 614,-297.2 806,-297.2 806,-170.2 614,-170.2"/>
<polygon fill="#f5f5f5" stroke="transparent" points="614,-273.7 614,-296.7 806,-296.7 806,-273.7 614,-273.7"/>
<polygon fill="none" stroke="#000000" points="614,-273.7 614,-296.7 806,-296.7 806,-273.7 614,-273.7"/>
<text text-anchor="start" x="619" y="-282.3" font-family="Helvetica,sans-Serif" font-weight="bold" font-size="11.00" fill="#000000">case_note_amendment</text>
<text text-anchor="start" x="771.5219" y="-281.8" font-family="Helvetica,sans-Serif" font-size="11.00" fill="#000000">[table]</text>
<polygon fill="#ffffff" stroke="transparent" points="614,-251.7 614,-273.7 806,-273.7 806,-251.7 614,-251.7"/>
<polygon fill="none" stroke="#000000" points="614,-251.7 614,-273.7 806,-273.7 806,-251.7 614,-251.7"/>
<image xlink:href="../../images/foreignKeys.png" width="11px" height="12px" preserveAspectRatio="xMinYMin meet" x="619" y="-268.7"/>
<text text-anchor="start" x="643" y="-258.8" font-family="Helvetica,sans-Serif" font-size="11.00" fill="#000000">case_note_id</text>
<polygon fill="#ffffff" stroke="transparent" points="614,-229.7 614,-251.7 806,-251.7 806,-229.7 614,-229.7"/>
<polygon fill="none" stroke="#000000" points="614,-229.7 614,-251.7 806,-251.7 806,-229.7 614,-229.7"/>
<text text-anchor="start" x="643" y="-236.8" font-family="Helvetica,sans-Serif" font-size="11.00" fill="#000000">created_at</text>
<polygon fill="none" stroke="#000000" points="614,-207.7 614,-229.7 806,-229.7 806,-207.7 614,-207.7"/>
<image xlink:href="../../images/primaryKeys.png" width="11px" height="12px" preserveAspectRatio="xMinYMin meet" x="619" y="-224.7"/>
<text text-anchor="start" x="643" y="-214.8" font-family="Helvetica,sans-Serif" font-size="11.00" fill="#000000">id</text>
<polygon fill="none" stroke="#000000" points="614,-188.7 614,-207.7 806,-207.7 806,-188.7 614,-188.7"/>
<text text-anchor="start" x="617" y="-194.8" font-family="Helvetica,sans-Serif" font-size="11.00" fill="#000000">...</text>
<polygon fill="#ffffff" stroke="transparent" points="614,-169.7 614,-188.7 708,-188.7 708,-169.7 614,-169.7"/>
<polygon fill="none" stroke="#000000" points="614,-169.7 614,-188.7 708,-188.7 708,-169.7 614,-169.7"/>
<text text-anchor="start" x="617" y="-175.8" font-family="Helvetica,sans-Serif" font-size="11.00" fill="#000000">&lt; 1</text>
<polygon fill="#ffffff" stroke="transparent" points="708,-169.7 708,-188.7 757,-188.7 757,-169.7 708,-169.7"/>
<polygon fill="none" stroke="#000000" points="708,-169.7 708,-188.7 757,-188.7 757,-169.7 708,-169.7"/>
<text text-anchor="start" x="747.8862" y="-175.8" font-family="Helvetica,sans-Serif" font-size="11.00" fill="#000000"> &#160;</text>
<polygon fill="#ffffff" stroke="transparent" points="757,-169.7 757,-188.7 806,-188.7 806,-169.7 757,-169.7"/>
<polygon fill="none" stroke="#000000" points="757,-169.7 757,-188.7 806,-188.7 806,-169.7 757,-169.7"/>
<text text-anchor="start" x="796.8862" y="-175.8" font-family="Helvetica,sans-Serif" font-size="11.00" fill="#000000"> &#160;</text>
</a>
</g>
</g>
<!-- case_note -->
<g id="node3" class="node">
<title>case_note</title>
<g id="a_node3"><a xlink:href="../../tables/case_note.html" xlink:title="case_note" target="_top">
<polygon fill="#ffffff" stroke="transparent" points="420,-38.2 420,-297.2 565,-297.2 565,-38.2 420,-38.2"/>
<polygon fill="#f5f5f5" stroke="transparent" points="420.5,-273.7 420.5,-296.7 565.5,-296.7 565.5,-273.7 420.5,-273.7"/>
<polygon fill="none" stroke="#000000" points="420.5,-273.7 420.5,-296.7 565.5,-296.7 565.5,-273.7 420.5,-273.7"/>
<text text-anchor="start" x="425.5" y="-282.3" font-family="Helvetica,sans-Serif" font-weight="bold" font-size="11.00" fill="#000000">case_note</text>
<text text-anchor="start" x="530.5437" y="-281.8" font-family="Helvetica,sans-Serif" font-size="11.00" fill="#000000">[table]</text>
<polygon fill="none" stroke="#000000" points="420.5,-251.7 420.5,-273.7 565.5,-273.7 565.5,-251.7 420.5,-251.7"/>
<image xlink:href="../../images/primaryKeys.png" width="11px" height="12px" preserveAspectRatio="xMinYMin meet" x="425.5" y="-268.7"/>
<text text-anchor="start" x="440.5" y="-258.8" font-family="Helvetica,sans-Serif" font-size="11.00" fill="#000000">id</text>
<polygon fill="#ffffff" stroke="transparent" points="420.5,-229.7 420.5,-251.7 565.5,-251.7 565.5,-229.7 420.5,-229.7"/>
<polygon fill="none" stroke="#000000" points="420.5,-229.7 420.5,-251.7 565.5,-251.7 565.5,-229.7 420.5,-229.7"/>
<text text-anchor="start" x="440.5" y="-236.8" font-family="Helvetica,sans-Serif" font-size="11.00" fill="#000000">person_identifier</text>
<polygon fill="#ffffff" stroke="transparent" points="420.5,-207.7 420.5,-229.7 565.5,-229.7 565.5,-207.7 420.5,-207.7"/>
<polygon fill="none" stroke="#000000" points="420.5,-207.7 420.5,-229.7 565.5,-229.7 565.5,-207.7 420.5,-207.7"/>
<text text-anchor="start" x="440.5" y="-214.8" font-family="Helvetica,sans-Serif" font-size="11.00" fill="#000000">location_id</text>
<polygon fill="#ffffff" stroke="transparent" points="420.5,-185.7 420.5,-207.7 565.5,-207.7 565.5,-185.7 420.5,-185.7"/>
<polygon fill="none" stroke="#000000" points="420.5,-185.7 420.5,-207.7 565.5,-207.7 565.5,-185.7 420.5,-185.7"/>
<text text-anchor="start" x="440.5" y="-192.8" font-family="Helvetica,sans-Serif" font-size="11.00" fill="#000000">author_username</text>
<polygon fill="#ffffff" stroke="transparent" points="420.5,-163.7 420.5,-185.7 565.5,-185.7 565.5,-163.7 420.5,-163.7"/>
<polygon fill="none" stroke="#000000" points="420.5,-163.7 420.5,-185.7 565.5,-185.7 565.5,-163.7 420.5,-163.7"/>
<image xlink:href="../../images/foreignKeys.png" width="11px" height="12px" preserveAspectRatio="xMinYMin meet" x="425.5" y="-180.7"/>
<text text-anchor="start" x="440.5" y="-170.8" font-family="Helvetica,sans-Serif" font-size="11.00" fill="#000000">sub_type_id</text>
<polygon fill="#ffffff" stroke="transparent" points="420.5,-141.7 420.5,-163.7 565.5,-163.7 565.5,-141.7 420.5,-141.7"/>
<polygon fill="none" stroke="#000000" points="420.5,-141.7 420.5,-163.7 565.5,-163.7 565.5,-141.7 420.5,-141.7"/>
<text text-anchor="start" x="440.5" y="-148.8" font-family="Helvetica,sans-Serif" font-size="11.00" fill="#000000">occurred_at</text>
<polygon fill="#ffffff" stroke="transparent" points="420.5,-119.7 420.5,-141.7 565.5,-141.7 565.5,-119.7 420.5,-119.7"/>
<polygon fill="none" stroke="#000000" points="420.5,-119.7 420.5,-141.7 565.5,-141.7 565.5,-119.7 420.5,-119.7"/>
<text text-anchor="start" x="440.5" y="-126.8" font-family="Helvetica,sans-Serif" font-size="11.00" fill="#000000">created_at</text>
<polygon fill="#ffffff" stroke="transparent" points="420.5,-97.7 420.5,-119.7 565.5,-119.7 565.5,-97.7 420.5,-97.7"/>
<polygon fill="none" stroke="#000000" points="420.5,-97.7 420.5,-119.7 565.5,-119.7 565.5,-97.7 420.5,-97.7"/>
<text text-anchor="start" x="440.5" y="-104.8" font-family="Helvetica,sans-Serif" font-size="11.00" fill="#000000">legacy_id</text>
<polygon fill="#ffffff" stroke="transparent" points="420.5,-75.7 420.5,-97.7 565.5,-97.7 565.5,-75.7 420.5,-75.7"/>
<polygon fill="none" stroke="#000000" points="420.5,-75.7 420.5,-97.7 565.5,-97.7 565.5,-75.7 420.5,-75.7"/>
<text text-anchor="start" x="440.5" y="-82.8" font-family="Helvetica,sans-Serif" font-size="11.00" fill="#000000">author_user_id</text>
<polygon fill="none" stroke="#000000" points="420.5,-56.7 420.5,-75.7 565.5,-75.7 565.5,-56.7 420.5,-56.7"/>
<text text-anchor="start" x="423.5" y="-62.8" font-family="Helvetica,sans-Serif" font-size="11.00" fill="#000000">...</text>
<polygon fill="#ffffff" stroke="transparent" points="420.5,-37.7 420.5,-56.7 486.5,-56.7 486.5,-37.7 420.5,-37.7"/>
<polygon fill="none" stroke="#000000" points="420.5,-37.7 420.5,-56.7 486.5,-56.7 486.5,-37.7 420.5,-37.7"/>
<text text-anchor="start" x="423.5" y="-43.8" font-family="Helvetica,sans-Serif" font-size="11.00" fill="#000000">&lt; 1</text>
<polygon fill="#ffffff" stroke="transparent" points="486.5,-37.7 486.5,-56.7 521.5,-56.7 521.5,-37.7 486.5,-37.7"/>
<polygon fill="none" stroke="#000000" points="486.5,-37.7 486.5,-56.7 521.5,-56.7 521.5,-37.7 486.5,-37.7"/>
<text text-anchor="start" x="512.3862" y="-43.8" font-family="Helvetica,sans-Serif" font-size="11.00" fill="#000000"> &#160;</text>
<polygon fill="#ffffff" stroke="transparent" points="521.5,-37.7 521.5,-56.7 565.5,-56.7 565.5,-37.7 521.5,-37.7"/>
<polygon fill="none" stroke="#000000" points="521.5,-37.7 521.5,-56.7 565.5,-56.7 565.5,-37.7 521.5,-37.7"/>
<text text-anchor="start" x="546.9053" y="-43.8" font-family="Helvetica,sans-Serif" font-size="11.00" fill="#000000">1 &gt;</text>
</a>
</g>
</g>
<!-- case_note_amendment&#45;&gt;case_note -->
<g id="edge2" class="edge">
<title>case_note_amendment:w&#45;&gt;case_note:e</title>
<path fill="none" stroke="#000000" d="M599.2829,-262.7C588.2886,-262.7 581.1615,-262.7 565.5,-262.7"/>
<polygon fill="#000000" stroke="#000000" points="606,-262.7001 614,-266.3 610,-262.7 614,-262.7 614,-262.7 614,-262.7 610,-262.7 614,-259.1 606,-262.7001 606,-262.7001"/>
<ellipse fill="none" stroke="#000000" cx="602.8" cy="-262.7001" rx="3.2" ry="3.2"/>
</g>
<!-- case_note_type -->
<g id="node2" class="node">
<title>case_note_type</title>
<g id="a_node2"><a xlink:href="../../tables/case_note_type.html" xlink:title="case_note_type" target="_top">
<polygon fill="#ffffff" stroke="transparent" points="8,-93.2 8,-176.2 150,-176.2 150,-93.2 8,-93.2"/>
<polygon fill="#f5f5f5" stroke="transparent" points="8,-152.7 8,-175.7 150,-175.7 150,-152.7 8,-152.7"/>
<polygon fill="none" stroke="#000000" points="8,-152.7 8,-175.7 150,-175.7 150,-152.7 8,-152.7"/>
<text text-anchor="start" x="13" y="-161.3" font-family="Helvetica,sans-Serif" font-weight="bold" font-size="11.00" fill="#000000">case_note_type</text>
<text text-anchor="start" x="115.5219" y="-160.8" font-family="Helvetica,sans-Serif" font-size="11.00" fill="#000000">[table]</text>
<polygon fill="none" stroke="#000000" points="8,-130.7 8,-152.7 150,-152.7 150,-130.7 8,-130.7"/>
<image xlink:href="../../images/primaryKeys.png" width="11px" height="12px" preserveAspectRatio="xMinYMin meet" x="13" y="-147.7"/>
<text text-anchor="start" x="32" y="-137.8" font-family="Helvetica,sans-Serif" font-size="11.00" fill="#000000">code</text>
<polygon fill="none" stroke="#000000" points="8,-111.7 8,-130.7 150,-130.7 150,-111.7 8,-111.7"/>
<text text-anchor="start" x="11" y="-117.8" font-family="Helvetica,sans-Serif" font-size="11.00" fill="#000000">...</text>
<polygon fill="#ffffff" stroke="transparent" points="8,-92.7 8,-111.7 52,-111.7 52,-92.7 8,-92.7"/>
<polygon fill="none" stroke="#000000" points="8,-92.7 8,-111.7 52,-111.7 52,-92.7 8,-92.7"/>
<text text-anchor="start" x="11" y="-98.8" font-family="Helvetica,sans-Serif" font-size="11.00" fill="#000000"> &#160;</text>
<polygon fill="#ffffff" stroke="transparent" points="52,-92.7 52,-111.7 112,-111.7 112,-92.7 52,-92.7"/>
<polygon fill="none" stroke="#000000" points="52,-92.7 52,-111.7 112,-111.7 112,-92.7 52,-92.7"/>
<text text-anchor="start" x="70.4956" y="-98.8" font-family="Helvetica,sans-Serif" font-size="11.00" fill="#000000">65 rows</text>
<polygon fill="#ffffff" stroke="transparent" points="112,-92.7 112,-111.7 150,-111.7 150,-92.7 112,-92.7"/>
<polygon fill="none" stroke="#000000" points="112,-92.7 112,-111.7 150,-111.7 150,-92.7 112,-92.7"/>
<text text-anchor="start" x="131.4053" y="-98.8" font-family="Helvetica,sans-Serif" font-size="11.00" fill="#000000">1 &gt;</text>
</a>
</g>
</g>
<!-- case_note_sub_type -->
<g id="node4" class="node">
<title>case_note_sub_type</title>
<g id="a_node4"><a xlink:href="../../tables/case_note_sub_type.html" xlink:title="case_note_sub_type" target="_top">
<polygon fill="#ffffff" stroke="transparent" points="199,-60.2 199,-209.2 371,-209.2 371,-60.2 199,-60.2"/>
<polygon fill="#f5f5f5" stroke="transparent" points="199,-185.7 199,-208.7 371,-208.7 371,-185.7 199,-185.7"/>
<polygon fill="none" stroke="#000000" points="199,-185.7 199,-208.7 371,-208.7 371,-185.7 199,-185.7"/>
<text text-anchor="start" x="204" y="-194.3" font-family="Helvetica,sans-Serif" font-weight="bold" font-size="11.00" fill="#000000">case_note_sub_type</text>
<text text-anchor="start" x="336.5219" y="-193.8" font-family="Helvetica,sans-Serif" font-size="11.00" fill="#000000">[table]</text>
<polygon fill="none" stroke="#000000" points="199,-163.7 199,-185.7 371,-185.7 371,-163.7 199,-163.7"/>
<image xlink:href="../../images/primaryKeys.png" width="11px" height="12px" preserveAspectRatio="xMinYMin meet" x="204" y="-180.7"/>
<text text-anchor="start" x="227" y="-170.8" font-family="Helvetica,sans-Serif" font-size="11.00" fill="#000000">id</text>
<polygon fill="#ffffff" stroke="transparent" points="199,-141.7 199,-163.7 371,-163.7 371,-141.7 199,-141.7"/>
<polygon fill="none" stroke="#000000" points="199,-141.7 199,-163.7 371,-163.7 371,-141.7 199,-141.7"/>
<image xlink:href="../../images/foreignKeys.png" width="11px" height="12px" preserveAspectRatio="xMinYMin meet" x="204" y="-158.7"/>
<text text-anchor="start" x="227" y="-148.8" font-family="Helvetica,sans-Serif" font-size="11.00" fill="#000000">type_code</text>
<polygon fill="#ffffff" stroke="transparent" points="199,-119.7 199,-141.7 371,-141.7 371,-119.7 199,-119.7"/>
<polygon fill="none" stroke="#000000" points="199,-119.7 199,-141.7 371,-141.7 371,-119.7 199,-119.7"/>
<image xlink:href="../../images/foreignKeys.png" width="11px" height="12px" preserveAspectRatio="xMinYMin meet" x="204" y="-136.7"/>
<text text-anchor="start" x="227" y="-126.8" font-family="Helvetica,sans-Serif" font-size="11.00" fill="#000000">code</text>
<polygon fill="#ffffff" stroke="transparent" points="199,-97.7 199,-119.7 371,-119.7 371,-97.7 199,-97.7"/>
<polygon fill="none" stroke="#000000" points="199,-97.7 199,-119.7 371,-119.7 371,-97.7 199,-97.7"/>
<text text-anchor="start" x="227" y="-104.8" font-family="Helvetica,sans-Serif" font-size="11.00" fill="#000000">sync_to_nomis</text>
<polygon fill="none" stroke="#000000" points="199,-78.7 199,-97.7 371,-97.7 371,-78.7 199,-78.7"/>
<text text-anchor="start" x="202" y="-84.8" font-family="Helvetica,sans-Serif" font-size="11.00" fill="#000000">...</text>
<polygon fill="#ffffff" stroke="transparent" points="199,-59.7 199,-78.7 260,-78.7 260,-59.7 199,-59.7"/>
<polygon fill="none" stroke="#000000" points="199,-59.7 199,-78.7 260,-78.7 260,-59.7 199,-59.7"/>
<text text-anchor="start" x="202" y="-65.8" font-family="Helvetica,sans-Serif" font-size="11.00" fill="#000000">&lt; 1</text>
<polygon fill="#ffffff" stroke="transparent" points="260,-59.7 260,-78.7 330,-78.7 330,-59.7 260,-59.7"/>
<polygon fill="none" stroke="#000000" points="260,-59.7 260,-78.7 330,-78.7 330,-59.7 260,-59.7"/>
<text text-anchor="start" x="282.3807" y="-65.8" font-family="Helvetica,sans-Serif" font-size="11.00" fill="#000000">400 rows</text>
<polygon fill="#ffffff" stroke="transparent" points="330,-59.7 330,-78.7 371,-78.7 371,-59.7 330,-59.7"/>
<polygon fill="none" stroke="#000000" points="330,-59.7 330,-78.7 371,-78.7 371,-59.7 330,-59.7"/>
<text text-anchor="start" x="352.4053" y="-65.8" font-family="Helvetica,sans-Serif" font-size="11.00" fill="#000000">1 &gt;</text>
</a>
</g>
</g>
<!-- case_note&#45;&gt;case_note_sub_type -->
<g id="edge1" class="edge">
<title>case_note:w&#45;&gt;case_note_sub_type:e</title>
<path fill="none" stroke="#000000" d="M405.8428,-174.7C394.4139,-174.7 387.1563,-174.7 371,-174.7"/>
<polygon fill="#000000" stroke="#000000" points="412.5,-174.7001 420.5,-178.3 416.5,-174.7 420.5,-174.7 420.5,-174.7 420.5,-174.7 416.5,-174.7 420.5,-171.1 412.5,-174.7001 412.5,-174.7001"/>
<ellipse fill="none" stroke="#000000" cx="409.3" cy="-174.7001" rx="3.2" ry="3.2"/>
</g>
<!-- case_note_sub_type&#45;&gt;case_note_type -->
<g id="edge3" class="edge">
<title>case_note_sub_type:w&#45;&gt;case_note_type:e</title>
<path fill="none" stroke="#000000" stroke-dasharray="5,2" d="M184.7027,-132.5164C173.2382,-135.6407 166.5655,-141.7 150,-141.7"/>
<polygon fill="#000000" stroke="#000000" points="191.0638,-131.7083 199.4537,-134.2713 195.0319,-131.2042 199,-130.7 199,-130.7 199,-130.7 195.0319,-131.2042 198.5463,-127.1287 191.0638,-131.7083 191.0638,-131.7083"/>
<ellipse fill="none" stroke="#000000" cx="187.8893" cy="-132.1116" rx="3.2" ry="3.2"/>
</g>
<!-- case_note_sub_type&#45;&gt;case_note_type -->
<g id="edge4" class="edge">
<title>case_note_sub_type:w&#45;&gt;case_note_type:e</title>
<path fill="none" stroke="#000000" d="M184.7027,-150.8836C173.2382,-147.7593 166.5655,-141.7 150,-141.7"/>
<polygon fill="#000000" stroke="#000000" points="191.0638,-151.6917 198.5463,-156.2713 195.0319,-152.1958 199,-152.7 199,-152.7 199,-152.7 195.0319,-152.1958 199.4537,-149.1287 191.0638,-151.6917 191.0638,-151.6917"/>
<ellipse fill="none" stroke="#000000" cx="187.8893" cy="-151.2884" rx="3.2" ry="3.2"/>
</g>
</g>
</svg>
