<?xml version="1.0" encoding="UTF-8" standalone="no"?>
<!DOCTYPE svg PUBLIC "-//W3C//DTD SVG 1.1//EN"
 "http://www.w3.org/Graphics/SVG/1.1/DTD/svg11.dtd">
<!-- Generated by graphviz version 2.40.1 (20161225.0304)
 -->
<!-- Title: largeImpliedRelationshipsDiagram Pages: 1 -->
<svg width="865pt" height="864pt"
 viewBox="0.00 0.00 865.00 864.20" xmlns="http://www.w3.org/2000/svg" xmlns:xlink="http://www.w3.org/1999/xlink">
<g id="graph0" class="graph" transform="scale(1 1) rotate(0) translate(4 860.2)">
<title>largeImpliedRelationshipsDiagram</title>
<polygon fill="#ffffff" stroke="transparent" points="-4,4 -4,-860.2 861,-860.2 861,4 -4,4"/>
<text text-anchor="middle" x="72.4936" y="-7.3" font-family="Helvetica,sans-Serif" font-size="11.00" fill="#000000">Generated by SchemaSpy</text>
<!-- case_note_amendment -->
<g id="node1" class="node">
<title>case_note_amendment</title>
<g id="a_node1"><a xlink:href="../../tables/case_note_amendment.html" xlink:title="case_note_amendment" target="_top">
<polygon fill="#ffffff" stroke="transparent" points="644,-236.2 644,-476.2 849,-476.2 849,-236.2 644,-236.2"/>
<polygon fill="#f5f5f5" stroke="transparent" points="644.5,-453.2 644.5,-476.2 849.5,-476.2 849.5,-453.2 644.5,-453.2"/>
<polygon fill="none" stroke="#000000" points="644.5,-453.2 644.5,-476.2 849.5,-476.2 849.5,-453.2 644.5,-453.2"/>
<text text-anchor="start" x="649.5" y="-461.8" font-family="Helvetica,sans-Serif" font-weight="bold" font-size="11.00" fill="#000000">case_note_amendment</text>
<text text-anchor="start" x="815.0219" y="-461.3" font-family="Helvetica,sans-Serif" font-size="11.00" fill="#000000">[table]</text>
<polygon fill="#ffffff" stroke="transparent" points="644.5,-431.2 644.5,-453.2 849.5,-453.2 849.5,-431.2 644.5,-431.2"/>
<polygon fill="none" stroke="#000000" points="644.5,-431.2 644.5,-453.2 849.5,-453.2 849.5,-431.2 644.5,-431.2"/>
<image xlink:href="../../images/foreignKeys.png" width="11px" height="12px" preserveAspectRatio="xMinYMin meet" x="649.5" y="-448.2"/>
<text text-anchor="start" x="673.5" y="-438.3" font-family="Helvetica,sans-Serif" font-size="11.00" fill="#000000">case_note_id</text>
<polygon fill="none" stroke="#000000" points="644.5,-409.2 644.5,-431.2 849.5,-431.2 849.5,-409.2 644.5,-409.2"/>
<text text-anchor="start" x="673.5" y="-416.3" font-family="Helvetica,sans-Serif" font-size="11.00" fill="#000000">author_username</text>
<polygon fill="none" stroke="#000000" points="644.5,-387.2 644.5,-409.2 849.5,-409.2 849.5,-387.2 644.5,-387.2"/>
<text text-anchor="start" x="673.5" y="-394.3" font-family="Helvetica,sans-Serif" font-size="11.00" fill="#000000">author_name</text>
<polygon fill="none" stroke="#000000" points="644.5,-365.2 644.5,-387.2 849.5,-387.2 849.5,-365.2 644.5,-365.2"/>
<text text-anchor="start" x="673.5" y="-372.3" font-family="Helvetica,sans-Serif" font-size="11.00" fill="#000000">note_text</text>
<polygon fill="#ffffff" stroke="transparent" points="644.5,-343.2 644.5,-365.2 849.5,-365.2 849.5,-343.2 644.5,-343.2"/>
<polygon fill="none" stroke="#000000" points="644.5,-343.2 644.5,-365.2 849.5,-365.2 849.5,-343.2 644.5,-343.2"/>
<text text-anchor="start" x="673.5" y="-350.3" font-family="Helvetica,sans-Serif" font-size="11.00" fill="#000000">created_at</text>
<polygon fill="none" stroke="#000000" points="644.5,-321.2 644.5,-343.2 849.5,-343.2 849.5,-321.2 644.5,-321.2"/>
<text text-anchor="start" x="673.5" y="-328.3" font-family="Helvetica,sans-Serif" font-size="11.00" fill="#000000">created_by</text>
<polygon fill="none" stroke="#000000" points="644.5,-299.2 644.5,-321.2 849.5,-321.2 849.5,-299.2 644.5,-299.2"/>
<text text-anchor="start" x="673.5" y="-306.3" font-family="Helvetica,sans-Serif" font-size="11.00" fill="#000000">author_user_id</text>
<polygon fill="none" stroke="#000000" points="644.5,-277.2 644.5,-299.2 849.5,-299.2 849.5,-277.2 644.5,-277.2"/>
<image xlink:href="../../images/primaryKeys.png" width="11px" height="12px" preserveAspectRatio="xMinYMin meet" x="649.5" y="-294.2"/>
<text text-anchor="start" x="673.5" y="-284.3" font-family="Helvetica,sans-Serif" font-size="11.00" fill="#000000">id</text>
<polygon fill="none" stroke="#000000" points="644.5,-255.2 644.5,-277.2 849.5,-277.2 849.5,-255.2 644.5,-255.2"/>
<text text-anchor="start" x="673.5" y="-262.3" font-family="Helvetica,sans-Serif" font-size="11.00" fill="#000000">system</text>
<polygon fill="#ffffff" stroke="transparent" points="644.5,-236.2 644.5,-255.2 849.5,-255.2 849.5,-236.2 644.5,-236.2"/>
<polygon fill="none" stroke="#000000" points="644.5,-236.2 644.5,-255.2 849.5,-255.2 849.5,-236.2 644.5,-236.2"/>
<polygon fill="#ffffff" stroke="transparent" points="645.5,-237.2 645.5,-254.2 719.5,-254.2 719.5,-237.2 645.5,-237.2"/>
<text text-anchor="start" x="647.5" y="-242.3" font-family="Helvetica,sans-Serif" font-size="11.00" fill="#000000">&lt; 1</text>
<polygon fill="#ffffff" stroke="transparent" points="719.5,-237.2 719.5,-254.2 784.5,-254.2 784.5,-237.2 719.5,-237.2"/>
<text text-anchor="start" x="748.9431" y="-242.3" font-family="Helvetica,sans-Serif" font-size="11.00" fill="#000000"> &#160;</text>
<polygon fill="#ffffff" stroke="transparent" points="784.5,-237.2 784.5,-254.2 848.5,-254.2 848.5,-237.2 784.5,-237.2"/>
<text text-anchor="start" x="840.3862" y="-242.3" font-family="Helvetica,sans-Serif" font-size="11.00" fill="#000000"> &#160;</text>
<polygon fill="#000000" stroke="#000000" points="719.5,-237.2 719.5,-254.2 719.5,-254.2 719.5,-237.2 719.5,-237.2"/>
<polygon fill="#000000" stroke="#000000" points="784.5,-237.2 784.5,-254.2 784.5,-254.2 784.5,-237.2 784.5,-237.2"/>
</a>
</g>
</g>
<!-- case_note -->
<g id="node4" class="node">
<title>case_note</title>
<g id="a_node4"><a xlink:href="../../tables/case_note.html" xlink:title="case_note" target="_top">
<polygon fill="#ffffff" stroke="transparent" points="440,-126.2 440,-476.2 595,-476.2 595,-126.2 440,-126.2"/>
<polygon fill="#f5f5f5" stroke="transparent" points="440.5,-453.2 440.5,-476.2 595.5,-476.2 595.5,-453.2 440.5,-453.2"/>
<polygon fill="none" stroke="#000000" points="440.5,-453.2 440.5,-476.2 595.5,-476.2 595.5,-453.2 440.5,-453.2"/>
<text text-anchor="start" x="445.5" y="-461.8" font-family="Helvetica,sans-Serif" font-weight="bold" font-size="11.00" fill="#000000">case_note</text>
<text text-anchor="start" x="560.5437" y="-461.3" font-family="Helvetica,sans-Serif" font-size="11.00" fill="#000000">[table]</text>
<polygon fill="none" stroke="#000000" points="440.5,-431.2 440.5,-453.2 595.5,-453.2 595.5,-431.2 440.5,-431.2"/>
<image xlink:href="../../images/primaryKeys.png" width="11px" height="12px" preserveAspectRatio="xMinYMin meet" x="445.5" y="-448.2"/>
<text text-anchor="start" x="460.5" y="-438.3" font-family="Helvetica,sans-Serif" font-size="11.00" fill="#000000">id</text>
<polygon fill="#ffffff" stroke="transparent" points="440.5,-409.2 440.5,-431.2 595.5,-431.2 595.5,-409.2 440.5,-409.2"/>
<polygon fill="none" stroke="#000000" points="440.5,-409.2 440.5,-431.2 595.5,-431.2 595.5,-409.2 440.5,-409.2"/>
<text text-anchor="start" x="460.5" y="-416.3" font-family="Helvetica,sans-Serif" font-size="11.00" fill="#000000">person_identifier</text>
<polygon fill="#ffffff" stroke="transparent" points="440.5,-387.2 440.5,-409.2 595.5,-409.2 595.5,-387.2 440.5,-387.2"/>
<polygon fill="none" stroke="#000000" points="440.5,-387.2 440.5,-409.2 595.5,-409.2 595.5,-387.2 440.5,-387.2"/>
<text text-anchor="start" x="460.5" y="-394.3" font-family="Helvetica,sans-Serif" font-size="11.00" fill="#000000">location_id</text>
<polygon fill="#ffffff" stroke="transparent" points="440.5,-365.2 440.5,-387.2 595.5,-387.2 595.5,-365.2 440.5,-365.2"/>
<polygon fill="none" stroke="#000000" points="440.5,-365.2 440.5,-387.2 595.5,-387.2 595.5,-365.2 440.5,-365.2"/>
<text text-anchor="start" x="460.5" y="-372.3" font-family="Helvetica,sans-Serif" font-size="11.00" fill="#000000">author_username</text>
<polygon fill="none" stroke="#000000" points="440.5,-343.2 440.5,-365.2 595.5,-365.2 595.5,-343.2 440.5,-343.2"/>
<text text-anchor="start" x="460.5" y="-350.3" font-family="Helvetica,sans-Serif" font-size="11.00" fill="#000000">author_name</text>
<polygon fill="#ffffff" stroke="transparent" points="440.5,-321.2 440.5,-343.2 595.5,-343.2 595.5,-321.2 440.5,-321.2"/>
<polygon fill="none" stroke="#000000" points="440.5,-321.2 440.5,-343.2 595.5,-343.2 595.5,-321.2 440.5,-321.2"/>
<image xlink:href="../../images/foreignKeys.png" width="11px" height="12px" preserveAspectRatio="xMinYMin meet" x="445.5" y="-338.2"/>
<text text-anchor="start" x="460.5" y="-328.3" font-family="Helvetica,sans-Serif" font-size="11.00" fill="#000000">sub_type_id</text>
<polygon fill="#ffffff" stroke="transparent" points="440.5,-299.2 440.5,-321.2 595.5,-321.2 595.5,-299.2 440.5,-299.2"/>
<polygon fill="none" stroke="#000000" points="440.5,-299.2 440.5,-321.2 595.5,-321.2 595.5,-299.2 440.5,-299.2"/>
<text text-anchor="start" x="460.5" y="-306.3" font-family="Helvetica,sans-Serif" font-size="11.00" fill="#000000">occurred_at</text>
<polygon fill="none" stroke="#000000" points="440.5,-277.2 440.5,-299.2 595.5,-299.2 595.5,-277.2 440.5,-277.2"/>
<text text-anchor="start" x="460.5" y="-284.3" font-family="Helvetica,sans-Serif" font-size="11.00" fill="#000000">note_text</text>
<polygon fill="#ffffff" stroke="transparent" points="440.5,-255.2 440.5,-277.2 595.5,-277.2 595.5,-255.2 440.5,-255.2"/>
<polygon fill="none" stroke="#000000" points="440.5,-255.2 440.5,-277.2 595.5,-277.2 595.5,-255.2 440.5,-255.2"/>
<text text-anchor="start" x="460.5" y="-262.3" font-family="Helvetica,sans-Serif" font-size="11.00" fill="#000000">created_at</text>
<polygon fill="none" stroke="#000000" points="440.5,-233.2 440.5,-255.2 595.5,-255.2 595.5,-233.2 440.5,-233.2"/>
<text text-anchor="start" x="460.5" y="-240.3" font-family="Helvetica,sans-Serif" font-size="11.00" fill="#000000">created_by</text>
<polygon fill="#ffffff" stroke="transparent" points="440.5,-211.2 440.5,-233.2 595.5,-233.2 595.5,-211.2 440.5,-211.2"/>
<polygon fill="none" stroke="#000000" points="440.5,-211.2 440.5,-233.2 595.5,-233.2 595.5,-211.2 440.5,-211.2"/>
<text text-anchor="start" x="460.5" y="-218.3" font-family="Helvetica,sans-Serif" font-size="11.00" fill="#000000">legacy_id</text>
<polygon fill="#ffffff" stroke="transparent" points="440.5,-189.2 440.5,-211.2 595.5,-211.2 595.5,-189.2 440.5,-189.2"/>
<polygon fill="none" stroke="#000000" points="440.5,-189.2 440.5,-211.2 595.5,-211.2 595.5,-189.2 440.5,-189.2"/>
<text text-anchor="start" x="460.5" y="-196.3" font-family="Helvetica,sans-Serif" font-size="11.00" fill="#000000">author_user_id</text>
<polygon fill="none" stroke="#000000" points="440.5,-167.2 440.5,-189.2 595.5,-189.2 595.5,-167.2 440.5,-167.2"/>
<text text-anchor="start" x="460.5" y="-174.3" font-family="Helvetica,sans-Serif" font-size="11.00" fill="#000000">system_generated</text>
<polygon fill="none" stroke="#000000" points="440.5,-145.2 440.5,-167.2 595.5,-167.2 595.5,-145.2 440.5,-145.2"/>
<text text-anchor="start" x="460.5" y="-152.3" font-family="Helvetica,sans-Serif" font-size="11.00" fill="#000000">system</text>
<polygon fill="#ffffff" stroke="transparent" points="440.5,-126.2 440.5,-145.2 595.5,-145.2 595.5,-126.2 440.5,-126.2"/>
<polygon fill="none" stroke="#000000" points="440.5,-126.2 440.5,-145.2 595.5,-145.2 595.5,-126.2 440.5,-126.2"/>
<polygon fill="#ffffff" stroke="transparent" points="441.5,-127.2 441.5,-144.2 495.5,-144.2 495.5,-127.2 441.5,-127.2"/>
<text text-anchor="start" x="443.5" y="-132.3" font-family="Helvetica,sans-Serif" font-size="11.00" fill="#000000">&lt; 1</text>
<polygon fill="#ffffff" stroke="transparent" points="495.5,-127.2 495.5,-144.2 540.5,-144.2 540.5,-127.2 495.5,-127.2"/>
<text text-anchor="start" x="514.9431" y="-132.3" font-family="Helvetica,sans-Serif" font-size="11.00" fill="#000000"> &#160;</text>
<polygon fill="#ffffff" stroke="transparent" points="540.5,-127.2 540.5,-144.2 594.5,-144.2 594.5,-127.2 540.5,-127.2"/>
<text text-anchor="start" x="576.9053" y="-132.3" font-family="Helvetica,sans-Serif" font-size="11.00" fill="#000000">1 &gt;</text>
<polygon fill="#000000" stroke="#000000" points="495.5,-127.2 495.5,-144.2 495.5,-144.2 495.5,-127.2 495.5,-127.2"/>
<polygon fill="#000000" stroke="#000000" points="540.5,-127.2 540.5,-144.2 540.5,-144.2 540.5,-127.2 540.5,-127.2"/>
</a>
</g>
</g>
<!-- case_note_amendment&#45;&gt;case_note -->
<g id="edge2" class="edge">
<title>case_note_amendment:w&#45;&gt;case_note:e</title>
<path fill="none" stroke="#000000" d="M629.9909,-442.2C618.6774,-442.2 611.4931,-442.2 595.5,-442.2"/>
<polygon fill="#000000" stroke="#000000" points="636.5,-442.2001 644.5,-445.8 640.5,-442.2 644.5,-442.2 644.5,-442.2 644.5,-442.2 640.5,-442.2 644.5,-438.6 636.5,-442.2001 636.5,-442.2001"/>
<ellipse fill="none" stroke="#000000" cx="633.3" cy="-442.2001" rx="3.2" ry="3.2"/>
</g>
<!-- case_note_deleted -->
<g id="node2" class="node">
<title>case_note_deleted</title>
<g id="a_node2"><a xlink:href="../../tables/case_note_deleted.html" xlink:title="case_note_deleted" target="_top">
<polygon fill="#ffffff" stroke="transparent" points="114,-568.2 114,-852.2 287,-852.2 287,-568.2 114,-568.2"/>
<polygon fill="#f5f5f5" stroke="transparent" points="114.5,-829.2 114.5,-852.2 287.5,-852.2 287.5,-829.2 114.5,-829.2"/>
<polygon fill="none" stroke="#000000" points="114.5,-829.2 114.5,-852.2 287.5,-852.2 287.5,-829.2 114.5,-829.2"/>
<text text-anchor="start" x="119.5" y="-837.8" font-family="Helvetica,sans-Serif" font-weight="bold" font-size="11.00" fill="#000000">case_note_deleted</text>
<text text-anchor="start" x="253.0219" y="-837.3" font-family="Helvetica,sans-Serif" font-size="11.00" fill="#000000">[table]</text>
<polygon fill="#ffffff" stroke="transparent" points="114.5,-807.2 114.5,-829.2 287.5,-829.2 287.5,-807.2 114.5,-807.2"/>
<polygon fill="none" stroke="#000000" points="114.5,-807.2 114.5,-829.2 287.5,-829.2 287.5,-807.2 114.5,-807.2"/>
<text text-anchor="start" x="143.5" y="-814.3" font-family="Helvetica,sans-Serif" font-size="11.00" fill="#000000">person_identifier</text>
<polygon fill="none" stroke="#000000" points="114.5,-785.2 114.5,-807.2 287.5,-807.2 287.5,-785.2 114.5,-785.2"/>
<text text-anchor="start" x="143.5" y="-792.3" font-family="Helvetica,sans-Serif" font-size="11.00" fill="#000000">case_note_id</text>
<polygon fill="#ffffff" stroke="transparent" points="114.5,-763.2 114.5,-785.2 287.5,-785.2 287.5,-763.2 114.5,-763.2"/>
<polygon fill="none" stroke="#000000" points="114.5,-763.2 114.5,-785.2 287.5,-785.2 287.5,-763.2 114.5,-763.2"/>
<text text-anchor="start" x="143.5" y="-770.3" font-family="Helvetica,sans-Serif" font-size="11.00" fill="#000000">legacy_id</text>
<polygon fill="none" stroke="#000000" points="114.5,-741.2 114.5,-763.2 287.5,-763.2 287.5,-741.2 114.5,-741.2"/>
<text text-anchor="start" x="143.5" y="-748.3" font-family="Helvetica,sans-Serif" font-size="11.00" fill="#000000">case_note</text>
<polygon fill="none" stroke="#000000" points="114.5,-719.2 114.5,-741.2 287.5,-741.2 287.5,-719.2 114.5,-719.2"/>
<text text-anchor="start" x="143.5" y="-726.3" font-family="Helvetica,sans-Serif" font-size="11.00" fill="#000000">deleted_at</text>
<polygon fill="none" stroke="#000000" points="114.5,-697.2 114.5,-719.2 287.5,-719.2 287.5,-697.2 114.5,-697.2"/>
<text text-anchor="start" x="143.5" y="-704.3" font-family="Helvetica,sans-Serif" font-size="11.00" fill="#000000">deleted_by</text>
<polygon fill="#ffffff" stroke="transparent" points="114.5,-675.2 114.5,-697.2 287.5,-697.2 287.5,-675.2 114.5,-675.2"/>
<polygon fill="none" stroke="#000000" points="114.5,-675.2 114.5,-697.2 287.5,-697.2 287.5,-675.2 114.5,-675.2"/>
<text text-anchor="start" x="143.5" y="-682.3" font-family="Helvetica,sans-Serif" font-size="11.00" fill="#000000">caseload_id</text>
<polygon fill="none" stroke="#000000" points="114.5,-653.2 114.5,-675.2 287.5,-675.2 287.5,-653.2 114.5,-653.2"/>
<text text-anchor="start" x="143.5" y="-660.3" font-family="Helvetica,sans-Serif" font-size="11.00" fill="#000000">system</text>
<polygon fill="#ffffff" stroke="transparent" points="114.5,-631.2 114.5,-653.2 287.5,-653.2 287.5,-631.2 114.5,-631.2"/>
<polygon fill="none" stroke="#000000" points="114.5,-631.2 114.5,-653.2 287.5,-653.2 287.5,-631.2 114.5,-631.2"/>
<text text-anchor="start" x="143.5" y="-638.3" font-family="Helvetica,sans-Serif" font-size="11.00" fill="#000000">cause</text>
<polygon fill="none" stroke="#000000" points="114.5,-609.2 114.5,-631.2 287.5,-631.2 287.5,-609.2 114.5,-609.2"/>
<image xlink:href="../../images/primaryKeys.png" width="11px" height="12px" preserveAspectRatio="xMinYMin meet" x="119.5" y="-626.2"/>
<text text-anchor="start" x="143.5" y="-616.3" font-family="Helvetica,sans-Serif" font-size="11.00" fill="#000000">id</text>
<polygon fill="none" stroke="#000000" points="114.5,-587.2 114.5,-609.2 287.5,-609.2 287.5,-587.2 114.5,-587.2"/>
<text text-anchor="start" x="143.5" y="-594.3" font-family="Helvetica,sans-Serif" font-size="11.00" fill="#000000">reason</text>
<polygon fill="#ffffff" stroke="transparent" points="114.5,-568.2 114.5,-587.2 287.5,-587.2 287.5,-568.2 114.5,-568.2"/>
<polygon fill="none" stroke="#000000" points="114.5,-568.2 114.5,-587.2 287.5,-587.2 287.5,-568.2 114.5,-568.2"/>
<polygon fill="#ffffff" stroke="transparent" points="115.5,-569.2 115.5,-586.2 172.5,-586.2 172.5,-569.2 115.5,-569.2"/>
<text text-anchor="start" x="117.5" y="-574.3" font-family="Helvetica,sans-Serif" font-size="11.00" fill="#000000"> &#160;</text>
<polygon fill="#ffffff" stroke="transparent" points="172.5,-569.2 172.5,-586.2 229.5,-586.2 229.5,-569.2 172.5,-569.2"/>
<text text-anchor="start" x="197.9431" y="-574.3" font-family="Helvetica,sans-Serif" font-size="11.00" fill="#000000"> &#160;</text>
<polygon fill="#ffffff" stroke="transparent" points="229.5,-569.2 229.5,-586.2 286.5,-586.2 286.5,-569.2 229.5,-569.2"/>
<text text-anchor="start" x="278.3862" y="-574.3" font-family="Helvetica,sans-Serif" font-size="11.00" fill="#000000"> &#160;</text>
<polygon fill="#000000" stroke="#000000" points="172.5,-569.2 172.5,-586.2 172.5,-586.2 172.5,-569.2 172.5,-569.2"/>
<polygon fill="#000000" stroke="#000000" points="229.5,-569.2 229.5,-586.2 229.5,-586.2 229.5,-569.2 229.5,-569.2"/>
</a>
</g>
</g>
<!-- case_note_type -->
<g id="node3" class="node">
<title>case_note_type</title>
<g id="a_node3"><a xlink:href="../../tables/case_note_type.html" xlink:title="case_note_type" target="_top">
<polygon fill="#ffffff" stroke="transparent" points="8,-159.2 8,-333.2 159,-333.2 159,-159.2 8,-159.2"/>
<polygon fill="#f5f5f5" stroke="transparent" points="8.5,-310.2 8.5,-333.2 159.5,-333.2 159.5,-310.2 8.5,-310.2"/>
<polygon fill="none" stroke="#000000" points="8.5,-310.2 8.5,-333.2 159.5,-333.2 159.5,-310.2 8.5,-310.2"/>
<text text-anchor="start" x="13.5" y="-318.8" font-family="Helvetica,sans-Serif" font-weight="bold" font-size="11.00" fill="#000000">case_note_type</text>
<text text-anchor="start" x="125.0219" y="-318.3" font-family="Helvetica,sans-Serif" font-size="11.00" fill="#000000">[table]</text>
<polygon fill="none" stroke="#000000" points="8.5,-288.2 8.5,-310.2 159.5,-310.2 159.5,-288.2 8.5,-288.2"/>
<image xlink:href="../../images/primaryKeys.png" width="11px" height="12px" preserveAspectRatio="xMinYMin meet" x="13.5" y="-305.2"/>
<text text-anchor="start" x="32.5" y="-295.3" font-family="Helvetica,sans-Serif" font-size="11.00" fill="#000000">code</text>
<polygon fill="none" stroke="#000000" points="8.5,-266.2 8.5,-288.2 159.5,-288.2 159.5,-266.2 8.5,-266.2"/>
<text text-anchor="start" x="32.5" y="-273.3" font-family="Helvetica,sans-Serif" font-size="11.00" fill="#000000">description</text>
<polygon fill="none" stroke="#000000" points="8.5,-244.2 8.5,-266.2 159.5,-266.2 159.5,-244.2 8.5,-244.2"/>
<text text-anchor="start" x="32.5" y="-251.3" font-family="Helvetica,sans-Serif" font-size="11.00" fill="#000000">created_at</text>
<polygon fill="none" stroke="#000000" points="8.5,-222.2 8.5,-244.2 159.5,-244.2 159.5,-222.2 8.5,-222.2"/>
<text text-anchor="start" x="32.5" y="-229.3" font-family="Helvetica,sans-Serif" font-size="11.00" fill="#000000">created_by</text>
<polygon fill="none" stroke="#000000" points="8.5,-200.2 8.5,-222.2 159.5,-222.2 159.5,-200.2 8.5,-200.2"/>
<text text-anchor="start" x="32.5" y="-207.3" font-family="Helvetica,sans-Serif" font-size="11.00" fill="#000000">last_modified_at</text>
<polygon fill="none" stroke="#000000" points="8.5,-178.2 8.5,-200.2 159.5,-200.2 159.5,-178.2 8.5,-178.2"/>
<text text-anchor="start" x="32.5" y="-185.3" font-family="Helvetica,sans-Serif" font-size="11.00" fill="#000000">last_modified_by</text>
<polygon fill="#ffffff" stroke="transparent" points="8.5,-159.2 8.5,-178.2 159.5,-178.2 159.5,-159.2 8.5,-159.2"/>
<polygon fill="none" stroke="#000000" points="8.5,-159.2 8.5,-178.2 159.5,-178.2 159.5,-159.2 8.5,-159.2"/>
<polygon fill="#ffffff" stroke="transparent" points="9.5,-160.2 9.5,-177.2 56.5,-177.2 56.5,-160.2 9.5,-160.2"/>
<text text-anchor="start" x="11.5" y="-165.3" font-family="Helvetica,sans-Serif" font-size="11.00" fill="#000000"> &#160;</text>
<polygon fill="#ffffff" stroke="transparent" points="56.5,-160.2 56.5,-177.2 103.5,-177.2 103.5,-160.2 56.5,-160.2"/>
<text text-anchor="start" x="76.9431" y="-165.3" font-family="Helvetica,sans-Serif" font-size="11.00" fill="#000000"> &#160;</text>
<polygon fill="#ffffff" stroke="transparent" points="103.5,-160.2 103.5,-177.2 158.5,-177.2 158.5,-160.2 103.5,-160.2"/>
<text text-anchor="start" x="140.9053" y="-165.3" font-family="Helvetica,sans-Serif" font-size="11.00" fill="#000000">1 &gt;</text>
<polygon fill="#000000" stroke="#000000" points="56.5,-160.2 56.5,-177.2 56.5,-177.2 56.5,-160.2 56.5,-160.2"/>
<polygon fill="#000000" stroke="#000000" points="103.5,-160.2 103.5,-177.2 103.5,-177.2 103.5,-160.2 103.5,-160.2"/>
</a>
</g>
</g>
<!-- case_note_sub_type -->
<g id="node5" class="node">
<title>case_note_sub_type</title>
<g id="a_node5"><a xlink:href="../../tables/case_note_sub_type.html" xlink:title="case_note_sub_type" target="_top">
<polygon fill="#ffffff" stroke="transparent" points="208,-38.2 208,-366.2 391,-366.2 391,-38.2 208,-38.2"/>
<polygon fill="#f5f5f5" stroke="transparent" points="208.5,-343.2 208.5,-366.2 391.5,-366.2 391.5,-343.2 208.5,-343.2"/>
<polygon fill="none" stroke="#000000" points="208.5,-343.2 208.5,-366.2 391.5,-366.2 391.5,-343.2 208.5,-343.2"/>
<text text-anchor="start" x="213.5" y="-351.8" font-family="Helvetica,sans-Serif" font-weight="bold" font-size="11.00" fill="#000000">case_note_sub_type</text>
<text text-anchor="start" x="357.0219" y="-351.3" font-family="Helvetica,sans-Serif" font-size="11.00" fill="#000000">[table]</text>
<polygon fill="none" stroke="#000000" points="208.5,-321.2 208.5,-343.2 391.5,-343.2 391.5,-321.2 208.5,-321.2"/>
<image xlink:href="../../images/primaryKeys.png" width="11px" height="12px" preserveAspectRatio="xMinYMin meet" x="213.5" y="-338.2"/>
<text text-anchor="start" x="236.5" y="-328.3" font-family="Helvetica,sans-Serif" font-size="11.00" fill="#000000">id</text>
<polygon fill="#ffffff" stroke="transparent" points="208.5,-299.2 208.5,-321.2 391.5,-321.2 391.5,-299.2 208.5,-299.2"/>
<polygon fill="none" stroke="#000000" points="208.5,-299.2 208.5,-321.2 391.5,-321.2 391.5,-299.2 208.5,-299.2"/>
<image xlink:href="../../images/foreignKeys.png" width="11px" height="12px" preserveAspectRatio="xMinYMin meet" x="213.5" y="-316.2"/>
<text text-anchor="start" x="236.5" y="-306.3" font-family="Helvetica,sans-Serif" font-size="11.00" fill="#000000">type_code</text>
<polygon fill="#ffffff" stroke="transparent" points="208.5,-277.2 208.5,-299.2 391.5,-299.2 391.5,-277.2 208.5,-277.2"/>
<polygon fill="none" stroke="#000000" points="208.5,-277.2 208.5,-299.2 391.5,-299.2 391.5,-277.2 208.5,-277.2"/>
<image xlink:href="../../images/foreignKeys.png" width="11px" height="12px" preserveAspectRatio="xMinYMin meet" x="213.5" y="-294.2"/>
<text text-anchor="start" x="236.5" y="-284.3" font-family="Helvetica,sans-Serif" font-size="11.00" fill="#000000">code</text>
<polygon fill="none" stroke="#000000" points="208.5,-255.2 208.5,-277.2 391.5,-277.2 391.5,-255.2 208.5,-255.2"/>
<text text-anchor="start" x="236.5" y="-262.3" font-family="Helvetica,sans-Serif" font-size="11.00" fill="#000000">description</text>
<polygon fill="none" stroke="#000000" points="208.5,-233.2 208.5,-255.2 391.5,-255.2 391.5,-233.2 208.5,-233.2"/>
<text text-anchor="start" x="236.5" y="-240.3" font-family="Helvetica,sans-Serif" font-size="11.00" fill="#000000">active</text>
<polygon fill="none" stroke="#000000" points="208.5,-211.2 208.5,-233.2 391.5,-233.2 391.5,-211.2 208.5,-211.2"/>
<text text-anchor="start" x="236.5" y="-218.3" font-family="Helvetica,sans-Serif" font-size="11.00" fill="#000000">created_at</text>
<polygon fill="none" stroke="#000000" points="208.5,-189.2 208.5,-211.2 391.5,-211.2 391.5,-189.2 208.5,-189.2"/>
<text text-anchor="start" x="236.5" y="-196.3" font-family="Helvetica,sans-Serif" font-size="11.00" fill="#000000">created_by</text>
<polygon fill="none" stroke="#000000" points="208.5,-167.2 208.5,-189.2 391.5,-189.2 391.5,-167.2 208.5,-167.2"/>
<text text-anchor="start" x="236.5" y="-174.3" font-family="Helvetica,sans-Serif" font-size="11.00" fill="#000000">last_modified_at</text>
<polygon fill="none" stroke="#000000" points="208.5,-145.2 208.5,-167.2 391.5,-167.2 391.5,-145.2 208.5,-145.2"/>
<text text-anchor="start" x="236.5" y="-152.3" font-family="Helvetica,sans-Serif" font-size="11.00" fill="#000000">last_modified_by</text>
<polygon fill="none" stroke="#000000" points="208.5,-123.2 208.5,-145.2 391.5,-145.2 391.5,-123.2 208.5,-123.2"/>
<text text-anchor="start" x="236.5" y="-130.3" font-family="Helvetica,sans-Serif" font-size="11.00" fill="#000000">sensitive</text>
<polygon fill="none" stroke="#000000" points="208.5,-101.2 208.5,-123.2 391.5,-123.2 391.5,-101.2 208.5,-101.2"/>
<text text-anchor="start" x="236.5" y="-108.3" font-family="Helvetica,sans-Serif" font-size="11.00" fill="#000000">restricted_use</text>
<polygon fill="#ffffff" stroke="transparent" points="208.5,-79.2 208.5,-101.2 391.5,-101.2 391.5,-79.2 208.5,-79.2"/>
<polygon fill="none" stroke="#000000" points="208.5,-79.2 208.5,-101.2 391.5,-101.2 391.5,-79.2 208.5,-79.2"/>
<text text-anchor="start" x="236.5" y="-86.3" font-family="Helvetica,sans-Serif" font-size="11.00" fill="#000000">sync_to_nomis</text>
<polygon fill="none" stroke="#000000" points="208.5,-57.2 208.5,-79.2 391.5,-79.2 391.5,-57.2 208.5,-57.2"/>
<text text-anchor="start" x="236.5" y="-64.3" font-family="Helvetica,sans-Serif" font-size="11.00" fill="#000000">dps_user_selectable</text>
<polygon fill="#ffffff" stroke="transparent" points="208.5,-38.2 208.5,-57.2 391.5,-57.2 391.5,-38.2 208.5,-38.2"/>
<polygon fill="none" stroke="#000000" points="208.5,-38.2 208.5,-57.2 391.5,-57.2 391.5,-38.2 208.5,-38.2"/>
<polygon fill="#ffffff" stroke="transparent" points="209.5,-39.2 209.5,-56.2 260.5,-56.2 260.5,-39.2 209.5,-39.2"/>
<text text-anchor="start" x="211.5" y="-44.3" font-family="Helvetica,sans-Serif" font-size="11.00" fill="#000000">&lt; 1</text>
<polygon fill="#ffffff" stroke="transparent" points="260.5,-39.2 260.5,-56.2 340.5,-56.2 340.5,-39.2 260.5,-39.2"/>
<text text-anchor="start" x="278.1904" y="-44.3" font-family="Helvetica,sans-Serif" font-size="11.00" fill="#000000">386 rows</text>
<polygon fill="#ffffff" stroke="transparent" points="340.5,-39.2 340.5,-56.2 390.5,-56.2 390.5,-39.2 340.5,-39.2"/>
<text text-anchor="start" x="372.9053" y="-44.3" font-family="Helvetica,sans-Serif" font-size="11.00" fill="#000000">1 &gt;</text>
<polygon fill="#000000" stroke="#000000" points="260.5,-39.2 260.5,-56.2 260.5,-56.2 260.5,-39.2 260.5,-39.2"/>
<polygon fill="#000000" stroke="#000000" points="340.5,-39.2 340.5,-56.2 340.5,-56.2 340.5,-39.2 340.5,-39.2"/>
</a>
</g>
</g>
<!-- case_note&#45;&gt;case_note_sub_type -->
<g id="edge1" class="edge">
<title>case_note:w&#45;&gt;case_note_sub_type:e</title>
<path fill="none" stroke="#000000" d="M425.9909,-332.2C414.6774,-332.2 407.4931,-332.2 391.5,-332.2"/>
<polygon fill="#000000" stroke="#000000" points="432.5,-332.2001 440.5,-335.8 436.5,-332.2 440.5,-332.2 440.5,-332.2 440.5,-332.2 436.5,-332.2 440.5,-328.6 432.5,-332.2001 432.5,-332.2001"/>
<ellipse fill="none" stroke="#000000" cx="429.3" cy="-332.2001" rx="3.2" ry="3.2"/>
</g>
<!-- case_note_sub_type&#45;&gt;case_note_type -->
<g id="edge3" class="edge">
<title>case_note_sub_type:w&#45;&gt;case_note_type:e</title>
<path fill="none" stroke="#000000" stroke-dasharray="5,2" d="M194.2027,-290.0164C182.7382,-293.1407 176.0655,-299.2 159.5,-299.2"/>
<polygon fill="#000000" stroke="#000000" points="200.5638,-289.2083 208.9537,-291.7713 204.5319,-288.7042 208.5,-288.2 208.5,-288.2 208.5,-288.2 204.5319,-288.7042 208.0463,-284.6287 200.5638,-289.2083 200.5638,-289.2083"/>
<ellipse fill="none" stroke="#000000" cx="197.3893" cy="-289.6116" rx="3.2" ry="3.2"/>
</g>
<!-- case_note_sub_type&#45;&gt;case_note_type -->
<g id="edge4" class="edge">
<title>case_note_sub_type:w&#45;&gt;case_note_type:e</title>
<path fill="none" stroke="#000000" d="M194.2027,-308.3836C182.7382,-305.2593 176.0655,-299.2 159.5,-299.2"/>
<polygon fill="#000000" stroke="#000000" points="200.5638,-309.1917 208.0463,-313.7713 204.5319,-309.6958 208.5,-310.2 208.5,-310.2 208.5,-310.2 204.5319,-309.6958 208.9537,-306.6287 200.5638,-309.1917 200.5638,-309.1917"/>
<ellipse fill="none" stroke="#000000" cx="197.3893" cy="-308.7884" rx="3.2" ry="3.2"/>
</g>
</g>
</svg>
