<?xml version="1.0" encoding="UTF-8" standalone="no"?>
<!DOCTYPE svg PUBLIC "-//W3C//DTD SVG 1.1//EN"
 "http://www.w3.org/Graphics/SVG/1.1/DTD/svg11.dtd">
<!-- Generated by graphviz version 2.40.1 (20161225.0304)
 -->
<!-- Title: compactRelationshipsDiagram Pages: 1 -->
<svg width="865pt" height="557pt"
 viewBox="0.00 0.00 865.00 557.20" xmlns="http://www.w3.org/2000/svg" xmlns:xlink="http://www.w3.org/1999/xlink">
<g id="graph0" class="graph" transform="scale(1 1) rotate(0) translate(4 553.2)">
<title>compactRelationshipsDiagram</title>
<polygon fill="#ffffff" stroke="transparent" points="-4,4 -4,-553.2 861,-553.2 861,4 -4,4"/>
<text text-anchor="middle" x="72.4936" y="-7.3" font-family="Helvetica,sans-Serif" font-size="11.00" fill="#000000">Generated by SchemaSpy</text>
<!-- case_note_amendment -->
<g id="node1" class="node">
<title>case_note_amendment</title>
<g id="a_node1"><a xlink:href="../../tables/case_note_amendment.html" xlink:title="case_note_amendment" target="_top">
<polygon fill="#ffffff" stroke="transparent" points="644,-170.2 644,-297.2 849,-297.2 849,-170.2 644,-170.2"/>
<polygon fill="#f5f5f5" stroke="transparent" points="644.5,-273.7 644.5,-296.7 849.5,-296.7 849.5,-273.7 644.5,-273.7"/>
<polygon fill="none" stroke="#000000" points="644.5,-273.7 644.5,-296.7 849.5,-296.7 849.5,-273.7 644.5,-273.7"/>
<text text-anchor="start" x="649.5" y="-282.3" font-family="Helvetica,sans-Serif" font-weight="bold" font-size="11.00" fill="#000000">case_note_amendment</text>
<text text-anchor="start" x="815.0219" y="-281.8" font-family="Helvetica,sans-Serif" font-size="11.00" fill="#000000">[table]</text>
<polygon fill="#ffffff" stroke="transparent" points="644.5,-251.7 644.5,-273.7 849.5,-273.7 849.5,-251.7 644.5,-251.7"/>
<polygon fill="none" stroke="#000000" points="644.5,-251.7 644.5,-273.7 849.5,-273.7 849.5,-251.7 644.5,-251.7"/>
<image xlink:href="../../images/foreignKeys.png" width="11px" height="12px" preserveAspectRatio="xMinYMin meet" x="649.5" y="-268.7"/>
<text text-anchor="start" x="673.5" y="-258.8" font-family="Helvetica,sans-Serif" font-size="11.00" fill="#000000">case_note_id</text>
<polygon fill="#ffffff" stroke="transparent" points="644.5,-229.7 644.5,-251.7 849.5,-251.7 849.5,-229.7 644.5,-229.7"/>
<polygon fill="none" stroke="#000000" points="644.5,-229.7 644.5,-251.7 849.5,-251.7 849.5,-229.7 644.5,-229.7"/>
<text text-anchor="start" x="673.5" y="-236.8" font-family="Helvetica,sans-Serif" font-size="11.00" fill="#000000">created_at</text>
<polygon fill="none" stroke="#000000" points="644.5,-207.7 644.5,-229.7 849.5,-229.7 849.5,-207.7 644.5,-207.7"/>
<image xlink:href="../../images/primaryKeys.png" width="11px" height="12px" preserveAspectRatio="xMinYMin meet" x="649.5" y="-224.7"/>
<text text-anchor="start" x="673.5" y="-214.8" font-family="Helvetica,sans-Serif" font-size="11.00" fill="#000000">id</text>
<polygon fill="none" stroke="#000000" points="644.5,-188.7 644.5,-207.7 849.5,-207.7 849.5,-188.7 644.5,-188.7"/>
<text text-anchor="start" x="647.5" y="-194.8" font-family="Helvetica,sans-Serif" font-size="11.00" fill="#000000">...</text>
<polygon fill="#ffffff" stroke="transparent" points="644.5,-169.7 644.5,-188.7 849.5,-188.7 849.5,-169.7 644.5,-169.7"/>
<polygon fill="none" stroke="#000000" points="644.5,-169.7 644.5,-188.7 849.5,-188.7 849.5,-169.7 644.5,-169.7"/>
<polygon fill="#ffffff" stroke="transparent" points="645.5,-170.7 645.5,-187.7 719.5,-187.7 719.5,-170.7 645.5,-170.7"/>
<text text-anchor="start" x="647.5" y="-175.8" font-family="Helvetica,sans-Serif" font-size="11.00" fill="#000000">&lt; 1</text>
<polygon fill="#ffffff" stroke="transparent" points="719.5,-170.7 719.5,-187.7 784.5,-187.7 784.5,-170.7 719.5,-170.7"/>
<text text-anchor="start" x="748.9431" y="-175.8" font-family="Helvetica,sans-Serif" font-size="11.00" fill="#000000"> &#160;</text>
<polygon fill="#ffffff" stroke="transparent" points="784.5,-170.7 784.5,-187.7 848.5,-187.7 848.5,-170.7 784.5,-170.7"/>
<text text-anchor="start" x="840.3862" y="-175.8" font-family="Helvetica,sans-Serif" font-size="11.00" fill="#000000"> &#160;</text>
<polygon fill="#000000" stroke="#000000" points="719.5,-170.7 719.5,-187.7 719.5,-187.7 719.5,-170.7 719.5,-170.7"/>
<polygon fill="#000000" stroke="#000000" points="784.5,-170.7 784.5,-187.7 784.5,-187.7 784.5,-170.7 784.5,-170.7"/>
</a>
</g>
</g>
<!-- case_note -->
<g id="node4" class="node">
<title>case_note</title>
<g id="a_node4"><a xlink:href="../../tables/case_note.html" xlink:title="case_note" target="_top">
<polygon fill="#ffffff" stroke="transparent" points="440,-38.2 440,-297.2 595,-297.2 595,-38.2 440,-38.2"/>
<polygon fill="#f5f5f5" stroke="transparent" points="440.5,-273.7 440.5,-296.7 595.5,-296.7 595.5,-273.7 440.5,-273.7"/>
<polygon fill="none" stroke="#000000" points="440.5,-273.7 440.5,-296.7 595.5,-296.7 595.5,-273.7 440.5,-273.7"/>
<text text-anchor="start" x="445.5" y="-282.3" font-family="Helvetica,sans-Serif" font-weight="bold" font-size="11.00" fill="#000000">case_note</text>
<text text-anchor="start" x="560.5437" y="-281.8" font-family="Helvetica,sans-Serif" font-size="11.00" fill="#000000">[table]</text>
<polygon fill="none" stroke="#000000" points="440.5,-251.7 440.5,-273.7 595.5,-273.7 595.5,-251.7 440.5,-251.7"/>
<image xlink:href="../../images/primaryKeys.png" width="11px" height="12px" preserveAspectRatio="xMinYMin meet" x="445.5" y="-268.7"/>
<text text-anchor="start" x="460.5" y="-258.8" font-family="Helvetica,sans-Serif" font-size="11.00" fill="#000000">id</text>
<polygon fill="#ffffff" stroke="transparent" points="440.5,-229.7 440.5,-251.7 595.5,-251.7 595.5,-229.7 440.5,-229.7"/>
<polygon fill="none" stroke="#000000" points="440.5,-229.7 440.5,-251.7 595.5,-251.7 595.5,-229.7 440.5,-229.7"/>
<text text-anchor="start" x="460.5" y="-236.8" font-family="Helvetica,sans-Serif" font-size="11.00" fill="#000000">person_identifier</text>
<polygon fill="#ffffff" stroke="transparent" points="440.5,-207.7 440.5,-229.7 595.5,-229.7 595.5,-207.7 440.5,-207.7"/>
<polygon fill="none" stroke="#000000" points="440.5,-207.7 440.5,-229.7 595.5,-229.7 595.5,-207.7 440.5,-207.7"/>
<text text-anchor="start" x="460.5" y="-214.8" font-family="Helvetica,sans-Serif" font-size="11.00" fill="#000000">location_id</text>
<polygon fill="#ffffff" stroke="transparent" points="440.5,-185.7 440.5,-207.7 595.5,-207.7 595.5,-185.7 440.5,-185.7"/>
<polygon fill="none" stroke="#000000" points="440.5,-185.7 440.5,-207.7 595.5,-207.7 595.5,-185.7 440.5,-185.7"/>
<text text-anchor="start" x="460.5" y="-192.8" font-family="Helvetica,sans-Serif" font-size="11.00" fill="#000000">author_username</text>
<polygon fill="#ffffff" stroke="transparent" points="440.5,-163.7 440.5,-185.7 595.5,-185.7 595.5,-163.7 440.5,-163.7"/>
<polygon fill="none" stroke="#000000" points="440.5,-163.7 440.5,-185.7 595.5,-185.7 595.5,-163.7 440.5,-163.7"/>
<image xlink:href="../../images/foreignKeys.png" width="11px" height="12px" preserveAspectRatio="xMinYMin meet" x="445.5" y="-180.7"/>
<text text-anchor="start" x="460.5" y="-170.8" font-family="Helvetica,sans-Serif" font-size="11.00" fill="#000000">sub_type_id</text>
<polygon fill="#ffffff" stroke="transparent" points="440.5,-141.7 440.5,-163.7 595.5,-163.7 595.5,-141.7 440.5,-141.7"/>
<polygon fill="none" stroke="#000000" points="440.5,-141.7 440.5,-163.7 595.5,-163.7 595.5,-141.7 440.5,-141.7"/>
<text text-anchor="start" x="460.5" y="-148.8" font-family="Helvetica,sans-Serif" font-size="11.00" fill="#000000">occurred_at</text>
<polygon fill="#ffffff" stroke="transparent" points="440.5,-119.7 440.5,-141.7 595.5,-141.7 595.5,-119.7 440.5,-119.7"/>
<polygon fill="none" stroke="#000000" points="440.5,-119.7 440.5,-141.7 595.5,-141.7 595.5,-119.7 440.5,-119.7"/>
<text text-anchor="start" x="460.5" y="-126.8" font-family="Helvetica,sans-Serif" font-size="11.00" fill="#000000">created_at</text>
<polygon fill="#ffffff" stroke="transparent" points="440.5,-97.7 440.5,-119.7 595.5,-119.7 595.5,-97.7 440.5,-97.7"/>
<polygon fill="none" stroke="#000000" points="440.5,-97.7 440.5,-119.7 595.5,-119.7 595.5,-97.7 440.5,-97.7"/>
<text text-anchor="start" x="460.5" y="-104.8" font-family="Helvetica,sans-Serif" font-size="11.00" fill="#000000">legacy_id</text>
<polygon fill="#ffffff" stroke="transparent" points="440.5,-75.7 440.5,-97.7 595.5,-97.7 595.5,-75.7 440.5,-75.7"/>
<polygon fill="none" stroke="#000000" points="440.5,-75.7 440.5,-97.7 595.5,-97.7 595.5,-75.7 440.5,-75.7"/>
<text text-anchor="start" x="460.5" y="-82.8" font-family="Helvetica,sans-Serif" font-size="11.00" fill="#000000">author_user_id</text>
<polygon fill="none" stroke="#000000" points="440.5,-56.7 440.5,-75.7 595.5,-75.7 595.5,-56.7 440.5,-56.7"/>
<text text-anchor="start" x="443.5" y="-62.8" font-family="Helvetica,sans-Serif" font-size="11.00" fill="#000000">...</text>
<polygon fill="#ffffff" stroke="transparent" points="440.5,-37.7 440.5,-56.7 595.5,-56.7 595.5,-37.7 440.5,-37.7"/>
<polygon fill="none" stroke="#000000" points="440.5,-37.7 440.5,-56.7 595.5,-56.7 595.5,-37.7 440.5,-37.7"/>
<polygon fill="#ffffff" stroke="transparent" points="441.5,-38.7 441.5,-55.7 495.5,-55.7 495.5,-38.7 441.5,-38.7"/>
<text text-anchor="start" x="443.5" y="-43.8" font-family="Helvetica,sans-Serif" font-size="11.00" fill="#000000">&lt; 1</text>
<polygon fill="#ffffff" stroke="transparent" points="495.5,-38.7 495.5,-55.7 540.5,-55.7 540.5,-38.7 495.5,-38.7"/>
<text text-anchor="start" x="514.9431" y="-43.8" font-family="Helvetica,sans-Serif" font-size="11.00" fill="#000000"> &#160;</text>
<polygon fill="#ffffff" stroke="transparent" points="540.5,-38.7 540.5,-55.7 594.5,-55.7 594.5,-38.7 540.5,-38.7"/>
<text text-anchor="start" x="576.9053" y="-43.8" font-family="Helvetica,sans-Serif" font-size="11.00" fill="#000000">1 &gt;</text>
<polygon fill="#000000" stroke="#000000" points="495.5,-38.7 495.5,-55.7 495.5,-55.7 495.5,-38.7 495.5,-38.7"/>
<polygon fill="#000000" stroke="#000000" points="540.5,-38.7 540.5,-55.7 540.5,-55.7 540.5,-38.7 540.5,-38.7"/>
</a>
</g>
</g>
<!-- case_note_amendment&#45;&gt;case_note -->
<g id="edge2" class="edge">
<title>case_note_amendment:w&#45;&gt;case_note:e</title>
<path fill="none" stroke="#000000" d="M629.9909,-262.7C618.6774,-262.7 611.4931,-262.7 595.5,-262.7"/>
<polygon fill="#000000" stroke="#000000" points="636.5,-262.7001 644.5,-266.3 640.5,-262.7 644.5,-262.7 644.5,-262.7 644.5,-262.7 640.5,-262.7 644.5,-259.1 636.5,-262.7001 636.5,-262.7001"/>
<ellipse fill="none" stroke="#000000" cx="633.3" cy="-262.7001" rx="3.2" ry="3.2"/>
</g>
<!-- case_note_deleted -->
<g id="node2" class="node">
<title>case_note_deleted</title>
<g id="a_node2"><a xlink:href="../../tables/case_note_deleted.html" xlink:title="case_note_deleted" target="_top">
<polygon fill="#ffffff" stroke="transparent" points="218,-374.2 218,-545.2 391,-545.2 391,-374.2 218,-374.2"/>
<polygon fill="#f5f5f5" stroke="transparent" points="218.5,-521.7 218.5,-544.7 391.5,-544.7 391.5,-521.7 218.5,-521.7"/>
<polygon fill="none" stroke="#000000" points="218.5,-521.7 218.5,-544.7 391.5,-544.7 391.5,-521.7 218.5,-521.7"/>
<text text-anchor="start" x="223.5" y="-530.3" font-family="Helvetica,sans-Serif" font-weight="bold" font-size="11.00" fill="#000000">case_note_deleted</text>
<text text-anchor="start" x="357.0219" y="-529.8" font-family="Helvetica,sans-Serif" font-size="11.00" fill="#000000">[table]</text>
<polygon fill="#ffffff" stroke="transparent" points="218.5,-499.7 218.5,-521.7 391.5,-521.7 391.5,-499.7 218.5,-499.7"/>
<polygon fill="none" stroke="#000000" points="218.5,-499.7 218.5,-521.7 391.5,-521.7 391.5,-499.7 218.5,-499.7"/>
<text text-anchor="start" x="247.5" y="-506.8" font-family="Helvetica,sans-Serif" font-size="11.00" fill="#000000">person_identifier</text>
<polygon fill="#ffffff" stroke="transparent" points="218.5,-477.7 218.5,-499.7 391.5,-499.7 391.5,-477.7 218.5,-477.7"/>
<polygon fill="none" stroke="#000000" points="218.5,-477.7 218.5,-499.7 391.5,-499.7 391.5,-477.7 218.5,-477.7"/>
<text text-anchor="start" x="247.5" y="-484.8" font-family="Helvetica,sans-Serif" font-size="11.00" fill="#000000">legacy_id</text>
<polygon fill="#ffffff" stroke="transparent" points="218.5,-455.7 218.5,-477.7 391.5,-477.7 391.5,-455.7 218.5,-455.7"/>
<polygon fill="none" stroke="#000000" points="218.5,-455.7 218.5,-477.7 391.5,-477.7 391.5,-455.7 218.5,-455.7"/>
<text text-anchor="start" x="247.5" y="-462.8" font-family="Helvetica,sans-Serif" font-size="11.00" fill="#000000">caseload_id</text>
<polygon fill="#ffffff" stroke="transparent" points="218.5,-433.7 218.5,-455.7 391.5,-455.7 391.5,-433.7 218.5,-433.7"/>
<polygon fill="none" stroke="#000000" points="218.5,-433.7 218.5,-455.7 391.5,-455.7 391.5,-433.7 218.5,-433.7"/>
<text text-anchor="start" x="247.5" y="-440.8" font-family="Helvetica,sans-Serif" font-size="11.00" fill="#000000">cause</text>
<polygon fill="none" stroke="#000000" points="218.5,-411.7 218.5,-433.7 391.5,-433.7 391.5,-411.7 218.5,-411.7"/>
<image xlink:href="../../images/primaryKeys.png" width="11px" height="12px" preserveAspectRatio="xMinYMin meet" x="223.5" y="-428.7"/>
<text text-anchor="start" x="247.5" y="-418.8" font-family="Helvetica,sans-Serif" font-size="11.00" fill="#000000">id</text>
<polygon fill="none" stroke="#000000" points="218.5,-392.7 218.5,-411.7 391.5,-411.7 391.5,-392.7 218.5,-392.7"/>
<text text-anchor="start" x="221.5" y="-398.8" font-family="Helvetica,sans-Serif" font-size="11.00" fill="#000000">...</text>
<polygon fill="#ffffff" stroke="transparent" points="218.5,-373.7 218.5,-392.7 391.5,-392.7 391.5,-373.7 218.5,-373.7"/>
<polygon fill="none" stroke="#000000" points="218.5,-373.7 218.5,-392.7 391.5,-392.7 391.5,-373.7 218.5,-373.7"/>
<polygon fill="#ffffff" stroke="transparent" points="219.5,-374.7 219.5,-391.7 276.5,-391.7 276.5,-374.7 219.5,-374.7"/>
<text text-anchor="start" x="221.5" y="-379.8" font-family="Helvetica,sans-Serif" font-size="11.00" fill="#000000"> &#160;</text>
<polygon fill="#ffffff" stroke="transparent" points="276.5,-374.7 276.5,-391.7 333.5,-391.7 333.5,-374.7 276.5,-374.7"/>
<text text-anchor="start" x="301.9431" y="-379.8" font-family="Helvetica,sans-Serif" font-size="11.00" fill="#000000"> &#160;</text>
<polygon fill="#ffffff" stroke="transparent" points="333.5,-374.7 333.5,-391.7 390.5,-391.7 390.5,-374.7 333.5,-374.7"/>
<text text-anchor="start" x="382.3862" y="-379.8" font-family="Helvetica,sans-Serif" font-size="11.00" fill="#000000"> &#160;</text>
<polygon fill="#000000" stroke="#000000" points="276.5,-374.7 276.5,-391.7 276.5,-391.7 276.5,-374.7 276.5,-374.7"/>
<polygon fill="#000000" stroke="#000000" points="333.5,-374.7 333.5,-391.7 333.5,-391.7 333.5,-374.7 333.5,-374.7"/>
</a>
</g>
</g>
<!-- case_note_type -->
<g id="node3" class="node">
<title>case_note_type</title>
<g id="a_node3"><a xlink:href="../../tables/case_note_type.html" xlink:title="case_note_type" target="_top">
<polygon fill="#ffffff" stroke="transparent" points="8,-104.2 8,-187.2 159,-187.2 159,-104.2 8,-104.2"/>
<polygon fill="#f5f5f5" stroke="transparent" points="8.5,-163.7 8.5,-186.7 159.5,-186.7 159.5,-163.7 8.5,-163.7"/>
<polygon fill="none" stroke="#000000" points="8.5,-163.7 8.5,-186.7 159.5,-186.7 159.5,-163.7 8.5,-163.7"/>
<text text-anchor="start" x="13.5" y="-172.3" font-family="Helvetica,sans-Serif" font-weight="bold" font-size="11.00" fill="#000000">case_note_type</text>
<text text-anchor="start" x="125.0219" y="-171.8" font-family="Helvetica,sans-Serif" font-size="11.00" fill="#000000">[table]</text>
<polygon fill="none" stroke="#000000" points="8.5,-141.7 8.5,-163.7 159.5,-163.7 159.5,-141.7 8.5,-141.7"/>
<image xlink:href="../../images/primaryKeys.png" width="11px" height="12px" preserveAspectRatio="xMinYMin meet" x="13.5" y="-158.7"/>
<text text-anchor="start" x="32.5" y="-148.8" font-family="Helvetica,sans-Serif" font-size="11.00" fill="#000000">code</text>
<polygon fill="none" stroke="#000000" points="8.5,-122.7 8.5,-141.7 159.5,-141.7 159.5,-122.7 8.5,-122.7"/>
<text text-anchor="start" x="11.5" y="-128.8" font-family="Helvetica,sans-Serif" font-size="11.00" fill="#000000">...</text>
<polygon fill="#ffffff" stroke="transparent" points="8.5,-103.7 8.5,-122.7 159.5,-122.7 159.5,-103.7 8.5,-103.7"/>
<polygon fill="none" stroke="#000000" points="8.5,-103.7 8.5,-122.7 159.5,-122.7 159.5,-103.7 8.5,-103.7"/>
<polygon fill="#ffffff" stroke="transparent" points="9.5,-104.7 9.5,-121.7 56.5,-121.7 56.5,-104.7 9.5,-104.7"/>
<text text-anchor="start" x="11.5" y="-109.8" font-family="Helvetica,sans-Serif" font-size="11.00" fill="#000000"> &#160;</text>
<polygon fill="#ffffff" stroke="transparent" points="56.5,-104.7 56.5,-121.7 103.5,-121.7 103.5,-104.7 56.5,-104.7"/>
<text text-anchor="start" x="76.9431" y="-109.8" font-family="Helvetica,sans-Serif" font-size="11.00" fill="#000000"> &#160;</text>
<polygon fill="#ffffff" stroke="transparent" points="103.5,-104.7 103.5,-121.7 158.5,-121.7 158.5,-104.7 103.5,-104.7"/>
<text text-anchor="start" x="140.9053" y="-109.8" font-family="Helvetica,sans-Serif" font-size="11.00" fill="#000000">1 &gt;</text>
<polygon fill="#000000" stroke="#000000" points="56.5,-104.7 56.5,-121.7 56.5,-121.7 56.5,-104.7 56.5,-104.7"/>
<polygon fill="#000000" stroke="#000000" points="103.5,-104.7 103.5,-121.7 103.5,-121.7 103.5,-104.7 103.5,-104.7"/>
</a>
</g>
</g>
<!-- case_note_sub_type -->
<g id="node5" class="node">
<title>case_note_sub_type</title>
<g id="a_node5"><a xlink:href="../../tables/case_note_sub_type.html" xlink:title="case_note_sub_type" target="_top">
<polygon fill="#ffffff" stroke="transparent" points="208,-60.2 208,-209.2 391,-209.2 391,-60.2 208,-60.2"/>
<polygon fill="#f5f5f5" stroke="transparent" points="208.5,-185.7 208.5,-208.7 391.5,-208.7 391.5,-185.7 208.5,-185.7"/>
<polygon fill="none" stroke="#000000" points="208.5,-185.7 208.5,-208.7 391.5,-208.7 391.5,-185.7 208.5,-185.7"/>
<text text-anchor="start" x="213.5" y="-194.3" font-family="Helvetica,sans-Serif" font-weight="bold" font-size="11.00" fill="#000000">case_note_sub_type</text>
<text text-anchor="start" x="357.0219" y="-193.8" font-family="Helvetica,sans-Serif" font-size="11.00" fill="#000000">[table]</text>
<polygon fill="none" stroke="#000000" points="208.5,-163.7 208.5,-185.7 391.5,-185.7 391.5,-163.7 208.5,-163.7"/>
<image xlink:href="../../images/primaryKeys.png" width="11px" height="12px" preserveAspectRatio="xMinYMin meet" x="213.5" y="-180.7"/>
<text text-anchor="start" x="236.5" y="-170.8" font-family="Helvetica,sans-Serif" font-size="11.00" fill="#000000">id</text>
<polygon fill="#ffffff" stroke="transparent" points="208.5,-141.7 208.5,-163.7 391.5,-163.7 391.5,-141.7 208.5,-141.7"/>
<polygon fill="none" stroke="#000000" points="208.5,-141.7 208.5,-163.7 391.5,-163.7 391.5,-141.7 208.5,-141.7"/>
<image xlink:href="../../images/foreignKeys.png" width="11px" height="12px" preserveAspectRatio="xMinYMin meet" x="213.5" y="-158.7"/>
<text text-anchor="start" x="236.5" y="-148.8" font-family="Helvetica,sans-Serif" font-size="11.00" fill="#000000">type_code</text>
<polygon fill="#ffffff" stroke="transparent" points="208.5,-119.7 208.5,-141.7 391.5,-141.7 391.5,-119.7 208.5,-119.7"/>
<polygon fill="none" stroke="#000000" points="208.5,-119.7 208.5,-141.7 391.5,-141.7 391.5,-119.7 208.5,-119.7"/>
<image xlink:href="../../images/foreignKeys.png" width="11px" height="12px" preserveAspectRatio="xMinYMin meet" x="213.5" y="-136.7"/>
<text text-anchor="start" x="236.5" y="-126.8" font-family="Helvetica,sans-Serif" font-size="11.00" fill="#000000">code</text>
<polygon fill="#ffffff" stroke="transparent" points="208.5,-97.7 208.5,-119.7 391.5,-119.7 391.5,-97.7 208.5,-97.7"/>
<polygon fill="none" stroke="#000000" points="208.5,-97.7 208.5,-119.7 391.5,-119.7 391.5,-97.7 208.5,-97.7"/>
<text text-anchor="start" x="236.5" y="-104.8" font-family="Helvetica,sans-Serif" font-size="11.00" fill="#000000">sync_to_nomis</text>
<polygon fill="none" stroke="#000000" points="208.5,-78.7 208.5,-97.7 391.5,-97.7 391.5,-78.7 208.5,-78.7"/>
<text text-anchor="start" x="211.5" y="-84.8" font-family="Helvetica,sans-Serif" font-size="11.00" fill="#000000">...</text>
<polygon fill="#ffffff" stroke="transparent" points="208.5,-59.7 208.5,-78.7 391.5,-78.7 391.5,-59.7 208.5,-59.7"/>
<polygon fill="none" stroke="#000000" points="208.5,-59.7 208.5,-78.7 391.5,-78.7 391.5,-59.7 208.5,-59.7"/>
<polygon fill="#ffffff" stroke="transparent" points="209.5,-60.7 209.5,-77.7 260.5,-77.7 260.5,-60.7 209.5,-60.7"/>
<text text-anchor="start" x="211.5" y="-65.8" font-family="Helvetica,sans-Serif" font-size="11.00" fill="#000000">&lt; 1</text>
<polygon fill="#ffffff" stroke="transparent" points="260.5,-60.7 260.5,-77.7 340.5,-77.7 340.5,-60.7 260.5,-60.7"/>
<text text-anchor="start" x="278.1904" y="-65.8" font-family="Helvetica,sans-Serif" font-size="11.00" fill="#000000">386 rows</text>
<polygon fill="#ffffff" stroke="transparent" points="340.5,-60.7 340.5,-77.7 390.5,-77.7 390.5,-60.7 340.5,-60.7"/>
<text text-anchor="start" x="372.9053" y="-65.8" font-family="Helvetica,sans-Serif" font-size="11.00" fill="#000000">1 &gt;</text>
<polygon fill="#000000" stroke="#000000" points="260.5,-60.7 260.5,-77.7 260.5,-77.7 260.5,-60.7 260.5,-60.7"/>
<polygon fill="#000000" stroke="#000000" points="340.5,-60.7 340.5,-77.7 340.5,-77.7 340.5,-60.7 340.5,-60.7"/>
</a>
</g>
</g>
<!-- case_note&#45;&gt;case_note_sub_type -->
<g id="edge1" class="edge">
<title>case_note:w&#45;&gt;case_note_sub_type:e</title>
<path fill="none" stroke="#000000" d="M425.9909,-174.7C414.6774,-174.7 407.4931,-174.7 391.5,-174.7"/>
<polygon fill="#000000" stroke="#000000" points="432.5,-174.7001 440.5,-178.3 436.5,-174.7 440.5,-174.7 440.5,-174.7 440.5,-174.7 436.5,-174.7 440.5,-171.1 432.5,-174.7001 432.5,-174.7001"/>
<ellipse fill="none" stroke="#000000" cx="429.3" cy="-174.7001" rx="3.2" ry="3.2"/>
</g>
<!-- case_note_sub_type&#45;&gt;case_note_type -->
<g id="edge3" class="edge">
<title>case_note_sub_type:w&#45;&gt;case_note_type:e</title>
<path fill="none" stroke="#000000" d="M193.9909,-152.7C182.6774,-152.7 175.4931,-152.7 159.5,-152.7"/>
<polygon fill="#000000" stroke="#000000" points="200.5,-152.7001 208.5,-156.3 204.5,-152.7 208.5,-152.7 208.5,-152.7 208.5,-152.7 204.5,-152.7 208.5,-149.1 200.5,-152.7001 200.5,-152.7001"/>
<ellipse fill="none" stroke="#000000" cx="197.3" cy="-152.7001" rx="3.2" ry="3.2"/>
</g>
</g>
</svg>
