<?xml version="1.0" encoding="UTF-8" standalone="no"?>
<!DOCTYPE svg PUBLIC "-//W3C//DTD SVG 1.1//EN"
 "http://www.w3.org/Graphics/SVG/1.1/DTD/svg11.dtd">
<!-- Generated by graphviz version 2.40.1 (20161225.0304)
 -->
<!-- Title: oneDegreeRelationshipsDiagramImplied Pages: 1 -->
<svg width="683pt" height="469pt"
 viewBox="0.00 0.00 683.00 468.70" xmlns="http://www.w3.org/2000/svg" xmlns:xlink="http://www.w3.org/1999/xlink">
<g id="graph0" class="graph" transform="scale(1 1) rotate(0) translate(4 464.7)">
<title>oneDegreeRelationshipsDiagramImplied</title>
<polygon fill="#ffffff" stroke="transparent" points="-4,4 -4,-464.7 679,-464.7 679,4 -4,4"/>
<text text-anchor="middle" x="72.4936" y="-7.3" font-family="Helvetica,sans-Serif" font-size="11.00" fill="#000000">Generated by SchemaSpy</text>
<!-- case_note -->
<g id="node1" class="node">
<title>case_note</title>
<g id="a_node1"><a xlink:href="../../tables/case_note.html" xlink:title="case_note" target="_top">
<polygon fill="#ffffff" stroke="transparent" points="512,-197.7 512,-456.7 667,-456.7 667,-197.7 512,-197.7"/>
<polygon fill="#f5f5f5" stroke="transparent" points="512.5,-433.2 512.5,-456.2 667.5,-456.2 667.5,-433.2 512.5,-433.2"/>
<polygon fill="none" stroke="#000000" points="512.5,-433.2 512.5,-456.2 667.5,-456.2 667.5,-433.2 512.5,-433.2"/>
<text text-anchor="start" x="517.5" y="-441.8" font-family="Helvetica,sans-Serif" font-weight="bold" font-size="11.00" fill="#000000">case_note</text>
<text text-anchor="start" x="632.5437" y="-441.3" font-family="Helvetica,sans-Serif" font-size="11.00" fill="#000000">[table]</text>
<polygon fill="none" stroke="#000000" points="512.5,-411.2 512.5,-433.2 667.5,-433.2 667.5,-411.2 512.5,-411.2"/>
<image xlink:href="../../images/primaryKeys.png" width="11px" height="12px" preserveAspectRatio="xMinYMin meet" x="517.5" y="-428.2"/>
<text text-anchor="start" x="532.5" y="-418.3" font-family="Helvetica,sans-Serif" font-size="11.00" fill="#000000">id</text>
<polygon fill="#ffffff" stroke="transparent" points="512.5,-389.2 512.5,-411.2 667.5,-411.2 667.5,-389.2 512.5,-389.2"/>
<polygon fill="none" stroke="#000000" points="512.5,-389.2 512.5,-411.2 667.5,-411.2 667.5,-389.2 512.5,-389.2"/>
<text text-anchor="start" x="532.5" y="-396.3" font-family="Helvetica,sans-Serif" font-size="11.00" fill="#000000">person_identifier</text>
<polygon fill="#ffffff" stroke="transparent" points="512.5,-367.2 512.5,-389.2 667.5,-389.2 667.5,-367.2 512.5,-367.2"/>
<polygon fill="none" stroke="#000000" points="512.5,-367.2 512.5,-389.2 667.5,-389.2 667.5,-367.2 512.5,-367.2"/>
<text text-anchor="start" x="532.5" y="-374.3" font-family="Helvetica,sans-Serif" font-size="11.00" fill="#000000">location_id</text>
<polygon fill="#ffffff" stroke="transparent" points="512.5,-345.2 512.5,-367.2 667.5,-367.2 667.5,-345.2 512.5,-345.2"/>
<polygon fill="none" stroke="#000000" points="512.5,-345.2 512.5,-367.2 667.5,-367.2 667.5,-345.2 512.5,-345.2"/>
<text text-anchor="start" x="532.5" y="-352.3" font-family="Helvetica,sans-Serif" font-size="11.00" fill="#000000">author_username</text>
<polygon fill="#ffffff" stroke="transparent" points="512.5,-323.2 512.5,-345.2 667.5,-345.2 667.5,-323.2 512.5,-323.2"/>
<polygon fill="none" stroke="#000000" points="512.5,-323.2 512.5,-345.2 667.5,-345.2 667.5,-323.2 512.5,-323.2"/>
<image xlink:href="../../images/foreignKeys.png" width="11px" height="12px" preserveAspectRatio="xMinYMin meet" x="517.5" y="-340.2"/>
<text text-anchor="start" x="532.5" y="-330.3" font-family="Helvetica,sans-Serif" font-size="11.00" fill="#000000">sub_type_id</text>
<polygon fill="#ffffff" stroke="transparent" points="512.5,-301.2 512.5,-323.2 667.5,-323.2 667.5,-301.2 512.5,-301.2"/>
<polygon fill="none" stroke="#000000" points="512.5,-301.2 512.5,-323.2 667.5,-323.2 667.5,-301.2 512.5,-301.2"/>
<text text-anchor="start" x="532.5" y="-308.3" font-family="Helvetica,sans-Serif" font-size="11.00" fill="#000000">occurred_at</text>
<polygon fill="#ffffff" stroke="transparent" points="512.5,-279.2 512.5,-301.2 667.5,-301.2 667.5,-279.2 512.5,-279.2"/>
<polygon fill="none" stroke="#000000" points="512.5,-279.2 512.5,-301.2 667.5,-301.2 667.5,-279.2 512.5,-279.2"/>
<text text-anchor="start" x="532.5" y="-286.3" font-family="Helvetica,sans-Serif" font-size="11.00" fill="#000000">created_at</text>
<polygon fill="#ffffff" stroke="transparent" points="512.5,-257.2 512.5,-279.2 667.5,-279.2 667.5,-257.2 512.5,-257.2"/>
<polygon fill="none" stroke="#000000" points="512.5,-257.2 512.5,-279.2 667.5,-279.2 667.5,-257.2 512.5,-257.2"/>
<text text-anchor="start" x="532.5" y="-264.3" font-family="Helvetica,sans-Serif" font-size="11.00" fill="#000000">legacy_id</text>
<polygon fill="#ffffff" stroke="transparent" points="512.5,-235.2 512.5,-257.2 667.5,-257.2 667.5,-235.2 512.5,-235.2"/>
<polygon fill="none" stroke="#000000" points="512.5,-235.2 512.5,-257.2 667.5,-257.2 667.5,-235.2 512.5,-235.2"/>
<text text-anchor="start" x="532.5" y="-242.3" font-family="Helvetica,sans-Serif" font-size="11.00" fill="#000000">author_user_id</text>
<polygon fill="none" stroke="#000000" points="512.5,-216.2 512.5,-235.2 667.5,-235.2 667.5,-216.2 512.5,-216.2"/>
<text text-anchor="start" x="515.5" y="-222.3" font-family="Helvetica,sans-Serif" font-size="11.00" fill="#000000">...</text>
<polygon fill="#ffffff" stroke="transparent" points="512.5,-197.2 512.5,-216.2 667.5,-216.2 667.5,-197.2 512.5,-197.2"/>
<polygon fill="none" stroke="#000000" points="512.5,-197.2 512.5,-216.2 667.5,-216.2 667.5,-197.2 512.5,-197.2"/>
<polygon fill="#ffffff" stroke="transparent" points="513.5,-198.2 513.5,-215.2 567.5,-215.2 567.5,-198.2 513.5,-198.2"/>
<text text-anchor="start" x="515.5" y="-203.3" font-family="Helvetica,sans-Serif" font-size="11.00" fill="#000000">&lt; 1</text>
<polygon fill="#ffffff" stroke="transparent" points="567.5,-198.2 567.5,-215.2 612.5,-215.2 612.5,-198.2 567.5,-198.2"/>
<text text-anchor="start" x="586.9431" y="-203.3" font-family="Helvetica,sans-Serif" font-size="11.00" fill="#000000"> &#160;</text>
<polygon fill="#ffffff" stroke="transparent" points="612.5,-198.2 612.5,-215.2 666.5,-215.2 666.5,-198.2 612.5,-198.2"/>
<text text-anchor="start" x="648.9053" y="-203.3" font-family="Helvetica,sans-Serif" font-size="11.00" fill="#000000">1 &gt;</text>
<polygon fill="#000000" stroke="#000000" points="567.5,-198.2 567.5,-215.2 567.5,-215.2 567.5,-198.2 567.5,-198.2"/>
<polygon fill="#000000" stroke="#000000" points="612.5,-198.2 612.5,-215.2 612.5,-215.2 612.5,-198.2 612.5,-198.2"/>
</a>
</g>
</g>
<!-- case_note_sub_type -->
<g id="node2" class="node">
<title>case_note_sub_type</title>
<g id="a_node2"><a xlink:href="../../tables/case_note_sub_type.html" xlink:title="case_note_sub_type" target="_top">
<polygon fill="#ffffff" stroke="transparent" points="208,-38.2 208,-370.2 463,-370.2 463,-38.2 208,-38.2"/>
<polygon fill="#f5f5f5" stroke="transparent" points="210.5,-345.2 210.5,-368.2 461.5,-368.2 461.5,-345.2 210.5,-345.2"/>
<polygon fill="none" stroke="#000000" points="210.5,-345.2 210.5,-368.2 461.5,-368.2 461.5,-345.2 210.5,-345.2"/>
<text text-anchor="start" x="215.5" y="-353.8" font-family="Helvetica,sans-Serif" font-weight="bold" font-size="11.00" fill="#000000">case_note_sub_type</text>
<text text-anchor="start" x="426.5437" y="-353.3" font-family="Helvetica,sans-Serif" font-size="11.00" fill="#000000">[table]</text>
<polygon fill="none" stroke="#000000" points="210.5,-323.2 210.5,-345.2 377.5,-345.2 377.5,-323.2 210.5,-323.2"/>
<image xlink:href="../../images/primaryKeys.png" width="11px" height="12px" preserveAspectRatio="xMinYMin meet" x="215.5" y="-340.2"/>
<text text-anchor="start" x="230.5" y="-330.3" font-family="Helvetica,sans-Serif" font-size="11.00" fill="#000000">id</text>
<polygon fill="none" stroke="#000000" points="377.5,-323.2 377.5,-345.2 461.5,-345.2 461.5,-323.2 377.5,-323.2"/>
<text text-anchor="start" x="380.5" y="-330.9" font-family="Helvetica,sans-Serif" font-size="11.00" fill="#000000">serial[10]</text>
<polygon fill="#ffffff" stroke="transparent" points="210.5,-301.2 210.5,-323.2 377.5,-323.2 377.5,-301.2 210.5,-301.2"/>
<polygon fill="none" stroke="#000000" points="210.5,-301.2 210.5,-323.2 377.5,-323.2 377.5,-301.2 210.5,-301.2"/>
<image xlink:href="../../images/foreignKeys.png" width="11px" height="12px" preserveAspectRatio="xMinYMin meet" x="215.5" y="-318.2"/>
<text text-anchor="start" x="230.5" y="-308.3" font-family="Helvetica,sans-Serif" font-size="11.00" fill="#000000">type_code</text>
<polygon fill="none" stroke="#000000" points="377.5,-301.2 377.5,-323.2 461.5,-323.2 461.5,-301.2 377.5,-301.2"/>
<text text-anchor="start" x="380.5" y="-308.9" font-family="Helvetica,sans-Serif" font-size="11.00" fill="#000000">varchar[12]</text>
<polygon fill="#ffffff" stroke="transparent" points="210.5,-279.2 210.5,-301.2 377.5,-301.2 377.5,-279.2 210.5,-279.2"/>
<polygon fill="none" stroke="#000000" points="210.5,-279.2 210.5,-301.2 377.5,-301.2 377.5,-279.2 210.5,-279.2"/>
<image xlink:href="../../images/foreignKeys.png" width="11px" height="12px" preserveAspectRatio="xMinYMin meet" x="215.5" y="-296.2"/>
<text text-anchor="start" x="230.5" y="-286.3" font-family="Helvetica,sans-Serif" font-size="11.00" fill="#000000">code</text>
<polygon fill="none" stroke="#000000" points="377.5,-279.2 377.5,-301.2 461.5,-301.2 461.5,-279.2 377.5,-279.2"/>
<text text-anchor="start" x="380.5" y="-286.9" font-family="Helvetica,sans-Serif" font-size="11.00" fill="#000000">varchar[12]</text>
<polygon fill="none" stroke="#000000" points="210.5,-257.2 210.5,-279.2 377.5,-279.2 377.5,-257.2 210.5,-257.2"/>
<text text-anchor="start" x="230.5" y="-264.3" font-family="Helvetica,sans-Serif" font-size="11.00" fill="#000000">description</text>
<polygon fill="none" stroke="#000000" points="377.5,-257.2 377.5,-279.2 461.5,-279.2 461.5,-257.2 377.5,-257.2"/>
<text text-anchor="start" x="380.5" y="-264.9" font-family="Helvetica,sans-Serif" font-size="11.00" fill="#000000">varchar[80]</text>
<polygon fill="none" stroke="#000000" points="210.5,-235.2 210.5,-257.2 377.5,-257.2 377.5,-235.2 210.5,-235.2"/>
<text text-anchor="start" x="230.5" y="-242.3" font-family="Helvetica,sans-Serif" font-size="11.00" fill="#000000">active</text>
<polygon fill="none" stroke="#000000" points="377.5,-235.2 377.5,-257.2 461.5,-257.2 461.5,-235.2 377.5,-235.2"/>
<text text-anchor="start" x="380.5" y="-242.9" font-family="Helvetica,sans-Serif" font-size="11.00" fill="#000000">bool[1]</text>
<polygon fill="none" stroke="#000000" points="210.5,-213.2 210.5,-235.2 377.5,-235.2 377.5,-213.2 210.5,-213.2"/>
<text text-anchor="start" x="230.5" y="-220.3" font-family="Helvetica,sans-Serif" font-size="11.00" fill="#000000">created_at</text>
<polygon fill="none" stroke="#000000" points="377.5,-213.2 377.5,-235.2 461.5,-235.2 461.5,-213.2 377.5,-213.2"/>
<text text-anchor="start" x="380.3807" y="-220.9" font-family="Helvetica,sans-Serif" font-size="11.00" fill="#000000">timestamp[29,6]</text>
<polygon fill="none" stroke="#000000" points="210.5,-191.2 210.5,-213.2 377.5,-213.2 377.5,-191.2 210.5,-191.2"/>
<text text-anchor="start" x="230.5" y="-198.3" font-family="Helvetica,sans-Serif" font-size="11.00" fill="#000000">created_by</text>
<polygon fill="none" stroke="#000000" points="377.5,-191.2 377.5,-213.2 461.5,-213.2 461.5,-191.2 377.5,-191.2"/>
<text text-anchor="start" x="380.5" y="-198.9" font-family="Helvetica,sans-Serif" font-size="11.00" fill="#000000">varchar[64]</text>
<polygon fill="none" stroke="#000000" points="210.5,-169.2 210.5,-191.2 377.5,-191.2 377.5,-169.2 210.5,-169.2"/>
<text text-anchor="start" x="230.5" y="-176.3" font-family="Helvetica,sans-Serif" font-size="11.00" fill="#000000">last_modified_at</text>
<polygon fill="none" stroke="#000000" points="377.5,-169.2 377.5,-191.2 461.5,-191.2 461.5,-169.2 377.5,-169.2"/>
<text text-anchor="start" x="380.3807" y="-176.9" font-family="Helvetica,sans-Serif" font-size="11.00" fill="#000000">timestamp[29,6]</text>
<polygon fill="none" stroke="#000000" points="210.5,-147.2 210.5,-169.2 377.5,-169.2 377.5,-147.2 210.5,-147.2"/>
<text text-anchor="start" x="230.5" y="-154.3" font-family="Helvetica,sans-Serif" font-size="11.00" fill="#000000">last_modified_by</text>
<polygon fill="none" stroke="#000000" points="377.5,-147.2 377.5,-169.2 461.5,-169.2 461.5,-147.2 377.5,-147.2"/>
<text text-anchor="start" x="380.5" y="-154.9" font-family="Helvetica,sans-Serif" font-size="11.00" fill="#000000">varchar[64]</text>
<polygon fill="none" stroke="#000000" points="210.5,-125.2 210.5,-147.2 377.5,-147.2 377.5,-125.2 210.5,-125.2"/>
<text text-anchor="start" x="230.5" y="-132.3" font-family="Helvetica,sans-Serif" font-size="11.00" fill="#000000">sensitive</text>
<polygon fill="none" stroke="#000000" points="377.5,-125.2 377.5,-147.2 461.5,-147.2 461.5,-125.2 377.5,-125.2"/>
<text text-anchor="start" x="380.5" y="-132.9" font-family="Helvetica,sans-Serif" font-size="11.00" fill="#000000">bool[1]</text>
<polygon fill="none" stroke="#000000" points="210.5,-103.2 210.5,-125.2 377.5,-125.2 377.5,-103.2 210.5,-103.2"/>
<text text-anchor="start" x="230.5" y="-110.3" font-family="Helvetica,sans-Serif" font-size="11.00" fill="#000000">restricted_use</text>
<polygon fill="none" stroke="#000000" points="377.5,-103.2 377.5,-125.2 461.5,-125.2 461.5,-103.2 377.5,-103.2"/>
<text text-anchor="start" x="380.5" y="-110.9" font-family="Helvetica,sans-Serif" font-size="11.00" fill="#000000">bool[1]</text>
<polygon fill="#ffffff" stroke="transparent" points="210.5,-81.2 210.5,-103.2 377.5,-103.2 377.5,-81.2 210.5,-81.2"/>
<polygon fill="none" stroke="#000000" points="210.5,-81.2 210.5,-103.2 377.5,-103.2 377.5,-81.2 210.5,-81.2"/>
<text text-anchor="start" x="230.5" y="-88.3" font-family="Helvetica,sans-Serif" font-size="11.00" fill="#000000">sync_to_nomis</text>
<polygon fill="none" stroke="#000000" points="377.5,-81.2 377.5,-103.2 461.5,-103.2 461.5,-81.2 377.5,-81.2"/>
<text text-anchor="start" x="380.5" y="-88.9" font-family="Helvetica,sans-Serif" font-size="11.00" fill="#000000">bool[1]</text>
<polygon fill="none" stroke="#000000" points="210.5,-59.2 210.5,-81.2 377.5,-81.2 377.5,-59.2 210.5,-59.2"/>
<text text-anchor="start" x="230.5" y="-66.3" font-family="Helvetica,sans-Serif" font-size="11.00" fill="#000000">dps_user_selectable</text>
<polygon fill="none" stroke="#000000" points="377.5,-59.2 377.5,-81.2 461.5,-81.2 461.5,-59.2 377.5,-59.2"/>
<text text-anchor="start" x="380.5" y="-66.9" font-family="Helvetica,sans-Serif" font-size="11.00" fill="#000000">bool[1]</text>
<polygon fill="#ffffff" stroke="transparent" points="210.5,-40.2 210.5,-59.2 461.5,-59.2 461.5,-40.2 210.5,-40.2"/>
<polygon fill="none" stroke="#000000" points="210.5,-40.2 210.5,-59.2 461.5,-59.2 461.5,-40.2 210.5,-40.2"/>
<polygon fill="#ffffff" stroke="transparent" points="211.5,-41.2 211.5,-58.2 285.5,-58.2 285.5,-41.2 211.5,-41.2"/>
<text text-anchor="start" x="213.5" y="-46.3" font-family="Helvetica,sans-Serif" font-size="11.00" fill="#000000">&lt; 2</text>
<polygon fill="#ffffff" stroke="transparent" points="285.5,-41.2 285.5,-58.2 387.5,-58.2 387.5,-41.2 285.5,-41.2"/>
<text text-anchor="start" x="314.1904" y="-46.3" font-family="Helvetica,sans-Serif" font-size="11.00" fill="#000000">406 rows</text>
<polygon fill="#ffffff" stroke="transparent" points="387.5,-41.2 387.5,-58.2 460.5,-58.2 460.5,-41.2 387.5,-41.2"/>
<text text-anchor="start" x="442.9053" y="-46.3" font-family="Helvetica,sans-Serif" font-size="11.00" fill="#000000">1 &gt;</text>
<polygon fill="#000000" stroke="#000000" points="285.5,-41.2 285.5,-58.2 285.5,-58.2 285.5,-41.2 285.5,-41.2"/>
<polygon fill="#000000" stroke="#000000" points="387.5,-41.2 387.5,-58.2 387.5,-58.2 387.5,-41.2 387.5,-41.2"/>
<polygon fill="none" stroke="#000000" stroke-width="2" points="209,-39.2 209,-369.2 462,-369.2 462,-39.2 209,-39.2"/>
</a>
</g>
</g>
<!-- case_note&#45;&gt;case_note_sub_type -->
<g id="edge1" class="edge">
<title>case_note:w&#45;&gt;case_note_sub_type:e</title>
<path fill="none" stroke="#000000" d="M497.776,-334.2C485.7815,-334.2 478.3229,-334.2 461.5,-334.2"/>
<polygon fill="#000000" stroke="#000000" points="504.5,-334.2001 512.5,-337.8 508.5,-334.2 512.5,-334.2 512.5,-334.2 512.5,-334.2 508.5,-334.2 512.5,-330.6 504.5,-334.2001 504.5,-334.2001"/>
<ellipse fill="none" stroke="#000000" cx="501.3" cy="-334.2001" rx="3.2" ry="3.2"/>
</g>
<!-- case_note_type -->
<g id="node3" class="node">
<title>case_note_type</title>
<g id="a_node3"><a xlink:href="../../tables/case_note_type.html" xlink:title="case_note_type" target="_top">
<polygon fill="#ffffff" stroke="transparent" points="8,-252.7 8,-335.7 159,-335.7 159,-252.7 8,-252.7"/>
<polygon fill="#f5f5f5" stroke="transparent" points="8.5,-312.2 8.5,-335.2 159.5,-335.2 159.5,-312.2 8.5,-312.2"/>
<polygon fill="none" stroke="#000000" points="8.5,-312.2 8.5,-335.2 159.5,-335.2 159.5,-312.2 8.5,-312.2"/>
<text text-anchor="start" x="13.5" y="-320.8" font-family="Helvetica,sans-Serif" font-weight="bold" font-size="11.00" fill="#000000">case_note_type</text>
<text text-anchor="start" x="125.0219" y="-320.3" font-family="Helvetica,sans-Serif" font-size="11.00" fill="#000000">[table]</text>
<polygon fill="none" stroke="#000000" points="8.5,-290.2 8.5,-312.2 159.5,-312.2 159.5,-290.2 8.5,-290.2"/>
<image xlink:href="../../images/primaryKeys.png" width="11px" height="12px" preserveAspectRatio="xMinYMin meet" x="13.5" y="-307.2"/>
<text text-anchor="start" x="32.5" y="-297.3" font-family="Helvetica,sans-Serif" font-size="11.00" fill="#000000">code</text>
<polygon fill="none" stroke="#000000" points="8.5,-271.2 8.5,-290.2 159.5,-290.2 159.5,-271.2 8.5,-271.2"/>
<text text-anchor="start" x="11.5" y="-277.3" font-family="Helvetica,sans-Serif" font-size="11.00" fill="#000000">...</text>
<polygon fill="#ffffff" stroke="transparent" points="8.5,-252.2 8.5,-271.2 159.5,-271.2 159.5,-252.2 8.5,-252.2"/>
<polygon fill="none" stroke="#000000" points="8.5,-252.2 8.5,-271.2 159.5,-271.2 159.5,-252.2 8.5,-252.2"/>
<polygon fill="#ffffff" stroke="transparent" points="9.5,-253.2 9.5,-270.2 45.5,-270.2 45.5,-253.2 9.5,-253.2"/>
<text text-anchor="start" x="11.5" y="-258.3" font-family="Helvetica,sans-Serif" font-size="11.00" fill="#000000"> &#160;</text>
<polygon fill="#ffffff" stroke="transparent" points="45.5,-253.2 45.5,-270.2 113.5,-270.2 113.5,-253.2 45.5,-253.2"/>
<text text-anchor="start" x="60.2478" y="-258.3" font-family="Helvetica,sans-Serif" font-size="11.00" fill="#000000">66 rows</text>
<polygon fill="#ffffff" stroke="transparent" points="113.5,-253.2 113.5,-270.2 158.5,-270.2 158.5,-253.2 113.5,-253.2"/>
<text text-anchor="start" x="140.9053" y="-258.3" font-family="Helvetica,sans-Serif" font-size="11.00" fill="#000000">2 &gt;</text>
<polygon fill="#000000" stroke="#000000" points="45.5,-253.2 45.5,-270.2 45.5,-270.2 45.5,-253.2 45.5,-253.2"/>
<polygon fill="#000000" stroke="#000000" points="113.5,-253.2 113.5,-270.2 113.5,-270.2 113.5,-253.2 113.5,-253.2"/>
</a>
</g>
</g>
<!-- case_note_sub_type&#45;&gt;case_note_type -->
<g id="edge2" class="edge">
<title>case_note_sub_type:w&#45;&gt;case_note_type:e</title>
<path fill="none" stroke="#000000" stroke-dasharray="5,2" d="M196.0097,-291.9188C183.8398,-295.0125 176.8909,-301.2 159.5,-301.2"/>
<polygon fill="#000000" stroke="#000000" points="202.5557,-291.1424 210.9241,-293.7749 206.5278,-290.6712 210.5,-290.2 210.5,-290.2 210.5,-290.2 206.5278,-290.6712 210.0759,-286.6251 202.5557,-291.1424 202.5557,-291.1424"/>
<ellipse fill="none" stroke="#000000" cx="199.378" cy="-291.5193" rx="3.2" ry="3.2"/>
</g>
<!-- case_note_sub_type&#45;&gt;case_note_type -->
<g id="edge3" class="edge">
<title>case_note_sub_type:w&#45;&gt;case_note_type:e</title>
<path fill="none" stroke="#000000" d="M196.0097,-310.4813C183.8398,-307.3875 176.8909,-301.2 159.5,-301.2"/>
<polygon fill="#000000" stroke="#000000" points="202.5557,-311.2576 210.0759,-315.7749 206.5278,-311.7288 210.5,-312.2 210.5,-312.2 210.5,-312.2 206.5278,-311.7288 210.9241,-308.6251 202.5557,-311.2576 202.5557,-311.2576"/>
<ellipse fill="none" stroke="#000000" cx="199.378" cy="-310.8807" rx="3.2" ry="3.2"/>
</g>
</g>
</svg>
