<?xml version="1.0" encoding="UTF-8" standalone="no"?>
<!DOCTYPE svg PUBLIC "-//W3C//DTD SVG 1.1//EN"
 "http://www.w3.org/Graphics/SVG/1.1/DTD/svg11.dtd">
<!-- Generated by graphviz version 2.40.1 (20161225.0304)
 -->
<!-- Title: twoDegreesRelationshipsDiagram Pages: 1 -->
<svg width="711pt" height="311pt"
 viewBox="0.00 0.00 711.00 310.70" xmlns="http://www.w3.org/2000/svg" xmlns:xlink="http://www.w3.org/1999/xlink">
<g id="graph0" class="graph" transform="scale(1 1) rotate(0) translate(4 306.7)">
<title>twoDegreesRelationshipsDiagram</title>
<polygon fill="#ffffff" stroke="transparent" points="-4,4 -4,-306.7 707,-306.7 707,4 -4,4"/>
<text text-anchor="middle" x="72.4936" y="-7.3" font-family="Helvetica,sans-Serif" font-size="11.00" fill="#000000">Generated by SchemaSpy</text>
<!-- case_note -->
<g id="node1" class="node">
<title>case_note</title>
<g id="a_node1"><a xlink:href="../../tables/case_note.html" xlink:title="case_note" target="_top">
<polygon fill="#ffffff" stroke="transparent" points="229,-38.2 229,-297.2 374,-297.2 374,-38.2 229,-38.2"/>
<polygon fill="#f5f5f5" stroke="transparent" points="229.5,-273.7 229.5,-296.7 374.5,-296.7 374.5,-273.7 229.5,-273.7"/>
<polygon fill="none" stroke="#000000" points="229.5,-273.7 229.5,-296.7 374.5,-296.7 374.5,-273.7 229.5,-273.7"/>
<text text-anchor="start" x="234.5" y="-282.3" font-family="Helvetica,sans-Serif" font-weight="bold" font-size="11.00" fill="#000000">case_note</text>
<text text-anchor="start" x="339.5437" y="-281.8" font-family="Helvetica,sans-Serif" font-size="11.00" fill="#000000">[table]</text>
<polygon fill="none" stroke="#000000" points="229.5,-251.7 229.5,-273.7 374.5,-273.7 374.5,-251.7 229.5,-251.7"/>
<image xlink:href="../../images/primaryKeys.png" width="11px" height="12px" preserveAspectRatio="xMinYMin meet" x="234.5" y="-268.7"/>
<text text-anchor="start" x="249.5" y="-258.8" font-family="Helvetica,sans-Serif" font-size="11.00" fill="#000000">id</text>
<polygon fill="#ffffff" stroke="transparent" points="229.5,-229.7 229.5,-251.7 374.5,-251.7 374.5,-229.7 229.5,-229.7"/>
<polygon fill="none" stroke="#000000" points="229.5,-229.7 229.5,-251.7 374.5,-251.7 374.5,-229.7 229.5,-229.7"/>
<text text-anchor="start" x="249.5" y="-236.8" font-family="Helvetica,sans-Serif" font-size="11.00" fill="#000000">person_identifier</text>
<polygon fill="#ffffff" stroke="transparent" points="229.5,-207.7 229.5,-229.7 374.5,-229.7 374.5,-207.7 229.5,-207.7"/>
<polygon fill="none" stroke="#000000" points="229.5,-207.7 229.5,-229.7 374.5,-229.7 374.5,-207.7 229.5,-207.7"/>
<text text-anchor="start" x="249.5" y="-214.8" font-family="Helvetica,sans-Serif" font-size="11.00" fill="#000000">location_id</text>
<polygon fill="#ffffff" stroke="transparent" points="229.5,-185.7 229.5,-207.7 374.5,-207.7 374.5,-185.7 229.5,-185.7"/>
<polygon fill="none" stroke="#000000" points="229.5,-185.7 229.5,-207.7 374.5,-207.7 374.5,-185.7 229.5,-185.7"/>
<text text-anchor="start" x="249.5" y="-192.8" font-family="Helvetica,sans-Serif" font-size="11.00" fill="#000000">author_username</text>
<polygon fill="#ffffff" stroke="transparent" points="229.5,-163.7 229.5,-185.7 374.5,-185.7 374.5,-163.7 229.5,-163.7"/>
<polygon fill="none" stroke="#000000" points="229.5,-163.7 229.5,-185.7 374.5,-185.7 374.5,-163.7 229.5,-163.7"/>
<image xlink:href="../../images/foreignKeys.png" width="11px" height="12px" preserveAspectRatio="xMinYMin meet" x="234.5" y="-180.7"/>
<text text-anchor="start" x="249.5" y="-170.8" font-family="Helvetica,sans-Serif" font-size="11.00" fill="#000000">sub_type_id</text>
<polygon fill="#ffffff" stroke="transparent" points="229.5,-141.7 229.5,-163.7 374.5,-163.7 374.5,-141.7 229.5,-141.7"/>
<polygon fill="none" stroke="#000000" points="229.5,-141.7 229.5,-163.7 374.5,-163.7 374.5,-141.7 229.5,-141.7"/>
<text text-anchor="start" x="249.5" y="-148.8" font-family="Helvetica,sans-Serif" font-size="11.00" fill="#000000">occurred_at</text>
<polygon fill="#ffffff" stroke="transparent" points="229.5,-119.7 229.5,-141.7 374.5,-141.7 374.5,-119.7 229.5,-119.7"/>
<polygon fill="none" stroke="#000000" points="229.5,-119.7 229.5,-141.7 374.5,-141.7 374.5,-119.7 229.5,-119.7"/>
<text text-anchor="start" x="249.5" y="-126.8" font-family="Helvetica,sans-Serif" font-size="11.00" fill="#000000">created_at</text>
<polygon fill="#ffffff" stroke="transparent" points="229.5,-97.7 229.5,-119.7 374.5,-119.7 374.5,-97.7 229.5,-97.7"/>
<polygon fill="none" stroke="#000000" points="229.5,-97.7 229.5,-119.7 374.5,-119.7 374.5,-97.7 229.5,-97.7"/>
<text text-anchor="start" x="249.5" y="-104.8" font-family="Helvetica,sans-Serif" font-size="11.00" fill="#000000">legacy_id</text>
<polygon fill="#ffffff" stroke="transparent" points="229.5,-75.7 229.5,-97.7 374.5,-97.7 374.5,-75.7 229.5,-75.7"/>
<polygon fill="none" stroke="#000000" points="229.5,-75.7 229.5,-97.7 374.5,-97.7 374.5,-75.7 229.5,-75.7"/>
<text text-anchor="start" x="249.5" y="-82.8" font-family="Helvetica,sans-Serif" font-size="11.00" fill="#000000">author_user_id</text>
<polygon fill="none" stroke="#000000" points="229.5,-56.7 229.5,-75.7 374.5,-75.7 374.5,-56.7 229.5,-56.7"/>
<text text-anchor="start" x="232.5" y="-62.8" font-family="Helvetica,sans-Serif" font-size="11.00" fill="#000000">...</text>
<polygon fill="#ffffff" stroke="transparent" points="229.5,-37.7 229.5,-56.7 295.5,-56.7 295.5,-37.7 229.5,-37.7"/>
<polygon fill="none" stroke="#000000" points="229.5,-37.7 229.5,-56.7 295.5,-56.7 295.5,-37.7 229.5,-37.7"/>
<text text-anchor="start" x="232.5" y="-43.8" font-family="Helvetica,sans-Serif" font-size="11.00" fill="#000000">&lt; 1</text>
<polygon fill="#ffffff" stroke="transparent" points="295.5,-37.7 295.5,-56.7 330.5,-56.7 330.5,-37.7 295.5,-37.7"/>
<polygon fill="none" stroke="#000000" points="295.5,-37.7 295.5,-56.7 330.5,-56.7 330.5,-37.7 295.5,-37.7"/>
<text text-anchor="start" x="321.3862" y="-43.8" font-family="Helvetica,sans-Serif" font-size="11.00" fill="#000000"> &#160;</text>
<polygon fill="#ffffff" stroke="transparent" points="330.5,-37.7 330.5,-56.7 374.5,-56.7 374.5,-37.7 330.5,-37.7"/>
<polygon fill="none" stroke="#000000" points="330.5,-37.7 330.5,-56.7 374.5,-56.7 374.5,-37.7 330.5,-37.7"/>
<text text-anchor="start" x="355.9053" y="-43.8" font-family="Helvetica,sans-Serif" font-size="11.00" fill="#000000">1 &gt;</text>
</a>
</g>
</g>
<!-- case_note_sub_type -->
<g id="node2" class="node">
<title>case_note_sub_type</title>
<g id="a_node2"><a xlink:href="../../tables/case_note_sub_type.html" xlink:title="case_note_sub_type" target="_top">
<polygon fill="#ffffff" stroke="transparent" points="8,-147.2 8,-208.2 180,-208.2 180,-147.2 8,-147.2"/>
<polygon fill="#f5f5f5" stroke="transparent" points="8,-184.7 8,-207.7 180,-207.7 180,-184.7 8,-184.7"/>
<polygon fill="none" stroke="#000000" points="8,-184.7 8,-207.7 180,-207.7 180,-184.7 8,-184.7"/>
<text text-anchor="start" x="13" y="-193.3" font-family="Helvetica,sans-Serif" font-weight="bold" font-size="11.00" fill="#000000">case_note_sub_type</text>
<text text-anchor="start" x="145.5219" y="-192.8" font-family="Helvetica,sans-Serif" font-size="11.00" fill="#000000">[table]</text>
<polygon fill="none" stroke="#000000" points="8,-165.7 8,-184.7 180,-184.7 180,-165.7 8,-165.7"/>
<text text-anchor="start" x="11" y="-171.8" font-family="Helvetica,sans-Serif" font-size="11.00" fill="#000000">...</text>
<polygon fill="#ffffff" stroke="transparent" points="8,-146.7 8,-165.7 69,-165.7 69,-146.7 8,-146.7"/>
<polygon fill="none" stroke="#000000" points="8,-146.7 8,-165.7 69,-165.7 69,-146.7 8,-146.7"/>
<text text-anchor="start" x="11" y="-152.8" font-family="Helvetica,sans-Serif" font-size="11.00" fill="#000000">&lt; 1</text>
<polygon fill="#ffffff" stroke="transparent" points="69,-146.7 69,-165.7 139,-165.7 139,-146.7 69,-146.7"/>
<polygon fill="none" stroke="#000000" points="69,-146.7 69,-165.7 139,-165.7 139,-146.7 69,-146.7"/>
<text text-anchor="start" x="91.3807" y="-152.8" font-family="Helvetica,sans-Serif" font-size="11.00" fill="#000000">386 rows</text>
<polygon fill="#ffffff" stroke="transparent" points="139,-146.7 139,-165.7 180,-165.7 180,-146.7 139,-146.7"/>
<polygon fill="none" stroke="#000000" points="139,-146.7 139,-165.7 180,-165.7 180,-146.7 139,-146.7"/>
<text text-anchor="start" x="161.4053" y="-152.8" font-family="Helvetica,sans-Serif" font-size="11.00" fill="#000000">1 &gt;</text>
</a>
</g>
</g>
<!-- case_note&#45;&gt;case_note_sub_type -->
<g id="edge1" class="edge">
<title>case_note:w&#45;&gt;case_note_sub_type:e</title>
<path fill="none" stroke="#000000" d="M214.8428,-174.7C203.4139,-174.7 196.1563,-174.7 180,-174.7"/>
<polygon fill="#000000" stroke="#000000" points="221.5,-174.7001 229.5,-178.3 225.5,-174.7 229.5,-174.7 229.5,-174.7 229.5,-174.7 225.5,-174.7 229.5,-171.1 221.5,-174.7001 221.5,-174.7001"/>
<ellipse fill="none" stroke="#000000" cx="218.3" cy="-174.7001" rx="3.2" ry="3.2"/>
</g>
<!-- case_note_amendment -->
<g id="node3" class="node">
<title>case_note_amendment</title>
<g id="a_node3"><a xlink:href="../../tables/case_note_amendment.html" xlink:title="case_note_amendment" target="_top">
<polygon fill="#ffffff" stroke="transparent" points="423,-54.7 423,-298.7 695,-298.7 695,-54.7 423,-54.7"/>
<polygon fill="#f5f5f5" stroke="transparent" points="425,-273.7 425,-296.7 693,-296.7 693,-273.7 425,-273.7"/>
<polygon fill="none" stroke="#000000" points="425,-273.7 425,-296.7 693,-296.7 693,-273.7 425,-273.7"/>
<text text-anchor="start" x="430" y="-282.3" font-family="Helvetica,sans-Serif" font-weight="bold" font-size="11.00" fill="#000000">case_note_amendment</text>
<text text-anchor="start" x="658.0437" y="-281.8" font-family="Helvetica,sans-Serif" font-size="11.00" fill="#000000">[table]</text>
<polygon fill="#ffffff" stroke="transparent" points="425,-251.7 425,-273.7 599,-273.7 599,-251.7 425,-251.7"/>
<polygon fill="none" stroke="#000000" points="425,-251.7 425,-273.7 599,-273.7 599,-251.7 425,-251.7"/>
<image xlink:href="../../images/foreignKeys.png" width="11px" height="12px" preserveAspectRatio="xMinYMin meet" x="430" y="-268.7"/>
<text text-anchor="start" x="445" y="-258.8" font-family="Helvetica,sans-Serif" font-size="11.00" fill="#000000">case_note_id</text>
<polygon fill="none" stroke="#000000" points="599,-251.7 599,-273.7 693,-273.7 693,-251.7 599,-251.7"/>
<text text-anchor="start" x="601.9758" y="-259.4" font-family="Helvetica,sans-Serif" font-size="11.00" fill="#000000">uuid[2147483647]</text>
<polygon fill="none" stroke="#000000" points="425,-229.7 425,-251.7 599,-251.7 599,-229.7 425,-229.7"/>
<text text-anchor="start" x="445" y="-236.8" font-family="Helvetica,sans-Serif" font-size="11.00" fill="#000000">author_username</text>
<polygon fill="none" stroke="#000000" points="599,-229.7 599,-251.7 693,-251.7 693,-229.7 599,-229.7"/>
<text text-anchor="start" x="602" y="-237.4" font-family="Helvetica,sans-Serif" font-size="11.00" fill="#000000">varchar[64]</text>
<polygon fill="none" stroke="#000000" points="425,-207.7 425,-229.7 599,-229.7 599,-207.7 425,-207.7"/>
<text text-anchor="start" x="445" y="-214.8" font-family="Helvetica,sans-Serif" font-size="11.00" fill="#000000">author_name</text>
<polygon fill="none" stroke="#000000" points="599,-207.7 599,-229.7 693,-229.7 693,-207.7 599,-207.7"/>
<text text-anchor="start" x="602" y="-215.4" font-family="Helvetica,sans-Serif" font-size="11.00" fill="#000000">varchar[80]</text>
<polygon fill="none" stroke="#000000" points="425,-185.7 425,-207.7 599,-207.7 599,-185.7 425,-185.7"/>
<text text-anchor="start" x="445" y="-192.8" font-family="Helvetica,sans-Serif" font-size="11.00" fill="#000000">note_text</text>
<polygon fill="none" stroke="#000000" points="599,-185.7 599,-207.7 693,-207.7 693,-185.7 599,-185.7"/>
<text text-anchor="start" x="602" y="-193.4" font-family="Helvetica,sans-Serif" font-size="11.00" fill="#000000">text[2147483647]</text>
<polygon fill="#ffffff" stroke="transparent" points="425,-163.7 425,-185.7 599,-185.7 599,-163.7 425,-163.7"/>
<polygon fill="none" stroke="#000000" points="425,-163.7 425,-185.7 599,-185.7 599,-163.7 425,-163.7"/>
<text text-anchor="start" x="445" y="-170.8" font-family="Helvetica,sans-Serif" font-size="11.00" fill="#000000">created_at</text>
<polygon fill="none" stroke="#000000" points="599,-163.7 599,-185.7 693,-185.7 693,-163.7 599,-163.7"/>
<text text-anchor="start" x="602" y="-171.4" font-family="Helvetica,sans-Serif" font-size="11.00" fill="#000000">timestamp[29,6]</text>
<polygon fill="none" stroke="#000000" points="425,-141.7 425,-163.7 599,-163.7 599,-141.7 425,-141.7"/>
<text text-anchor="start" x="445" y="-148.8" font-family="Helvetica,sans-Serif" font-size="11.00" fill="#000000">created_by</text>
<polygon fill="none" stroke="#000000" points="599,-141.7 599,-163.7 693,-163.7 693,-141.7 599,-141.7"/>
<text text-anchor="start" x="602" y="-149.4" font-family="Helvetica,sans-Serif" font-size="11.00" fill="#000000">varchar[64]</text>
<polygon fill="none" stroke="#000000" points="425,-119.7 425,-141.7 599,-141.7 599,-119.7 425,-119.7"/>
<text text-anchor="start" x="445" y="-126.8" font-family="Helvetica,sans-Serif" font-size="11.00" fill="#000000">author_user_id</text>
<polygon fill="none" stroke="#000000" points="599,-119.7 599,-141.7 693,-141.7 693,-119.7 599,-119.7"/>
<text text-anchor="start" x="602" y="-127.4" font-family="Helvetica,sans-Serif" font-size="11.00" fill="#000000">varchar[64]</text>
<polygon fill="none" stroke="#000000" points="425,-97.7 425,-119.7 599,-119.7 599,-97.7 425,-97.7"/>
<image xlink:href="../../images/primaryKeys.png" width="11px" height="12px" preserveAspectRatio="xMinYMin meet" x="430" y="-114.7"/>
<text text-anchor="start" x="445" y="-104.8" font-family="Helvetica,sans-Serif" font-size="11.00" fill="#000000">id</text>
<polygon fill="none" stroke="#000000" points="599,-97.7 599,-119.7 693,-119.7 693,-97.7 599,-97.7"/>
<text text-anchor="start" x="601.9758" y="-105.4" font-family="Helvetica,sans-Serif" font-size="11.00" fill="#000000">uuid[2147483647]</text>
<polygon fill="none" stroke="#000000" points="425,-75.7 425,-97.7 599,-97.7 599,-75.7 425,-75.7"/>
<text text-anchor="start" x="445" y="-82.8" font-family="Helvetica,sans-Serif" font-size="11.00" fill="#000000">system</text>
<polygon fill="none" stroke="#000000" points="599,-75.7 599,-97.7 693,-97.7 693,-75.7 599,-75.7"/>
<text text-anchor="start" x="602" y="-83.4" font-family="Helvetica,sans-Serif" font-size="11.00" fill="#000000">varchar[6]</text>
<polygon fill="#ffffff" stroke="transparent" points="425,-56.7 425,-75.7 516,-75.7 516,-56.7 425,-56.7"/>
<polygon fill="none" stroke="#000000" points="425,-56.7 425,-75.7 516,-75.7 516,-56.7 425,-56.7"/>
<text text-anchor="start" x="428" y="-62.8" font-family="Helvetica,sans-Serif" font-size="11.00" fill="#000000">&lt; 1</text>
<polygon fill="#ffffff" stroke="transparent" points="516,-56.7 516,-75.7 599,-75.7 599,-56.7 516,-56.7"/>
<polygon fill="none" stroke="#000000" points="516,-56.7 516,-75.7 599,-75.7 599,-56.7 516,-56.7"/>
<text text-anchor="start" x="589.8862" y="-62.8" font-family="Helvetica,sans-Serif" font-size="11.00" fill="#000000"> &#160;</text>
<polygon fill="#ffffff" stroke="transparent" points="599,-56.7 599,-75.7 693,-75.7 693,-56.7 599,-56.7"/>
<polygon fill="none" stroke="#000000" points="599,-56.7 599,-75.7 693,-75.7 693,-56.7 599,-56.7"/>
<text text-anchor="start" x="674.4053" y="-62.8" font-family="Helvetica,sans-Serif" font-size="11.00" fill="#000000">0 &gt;</text>
<polygon fill="none" stroke="#000000" stroke-width="2" points="424,-55.7 424,-297.7 694,-297.7 694,-55.7 424,-55.7"/>
</a>
</g>
</g>
<!-- case_note_amendment&#45;&gt;case_note -->
<g id="edge2" class="edge">
<title>case_note_amendment:w&#45;&gt;case_note:e</title>
<path fill="none" stroke="#000000" d="M410.4203,-262.7C398.5435,-262.7 391.158,-262.7 374.5,-262.7"/>
<polygon fill="#000000" stroke="#000000" points="417,-262.7001 425,-266.3 421,-262.7 425,-262.7 425,-262.7 425,-262.7 421,-262.7 425,-259.1 417,-262.7001 417,-262.7001"/>
<ellipse fill="none" stroke="#000000" cx="413.8" cy="-262.7001" rx="3.2" ry="3.2"/>
</g>
</g>
</svg>
