<?xml version="1.0" encoding="UTF-8" standalone="no"?>
<!DOCTYPE svg PUBLIC "-//W3C//DTD SVG 1.1//EN"
 "http://www.w3.org/Graphics/SVG/1.1/DTD/svg11.dtd">
<!-- Generated by graphviz version 2.40.1 (20161225.0304)
 -->
<!-- Title: oneDegreeRelationshipsDiagramImplied Pages: 1 -->
<svg width="763pt" height="404pt"
 viewBox="0.00 0.00 763.00 404.20" xmlns="http://www.w3.org/2000/svg" xmlns:xlink="http://www.w3.org/1999/xlink">
<g id="graph0" class="graph" transform="scale(1 1) rotate(0) translate(4 400.2)">
<title>oneDegreeRelationshipsDiagramImplied</title>
<polygon fill="#ffffff" stroke="transparent" points="-4,4 -4,-400.2 759,-400.2 759,4 -4,4"/>
<text text-anchor="middle" x="72.4936" y="-7.3" font-family="Helvetica,sans-Serif" font-size="11.00" fill="#000000">Generated by SchemaSpy</text>
<!-- case_note -->
<g id="node1" class="node">
<title>case_note</title>
<g id="a_node1"><a xlink:href="../../tables/case_note.html" xlink:title="case_note" target="_top">
<polygon fill="#ffffff" stroke="transparent" points="240,-38.2 240,-392.2 493,-392.2 493,-38.2 240,-38.2"/>
<polygon fill="#f5f5f5" stroke="transparent" points="242.5,-367.2 242.5,-390.2 491.5,-390.2 491.5,-367.2 242.5,-367.2"/>
<polygon fill="none" stroke="#000000" points="242.5,-367.2 242.5,-390.2 491.5,-390.2 491.5,-367.2 242.5,-367.2"/>
<text text-anchor="start" x="247.5" y="-375.8" font-family="Helvetica,sans-Serif" font-weight="bold" font-size="11.00" fill="#000000">case_note</text>
<text text-anchor="start" x="456.5437" y="-375.3" font-family="Helvetica,sans-Serif" font-size="11.00" fill="#000000">[table]</text>
<polygon fill="none" stroke="#000000" points="242.5,-345.2 242.5,-367.2 397.5,-367.2 397.5,-345.2 242.5,-345.2"/>
<image xlink:href="../../images/primaryKeys.png" width="11px" height="12px" preserveAspectRatio="xMinYMin meet" x="247.5" y="-362.2"/>
<text text-anchor="start" x="262.5" y="-352.3" font-family="Helvetica,sans-Serif" font-size="11.00" fill="#000000">id</text>
<polygon fill="none" stroke="#000000" points="397.5,-345.2 397.5,-367.2 491.5,-367.2 491.5,-345.2 397.5,-345.2"/>
<text text-anchor="start" x="400.4758" y="-352.9" font-family="Helvetica,sans-Serif" font-size="11.00" fill="#000000">uuid[2147483647]</text>
<polygon fill="#ffffff" stroke="transparent" points="242.5,-323.2 242.5,-345.2 397.5,-345.2 397.5,-323.2 242.5,-323.2"/>
<polygon fill="none" stroke="#000000" points="242.5,-323.2 242.5,-345.2 397.5,-345.2 397.5,-323.2 242.5,-323.2"/>
<text text-anchor="start" x="262.5" y="-330.3" font-family="Helvetica,sans-Serif" font-size="11.00" fill="#000000">person_identifier</text>
<polygon fill="none" stroke="#000000" points="397.5,-323.2 397.5,-345.2 491.5,-345.2 491.5,-323.2 397.5,-323.2"/>
<text text-anchor="start" x="400.5" y="-330.9" font-family="Helvetica,sans-Serif" font-size="11.00" fill="#000000">varchar[12]</text>
<polygon fill="#ffffff" stroke="transparent" points="242.5,-301.2 242.5,-323.2 397.5,-323.2 397.5,-301.2 242.5,-301.2"/>
<polygon fill="none" stroke="#000000" points="242.5,-301.2 242.5,-323.2 397.5,-323.2 397.5,-301.2 242.5,-301.2"/>
<text text-anchor="start" x="262.5" y="-308.3" font-family="Helvetica,sans-Serif" font-size="11.00" fill="#000000">location_id</text>
<polygon fill="none" stroke="#000000" points="397.5,-301.2 397.5,-323.2 491.5,-323.2 491.5,-301.2 397.5,-301.2"/>
<text text-anchor="start" x="400.5" y="-308.9" font-family="Helvetica,sans-Serif" font-size="11.00" fill="#000000">varchar[12]</text>
<polygon fill="#ffffff" stroke="transparent" points="242.5,-279.2 242.5,-301.2 397.5,-301.2 397.5,-279.2 242.5,-279.2"/>
<polygon fill="none" stroke="#000000" points="242.5,-279.2 242.5,-301.2 397.5,-301.2 397.5,-279.2 242.5,-279.2"/>
<text text-anchor="start" x="262.5" y="-286.3" font-family="Helvetica,sans-Serif" font-size="11.00" fill="#000000">author_username</text>
<polygon fill="none" stroke="#000000" points="397.5,-279.2 397.5,-301.2 491.5,-301.2 491.5,-279.2 397.5,-279.2"/>
<text text-anchor="start" x="400.5" y="-286.9" font-family="Helvetica,sans-Serif" font-size="11.00" fill="#000000">varchar[64]</text>
<polygon fill="none" stroke="#000000" points="242.5,-257.2 242.5,-279.2 397.5,-279.2 397.5,-257.2 242.5,-257.2"/>
<text text-anchor="start" x="262.5" y="-264.3" font-family="Helvetica,sans-Serif" font-size="11.00" fill="#000000">author_name</text>
<polygon fill="none" stroke="#000000" points="397.5,-257.2 397.5,-279.2 491.5,-279.2 491.5,-257.2 397.5,-257.2"/>
<text text-anchor="start" x="400.5" y="-264.9" font-family="Helvetica,sans-Serif" font-size="11.00" fill="#000000">varchar[80]</text>
<polygon fill="#ffffff" stroke="transparent" points="242.5,-235.2 242.5,-257.2 397.5,-257.2 397.5,-235.2 242.5,-235.2"/>
<polygon fill="none" stroke="#000000" points="242.5,-235.2 242.5,-257.2 397.5,-257.2 397.5,-235.2 242.5,-235.2"/>
<image xlink:href="../../images/foreignKeys.png" width="11px" height="12px" preserveAspectRatio="xMinYMin meet" x="247.5" y="-252.2"/>
<text text-anchor="start" x="262.5" y="-242.3" font-family="Helvetica,sans-Serif" font-size="11.00" fill="#000000">sub_type_id</text>
<polygon fill="none" stroke="#000000" points="397.5,-235.2 397.5,-257.2 491.5,-257.2 491.5,-235.2 397.5,-235.2"/>
<text text-anchor="start" x="400.5" y="-242.9" font-family="Helvetica,sans-Serif" font-size="11.00" fill="#000000">int4[10]</text>
<polygon fill="#ffffff" stroke="transparent" points="242.5,-213.2 242.5,-235.2 397.5,-235.2 397.5,-213.2 242.5,-213.2"/>
<polygon fill="none" stroke="#000000" points="242.5,-213.2 242.5,-235.2 397.5,-235.2 397.5,-213.2 242.5,-213.2"/>
<text text-anchor="start" x="262.5" y="-220.3" font-family="Helvetica,sans-Serif" font-size="11.00" fill="#000000">occurred_at</text>
<polygon fill="none" stroke="#000000" points="397.5,-213.2 397.5,-235.2 491.5,-235.2 491.5,-213.2 397.5,-213.2"/>
<text text-anchor="start" x="400.5" y="-220.9" font-family="Helvetica,sans-Serif" font-size="11.00" fill="#000000">timestamp[29,6]</text>
<polygon fill="none" stroke="#000000" points="242.5,-191.2 242.5,-213.2 397.5,-213.2 397.5,-191.2 242.5,-191.2"/>
<text text-anchor="start" x="262.5" y="-198.3" font-family="Helvetica,sans-Serif" font-size="11.00" fill="#000000">note_text</text>
<polygon fill="none" stroke="#000000" points="397.5,-191.2 397.5,-213.2 491.5,-213.2 491.5,-191.2 397.5,-191.2"/>
<text text-anchor="start" x="400.5" y="-198.9" font-family="Helvetica,sans-Serif" font-size="11.00" fill="#000000">text[2147483647]</text>
<polygon fill="#ffffff" stroke="transparent" points="242.5,-169.2 242.5,-191.2 397.5,-191.2 397.5,-169.2 242.5,-169.2"/>
<polygon fill="none" stroke="#000000" points="242.5,-169.2 242.5,-191.2 397.5,-191.2 397.5,-169.2 242.5,-169.2"/>
<text text-anchor="start" x="262.5" y="-176.3" font-family="Helvetica,sans-Serif" font-size="11.00" fill="#000000">created_at</text>
<polygon fill="none" stroke="#000000" points="397.5,-169.2 397.5,-191.2 491.5,-191.2 491.5,-169.2 397.5,-169.2"/>
<text text-anchor="start" x="400.5" y="-176.9" font-family="Helvetica,sans-Serif" font-size="11.00" fill="#000000">timestamp[29,6]</text>
<polygon fill="none" stroke="#000000" points="242.5,-147.2 242.5,-169.2 397.5,-169.2 397.5,-147.2 242.5,-147.2"/>
<text text-anchor="start" x="262.5" y="-154.3" font-family="Helvetica,sans-Serif" font-size="11.00" fill="#000000">created_by</text>
<polygon fill="none" stroke="#000000" points="397.5,-147.2 397.5,-169.2 491.5,-169.2 491.5,-147.2 397.5,-147.2"/>
<text text-anchor="start" x="400.5" y="-154.9" font-family="Helvetica,sans-Serif" font-size="11.00" fill="#000000">varchar[64]</text>
<polygon fill="#ffffff" stroke="transparent" points="242.5,-125.2 242.5,-147.2 397.5,-147.2 397.5,-125.2 242.5,-125.2"/>
<polygon fill="none" stroke="#000000" points="242.5,-125.2 242.5,-147.2 397.5,-147.2 397.5,-125.2 242.5,-125.2"/>
<text text-anchor="start" x="262.5" y="-132.3" font-family="Helvetica,sans-Serif" font-size="11.00" fill="#000000">legacy_id</text>
<polygon fill="none" stroke="#000000" points="397.5,-125.2 397.5,-147.2 491.5,-147.2 491.5,-125.2 397.5,-125.2"/>
<text text-anchor="start" x="400.5" y="-132.9" font-family="Helvetica,sans-Serif" font-size="11.00" fill="#000000">bigserial[19]</text>
<polygon fill="#ffffff" stroke="transparent" points="242.5,-103.2 242.5,-125.2 397.5,-125.2 397.5,-103.2 242.5,-103.2"/>
<polygon fill="none" stroke="#000000" points="242.5,-103.2 242.5,-125.2 397.5,-125.2 397.5,-103.2 242.5,-103.2"/>
<text text-anchor="start" x="262.5" y="-110.3" font-family="Helvetica,sans-Serif" font-size="11.00" fill="#000000">author_user_id</text>
<polygon fill="none" stroke="#000000" points="397.5,-103.2 397.5,-125.2 491.5,-125.2 491.5,-103.2 397.5,-103.2"/>
<text text-anchor="start" x="400.5" y="-110.9" font-family="Helvetica,sans-Serif" font-size="11.00" fill="#000000">varchar[64]</text>
<polygon fill="none" stroke="#000000" points="242.5,-81.2 242.5,-103.2 397.5,-103.2 397.5,-81.2 242.5,-81.2"/>
<text text-anchor="start" x="262.5" y="-88.3" font-family="Helvetica,sans-Serif" font-size="11.00" fill="#000000">system_generated</text>
<polygon fill="none" stroke="#000000" points="397.5,-81.2 397.5,-103.2 491.5,-103.2 491.5,-81.2 397.5,-81.2"/>
<text text-anchor="start" x="400.5" y="-88.9" font-family="Helvetica,sans-Serif" font-size="11.00" fill="#000000">bool[1]</text>
<polygon fill="none" stroke="#000000" points="242.5,-59.2 242.5,-81.2 397.5,-81.2 397.5,-59.2 242.5,-59.2"/>
<text text-anchor="start" x="262.5" y="-66.3" font-family="Helvetica,sans-Serif" font-size="11.00" fill="#000000">system</text>
<polygon fill="none" stroke="#000000" points="397.5,-59.2 397.5,-81.2 491.5,-81.2 491.5,-59.2 397.5,-59.2"/>
<text text-anchor="start" x="400.5" y="-66.9" font-family="Helvetica,sans-Serif" font-size="11.00" fill="#000000">varchar[6]</text>
<polygon fill="#ffffff" stroke="transparent" points="242.5,-40.2 242.5,-59.2 491.5,-59.2 491.5,-40.2 242.5,-40.2"/>
<polygon fill="none" stroke="#000000" points="242.5,-40.2 242.5,-59.2 491.5,-59.2 491.5,-40.2 242.5,-40.2"/>
<polygon fill="#ffffff" stroke="transparent" points="243.5,-41.2 243.5,-58.2 329.5,-58.2 329.5,-41.2 243.5,-41.2"/>
<text text-anchor="start" x="245.5" y="-46.3" font-family="Helvetica,sans-Serif" font-size="11.00" fill="#000000">&lt; 1</text>
<polygon fill="#ffffff" stroke="transparent" points="329.5,-41.2 329.5,-58.2 405.5,-58.2 405.5,-41.2 329.5,-41.2"/>
<text text-anchor="start" x="364.4431" y="-46.3" font-family="Helvetica,sans-Serif" font-size="11.00" fill="#000000"> &#160;</text>
<polygon fill="#ffffff" stroke="transparent" points="405.5,-41.2 405.5,-58.2 490.5,-58.2 490.5,-41.2 405.5,-41.2"/>
<text text-anchor="start" x="472.9053" y="-46.3" font-family="Helvetica,sans-Serif" font-size="11.00" fill="#000000">1 &gt;</text>
<polygon fill="#000000" stroke="#000000" points="329.5,-41.2 329.5,-58.2 329.5,-58.2 329.5,-41.2 329.5,-41.2"/>
<polygon fill="#000000" stroke="#000000" points="405.5,-41.2 405.5,-58.2 405.5,-58.2 405.5,-41.2 405.5,-41.2"/>
<polygon fill="none" stroke="#000000" stroke-width="2" points="241,-39.2 241,-391.2 492,-391.2 492,-39.2 241,-39.2"/>
</a>
</g>
</g>
<!-- case_note_sub_type -->
<g id="node2" class="node">
<title>case_note_sub_type</title>
<g id="a_node2"><a xlink:href="../../tables/case_note_sub_type.html" xlink:title="case_note_sub_type" target="_top">
<polygon fill="#ffffff" stroke="transparent" points="8,-131.7 8,-280.7 191,-280.7 191,-131.7 8,-131.7"/>
<polygon fill="#f5f5f5" stroke="transparent" points="8.5,-257.2 8.5,-280.2 191.5,-280.2 191.5,-257.2 8.5,-257.2"/>
<polygon fill="none" stroke="#000000" points="8.5,-257.2 8.5,-280.2 191.5,-280.2 191.5,-257.2 8.5,-257.2"/>
<text text-anchor="start" x="13.5" y="-265.8" font-family="Helvetica,sans-Serif" font-weight="bold" font-size="11.00" fill="#000000">case_note_sub_type</text>
<text text-anchor="start" x="157.0219" y="-265.3" font-family="Helvetica,sans-Serif" font-size="11.00" fill="#000000">[table]</text>
<polygon fill="none" stroke="#000000" points="8.5,-235.2 8.5,-257.2 191.5,-257.2 191.5,-235.2 8.5,-235.2"/>
<image xlink:href="../../images/primaryKeys.png" width="11px" height="12px" preserveAspectRatio="xMinYMin meet" x="13.5" y="-252.2"/>
<text text-anchor="start" x="36.5" y="-242.3" font-family="Helvetica,sans-Serif" font-size="11.00" fill="#000000">id</text>
<polygon fill="#ffffff" stroke="transparent" points="8.5,-213.2 8.5,-235.2 191.5,-235.2 191.5,-213.2 8.5,-213.2"/>
<polygon fill="none" stroke="#000000" points="8.5,-213.2 8.5,-235.2 191.5,-235.2 191.5,-213.2 8.5,-213.2"/>
<image xlink:href="../../images/foreignKeys.png" width="11px" height="12px" preserveAspectRatio="xMinYMin meet" x="13.5" y="-230.2"/>
<text text-anchor="start" x="36.5" y="-220.3" font-family="Helvetica,sans-Serif" font-size="11.00" fill="#000000">type_code</text>
<polygon fill="#ffffff" stroke="transparent" points="8.5,-191.2 8.5,-213.2 191.5,-213.2 191.5,-191.2 8.5,-191.2"/>
<polygon fill="none" stroke="#000000" points="8.5,-191.2 8.5,-213.2 191.5,-213.2 191.5,-191.2 8.5,-191.2"/>
<image xlink:href="../../images/foreignKeys.png" width="11px" height="12px" preserveAspectRatio="xMinYMin meet" x="13.5" y="-208.2"/>
<text text-anchor="start" x="36.5" y="-198.3" font-family="Helvetica,sans-Serif" font-size="11.00" fill="#000000">code</text>
<polygon fill="#ffffff" stroke="transparent" points="8.5,-169.2 8.5,-191.2 191.5,-191.2 191.5,-169.2 8.5,-169.2"/>
<polygon fill="none" stroke="#000000" points="8.5,-169.2 8.5,-191.2 191.5,-191.2 191.5,-169.2 8.5,-169.2"/>
<text text-anchor="start" x="36.5" y="-176.3" font-family="Helvetica,sans-Serif" font-size="11.00" fill="#000000">sync_to_nomis</text>
<polygon fill="none" stroke="#000000" points="8.5,-150.2 8.5,-169.2 191.5,-169.2 191.5,-150.2 8.5,-150.2"/>
<text text-anchor="start" x="11.5" y="-156.3" font-family="Helvetica,sans-Serif" font-size="11.00" fill="#000000">...</text>
<polygon fill="#ffffff" stroke="transparent" points="8.5,-131.2 8.5,-150.2 191.5,-150.2 191.5,-131.2 8.5,-131.2"/>
<polygon fill="none" stroke="#000000" points="8.5,-131.2 8.5,-150.2 191.5,-150.2 191.5,-131.2 8.5,-131.2"/>
<polygon fill="#ffffff" stroke="transparent" points="9.5,-132.2 9.5,-149.2 60.5,-149.2 60.5,-132.2 9.5,-132.2"/>
<text text-anchor="start" x="11.5" y="-137.3" font-family="Helvetica,sans-Serif" font-size="11.00" fill="#000000">&lt; 1</text>
<polygon fill="#ffffff" stroke="transparent" points="60.5,-132.2 60.5,-149.2 140.5,-149.2 140.5,-132.2 60.5,-132.2"/>
<text text-anchor="start" x="78.1904" y="-137.3" font-family="Helvetica,sans-Serif" font-size="11.00" fill="#000000">386 rows</text>
<polygon fill="#ffffff" stroke="transparent" points="140.5,-132.2 140.5,-149.2 190.5,-149.2 190.5,-132.2 140.5,-132.2"/>
<text text-anchor="start" x="172.9053" y="-137.3" font-family="Helvetica,sans-Serif" font-size="11.00" fill="#000000">1 &gt;</text>
<polygon fill="#000000" stroke="#000000" points="60.5,-132.2 60.5,-149.2 60.5,-149.2 60.5,-132.2 60.5,-132.2"/>
<polygon fill="#000000" stroke="#000000" points="140.5,-132.2 140.5,-149.2 140.5,-149.2 140.5,-132.2 140.5,-132.2"/>
</a>
</g>
</g>
<!-- case_note&#45;&gt;case_note_sub_type -->
<g id="edge1" class="edge">
<title>case_note:w&#45;&gt;case_note_sub_type:e</title>
<path fill="none" stroke="#000000" d="M227.776,-246.2C215.7815,-246.2 208.3229,-246.2 191.5,-246.2"/>
<polygon fill="#000000" stroke="#000000" points="234.5,-246.2001 242.5,-249.8 238.5,-246.2 242.5,-246.2 242.5,-246.2 242.5,-246.2 238.5,-246.2 242.5,-242.6 234.5,-246.2001 234.5,-246.2001"/>
<ellipse fill="none" stroke="#000000" cx="231.3" cy="-246.2001" rx="3.2" ry="3.2"/>
</g>
<!-- case_note_amendment -->
<g id="node3" class="node">
<title>case_note_amendment</title>
<g id="a_node3"><a xlink:href="../../tables/case_note_amendment.html" xlink:title="case_note_amendment" target="_top">
<polygon fill="#ffffff" stroke="transparent" points="542,-263.7 542,-390.7 747,-390.7 747,-263.7 542,-263.7"/>
<polygon fill="#f5f5f5" stroke="transparent" points="542.5,-367.2 542.5,-390.2 747.5,-390.2 747.5,-367.2 542.5,-367.2"/>
<polygon fill="none" stroke="#000000" points="542.5,-367.2 542.5,-390.2 747.5,-390.2 747.5,-367.2 542.5,-367.2"/>
<text text-anchor="start" x="547.5" y="-375.8" font-family="Helvetica,sans-Serif" font-weight="bold" font-size="11.00" fill="#000000">case_note_amendment</text>
<text text-anchor="start" x="713.0219" y="-375.3" font-family="Helvetica,sans-Serif" font-size="11.00" fill="#000000">[table]</text>
<polygon fill="#ffffff" stroke="transparent" points="542.5,-345.2 542.5,-367.2 747.5,-367.2 747.5,-345.2 542.5,-345.2"/>
<polygon fill="none" stroke="#000000" points="542.5,-345.2 542.5,-367.2 747.5,-367.2 747.5,-345.2 542.5,-345.2"/>
<image xlink:href="../../images/foreignKeys.png" width="11px" height="12px" preserveAspectRatio="xMinYMin meet" x="547.5" y="-362.2"/>
<text text-anchor="start" x="571.5" y="-352.3" font-family="Helvetica,sans-Serif" font-size="11.00" fill="#000000">case_note_id</text>
<polygon fill="#ffffff" stroke="transparent" points="542.5,-323.2 542.5,-345.2 747.5,-345.2 747.5,-323.2 542.5,-323.2"/>
<polygon fill="none" stroke="#000000" points="542.5,-323.2 542.5,-345.2 747.5,-345.2 747.5,-323.2 542.5,-323.2"/>
<text text-anchor="start" x="571.5" y="-330.3" font-family="Helvetica,sans-Serif" font-size="11.00" fill="#000000">created_at</text>
<polygon fill="none" stroke="#000000" points="542.5,-301.2 542.5,-323.2 747.5,-323.2 747.5,-301.2 542.5,-301.2"/>
<image xlink:href="../../images/primaryKeys.png" width="11px" height="12px" preserveAspectRatio="xMinYMin meet" x="547.5" y="-318.2"/>
<text text-anchor="start" x="571.5" y="-308.3" font-family="Helvetica,sans-Serif" font-size="11.00" fill="#000000">id</text>
<polygon fill="none" stroke="#000000" points="542.5,-282.2 542.5,-301.2 747.5,-301.2 747.5,-282.2 542.5,-282.2"/>
<text text-anchor="start" x="545.5" y="-288.3" font-family="Helvetica,sans-Serif" font-size="11.00" fill="#000000">...</text>
<polygon fill="#ffffff" stroke="transparent" points="542.5,-263.2 542.5,-282.2 747.5,-282.2 747.5,-263.2 542.5,-263.2"/>
<polygon fill="none" stroke="#000000" points="542.5,-263.2 542.5,-282.2 747.5,-282.2 747.5,-263.2 542.5,-263.2"/>
<polygon fill="#ffffff" stroke="transparent" points="543.5,-264.2 543.5,-281.2 617.5,-281.2 617.5,-264.2 543.5,-264.2"/>
<text text-anchor="start" x="545.5" y="-269.3" font-family="Helvetica,sans-Serif" font-size="11.00" fill="#000000">&lt; 1</text>
<polygon fill="#ffffff" stroke="transparent" points="617.5,-264.2 617.5,-281.2 682.5,-281.2 682.5,-264.2 617.5,-264.2"/>
<text text-anchor="start" x="646.9431" y="-269.3" font-family="Helvetica,sans-Serif" font-size="11.00" fill="#000000"> &#160;</text>
<polygon fill="#ffffff" stroke="transparent" points="682.5,-264.2 682.5,-281.2 746.5,-281.2 746.5,-264.2 682.5,-264.2"/>
<text text-anchor="start" x="738.3862" y="-269.3" font-family="Helvetica,sans-Serif" font-size="11.00" fill="#000000"> &#160;</text>
<polygon fill="#000000" stroke="#000000" points="617.5,-264.2 617.5,-281.2 617.5,-281.2 617.5,-264.2 617.5,-264.2"/>
<polygon fill="#000000" stroke="#000000" points="682.5,-264.2 682.5,-281.2 682.5,-281.2 682.5,-264.2 682.5,-264.2"/>
</a>
</g>
</g>
<!-- case_note_amendment&#45;&gt;case_note -->
<g id="edge2" class="edge">
<title>case_note_amendment:w&#45;&gt;case_note:e</title>
<path fill="none" stroke="#000000" d="M527.776,-356.2C515.7815,-356.2 508.3229,-356.2 491.5,-356.2"/>
<polygon fill="#000000" stroke="#000000" points="534.5,-356.2001 542.5,-359.8 538.5,-356.2 542.5,-356.2 542.5,-356.2 542.5,-356.2 538.5,-356.2 542.5,-352.6 534.5,-356.2001 534.5,-356.2001"/>
<ellipse fill="none" stroke="#000000" cx="531.3" cy="-356.2001" rx="3.2" ry="3.2"/>
</g>
</g>
</svg>
