<?xml version="1.0" encoding="UTF-8" standalone="no"?>
<!DOCTYPE svg PUBLIC "-//W3C//DTD SVG 1.1//EN"
 "http://www.w3.org/Graphics/SVG/1.1/DTD/svg11.dtd">
<!-- Generated by graphviz version 2.40.1 (20161225.0304)
 -->
<!-- Title: twoDegreesRelationshipsDiagram Pages: 1 -->
<svg width="963pt" height="404pt"
 viewBox="0.00 0.00 963.00 404.20" xmlns="http://www.w3.org/2000/svg" xmlns:xlink="http://www.w3.org/1999/xlink">
<g id="graph0" class="graph" transform="scale(1 1) rotate(0) translate(4 400.2)">
<title>twoDegreesRelationshipsDiagram</title>
<polygon fill="#ffffff" stroke="transparent" points="-4,4 -4,-400.2 959,-400.2 959,4 -4,4"/>
<text text-anchor="middle" x="72.4936" y="-7.3" font-family="Helvetica,sans-Serif" font-size="11.00" fill="#000000">Generated by SchemaSpy</text>
<!-- case_note -->
<g id="node1" class="node">
<title>case_note</title>
<g id="a_node1"><a xlink:href="../../tables/case_note.html" xlink:title="case_note" target="_top">
<polygon fill="#ffffff" stroke="transparent" points="440,-38.2 440,-392.2 693,-392.2 693,-38.2 440,-38.2"/>
<polygon fill="#f5f5f5" stroke="transparent" points="442.5,-367.2 442.5,-390.2 691.5,-390.2 691.5,-367.2 442.5,-367.2"/>
<polygon fill="none" stroke="#000000" points="442.5,-367.2 442.5,-390.2 691.5,-390.2 691.5,-367.2 442.5,-367.2"/>
<text text-anchor="start" x="447.5" y="-375.8" font-family="Helvetica,sans-Serif" font-weight="bold" font-size="11.00" fill="#000000">case_note</text>
<text text-anchor="start" x="656.5437" y="-375.3" font-family="Helvetica,sans-Serif" font-size="11.00" fill="#000000">[table]</text>
<polygon fill="none" stroke="#000000" points="442.5,-345.2 442.5,-367.2 597.5,-367.2 597.5,-345.2 442.5,-345.2"/>
<image xlink:href="../../images/primaryKeys.png" width="11px" height="12px" preserveAspectRatio="xMinYMin meet" x="447.5" y="-362.2"/>
<text text-anchor="start" x="462.5" y="-352.3" font-family="Helvetica,sans-Serif" font-size="11.00" fill="#000000">id</text>
<polygon fill="none" stroke="#000000" points="597.5,-345.2 597.5,-367.2 691.5,-367.2 691.5,-345.2 597.5,-345.2"/>
<text text-anchor="start" x="600.4758" y="-352.9" font-family="Helvetica,sans-Serif" font-size="11.00" fill="#000000">uuid[2147483647]</text>
<polygon fill="#ffffff" stroke="transparent" points="442.5,-323.2 442.5,-345.2 597.5,-345.2 597.5,-323.2 442.5,-323.2"/>
<polygon fill="none" stroke="#000000" points="442.5,-323.2 442.5,-345.2 597.5,-345.2 597.5,-323.2 442.5,-323.2"/>
<text text-anchor="start" x="462.5" y="-330.3" font-family="Helvetica,sans-Serif" font-size="11.00" fill="#000000">person_identifier</text>
<polygon fill="none" stroke="#000000" points="597.5,-323.2 597.5,-345.2 691.5,-345.2 691.5,-323.2 597.5,-323.2"/>
<text text-anchor="start" x="600.5" y="-330.9" font-family="Helvetica,sans-Serif" font-size="11.00" fill="#000000">varchar[12]</text>
<polygon fill="#ffffff" stroke="transparent" points="442.5,-301.2 442.5,-323.2 597.5,-323.2 597.5,-301.2 442.5,-301.2"/>
<polygon fill="none" stroke="#000000" points="442.5,-301.2 442.5,-323.2 597.5,-323.2 597.5,-301.2 442.5,-301.2"/>
<text text-anchor="start" x="462.5" y="-308.3" font-family="Helvetica,sans-Serif" font-size="11.00" fill="#000000">location_id</text>
<polygon fill="none" stroke="#000000" points="597.5,-301.2 597.5,-323.2 691.5,-323.2 691.5,-301.2 597.5,-301.2"/>
<text text-anchor="start" x="600.5" y="-308.9" font-family="Helvetica,sans-Serif" font-size="11.00" fill="#000000">varchar[12]</text>
<polygon fill="#ffffff" stroke="transparent" points="442.5,-279.2 442.5,-301.2 597.5,-301.2 597.5,-279.2 442.5,-279.2"/>
<polygon fill="none" stroke="#000000" points="442.5,-279.2 442.5,-301.2 597.5,-301.2 597.5,-279.2 442.5,-279.2"/>
<text text-anchor="start" x="462.5" y="-286.3" font-family="Helvetica,sans-Serif" font-size="11.00" fill="#000000">author_username</text>
<polygon fill="none" stroke="#000000" points="597.5,-279.2 597.5,-301.2 691.5,-301.2 691.5,-279.2 597.5,-279.2"/>
<text text-anchor="start" x="600.5" y="-286.9" font-family="Helvetica,sans-Serif" font-size="11.00" fill="#000000">varchar[64]</text>
<polygon fill="none" stroke="#000000" points="442.5,-257.2 442.5,-279.2 597.5,-279.2 597.5,-257.2 442.5,-257.2"/>
<text text-anchor="start" x="462.5" y="-264.3" font-family="Helvetica,sans-Serif" font-size="11.00" fill="#000000">author_name</text>
<polygon fill="none" stroke="#000000" points="597.5,-257.2 597.5,-279.2 691.5,-279.2 691.5,-257.2 597.5,-257.2"/>
<text text-anchor="start" x="600.5" y="-264.9" font-family="Helvetica,sans-Serif" font-size="11.00" fill="#000000">varchar[80]</text>
<polygon fill="#ffffff" stroke="transparent" points="442.5,-235.2 442.5,-257.2 597.5,-257.2 597.5,-235.2 442.5,-235.2"/>
<polygon fill="none" stroke="#000000" points="442.5,-235.2 442.5,-257.2 597.5,-257.2 597.5,-235.2 442.5,-235.2"/>
<image xlink:href="../../images/foreignKeys.png" width="11px" height="12px" preserveAspectRatio="xMinYMin meet" x="447.5" y="-252.2"/>
<text text-anchor="start" x="462.5" y="-242.3" font-family="Helvetica,sans-Serif" font-size="11.00" fill="#000000">sub_type_id</text>
<polygon fill="none" stroke="#000000" points="597.5,-235.2 597.5,-257.2 691.5,-257.2 691.5,-235.2 597.5,-235.2"/>
<text text-anchor="start" x="600.5" y="-242.9" font-family="Helvetica,sans-Serif" font-size="11.00" fill="#000000">int4[10]</text>
<polygon fill="#ffffff" stroke="transparent" points="442.5,-213.2 442.5,-235.2 597.5,-235.2 597.5,-213.2 442.5,-213.2"/>
<polygon fill="none" stroke="#000000" points="442.5,-213.2 442.5,-235.2 597.5,-235.2 597.5,-213.2 442.5,-213.2"/>
<text text-anchor="start" x="462.5" y="-220.3" font-family="Helvetica,sans-Serif" font-size="11.00" fill="#000000">occurred_at</text>
<polygon fill="none" stroke="#000000" points="597.5,-213.2 597.5,-235.2 691.5,-235.2 691.5,-213.2 597.5,-213.2"/>
<text text-anchor="start" x="600.5" y="-220.9" font-family="Helvetica,sans-Serif" font-size="11.00" fill="#000000">timestamp[29,6]</text>
<polygon fill="none" stroke="#000000" points="442.5,-191.2 442.5,-213.2 597.5,-213.2 597.5,-191.2 442.5,-191.2"/>
<text text-anchor="start" x="462.5" y="-198.3" font-family="Helvetica,sans-Serif" font-size="11.00" fill="#000000">note_text</text>
<polygon fill="none" stroke="#000000" points="597.5,-191.2 597.5,-213.2 691.5,-213.2 691.5,-191.2 597.5,-191.2"/>
<text text-anchor="start" x="600.5" y="-198.9" font-family="Helvetica,sans-Serif" font-size="11.00" fill="#000000">text[2147483647]</text>
<polygon fill="#ffffff" stroke="transparent" points="442.5,-169.2 442.5,-191.2 597.5,-191.2 597.5,-169.2 442.5,-169.2"/>
<polygon fill="none" stroke="#000000" points="442.5,-169.2 442.5,-191.2 597.5,-191.2 597.5,-169.2 442.5,-169.2"/>
<text text-anchor="start" x="462.5" y="-176.3" font-family="Helvetica,sans-Serif" font-size="11.00" fill="#000000">created_at</text>
<polygon fill="none" stroke="#000000" points="597.5,-169.2 597.5,-191.2 691.5,-191.2 691.5,-169.2 597.5,-169.2"/>
<text text-anchor="start" x="600.5" y="-176.9" font-family="Helvetica,sans-Serif" font-size="11.00" fill="#000000">timestamp[29,6]</text>
<polygon fill="none" stroke="#000000" points="442.5,-147.2 442.5,-169.2 597.5,-169.2 597.5,-147.2 442.5,-147.2"/>
<text text-anchor="start" x="462.5" y="-154.3" font-family="Helvetica,sans-Serif" font-size="11.00" fill="#000000">created_by</text>
<polygon fill="none" stroke="#000000" points="597.5,-147.2 597.5,-169.2 691.5,-169.2 691.5,-147.2 597.5,-147.2"/>
<text text-anchor="start" x="600.5" y="-154.9" font-family="Helvetica,sans-Serif" font-size="11.00" fill="#000000">varchar[64]</text>
<polygon fill="#ffffff" stroke="transparent" points="442.5,-125.2 442.5,-147.2 597.5,-147.2 597.5,-125.2 442.5,-125.2"/>
<polygon fill="none" stroke="#000000" points="442.5,-125.2 442.5,-147.2 597.5,-147.2 597.5,-125.2 442.5,-125.2"/>
<text text-anchor="start" x="462.5" y="-132.3" font-family="Helvetica,sans-Serif" font-size="11.00" fill="#000000">legacy_id</text>
<polygon fill="none" stroke="#000000" points="597.5,-125.2 597.5,-147.2 691.5,-147.2 691.5,-125.2 597.5,-125.2"/>
<text text-anchor="start" x="600.5" y="-132.9" font-family="Helvetica,sans-Serif" font-size="11.00" fill="#000000">bigserial[19]</text>
<polygon fill="#ffffff" stroke="transparent" points="442.5,-103.2 442.5,-125.2 597.5,-125.2 597.5,-103.2 442.5,-103.2"/>
<polygon fill="none" stroke="#000000" points="442.5,-103.2 442.5,-125.2 597.5,-125.2 597.5,-103.2 442.5,-103.2"/>
<text text-anchor="start" x="462.5" y="-110.3" font-family="Helvetica,sans-Serif" font-size="11.00" fill="#000000">author_user_id</text>
<polygon fill="none" stroke="#000000" points="597.5,-103.2 597.5,-125.2 691.5,-125.2 691.5,-103.2 597.5,-103.2"/>
<text text-anchor="start" x="600.5" y="-110.9" font-family="Helvetica,sans-Serif" font-size="11.00" fill="#000000">varchar[64]</text>
<polygon fill="none" stroke="#000000" points="442.5,-81.2 442.5,-103.2 597.5,-103.2 597.5,-81.2 442.5,-81.2"/>
<text text-anchor="start" x="462.5" y="-88.3" font-family="Helvetica,sans-Serif" font-size="11.00" fill="#000000">system_generated</text>
<polygon fill="none" stroke="#000000" points="597.5,-81.2 597.5,-103.2 691.5,-103.2 691.5,-81.2 597.5,-81.2"/>
<text text-anchor="start" x="600.5" y="-88.9" font-family="Helvetica,sans-Serif" font-size="11.00" fill="#000000">bool[1]</text>
<polygon fill="none" stroke="#000000" points="442.5,-59.2 442.5,-81.2 597.5,-81.2 597.5,-59.2 442.5,-59.2"/>
<text text-anchor="start" x="462.5" y="-66.3" font-family="Helvetica,sans-Serif" font-size="11.00" fill="#000000">system</text>
<polygon fill="none" stroke="#000000" points="597.5,-59.2 597.5,-81.2 691.5,-81.2 691.5,-59.2 597.5,-59.2"/>
<text text-anchor="start" x="600.5" y="-66.9" font-family="Helvetica,sans-Serif" font-size="11.00" fill="#000000">varchar[6]</text>
<polygon fill="#ffffff" stroke="transparent" points="442.5,-40.2 442.5,-59.2 691.5,-59.2 691.5,-40.2 442.5,-40.2"/>
<polygon fill="none" stroke="#000000" points="442.5,-40.2 442.5,-59.2 691.5,-59.2 691.5,-40.2 442.5,-40.2"/>
<polygon fill="#ffffff" stroke="transparent" points="443.5,-41.2 443.5,-58.2 529.5,-58.2 529.5,-41.2 443.5,-41.2"/>
<text text-anchor="start" x="445.5" y="-46.3" font-family="Helvetica,sans-Serif" font-size="11.00" fill="#000000">&lt; 1</text>
<polygon fill="#ffffff" stroke="transparent" points="529.5,-41.2 529.5,-58.2 605.5,-58.2 605.5,-41.2 529.5,-41.2"/>
<text text-anchor="start" x="564.4431" y="-46.3" font-family="Helvetica,sans-Serif" font-size="11.00" fill="#000000"> &#160;</text>
<polygon fill="#ffffff" stroke="transparent" points="605.5,-41.2 605.5,-58.2 690.5,-58.2 690.5,-41.2 605.5,-41.2"/>
<text text-anchor="start" x="672.9053" y="-46.3" font-family="Helvetica,sans-Serif" font-size="11.00" fill="#000000">1 &gt;</text>
<polygon fill="#000000" stroke="#000000" points="529.5,-41.2 529.5,-58.2 529.5,-58.2 529.5,-41.2 529.5,-41.2"/>
<polygon fill="#000000" stroke="#000000" points="605.5,-41.2 605.5,-58.2 605.5,-58.2 605.5,-41.2 605.5,-41.2"/>
<polygon fill="none" stroke="#000000" stroke-width="2" points="441,-39.2 441,-391.2 692,-391.2 692,-39.2 441,-39.2"/>
</a>
</g>
</g>
<!-- case_note_sub_type -->
<g id="node2" class="node">
<title>case_note_sub_type</title>
<g id="a_node2"><a xlink:href="../../tables/case_note_sub_type.html" xlink:title="case_note_sub_type" target="_top">
<polygon fill="#ffffff" stroke="transparent" points="208,-131.7 208,-280.7 391,-280.7 391,-131.7 208,-131.7"/>
<polygon fill="#f5f5f5" stroke="transparent" points="208.5,-257.2 208.5,-280.2 391.5,-280.2 391.5,-257.2 208.5,-257.2"/>
<polygon fill="none" stroke="#000000" points="208.5,-257.2 208.5,-280.2 391.5,-280.2 391.5,-257.2 208.5,-257.2"/>
<text text-anchor="start" x="213.5" y="-265.8" font-family="Helvetica,sans-Serif" font-weight="bold" font-size="11.00" fill="#000000">case_note_sub_type</text>
<text text-anchor="start" x="357.0219" y="-265.3" font-family="Helvetica,sans-Serif" font-size="11.00" fill="#000000">[table]</text>
<polygon fill="none" stroke="#000000" points="208.5,-235.2 208.5,-257.2 391.5,-257.2 391.5,-235.2 208.5,-235.2"/>
<image xlink:href="../../images/primaryKeys.png" width="11px" height="12px" preserveAspectRatio="xMinYMin meet" x="213.5" y="-252.2"/>
<text text-anchor="start" x="236.5" y="-242.3" font-family="Helvetica,sans-Serif" font-size="11.00" fill="#000000">id</text>
<polygon fill="#ffffff" stroke="transparent" points="208.5,-213.2 208.5,-235.2 391.5,-235.2 391.5,-213.2 208.5,-213.2"/>
<polygon fill="none" stroke="#000000" points="208.5,-213.2 208.5,-235.2 391.5,-235.2 391.5,-213.2 208.5,-213.2"/>
<image xlink:href="../../images/foreignKeys.png" width="11px" height="12px" preserveAspectRatio="xMinYMin meet" x="213.5" y="-230.2"/>
<text text-anchor="start" x="236.5" y="-220.3" font-family="Helvetica,sans-Serif" font-size="11.00" fill="#000000">type_code</text>
<polygon fill="#ffffff" stroke="transparent" points="208.5,-191.2 208.5,-213.2 391.5,-213.2 391.5,-191.2 208.5,-191.2"/>
<polygon fill="none" stroke="#000000" points="208.5,-191.2 208.5,-213.2 391.5,-213.2 391.5,-191.2 208.5,-191.2"/>
<image xlink:href="../../images/foreignKeys.png" width="11px" height="12px" preserveAspectRatio="xMinYMin meet" x="213.5" y="-208.2"/>
<text text-anchor="start" x="236.5" y="-198.3" font-family="Helvetica,sans-Serif" font-size="11.00" fill="#000000">code</text>
<polygon fill="#ffffff" stroke="transparent" points="208.5,-169.2 208.5,-191.2 391.5,-191.2 391.5,-169.2 208.5,-169.2"/>
<polygon fill="none" stroke="#000000" points="208.5,-169.2 208.5,-191.2 391.5,-191.2 391.5,-169.2 208.5,-169.2"/>
<text text-anchor="start" x="236.5" y="-176.3" font-family="Helvetica,sans-Serif" font-size="11.00" fill="#000000">sync_to_nomis</text>
<polygon fill="none" stroke="#000000" points="208.5,-150.2 208.5,-169.2 391.5,-169.2 391.5,-150.2 208.5,-150.2"/>
<text text-anchor="start" x="211.5" y="-156.3" font-family="Helvetica,sans-Serif" font-size="11.00" fill="#000000">...</text>
<polygon fill="#ffffff" stroke="transparent" points="208.5,-131.2 208.5,-150.2 391.5,-150.2 391.5,-131.2 208.5,-131.2"/>
<polygon fill="none" stroke="#000000" points="208.5,-131.2 208.5,-150.2 391.5,-150.2 391.5,-131.2 208.5,-131.2"/>
<polygon fill="#ffffff" stroke="transparent" points="209.5,-132.2 209.5,-149.2 260.5,-149.2 260.5,-132.2 209.5,-132.2"/>
<text text-anchor="start" x="211.5" y="-137.3" font-family="Helvetica,sans-Serif" font-size="11.00" fill="#000000">&lt; 1</text>
<polygon fill="#ffffff" stroke="transparent" points="260.5,-132.2 260.5,-149.2 340.5,-149.2 340.5,-132.2 260.5,-132.2"/>
<text text-anchor="start" x="278.1904" y="-137.3" font-family="Helvetica,sans-Serif" font-size="11.00" fill="#000000">386 rows</text>
<polygon fill="#ffffff" stroke="transparent" points="340.5,-132.2 340.5,-149.2 390.5,-149.2 390.5,-132.2 340.5,-132.2"/>
<text text-anchor="start" x="372.9053" y="-137.3" font-family="Helvetica,sans-Serif" font-size="11.00" fill="#000000">1 &gt;</text>
<polygon fill="#000000" stroke="#000000" points="260.5,-132.2 260.5,-149.2 260.5,-149.2 260.5,-132.2 260.5,-132.2"/>
<polygon fill="#000000" stroke="#000000" points="340.5,-132.2 340.5,-149.2 340.5,-149.2 340.5,-132.2 340.5,-132.2"/>
</a>
</g>
</g>
<!-- case_note&#45;&gt;case_note_sub_type -->
<g id="edge1" class="edge">
<title>case_note:w&#45;&gt;case_note_sub_type:e</title>
<path fill="none" stroke="#000000" d="M427.776,-246.2C415.7815,-246.2 408.3229,-246.2 391.5,-246.2"/>
<polygon fill="#000000" stroke="#000000" points="434.5,-246.2001 442.5,-249.8 438.5,-246.2 442.5,-246.2 442.5,-246.2 442.5,-246.2 438.5,-246.2 442.5,-242.6 434.5,-246.2001 434.5,-246.2001"/>
<ellipse fill="none" stroke="#000000" cx="431.3" cy="-246.2001" rx="3.2" ry="3.2"/>
</g>
<!-- case_note_type -->
<g id="node4" class="node">
<title>case_note_type</title>
<g id="a_node4"><a xlink:href="../../tables/case_note_type.html" xlink:title="case_note_type" target="_top">
<polygon fill="#ffffff" stroke="transparent" points="8,-196.7 8,-257.7 159,-257.7 159,-196.7 8,-196.7"/>
<polygon fill="#f5f5f5" stroke="transparent" points="8.5,-234.2 8.5,-257.2 159.5,-257.2 159.5,-234.2 8.5,-234.2"/>
<polygon fill="none" stroke="#000000" points="8.5,-234.2 8.5,-257.2 159.5,-257.2 159.5,-234.2 8.5,-234.2"/>
<text text-anchor="start" x="13.5" y="-242.8" font-family="Helvetica,sans-Serif" font-weight="bold" font-size="11.00" fill="#000000">case_note_type</text>
<text text-anchor="start" x="125.0219" y="-242.3" font-family="Helvetica,sans-Serif" font-size="11.00" fill="#000000">[table]</text>
<polygon fill="none" stroke="#000000" points="8.5,-215.2 8.5,-234.2 159.5,-234.2 159.5,-215.2 8.5,-215.2"/>
<text text-anchor="start" x="11.5" y="-221.3" font-family="Helvetica,sans-Serif" font-size="11.00" fill="#000000">...</text>
<polygon fill="#ffffff" stroke="transparent" points="8.5,-196.2 8.5,-215.2 159.5,-215.2 159.5,-196.2 8.5,-196.2"/>
<polygon fill="none" stroke="#000000" points="8.5,-196.2 8.5,-215.2 159.5,-215.2 159.5,-196.2 8.5,-196.2"/>
<polygon fill="#ffffff" stroke="transparent" points="9.5,-197.2 9.5,-214.2 56.5,-214.2 56.5,-197.2 9.5,-197.2"/>
<text text-anchor="start" x="11.5" y="-202.3" font-family="Helvetica,sans-Serif" font-size="11.00" fill="#000000"> &#160;</text>
<polygon fill="#ffffff" stroke="transparent" points="56.5,-197.2 56.5,-214.2 103.5,-214.2 103.5,-197.2 56.5,-197.2"/>
<text text-anchor="start" x="76.9431" y="-202.3" font-family="Helvetica,sans-Serif" font-size="11.00" fill="#000000"> &#160;</text>
<polygon fill="#ffffff" stroke="transparent" points="103.5,-197.2 103.5,-214.2 158.5,-214.2 158.5,-197.2 103.5,-197.2"/>
<text text-anchor="start" x="140.9053" y="-202.3" font-family="Helvetica,sans-Serif" font-size="11.00" fill="#000000">1 &gt;</text>
<polygon fill="#000000" stroke="#000000" points="56.5,-197.2 56.5,-214.2 56.5,-214.2 56.5,-197.2 56.5,-197.2"/>
<polygon fill="#000000" stroke="#000000" points="103.5,-197.2 103.5,-214.2 103.5,-214.2 103.5,-197.2 103.5,-197.2"/>
</a>
</g>
</g>
<!-- case_note_sub_type&#45;&gt;case_note_type -->
<g id="edge3" class="edge">
<title>case_note_sub_type:w&#45;&gt;case_note_type:e</title>
<path fill="none" stroke="#000000" d="M193.9909,-224.2C182.6774,-224.2 175.4931,-224.2 159.5,-224.2"/>
<polygon fill="#000000" stroke="#000000" points="200.5,-224.2001 208.5,-227.8 204.5,-224.2 208.5,-224.2 208.5,-224.2 208.5,-224.2 204.5,-224.2 208.5,-220.6 200.5,-224.2001 200.5,-224.2001"/>
<ellipse fill="none" stroke="#000000" cx="197.3" cy="-224.2001" rx="3.2" ry="3.2"/>
</g>
<!-- case_note_amendment -->
<g id="node3" class="node">
<title>case_note_amendment</title>
<g id="a_node3"><a xlink:href="../../tables/case_note_amendment.html" xlink:title="case_note_amendment" target="_top">
<polygon fill="#ffffff" stroke="transparent" points="742,-263.7 742,-390.7 947,-390.7 947,-263.7 742,-263.7"/>
<polygon fill="#f5f5f5" stroke="transparent" points="742.5,-367.2 742.5,-390.2 947.5,-390.2 947.5,-367.2 742.5,-367.2"/>
<polygon fill="none" stroke="#000000" points="742.5,-367.2 742.5,-390.2 947.5,-390.2 947.5,-367.2 742.5,-367.2"/>
<text text-anchor="start" x="747.5" y="-375.8" font-family="Helvetica,sans-Serif" font-weight="bold" font-size="11.00" fill="#000000">case_note_amendment</text>
<text text-anchor="start" x="913.0219" y="-375.3" font-family="Helvetica,sans-Serif" font-size="11.00" fill="#000000">[table]</text>
<polygon fill="#ffffff" stroke="transparent" points="742.5,-345.2 742.5,-367.2 947.5,-367.2 947.5,-345.2 742.5,-345.2"/>
<polygon fill="none" stroke="#000000" points="742.5,-345.2 742.5,-367.2 947.5,-367.2 947.5,-345.2 742.5,-345.2"/>
<image xlink:href="../../images/foreignKeys.png" width="11px" height="12px" preserveAspectRatio="xMinYMin meet" x="747.5" y="-362.2"/>
<text text-anchor="start" x="771.5" y="-352.3" font-family="Helvetica,sans-Serif" font-size="11.00" fill="#000000">case_note_id</text>
<polygon fill="#ffffff" stroke="transparent" points="742.5,-323.2 742.5,-345.2 947.5,-345.2 947.5,-323.2 742.5,-323.2"/>
<polygon fill="none" stroke="#000000" points="742.5,-323.2 742.5,-345.2 947.5,-345.2 947.5,-323.2 742.5,-323.2"/>
<text text-anchor="start" x="771.5" y="-330.3" font-family="Helvetica,sans-Serif" font-size="11.00" fill="#000000">created_at</text>
<polygon fill="none" stroke="#000000" points="742.5,-301.2 742.5,-323.2 947.5,-323.2 947.5,-301.2 742.5,-301.2"/>
<image xlink:href="../../images/primaryKeys.png" width="11px" height="12px" preserveAspectRatio="xMinYMin meet" x="747.5" y="-318.2"/>
<text text-anchor="start" x="771.5" y="-308.3" font-family="Helvetica,sans-Serif" font-size="11.00" fill="#000000">id</text>
<polygon fill="none" stroke="#000000" points="742.5,-282.2 742.5,-301.2 947.5,-301.2 947.5,-282.2 742.5,-282.2"/>
<text text-anchor="start" x="745.5" y="-288.3" font-family="Helvetica,sans-Serif" font-size="11.00" fill="#000000">...</text>
<polygon fill="#ffffff" stroke="transparent" points="742.5,-263.2 742.5,-282.2 947.5,-282.2 947.5,-263.2 742.5,-263.2"/>
<polygon fill="none" stroke="#000000" points="742.5,-263.2 742.5,-282.2 947.5,-282.2 947.5,-263.2 742.5,-263.2"/>
<polygon fill="#ffffff" stroke="transparent" points="743.5,-264.2 743.5,-281.2 817.5,-281.2 817.5,-264.2 743.5,-264.2"/>
<text text-anchor="start" x="745.5" y="-269.3" font-family="Helvetica,sans-Serif" font-size="11.00" fill="#000000">&lt; 1</text>
<polygon fill="#ffffff" stroke="transparent" points="817.5,-264.2 817.5,-281.2 882.5,-281.2 882.5,-264.2 817.5,-264.2"/>
<text text-anchor="start" x="846.9431" y="-269.3" font-family="Helvetica,sans-Serif" font-size="11.00" fill="#000000"> &#160;</text>
<polygon fill="#ffffff" stroke="transparent" points="882.5,-264.2 882.5,-281.2 946.5,-281.2 946.5,-264.2 882.5,-264.2"/>
<text text-anchor="start" x="938.3862" y="-269.3" font-family="Helvetica,sans-Serif" font-size="11.00" fill="#000000"> &#160;</text>
<polygon fill="#000000" stroke="#000000" points="817.5,-264.2 817.5,-281.2 817.5,-281.2 817.5,-264.2 817.5,-264.2"/>
<polygon fill="#000000" stroke="#000000" points="882.5,-264.2 882.5,-281.2 882.5,-281.2 882.5,-264.2 882.5,-264.2"/>
</a>
</g>
</g>
<!-- case_note_amendment&#45;&gt;case_note -->
<g id="edge2" class="edge">
<title>case_note_amendment:w&#45;&gt;case_note:e</title>
<path fill="none" stroke="#000000" d="M727.776,-356.2C715.7815,-356.2 708.3229,-356.2 691.5,-356.2"/>
<polygon fill="#000000" stroke="#000000" points="734.5,-356.2001 742.5,-359.8 738.5,-356.2 742.5,-356.2 742.5,-356.2 742.5,-356.2 738.5,-356.2 742.5,-352.6 734.5,-356.2001 734.5,-356.2001"/>
<ellipse fill="none" stroke="#000000" cx="731.3" cy="-356.2001" rx="3.2" ry="3.2"/>
</g>
</g>
</svg>
