<?xml version="1.0" encoding="UTF-8" standalone="no"?>
<!DOCTYPE svg PUBLIC "-//W3C//DTD SVG 1.1//EN"
 "http://www.w3.org/Graphics/SVG/1.1/DTD/svg11.dtd">
<!-- Generated by graphviz version 2.40.1 (20161225.0304)
 -->
<!-- Title: twoDegreesRelationshipsDiagram Pages: 1 -->
<svg width="937pt" height="469pt"
 viewBox="0.00 0.00 937.00 468.70" xmlns="http://www.w3.org/2000/svg" xmlns:xlink="http://www.w3.org/1999/xlink">
<g id="graph0" class="graph" transform="scale(1 1) rotate(0) translate(4 464.7)">
<title>twoDegreesRelationshipsDiagram</title>
<polygon fill="#ffffff" stroke="transparent" points="-4,4 -4,-464.7 933,-464.7 933,4 -4,4"/>
<text text-anchor="middle" x="72.4936" y="-7.3" font-family="Helvetica,sans-Serif" font-size="11.00" fill="#000000">Generated by SchemaSpy</text>
<!-- case_note -->
<g id="node1" class="node">
<title>case_note</title>
<g id="a_node1"><a xlink:href="../../tables/case_note.html" xlink:title="case_note" target="_top">
<polygon fill="#ffffff" stroke="transparent" points="512,-197.7 512,-456.7 667,-456.7 667,-197.7 512,-197.7"/>
<polygon fill="#f5f5f5" stroke="transparent" points="512.5,-433.2 512.5,-456.2 667.5,-456.2 667.5,-433.2 512.5,-433.2"/>
<polygon fill="none" stroke="#000000" points="512.5,-433.2 512.5,-456.2 667.5,-456.2 667.5,-433.2 512.5,-433.2"/>
<text text-anchor="start" x="517.5" y="-441.8" font-family="Helvetica,sans-Serif" font-weight="bold" font-size="11.00" fill="#000000">case_note</text>
<text text-anchor="start" x="632.5437" y="-441.3" font-family="Helvetica,sans-Serif" font-size="11.00" fill="#000000">[table]</text>
<polygon fill="none" stroke="#000000" points="512.5,-411.2 512.5,-433.2 667.5,-433.2 667.5,-411.2 512.5,-411.2"/>
<image xlink:href="../../images/primaryKeys.png" width="11px" height="12px" preserveAspectRatio="xMinYMin meet" x="517.5" y="-428.2"/>
<text text-anchor="start" x="532.5" y="-418.3" font-family="Helvetica,sans-Serif" font-size="11.00" fill="#000000">id</text>
<polygon fill="#ffffff" stroke="transparent" points="512.5,-389.2 512.5,-411.2 667.5,-411.2 667.5,-389.2 512.5,-389.2"/>
<polygon fill="none" stroke="#000000" points="512.5,-389.2 512.5,-411.2 667.5,-411.2 667.5,-389.2 512.5,-389.2"/>
<text text-anchor="start" x="532.5" y="-396.3" font-family="Helvetica,sans-Serif" font-size="11.00" fill="#000000">person_identifier</text>
<polygon fill="#ffffff" stroke="transparent" points="512.5,-367.2 512.5,-389.2 667.5,-389.2 667.5,-367.2 512.5,-367.2"/>
<polygon fill="none" stroke="#000000" points="512.5,-367.2 512.5,-389.2 667.5,-389.2 667.5,-367.2 512.5,-367.2"/>
<text text-anchor="start" x="532.5" y="-374.3" font-family="Helvetica,sans-Serif" font-size="11.00" fill="#000000">location_id</text>
<polygon fill="#ffffff" stroke="transparent" points="512.5,-345.2 512.5,-367.2 667.5,-367.2 667.5,-345.2 512.5,-345.2"/>
<polygon fill="none" stroke="#000000" points="512.5,-345.2 512.5,-367.2 667.5,-367.2 667.5,-345.2 512.5,-345.2"/>
<text text-anchor="start" x="532.5" y="-352.3" font-family="Helvetica,sans-Serif" font-size="11.00" fill="#000000">author_username</text>
<polygon fill="#ffffff" stroke="transparent" points="512.5,-323.2 512.5,-345.2 667.5,-345.2 667.5,-323.2 512.5,-323.2"/>
<polygon fill="none" stroke="#000000" points="512.5,-323.2 512.5,-345.2 667.5,-345.2 667.5,-323.2 512.5,-323.2"/>
<image xlink:href="../../images/foreignKeys.png" width="11px" height="12px" preserveAspectRatio="xMinYMin meet" x="517.5" y="-340.2"/>
<text text-anchor="start" x="532.5" y="-330.3" font-family="Helvetica,sans-Serif" font-size="11.00" fill="#000000">sub_type_id</text>
<polygon fill="#ffffff" stroke="transparent" points="512.5,-301.2 512.5,-323.2 667.5,-323.2 667.5,-301.2 512.5,-301.2"/>
<polygon fill="none" stroke="#000000" points="512.5,-301.2 512.5,-323.2 667.5,-323.2 667.5,-301.2 512.5,-301.2"/>
<text text-anchor="start" x="532.5" y="-308.3" font-family="Helvetica,sans-Serif" font-size="11.00" fill="#000000">occurred_at</text>
<polygon fill="#ffffff" stroke="transparent" points="512.5,-279.2 512.5,-301.2 667.5,-301.2 667.5,-279.2 512.5,-279.2"/>
<polygon fill="none" stroke="#000000" points="512.5,-279.2 512.5,-301.2 667.5,-301.2 667.5,-279.2 512.5,-279.2"/>
<text text-anchor="start" x="532.5" y="-286.3" font-family="Helvetica,sans-Serif" font-size="11.00" fill="#000000">created_at</text>
<polygon fill="#ffffff" stroke="transparent" points="512.5,-257.2 512.5,-279.2 667.5,-279.2 667.5,-257.2 512.5,-257.2"/>
<polygon fill="none" stroke="#000000" points="512.5,-257.2 512.5,-279.2 667.5,-279.2 667.5,-257.2 512.5,-257.2"/>
<text text-anchor="start" x="532.5" y="-264.3" font-family="Helvetica,sans-Serif" font-size="11.00" fill="#000000">legacy_id</text>
<polygon fill="#ffffff" stroke="transparent" points="512.5,-235.2 512.5,-257.2 667.5,-257.2 667.5,-235.2 512.5,-235.2"/>
<polygon fill="none" stroke="#000000" points="512.5,-235.2 512.5,-257.2 667.5,-257.2 667.5,-235.2 512.5,-235.2"/>
<text text-anchor="start" x="532.5" y="-242.3" font-family="Helvetica,sans-Serif" font-size="11.00" fill="#000000">author_user_id</text>
<polygon fill="none" stroke="#000000" points="512.5,-216.2 512.5,-235.2 667.5,-235.2 667.5,-216.2 512.5,-216.2"/>
<text text-anchor="start" x="515.5" y="-222.3" font-family="Helvetica,sans-Serif" font-size="11.00" fill="#000000">...</text>
<polygon fill="#ffffff" stroke="transparent" points="512.5,-197.2 512.5,-216.2 667.5,-216.2 667.5,-197.2 512.5,-197.2"/>
<polygon fill="none" stroke="#000000" points="512.5,-197.2 512.5,-216.2 667.5,-216.2 667.5,-197.2 512.5,-197.2"/>
<polygon fill="#ffffff" stroke="transparent" points="513.5,-198.2 513.5,-215.2 567.5,-215.2 567.5,-198.2 513.5,-198.2"/>
<text text-anchor="start" x="515.5" y="-203.3" font-family="Helvetica,sans-Serif" font-size="11.00" fill="#000000">&lt; 1</text>
<polygon fill="#ffffff" stroke="transparent" points="567.5,-198.2 567.5,-215.2 612.5,-215.2 612.5,-198.2 567.5,-198.2"/>
<text text-anchor="start" x="586.9431" y="-203.3" font-family="Helvetica,sans-Serif" font-size="11.00" fill="#000000"> &#160;</text>
<polygon fill="#ffffff" stroke="transparent" points="612.5,-198.2 612.5,-215.2 666.5,-215.2 666.5,-198.2 612.5,-198.2"/>
<text text-anchor="start" x="648.9053" y="-203.3" font-family="Helvetica,sans-Serif" font-size="11.00" fill="#000000">1 &gt;</text>
<polygon fill="#000000" stroke="#000000" points="567.5,-198.2 567.5,-215.2 567.5,-215.2 567.5,-198.2 567.5,-198.2"/>
<polygon fill="#000000" stroke="#000000" points="612.5,-198.2 612.5,-215.2 612.5,-215.2 612.5,-198.2 612.5,-198.2"/>
</a>
</g>
</g>
<!-- case_note_sub_type -->
<g id="node2" class="node">
<title>case_note_sub_type</title>
<g id="a_node2"><a xlink:href="../../tables/case_note_sub_type.html" xlink:title="case_note_sub_type" target="_top">
<polygon fill="#ffffff" stroke="transparent" points="208,-38.2 208,-370.2 463,-370.2 463,-38.2 208,-38.2"/>
<polygon fill="#f5f5f5" stroke="transparent" points="210.5,-345.2 210.5,-368.2 461.5,-368.2 461.5,-345.2 210.5,-345.2"/>
<polygon fill="none" stroke="#000000" points="210.5,-345.2 210.5,-368.2 461.5,-368.2 461.5,-345.2 210.5,-345.2"/>
<text text-anchor="start" x="215.5" y="-353.8" font-family="Helvetica,sans-Serif" font-weight="bold" font-size="11.00" fill="#000000">case_note_sub_type</text>
<text text-anchor="start" x="426.5437" y="-353.3" font-family="Helvetica,sans-Serif" font-size="11.00" fill="#000000">[table]</text>
<polygon fill="none" stroke="#000000" points="210.5,-323.2 210.5,-345.2 377.5,-345.2 377.5,-323.2 210.5,-323.2"/>
<image xlink:href="../../images/primaryKeys.png" width="11px" height="12px" preserveAspectRatio="xMinYMin meet" x="215.5" y="-340.2"/>
<text text-anchor="start" x="230.5" y="-330.3" font-family="Helvetica,sans-Serif" font-size="11.00" fill="#000000">id</text>
<polygon fill="none" stroke="#000000" points="377.5,-323.2 377.5,-345.2 461.5,-345.2 461.5,-323.2 377.5,-323.2"/>
<text text-anchor="start" x="380.5" y="-330.9" font-family="Helvetica,sans-Serif" font-size="11.00" fill="#000000">serial[10]</text>
<polygon fill="#ffffff" stroke="transparent" points="210.5,-301.2 210.5,-323.2 377.5,-323.2 377.5,-301.2 210.5,-301.2"/>
<polygon fill="none" stroke="#000000" points="210.5,-301.2 210.5,-323.2 377.5,-323.2 377.5,-301.2 210.5,-301.2"/>
<image xlink:href="../../images/foreignKeys.png" width="11px" height="12px" preserveAspectRatio="xMinYMin meet" x="215.5" y="-318.2"/>
<text text-anchor="start" x="230.5" y="-308.3" font-family="Helvetica,sans-Serif" font-size="11.00" fill="#000000">type_code</text>
<polygon fill="none" stroke="#000000" points="377.5,-301.2 377.5,-323.2 461.5,-323.2 461.5,-301.2 377.5,-301.2"/>
<text text-anchor="start" x="380.5" y="-308.9" font-family="Helvetica,sans-Serif" font-size="11.00" fill="#000000">varchar[12]</text>
<polygon fill="#ffffff" stroke="transparent" points="210.5,-279.2 210.5,-301.2 377.5,-301.2 377.5,-279.2 210.5,-279.2"/>
<polygon fill="none" stroke="#000000" points="210.5,-279.2 210.5,-301.2 377.5,-301.2 377.5,-279.2 210.5,-279.2"/>
<image xlink:href="../../images/foreignKeys.png" width="11px" height="12px" preserveAspectRatio="xMinYMin meet" x="215.5" y="-296.2"/>
<text text-anchor="start" x="230.5" y="-286.3" font-family="Helvetica,sans-Serif" font-size="11.00" fill="#000000">code</text>
<polygon fill="none" stroke="#000000" points="377.5,-279.2 377.5,-301.2 461.5,-301.2 461.5,-279.2 377.5,-279.2"/>
<text text-anchor="start" x="380.5" y="-286.9" font-family="Helvetica,sans-Serif" font-size="11.00" fill="#000000">varchar[12]</text>
<polygon fill="none" stroke="#000000" points="210.5,-257.2 210.5,-279.2 377.5,-279.2 377.5,-257.2 210.5,-257.2"/>
<text text-anchor="start" x="230.5" y="-264.3" font-family="Helvetica,sans-Serif" font-size="11.00" fill="#000000">description</text>
<polygon fill="none" stroke="#000000" points="377.5,-257.2 377.5,-279.2 461.5,-279.2 461.5,-257.2 377.5,-257.2"/>
<text text-anchor="start" x="380.5" y="-264.9" font-family="Helvetica,sans-Serif" font-size="11.00" fill="#000000">varchar[80]</text>
<polygon fill="none" stroke="#000000" points="210.5,-235.2 210.5,-257.2 377.5,-257.2 377.5,-235.2 210.5,-235.2"/>
<text text-anchor="start" x="230.5" y="-242.3" font-family="Helvetica,sans-Serif" font-size="11.00" fill="#000000">active</text>
<polygon fill="none" stroke="#000000" points="377.5,-235.2 377.5,-257.2 461.5,-257.2 461.5,-235.2 377.5,-235.2"/>
<text text-anchor="start" x="380.5" y="-242.9" font-family="Helvetica,sans-Serif" font-size="11.00" fill="#000000">bool[1]</text>
<polygon fill="none" stroke="#000000" points="210.5,-213.2 210.5,-235.2 377.5,-235.2 377.5,-213.2 210.5,-213.2"/>
<text text-anchor="start" x="230.5" y="-220.3" font-family="Helvetica,sans-Serif" font-size="11.00" fill="#000000">created_at</text>
<polygon fill="none" stroke="#000000" points="377.5,-213.2 377.5,-235.2 461.5,-235.2 461.5,-213.2 377.5,-213.2"/>
<text text-anchor="start" x="380.3807" y="-220.9" font-family="Helvetica,sans-Serif" font-size="11.00" fill="#000000">timestamp[29,6]</text>
<polygon fill="none" stroke="#000000" points="210.5,-191.2 210.5,-213.2 377.5,-213.2 377.5,-191.2 210.5,-191.2"/>
<text text-anchor="start" x="230.5" y="-198.3" font-family="Helvetica,sans-Serif" font-size="11.00" fill="#000000">created_by</text>
<polygon fill="none" stroke="#000000" points="377.5,-191.2 377.5,-213.2 461.5,-213.2 461.5,-191.2 377.5,-191.2"/>
<text text-anchor="start" x="380.5" y="-198.9" font-family="Helvetica,sans-Serif" font-size="11.00" fill="#000000">varchar[64]</text>
<polygon fill="none" stroke="#000000" points="210.5,-169.2 210.5,-191.2 377.5,-191.2 377.5,-169.2 210.5,-169.2"/>
<text text-anchor="start" x="230.5" y="-176.3" font-family="Helvetica,sans-Serif" font-size="11.00" fill="#000000">last_modified_at</text>
<polygon fill="none" stroke="#000000" points="377.5,-169.2 377.5,-191.2 461.5,-191.2 461.5,-169.2 377.5,-169.2"/>
<text text-anchor="start" x="380.3807" y="-176.9" font-family="Helvetica,sans-Serif" font-size="11.00" fill="#000000">timestamp[29,6]</text>
<polygon fill="none" stroke="#000000" points="210.5,-147.2 210.5,-169.2 377.5,-169.2 377.5,-147.2 210.5,-147.2"/>
<text text-anchor="start" x="230.5" y="-154.3" font-family="Helvetica,sans-Serif" font-size="11.00" fill="#000000">last_modified_by</text>
<polygon fill="none" stroke="#000000" points="377.5,-147.2 377.5,-169.2 461.5,-169.2 461.5,-147.2 377.5,-147.2"/>
<text text-anchor="start" x="380.5" y="-154.9" font-family="Helvetica,sans-Serif" font-size="11.00" fill="#000000">varchar[64]</text>
<polygon fill="none" stroke="#000000" points="210.5,-125.2 210.5,-147.2 377.5,-147.2 377.5,-125.2 210.5,-125.2"/>
<text text-anchor="start" x="230.5" y="-132.3" font-family="Helvetica,sans-Serif" font-size="11.00" fill="#000000">sensitive</text>
<polygon fill="none" stroke="#000000" points="377.5,-125.2 377.5,-147.2 461.5,-147.2 461.5,-125.2 377.5,-125.2"/>
<text text-anchor="start" x="380.5" y="-132.9" font-family="Helvetica,sans-Serif" font-size="11.00" fill="#000000">bool[1]</text>
<polygon fill="none" stroke="#000000" points="210.5,-103.2 210.5,-125.2 377.5,-125.2 377.5,-103.2 210.5,-103.2"/>
<text text-anchor="start" x="230.5" y="-110.3" font-family="Helvetica,sans-Serif" font-size="11.00" fill="#000000">restricted_use</text>
<polygon fill="none" stroke="#000000" points="377.5,-103.2 377.5,-125.2 461.5,-125.2 461.5,-103.2 377.5,-103.2"/>
<text text-anchor="start" x="380.5" y="-110.9" font-family="Helvetica,sans-Serif" font-size="11.00" fill="#000000">bool[1]</text>
<polygon fill="#ffffff" stroke="transparent" points="210.5,-81.2 210.5,-103.2 377.5,-103.2 377.5,-81.2 210.5,-81.2"/>
<polygon fill="none" stroke="#000000" points="210.5,-81.2 210.5,-103.2 377.5,-103.2 377.5,-81.2 210.5,-81.2"/>
<text text-anchor="start" x="230.5" y="-88.3" font-family="Helvetica,sans-Serif" font-size="11.00" fill="#000000">sync_to_nomis</text>
<polygon fill="none" stroke="#000000" points="377.5,-81.2 377.5,-103.2 461.5,-103.2 461.5,-81.2 377.5,-81.2"/>
<text text-anchor="start" x="380.5" y="-88.9" font-family="Helvetica,sans-Serif" font-size="11.00" fill="#000000">bool[1]</text>
<polygon fill="none" stroke="#000000" points="210.5,-59.2 210.5,-81.2 377.5,-81.2 377.5,-59.2 210.5,-59.2"/>
<text text-anchor="start" x="230.5" y="-66.3" font-family="Helvetica,sans-Serif" font-size="11.00" fill="#000000">dps_user_selectable</text>
<polygon fill="none" stroke="#000000" points="377.5,-59.2 377.5,-81.2 461.5,-81.2 461.5,-59.2 377.5,-59.2"/>
<text text-anchor="start" x="380.5" y="-66.9" font-family="Helvetica,sans-Serif" font-size="11.00" fill="#000000">bool[1]</text>
<polygon fill="#ffffff" stroke="transparent" points="210.5,-40.2 210.5,-59.2 461.5,-59.2 461.5,-40.2 210.5,-40.2"/>
<polygon fill="none" stroke="#000000" points="210.5,-40.2 210.5,-59.2 461.5,-59.2 461.5,-40.2 210.5,-40.2"/>
<polygon fill="#ffffff" stroke="transparent" points="211.5,-41.2 211.5,-58.2 285.5,-58.2 285.5,-41.2 211.5,-41.2"/>
<text text-anchor="start" x="213.5" y="-46.3" font-family="Helvetica,sans-Serif" font-size="11.00" fill="#000000">&lt; 1</text>
<polygon fill="#ffffff" stroke="transparent" points="285.5,-41.2 285.5,-58.2 387.5,-58.2 387.5,-41.2 285.5,-41.2"/>
<text text-anchor="start" x="314.1904" y="-46.3" font-family="Helvetica,sans-Serif" font-size="11.00" fill="#000000">386 rows</text>
<polygon fill="#ffffff" stroke="transparent" points="387.5,-41.2 387.5,-58.2 460.5,-58.2 460.5,-41.2 387.5,-41.2"/>
<text text-anchor="start" x="442.9053" y="-46.3" font-family="Helvetica,sans-Serif" font-size="11.00" fill="#000000">1 &gt;</text>
<polygon fill="#000000" stroke="#000000" points="285.5,-41.2 285.5,-58.2 285.5,-58.2 285.5,-41.2 285.5,-41.2"/>
<polygon fill="#000000" stroke="#000000" points="387.5,-41.2 387.5,-58.2 387.5,-58.2 387.5,-41.2 387.5,-41.2"/>
<polygon fill="none" stroke="#000000" stroke-width="2" points="209,-39.2 209,-369.2 462,-369.2 462,-39.2 209,-39.2"/>
</a>
</g>
</g>
<!-- case_note&#45;&gt;case_note_sub_type -->
<g id="edge1" class="edge">
<title>case_note:w&#45;&gt;case_note_sub_type:e</title>
<path fill="none" stroke="#000000" d="M497.776,-334.2C485.7815,-334.2 478.3229,-334.2 461.5,-334.2"/>
<polygon fill="#000000" stroke="#000000" points="504.5,-334.2001 512.5,-337.8 508.5,-334.2 512.5,-334.2 512.5,-334.2 512.5,-334.2 508.5,-334.2 512.5,-330.6 504.5,-334.2001 504.5,-334.2001"/>
<ellipse fill="none" stroke="#000000" cx="501.3" cy="-334.2001" rx="3.2" ry="3.2"/>
</g>
<!-- case_note_type -->
<g id="node4" class="node">
<title>case_note_type</title>
<g id="a_node4"><a xlink:href="../../tables/case_note_type.html" xlink:title="case_note_type" target="_top">
<polygon fill="#ffffff" stroke="transparent" points="8,-263.7 8,-346.7 159,-346.7 159,-263.7 8,-263.7"/>
<polygon fill="#f5f5f5" stroke="transparent" points="8.5,-323.2 8.5,-346.2 159.5,-346.2 159.5,-323.2 8.5,-323.2"/>
<polygon fill="none" stroke="#000000" points="8.5,-323.2 8.5,-346.2 159.5,-346.2 159.5,-323.2 8.5,-323.2"/>
<text text-anchor="start" x="13.5" y="-331.8" font-family="Helvetica,sans-Serif" font-weight="bold" font-size="11.00" fill="#000000">case_note_type</text>
<text text-anchor="start" x="125.0219" y="-331.3" font-family="Helvetica,sans-Serif" font-size="11.00" fill="#000000">[table]</text>
<polygon fill="none" stroke="#000000" points="8.5,-301.2 8.5,-323.2 159.5,-323.2 159.5,-301.2 8.5,-301.2"/>
<image xlink:href="../../images/primaryKeys.png" width="11px" height="12px" preserveAspectRatio="xMinYMin meet" x="13.5" y="-318.2"/>
<text text-anchor="start" x="32.5" y="-308.3" font-family="Helvetica,sans-Serif" font-size="11.00" fill="#000000">code</text>
<polygon fill="none" stroke="#000000" points="8.5,-282.2 8.5,-301.2 159.5,-301.2 159.5,-282.2 8.5,-282.2"/>
<text text-anchor="start" x="11.5" y="-288.3" font-family="Helvetica,sans-Serif" font-size="11.00" fill="#000000">...</text>
<polygon fill="#ffffff" stroke="transparent" points="8.5,-263.2 8.5,-282.2 159.5,-282.2 159.5,-263.2 8.5,-263.2"/>
<polygon fill="none" stroke="#000000" points="8.5,-263.2 8.5,-282.2 159.5,-282.2 159.5,-263.2 8.5,-263.2"/>
<polygon fill="#ffffff" stroke="transparent" points="9.5,-264.2 9.5,-281.2 56.5,-281.2 56.5,-264.2 9.5,-264.2"/>
<text text-anchor="start" x="11.5" y="-269.3" font-family="Helvetica,sans-Serif" font-size="11.00" fill="#000000"> &#160;</text>
<polygon fill="#ffffff" stroke="transparent" points="56.5,-264.2 56.5,-281.2 103.5,-281.2 103.5,-264.2 56.5,-264.2"/>
<text text-anchor="start" x="76.9431" y="-269.3" font-family="Helvetica,sans-Serif" font-size="11.00" fill="#000000"> &#160;</text>
<polygon fill="#ffffff" stroke="transparent" points="103.5,-264.2 103.5,-281.2 158.5,-281.2 158.5,-264.2 103.5,-264.2"/>
<text text-anchor="start" x="140.9053" y="-269.3" font-family="Helvetica,sans-Serif" font-size="11.00" fill="#000000">1 &gt;</text>
<polygon fill="#000000" stroke="#000000" points="56.5,-264.2 56.5,-281.2 56.5,-281.2 56.5,-264.2 56.5,-264.2"/>
<polygon fill="#000000" stroke="#000000" points="103.5,-264.2 103.5,-281.2 103.5,-281.2 103.5,-264.2 103.5,-264.2"/>
</a>
</g>
</g>
<!-- case_note_sub_type&#45;&gt;case_note_type -->
<g id="edge3" class="edge">
<title>case_note_sub_type:w&#45;&gt;case_note_type:e</title>
<path fill="none" stroke="#000000" d="M195.776,-312.2C183.7815,-312.2 176.3229,-312.2 159.5,-312.2"/>
<polygon fill="#000000" stroke="#000000" points="202.5,-312.2001 210.5,-315.8 206.5,-312.2 210.5,-312.2 210.5,-312.2 210.5,-312.2 206.5,-312.2 210.5,-308.6 202.5,-312.2001 202.5,-312.2001"/>
<ellipse fill="none" stroke="#000000" cx="199.3" cy="-312.2001" rx="3.2" ry="3.2"/>
</g>
<!-- case_note_amendment -->
<g id="node3" class="node">
<title>case_note_amendment</title>
<g id="a_node3"><a xlink:href="../../tables/case_note_amendment.html" xlink:title="case_note_amendment" target="_top">
<polygon fill="#ffffff" stroke="transparent" points="716,-394.7 716,-455.7 921,-455.7 921,-394.7 716,-394.7"/>
<polygon fill="#f5f5f5" stroke="transparent" points="716.5,-432.2 716.5,-455.2 921.5,-455.2 921.5,-432.2 716.5,-432.2"/>
<polygon fill="none" stroke="#000000" points="716.5,-432.2 716.5,-455.2 921.5,-455.2 921.5,-432.2 716.5,-432.2"/>
<text text-anchor="start" x="721.5" y="-440.8" font-family="Helvetica,sans-Serif" font-weight="bold" font-size="11.00" fill="#000000">case_note_amendment</text>
<text text-anchor="start" x="887.0219" y="-440.3" font-family="Helvetica,sans-Serif" font-size="11.00" fill="#000000">[table]</text>
<polygon fill="none" stroke="#000000" points="716.5,-413.2 716.5,-432.2 921.5,-432.2 921.5,-413.2 716.5,-413.2"/>
<text text-anchor="start" x="719.5" y="-419.3" font-family="Helvetica,sans-Serif" font-size="11.00" fill="#000000">...</text>
<polygon fill="#ffffff" stroke="transparent" points="716.5,-394.2 716.5,-413.2 921.5,-413.2 921.5,-394.2 716.5,-394.2"/>
<polygon fill="none" stroke="#000000" points="716.5,-394.2 716.5,-413.2 921.5,-413.2 921.5,-394.2 716.5,-394.2"/>
<polygon fill="#ffffff" stroke="transparent" points="717.5,-395.2 717.5,-412.2 791.5,-412.2 791.5,-395.2 717.5,-395.2"/>
<text text-anchor="start" x="719.5" y="-400.3" font-family="Helvetica,sans-Serif" font-size="11.00" fill="#000000">&lt; 1</text>
<polygon fill="#ffffff" stroke="transparent" points="791.5,-395.2 791.5,-412.2 856.5,-412.2 856.5,-395.2 791.5,-395.2"/>
<text text-anchor="start" x="820.9431" y="-400.3" font-family="Helvetica,sans-Serif" font-size="11.00" fill="#000000"> &#160;</text>
<polygon fill="#ffffff" stroke="transparent" points="856.5,-395.2 856.5,-412.2 920.5,-412.2 920.5,-395.2 856.5,-395.2"/>
<text text-anchor="start" x="912.3862" y="-400.3" font-family="Helvetica,sans-Serif" font-size="11.00" fill="#000000"> &#160;</text>
<polygon fill="#000000" stroke="#000000" points="791.5,-395.2 791.5,-412.2 791.5,-412.2 791.5,-395.2 791.5,-395.2"/>
<polygon fill="#000000" stroke="#000000" points="856.5,-395.2 856.5,-412.2 856.5,-412.2 856.5,-395.2 856.5,-395.2"/>
</a>
</g>
</g>
<!-- case_note_amendment&#45;&gt;case_note -->
<g id="edge2" class="edge">
<title>case_note_amendment:w&#45;&gt;case_note:e</title>
<path fill="none" stroke="#000000" d="M701.9909,-422.2C690.6774,-422.2 683.4931,-422.2 667.5,-422.2"/>
<polygon fill="#000000" stroke="#000000" points="708.5,-422.2001 716.5,-425.8 712.5,-422.2 716.5,-422.2 716.5,-422.2 716.5,-422.2 712.5,-422.2 716.5,-418.6 708.5,-422.2001 708.5,-422.2001"/>
<ellipse fill="none" stroke="#000000" cx="705.3" cy="-422.2001" rx="3.2" ry="3.2"/>
</g>
</g>
</svg>
