<?xml version="1.0" encoding="UTF-8" standalone="no"?>
<!DOCTYPE svg PUBLIC "-//W3C//DTD SVG 1.1//EN"
 "http://www.w3.org/Graphics/SVG/1.1/DTD/svg11.dtd">
<!-- Generated by graphviz version 2.40.1 (20161225.0304)
 -->
<!-- Title: twoDegreesRelationshipsDiagram Pages: 1 -->
<svg width="745pt" height="311pt"
 viewBox="0.00 0.00 745.00 310.70" xmlns="http://www.w3.org/2000/svg" xmlns:xlink="http://www.w3.org/1999/xlink">
<g id="graph0" class="graph" transform="scale(1 1) rotate(0) translate(4 306.7)">
<title>twoDegreesRelationshipsDiagram</title>
<polygon fill="#ffffff" stroke="transparent" points="-4,4 -4,-306.7 741,-306.7 741,4 -4,4"/>
<text text-anchor="middle" x="72.4936" y="-7.3" font-family="Helvetica,sans-Serif" font-size="11.00" fill="#000000">Generated by SchemaSpy</text>
<!-- case_note -->
<g id="node1" class="node">
<title>case_note</title>
<g id="a_node1"><a xlink:href="../../tables/case_note.html" xlink:title="case_note" target="_top">
<polygon fill="#ffffff" stroke="transparent" points="240,-38.2 240,-297.2 395,-297.2 395,-38.2 240,-38.2"/>
<polygon fill="#f5f5f5" stroke="transparent" points="240.5,-273.7 240.5,-296.7 395.5,-296.7 395.5,-273.7 240.5,-273.7"/>
<polygon fill="none" stroke="#000000" points="240.5,-273.7 240.5,-296.7 395.5,-296.7 395.5,-273.7 240.5,-273.7"/>
<text text-anchor="start" x="245.5" y="-282.3" font-family="Helvetica,sans-Serif" font-weight="bold" font-size="11.00" fill="#000000">case_note</text>
<text text-anchor="start" x="360.5437" y="-281.8" font-family="Helvetica,sans-Serif" font-size="11.00" fill="#000000">[table]</text>
<polygon fill="none" stroke="#000000" points="240.5,-251.7 240.5,-273.7 395.5,-273.7 395.5,-251.7 240.5,-251.7"/>
<image xlink:href="../../images/primaryKeys.png" width="11px" height="12px" preserveAspectRatio="xMinYMin meet" x="245.5" y="-268.7"/>
<text text-anchor="start" x="260.5" y="-258.8" font-family="Helvetica,sans-Serif" font-size="11.00" fill="#000000">id</text>
<polygon fill="#ffffff" stroke="transparent" points="240.5,-229.7 240.5,-251.7 395.5,-251.7 395.5,-229.7 240.5,-229.7"/>
<polygon fill="none" stroke="#000000" points="240.5,-229.7 240.5,-251.7 395.5,-251.7 395.5,-229.7 240.5,-229.7"/>
<text text-anchor="start" x="260.5" y="-236.8" font-family="Helvetica,sans-Serif" font-size="11.00" fill="#000000">person_identifier</text>
<polygon fill="#ffffff" stroke="transparent" points="240.5,-207.7 240.5,-229.7 395.5,-229.7 395.5,-207.7 240.5,-207.7"/>
<polygon fill="none" stroke="#000000" points="240.5,-207.7 240.5,-229.7 395.5,-229.7 395.5,-207.7 240.5,-207.7"/>
<text text-anchor="start" x="260.5" y="-214.8" font-family="Helvetica,sans-Serif" font-size="11.00" fill="#000000">location_id</text>
<polygon fill="#ffffff" stroke="transparent" points="240.5,-185.7 240.5,-207.7 395.5,-207.7 395.5,-185.7 240.5,-185.7"/>
<polygon fill="none" stroke="#000000" points="240.5,-185.7 240.5,-207.7 395.5,-207.7 395.5,-185.7 240.5,-185.7"/>
<text text-anchor="start" x="260.5" y="-192.8" font-family="Helvetica,sans-Serif" font-size="11.00" fill="#000000">author_username</text>
<polygon fill="#ffffff" stroke="transparent" points="240.5,-163.7 240.5,-185.7 395.5,-185.7 395.5,-163.7 240.5,-163.7"/>
<polygon fill="none" stroke="#000000" points="240.5,-163.7 240.5,-185.7 395.5,-185.7 395.5,-163.7 240.5,-163.7"/>
<image xlink:href="../../images/foreignKeys.png" width="11px" height="12px" preserveAspectRatio="xMinYMin meet" x="245.5" y="-180.7"/>
<text text-anchor="start" x="260.5" y="-170.8" font-family="Helvetica,sans-Serif" font-size="11.00" fill="#000000">sub_type_id</text>
<polygon fill="#ffffff" stroke="transparent" points="240.5,-141.7 240.5,-163.7 395.5,-163.7 395.5,-141.7 240.5,-141.7"/>
<polygon fill="none" stroke="#000000" points="240.5,-141.7 240.5,-163.7 395.5,-163.7 395.5,-141.7 240.5,-141.7"/>
<text text-anchor="start" x="260.5" y="-148.8" font-family="Helvetica,sans-Serif" font-size="11.00" fill="#000000">occurred_at</text>
<polygon fill="#ffffff" stroke="transparent" points="240.5,-119.7 240.5,-141.7 395.5,-141.7 395.5,-119.7 240.5,-119.7"/>
<polygon fill="none" stroke="#000000" points="240.5,-119.7 240.5,-141.7 395.5,-141.7 395.5,-119.7 240.5,-119.7"/>
<text text-anchor="start" x="260.5" y="-126.8" font-family="Helvetica,sans-Serif" font-size="11.00" fill="#000000">created_at</text>
<polygon fill="#ffffff" stroke="transparent" points="240.5,-97.7 240.5,-119.7 395.5,-119.7 395.5,-97.7 240.5,-97.7"/>
<polygon fill="none" stroke="#000000" points="240.5,-97.7 240.5,-119.7 395.5,-119.7 395.5,-97.7 240.5,-97.7"/>
<text text-anchor="start" x="260.5" y="-104.8" font-family="Helvetica,sans-Serif" font-size="11.00" fill="#000000">legacy_id</text>
<polygon fill="#ffffff" stroke="transparent" points="240.5,-75.7 240.5,-97.7 395.5,-97.7 395.5,-75.7 240.5,-75.7"/>
<polygon fill="none" stroke="#000000" points="240.5,-75.7 240.5,-97.7 395.5,-97.7 395.5,-75.7 240.5,-75.7"/>
<text text-anchor="start" x="260.5" y="-82.8" font-family="Helvetica,sans-Serif" font-size="11.00" fill="#000000">author_user_id</text>
<polygon fill="none" stroke="#000000" points="240.5,-56.7 240.5,-75.7 395.5,-75.7 395.5,-56.7 240.5,-56.7"/>
<text text-anchor="start" x="243.5" y="-62.8" font-family="Helvetica,sans-Serif" font-size="11.00" fill="#000000">...</text>
<polygon fill="#ffffff" stroke="transparent" points="240.5,-37.7 240.5,-56.7 395.5,-56.7 395.5,-37.7 240.5,-37.7"/>
<polygon fill="none" stroke="#000000" points="240.5,-37.7 240.5,-56.7 395.5,-56.7 395.5,-37.7 240.5,-37.7"/>
<polygon fill="#ffffff" stroke="transparent" points="241.5,-38.7 241.5,-55.7 295.5,-55.7 295.5,-38.7 241.5,-38.7"/>
<text text-anchor="start" x="243.5" y="-43.8" font-family="Helvetica,sans-Serif" font-size="11.00" fill="#000000">&lt; 1</text>
<polygon fill="#ffffff" stroke="transparent" points="295.5,-38.7 295.5,-55.7 340.5,-55.7 340.5,-38.7 295.5,-38.7"/>
<text text-anchor="start" x="314.9431" y="-43.8" font-family="Helvetica,sans-Serif" font-size="11.00" fill="#000000"> &#160;</text>
<polygon fill="#ffffff" stroke="transparent" points="340.5,-38.7 340.5,-55.7 394.5,-55.7 394.5,-38.7 340.5,-38.7"/>
<text text-anchor="start" x="376.9053" y="-43.8" font-family="Helvetica,sans-Serif" font-size="11.00" fill="#000000">1 &gt;</text>
<polygon fill="#000000" stroke="#000000" points="295.5,-38.7 295.5,-55.7 295.5,-55.7 295.5,-38.7 295.5,-38.7"/>
<polygon fill="#000000" stroke="#000000" points="340.5,-38.7 340.5,-55.7 340.5,-55.7 340.5,-38.7 340.5,-38.7"/>
</a>
</g>
</g>
<!-- case_note_sub_type -->
<g id="node2" class="node">
<title>case_note_sub_type</title>
<g id="a_node2"><a xlink:href="../../tables/case_note_sub_type.html" xlink:title="case_note_sub_type" target="_top">
<polygon fill="#ffffff" stroke="transparent" points="8,-147.2 8,-208.2 191,-208.2 191,-147.2 8,-147.2"/>
<polygon fill="#f5f5f5" stroke="transparent" points="8.5,-184.7 8.5,-207.7 191.5,-207.7 191.5,-184.7 8.5,-184.7"/>
<polygon fill="none" stroke="#000000" points="8.5,-184.7 8.5,-207.7 191.5,-207.7 191.5,-184.7 8.5,-184.7"/>
<text text-anchor="start" x="13.5" y="-193.3" font-family="Helvetica,sans-Serif" font-weight="bold" font-size="11.00" fill="#000000">case_note_sub_type</text>
<text text-anchor="start" x="157.0219" y="-192.8" font-family="Helvetica,sans-Serif" font-size="11.00" fill="#000000">[table]</text>
<polygon fill="none" stroke="#000000" points="8.5,-165.7 8.5,-184.7 191.5,-184.7 191.5,-165.7 8.5,-165.7"/>
<text text-anchor="start" x="11.5" y="-171.8" font-family="Helvetica,sans-Serif" font-size="11.00" fill="#000000">...</text>
<polygon fill="#ffffff" stroke="transparent" points="8.5,-146.7 8.5,-165.7 191.5,-165.7 191.5,-146.7 8.5,-146.7"/>
<polygon fill="none" stroke="#000000" points="8.5,-146.7 8.5,-165.7 191.5,-165.7 191.5,-146.7 8.5,-146.7"/>
<polygon fill="#ffffff" stroke="transparent" points="9.5,-147.7 9.5,-164.7 60.5,-164.7 60.5,-147.7 9.5,-147.7"/>
<text text-anchor="start" x="11.5" y="-152.8" font-family="Helvetica,sans-Serif" font-size="11.00" fill="#000000">&lt; 1</text>
<polygon fill="#ffffff" stroke="transparent" points="60.5,-147.7 60.5,-164.7 140.5,-164.7 140.5,-147.7 60.5,-147.7"/>
<text text-anchor="start" x="78.1904" y="-152.8" font-family="Helvetica,sans-Serif" font-size="11.00" fill="#000000">386 rows</text>
<polygon fill="#ffffff" stroke="transparent" points="140.5,-147.7 140.5,-164.7 190.5,-164.7 190.5,-147.7 140.5,-147.7"/>
<text text-anchor="start" x="172.9053" y="-152.8" font-family="Helvetica,sans-Serif" font-size="11.00" fill="#000000">1 &gt;</text>
<polygon fill="#000000" stroke="#000000" points="60.5,-147.7 60.5,-164.7 60.5,-164.7 60.5,-147.7 60.5,-147.7"/>
<polygon fill="#000000" stroke="#000000" points="140.5,-147.7 140.5,-164.7 140.5,-164.7 140.5,-147.7 140.5,-147.7"/>
</a>
</g>
</g>
<!-- case_note&#45;&gt;case_note_sub_type -->
<g id="edge1" class="edge">
<title>case_note:w&#45;&gt;case_note_sub_type:e</title>
<path fill="none" stroke="#000000" d="M225.9909,-174.7C214.6774,-174.7 207.4931,-174.7 191.5,-174.7"/>
<polygon fill="#000000" stroke="#000000" points="232.5,-174.7001 240.5,-178.3 236.5,-174.7 240.5,-174.7 240.5,-174.7 240.5,-174.7 236.5,-174.7 240.5,-171.1 232.5,-174.7001 232.5,-174.7001"/>
<ellipse fill="none" stroke="#000000" cx="229.3" cy="-174.7001" rx="3.2" ry="3.2"/>
</g>
<!-- case_note_amendment -->
<g id="node3" class="node">
<title>case_note_amendment</title>
<g id="a_node3"><a xlink:href="../../tables/case_note_amendment.html" xlink:title="case_note_amendment" target="_top">
<polygon fill="#ffffff" stroke="transparent" points="444,-54.7 444,-298.7 729,-298.7 729,-54.7 444,-54.7"/>
<polygon fill="#f5f5f5" stroke="transparent" points="446.5,-273.7 446.5,-296.7 727.5,-296.7 727.5,-273.7 446.5,-273.7"/>
<polygon fill="none" stroke="#000000" points="446.5,-273.7 446.5,-296.7 727.5,-296.7 727.5,-273.7 446.5,-273.7"/>
<text text-anchor="start" x="451.5" y="-282.3" font-family="Helvetica,sans-Serif" font-weight="bold" font-size="11.00" fill="#000000">case_note_amendment</text>
<text text-anchor="start" x="692.5437" y="-281.8" font-family="Helvetica,sans-Serif" font-size="11.00" fill="#000000">[table]</text>
<polygon fill="#ffffff" stroke="transparent" points="446.5,-251.7 446.5,-273.7 633.5,-273.7 633.5,-251.7 446.5,-251.7"/>
<polygon fill="none" stroke="#000000" points="446.5,-251.7 446.5,-273.7 633.5,-273.7 633.5,-251.7 446.5,-251.7"/>
<image xlink:href="../../images/foreignKeys.png" width="11px" height="12px" preserveAspectRatio="xMinYMin meet" x="451.5" y="-268.7"/>
<text text-anchor="start" x="466.5" y="-258.8" font-family="Helvetica,sans-Serif" font-size="11.00" fill="#000000">case_note_id</text>
<polygon fill="none" stroke="#000000" points="633.5,-251.7 633.5,-273.7 727.5,-273.7 727.5,-251.7 633.5,-251.7"/>
<text text-anchor="start" x="636.4758" y="-259.4" font-family="Helvetica,sans-Serif" font-size="11.00" fill="#000000">uuid[2147483647]</text>
<polygon fill="none" stroke="#000000" points="446.5,-229.7 446.5,-251.7 633.5,-251.7 633.5,-229.7 446.5,-229.7"/>
<text text-anchor="start" x="466.5" y="-236.8" font-family="Helvetica,sans-Serif" font-size="11.00" fill="#000000">author_username</text>
<polygon fill="none" stroke="#000000" points="633.5,-229.7 633.5,-251.7 727.5,-251.7 727.5,-229.7 633.5,-229.7"/>
<text text-anchor="start" x="636.5" y="-237.4" font-family="Helvetica,sans-Serif" font-size="11.00" fill="#000000">varchar[64]</text>
<polygon fill="none" stroke="#000000" points="446.5,-207.7 446.5,-229.7 633.5,-229.7 633.5,-207.7 446.5,-207.7"/>
<text text-anchor="start" x="466.5" y="-214.8" font-family="Helvetica,sans-Serif" font-size="11.00" fill="#000000">author_name</text>
<polygon fill="none" stroke="#000000" points="633.5,-207.7 633.5,-229.7 727.5,-229.7 727.5,-207.7 633.5,-207.7"/>
<text text-anchor="start" x="636.5" y="-215.4" font-family="Helvetica,sans-Serif" font-size="11.00" fill="#000000">varchar[80]</text>
<polygon fill="none" stroke="#000000" points="446.5,-185.7 446.5,-207.7 633.5,-207.7 633.5,-185.7 446.5,-185.7"/>
<text text-anchor="start" x="466.5" y="-192.8" font-family="Helvetica,sans-Serif" font-size="11.00" fill="#000000">note_text</text>
<polygon fill="none" stroke="#000000" points="633.5,-185.7 633.5,-207.7 727.5,-207.7 727.5,-185.7 633.5,-185.7"/>
<text text-anchor="start" x="636.5" y="-193.4" font-family="Helvetica,sans-Serif" font-size="11.00" fill="#000000">text[2147483647]</text>
<polygon fill="#ffffff" stroke="transparent" points="446.5,-163.7 446.5,-185.7 633.5,-185.7 633.5,-163.7 446.5,-163.7"/>
<polygon fill="none" stroke="#000000" points="446.5,-163.7 446.5,-185.7 633.5,-185.7 633.5,-163.7 446.5,-163.7"/>
<text text-anchor="start" x="466.5" y="-170.8" font-family="Helvetica,sans-Serif" font-size="11.00" fill="#000000">created_at</text>
<polygon fill="none" stroke="#000000" points="633.5,-163.7 633.5,-185.7 727.5,-185.7 727.5,-163.7 633.5,-163.7"/>
<text text-anchor="start" x="636.5" y="-171.4" font-family="Helvetica,sans-Serif" font-size="11.00" fill="#000000">timestamp[29,6]</text>
<polygon fill="none" stroke="#000000" points="446.5,-141.7 446.5,-163.7 633.5,-163.7 633.5,-141.7 446.5,-141.7"/>
<text text-anchor="start" x="466.5" y="-148.8" font-family="Helvetica,sans-Serif" font-size="11.00" fill="#000000">created_by</text>
<polygon fill="none" stroke="#000000" points="633.5,-141.7 633.5,-163.7 727.5,-163.7 727.5,-141.7 633.5,-141.7"/>
<text text-anchor="start" x="636.5" y="-149.4" font-family="Helvetica,sans-Serif" font-size="11.00" fill="#000000">varchar[64]</text>
<polygon fill="none" stroke="#000000" points="446.5,-119.7 446.5,-141.7 633.5,-141.7 633.5,-119.7 446.5,-119.7"/>
<text text-anchor="start" x="466.5" y="-126.8" font-family="Helvetica,sans-Serif" font-size="11.00" fill="#000000">author_user_id</text>
<polygon fill="none" stroke="#000000" points="633.5,-119.7 633.5,-141.7 727.5,-141.7 727.5,-119.7 633.5,-119.7"/>
<text text-anchor="start" x="636.5" y="-127.4" font-family="Helvetica,sans-Serif" font-size="11.00" fill="#000000">varchar[64]</text>
<polygon fill="none" stroke="#000000" points="446.5,-97.7 446.5,-119.7 633.5,-119.7 633.5,-97.7 446.5,-97.7"/>
<image xlink:href="../../images/primaryKeys.png" width="11px" height="12px" preserveAspectRatio="xMinYMin meet" x="451.5" y="-114.7"/>
<text text-anchor="start" x="466.5" y="-104.8" font-family="Helvetica,sans-Serif" font-size="11.00" fill="#000000">id</text>
<polygon fill="none" stroke="#000000" points="633.5,-97.7 633.5,-119.7 727.5,-119.7 727.5,-97.7 633.5,-97.7"/>
<text text-anchor="start" x="636.4758" y="-105.4" font-family="Helvetica,sans-Serif" font-size="11.00" fill="#000000">uuid[2147483647]</text>
<polygon fill="none" stroke="#000000" points="446.5,-75.7 446.5,-97.7 633.5,-97.7 633.5,-75.7 446.5,-75.7"/>
<text text-anchor="start" x="466.5" y="-82.8" font-family="Helvetica,sans-Serif" font-size="11.00" fill="#000000">system</text>
<polygon fill="none" stroke="#000000" points="633.5,-75.7 633.5,-97.7 727.5,-97.7 727.5,-75.7 633.5,-75.7"/>
<text text-anchor="start" x="636.5" y="-83.4" font-family="Helvetica,sans-Serif" font-size="11.00" fill="#000000">varchar[6]</text>
<polygon fill="#ffffff" stroke="transparent" points="446.5,-56.7 446.5,-75.7 727.5,-75.7 727.5,-56.7 446.5,-56.7"/>
<polygon fill="none" stroke="#000000" points="446.5,-56.7 446.5,-75.7 727.5,-75.7 727.5,-56.7 446.5,-56.7"/>
<polygon fill="#ffffff" stroke="transparent" points="447.5,-57.7 447.5,-74.7 543.5,-74.7 543.5,-57.7 447.5,-57.7"/>
<text text-anchor="start" x="449.5" y="-62.8" font-family="Helvetica,sans-Serif" font-size="11.00" fill="#000000">&lt; 1</text>
<polygon fill="#ffffff" stroke="transparent" points="543.5,-57.7 543.5,-74.7 630.5,-74.7 630.5,-57.7 543.5,-57.7"/>
<text text-anchor="start" x="583.9431" y="-62.8" font-family="Helvetica,sans-Serif" font-size="11.00" fill="#000000"> &#160;</text>
<polygon fill="#ffffff" stroke="transparent" points="630.5,-57.7 630.5,-74.7 726.5,-74.7 726.5,-57.7 630.5,-57.7"/>
<text text-anchor="start" x="708.9053" y="-62.8" font-family="Helvetica,sans-Serif" font-size="11.00" fill="#000000">0 &gt;</text>
<polygon fill="#000000" stroke="#000000" points="543.5,-57.7 543.5,-74.7 543.5,-74.7 543.5,-57.7 543.5,-57.7"/>
<polygon fill="#000000" stroke="#000000" points="630.5,-57.7 630.5,-74.7 630.5,-74.7 630.5,-57.7 630.5,-57.7"/>
<polygon fill="none" stroke="#000000" stroke-width="2" points="445,-55.7 445,-297.7 728,-297.7 728,-55.7 445,-55.7"/>
</a>
</g>
</g>
<!-- case_note_amendment&#45;&gt;case_note -->
<g id="edge2" class="edge">
<title>case_note_amendment:w&#45;&gt;case_note:e</title>
<path fill="none" stroke="#000000" d="M431.776,-262.7C419.7815,-262.7 412.3229,-262.7 395.5,-262.7"/>
<polygon fill="#000000" stroke="#000000" points="438.5,-262.7001 446.5,-266.3 442.5,-262.7 446.5,-262.7 446.5,-262.7 446.5,-262.7 442.5,-262.7 446.5,-259.1 438.5,-262.7001 438.5,-262.7001"/>
<ellipse fill="none" stroke="#000000" cx="435.3" cy="-262.7001" rx="3.2" ry="3.2"/>
</g>
</g>
</svg>
