<?xml version="1.0" encoding="UTF-8" standalone="no"?>
<!DOCTYPE svg PUBLIC "-//W3C//DTD SVG 1.1//EN"
 "http://www.w3.org/Graphics/SVG/1.1/DTD/svg11.dtd">
<!-- Generated by graphviz version 2.40.1 (20161225.0304)
 -->
<!-- Title: twoDegreesRelationshipsDiagram Pages: 1 -->
<svg width="894pt" height="469pt"
 viewBox="0.00 0.00 894.00 468.70" xmlns="http://www.w3.org/2000/svg" xmlns:xlink="http://www.w3.org/1999/xlink">
<g id="graph0" class="graph" transform="scale(1 1) rotate(0) translate(4 464.7)">
<title>twoDegreesRelationshipsDiagram</title>
<polygon fill="#ffffff" stroke="transparent" points="-4,4 -4,-464.7 890,-464.7 890,4 -4,4"/>
<text text-anchor="middle" x="72.4936" y="-7.3" font-family="Helvetica,sans-Serif" font-size="11.00" fill="#000000">Generated by SchemaSpy</text>
<!-- case_note -->
<g id="node1" class="node">
<title>case_note</title>
<g id="a_node1"><a xlink:href="../../tables/case_note.html" xlink:title="case_note" target="_top">
<polygon fill="#ffffff" stroke="transparent" points="492,-197.7 492,-456.7 637,-456.7 637,-197.7 492,-197.7"/>
<polygon fill="#f5f5f5" stroke="transparent" points="492.5,-433.2 492.5,-456.2 637.5,-456.2 637.5,-433.2 492.5,-433.2"/>
<polygon fill="none" stroke="#000000" points="492.5,-433.2 492.5,-456.2 637.5,-456.2 637.5,-433.2 492.5,-433.2"/>
<text text-anchor="start" x="497.5" y="-441.8" font-family="Helvetica,sans-Serif" font-weight="bold" font-size="11.00" fill="#000000">case_note</text>
<text text-anchor="start" x="602.5437" y="-441.3" font-family="Helvetica,sans-Serif" font-size="11.00" fill="#000000">[table]</text>
<polygon fill="none" stroke="#000000" points="492.5,-411.2 492.5,-433.2 637.5,-433.2 637.5,-411.2 492.5,-411.2"/>
<image xlink:href="../../images/primaryKeys.png" width="11px" height="12px" preserveAspectRatio="xMinYMin meet" x="497.5" y="-428.2"/>
<text text-anchor="start" x="512.5" y="-418.3" font-family="Helvetica,sans-Serif" font-size="11.00" fill="#000000">id</text>
<polygon fill="#ffffff" stroke="transparent" points="492.5,-389.2 492.5,-411.2 637.5,-411.2 637.5,-389.2 492.5,-389.2"/>
<polygon fill="none" stroke="#000000" points="492.5,-389.2 492.5,-411.2 637.5,-411.2 637.5,-389.2 492.5,-389.2"/>
<text text-anchor="start" x="512.5" y="-396.3" font-family="Helvetica,sans-Serif" font-size="11.00" fill="#000000">person_identifier</text>
<polygon fill="#ffffff" stroke="transparent" points="492.5,-367.2 492.5,-389.2 637.5,-389.2 637.5,-367.2 492.5,-367.2"/>
<polygon fill="none" stroke="#000000" points="492.5,-367.2 492.5,-389.2 637.5,-389.2 637.5,-367.2 492.5,-367.2"/>
<text text-anchor="start" x="512.5" y="-374.3" font-family="Helvetica,sans-Serif" font-size="11.00" fill="#000000">location_id</text>
<polygon fill="#ffffff" stroke="transparent" points="492.5,-345.2 492.5,-367.2 637.5,-367.2 637.5,-345.2 492.5,-345.2"/>
<polygon fill="none" stroke="#000000" points="492.5,-345.2 492.5,-367.2 637.5,-367.2 637.5,-345.2 492.5,-345.2"/>
<text text-anchor="start" x="512.5" y="-352.3" font-family="Helvetica,sans-Serif" font-size="11.00" fill="#000000">author_username</text>
<polygon fill="#ffffff" stroke="transparent" points="492.5,-323.2 492.5,-345.2 637.5,-345.2 637.5,-323.2 492.5,-323.2"/>
<polygon fill="none" stroke="#000000" points="492.5,-323.2 492.5,-345.2 637.5,-345.2 637.5,-323.2 492.5,-323.2"/>
<image xlink:href="../../images/foreignKeys.png" width="11px" height="12px" preserveAspectRatio="xMinYMin meet" x="497.5" y="-340.2"/>
<text text-anchor="start" x="512.5" y="-330.3" font-family="Helvetica,sans-Serif" font-size="11.00" fill="#000000">sub_type_id</text>
<polygon fill="#ffffff" stroke="transparent" points="492.5,-301.2 492.5,-323.2 637.5,-323.2 637.5,-301.2 492.5,-301.2"/>
<polygon fill="none" stroke="#000000" points="492.5,-301.2 492.5,-323.2 637.5,-323.2 637.5,-301.2 492.5,-301.2"/>
<text text-anchor="start" x="512.5" y="-308.3" font-family="Helvetica,sans-Serif" font-size="11.00" fill="#000000">occurred_at</text>
<polygon fill="#ffffff" stroke="transparent" points="492.5,-279.2 492.5,-301.2 637.5,-301.2 637.5,-279.2 492.5,-279.2"/>
<polygon fill="none" stroke="#000000" points="492.5,-279.2 492.5,-301.2 637.5,-301.2 637.5,-279.2 492.5,-279.2"/>
<text text-anchor="start" x="512.5" y="-286.3" font-family="Helvetica,sans-Serif" font-size="11.00" fill="#000000">created_at</text>
<polygon fill="#ffffff" stroke="transparent" points="492.5,-257.2 492.5,-279.2 637.5,-279.2 637.5,-257.2 492.5,-257.2"/>
<polygon fill="none" stroke="#000000" points="492.5,-257.2 492.5,-279.2 637.5,-279.2 637.5,-257.2 492.5,-257.2"/>
<text text-anchor="start" x="512.5" y="-264.3" font-family="Helvetica,sans-Serif" font-size="11.00" fill="#000000">legacy_id</text>
<polygon fill="#ffffff" stroke="transparent" points="492.5,-235.2 492.5,-257.2 637.5,-257.2 637.5,-235.2 492.5,-235.2"/>
<polygon fill="none" stroke="#000000" points="492.5,-235.2 492.5,-257.2 637.5,-257.2 637.5,-235.2 492.5,-235.2"/>
<text text-anchor="start" x="512.5" y="-242.3" font-family="Helvetica,sans-Serif" font-size="11.00" fill="#000000">author_user_id</text>
<polygon fill="none" stroke="#000000" points="492.5,-216.2 492.5,-235.2 637.5,-235.2 637.5,-216.2 492.5,-216.2"/>
<text text-anchor="start" x="495.5" y="-222.3" font-family="Helvetica,sans-Serif" font-size="11.00" fill="#000000">...</text>
<polygon fill="#ffffff" stroke="transparent" points="492.5,-197.2 492.5,-216.2 558.5,-216.2 558.5,-197.2 492.5,-197.2"/>
<polygon fill="none" stroke="#000000" points="492.5,-197.2 492.5,-216.2 558.5,-216.2 558.5,-197.2 492.5,-197.2"/>
<text text-anchor="start" x="495.5" y="-203.3" font-family="Helvetica,sans-Serif" font-size="11.00" fill="#000000">&lt; 1</text>
<polygon fill="#ffffff" stroke="transparent" points="558.5,-197.2 558.5,-216.2 593.5,-216.2 593.5,-197.2 558.5,-197.2"/>
<polygon fill="none" stroke="#000000" points="558.5,-197.2 558.5,-216.2 593.5,-216.2 593.5,-197.2 558.5,-197.2"/>
<text text-anchor="start" x="584.3862" y="-203.3" font-family="Helvetica,sans-Serif" font-size="11.00" fill="#000000"> &#160;</text>
<polygon fill="#ffffff" stroke="transparent" points="593.5,-197.2 593.5,-216.2 637.5,-216.2 637.5,-197.2 593.5,-197.2"/>
<polygon fill="none" stroke="#000000" points="593.5,-197.2 593.5,-216.2 637.5,-216.2 637.5,-197.2 593.5,-197.2"/>
<text text-anchor="start" x="618.9053" y="-203.3" font-family="Helvetica,sans-Serif" font-size="11.00" fill="#000000">1 &gt;</text>
</a>
</g>
</g>
<!-- case_note_sub_type -->
<g id="node2" class="node">
<title>case_note_sub_type</title>
<g id="a_node2"><a xlink:href="../../tables/case_note_sub_type.html" xlink:title="case_note_sub_type" target="_top">
<polygon fill="#ffffff" stroke="transparent" points="199,-38.2 199,-370.2 443,-370.2 443,-38.2 199,-38.2"/>
<polygon fill="#f5f5f5" stroke="transparent" points="201,-345.2 201,-368.2 441,-368.2 441,-345.2 201,-345.2"/>
<polygon fill="none" stroke="#000000" points="201,-345.2 201,-368.2 441,-368.2 441,-345.2 201,-345.2"/>
<text text-anchor="start" x="206" y="-353.8" font-family="Helvetica,sans-Serif" font-weight="bold" font-size="11.00" fill="#000000">case_note_sub_type</text>
<text text-anchor="start" x="406.0437" y="-353.3" font-family="Helvetica,sans-Serif" font-size="11.00" fill="#000000">[table]</text>
<polygon fill="none" stroke="#000000" points="201,-323.2 201,-345.2 357,-345.2 357,-323.2 201,-323.2"/>
<image xlink:href="../../images/primaryKeys.png" width="11px" height="12px" preserveAspectRatio="xMinYMin meet" x="206" y="-340.2"/>
<text text-anchor="start" x="221" y="-330.3" font-family="Helvetica,sans-Serif" font-size="11.00" fill="#000000">id</text>
<polygon fill="none" stroke="#000000" points="357,-323.2 357,-345.2 441,-345.2 441,-323.2 357,-323.2"/>
<text text-anchor="start" x="360" y="-330.9" font-family="Helvetica,sans-Serif" font-size="11.00" fill="#000000">serial[10]</text>
<polygon fill="#ffffff" stroke="transparent" points="201,-301.2 201,-323.2 357,-323.2 357,-301.2 201,-301.2"/>
<polygon fill="none" stroke="#000000" points="201,-301.2 201,-323.2 357,-323.2 357,-301.2 201,-301.2"/>
<image xlink:href="../../images/foreignKeys.png" width="11px" height="12px" preserveAspectRatio="xMinYMin meet" x="206" y="-318.2"/>
<text text-anchor="start" x="221" y="-308.3" font-family="Helvetica,sans-Serif" font-size="11.00" fill="#000000">type_code</text>
<polygon fill="none" stroke="#000000" points="357,-301.2 357,-323.2 441,-323.2 441,-301.2 357,-301.2"/>
<text text-anchor="start" x="360" y="-308.9" font-family="Helvetica,sans-Serif" font-size="11.00" fill="#000000">varchar[12]</text>
<polygon fill="#ffffff" stroke="transparent" points="201,-279.2 201,-301.2 357,-301.2 357,-279.2 201,-279.2"/>
<polygon fill="none" stroke="#000000" points="201,-279.2 201,-301.2 357,-301.2 357,-279.2 201,-279.2"/>
<image xlink:href="../../images/foreignKeys.png" width="11px" height="12px" preserveAspectRatio="xMinYMin meet" x="206" y="-296.2"/>
<text text-anchor="start" x="221" y="-286.3" font-family="Helvetica,sans-Serif" font-size="11.00" fill="#000000">code</text>
<polygon fill="none" stroke="#000000" points="357,-279.2 357,-301.2 441,-301.2 441,-279.2 357,-279.2"/>
<text text-anchor="start" x="360" y="-286.9" font-family="Helvetica,sans-Serif" font-size="11.00" fill="#000000">varchar[12]</text>
<polygon fill="none" stroke="#000000" points="201,-257.2 201,-279.2 357,-279.2 357,-257.2 201,-257.2"/>
<text text-anchor="start" x="221" y="-264.3" font-family="Helvetica,sans-Serif" font-size="11.00" fill="#000000">description</text>
<polygon fill="none" stroke="#000000" points="357,-257.2 357,-279.2 441,-279.2 441,-257.2 357,-257.2"/>
<text text-anchor="start" x="360" y="-264.9" font-family="Helvetica,sans-Serif" font-size="11.00" fill="#000000">varchar[80]</text>
<polygon fill="none" stroke="#000000" points="201,-235.2 201,-257.2 357,-257.2 357,-235.2 201,-235.2"/>
<text text-anchor="start" x="221" y="-242.3" font-family="Helvetica,sans-Serif" font-size="11.00" fill="#000000">active</text>
<polygon fill="none" stroke="#000000" points="357,-235.2 357,-257.2 441,-257.2 441,-235.2 357,-235.2"/>
<text text-anchor="start" x="360" y="-242.9" font-family="Helvetica,sans-Serif" font-size="11.00" fill="#000000">bool[1]</text>
<polygon fill="none" stroke="#000000" points="201,-213.2 201,-235.2 357,-235.2 357,-213.2 201,-213.2"/>
<text text-anchor="start" x="221" y="-220.3" font-family="Helvetica,sans-Serif" font-size="11.00" fill="#000000">created_at</text>
<polygon fill="none" stroke="#000000" points="357,-213.2 357,-235.2 441,-235.2 441,-213.2 357,-213.2"/>
<text text-anchor="start" x="359.8807" y="-220.9" font-family="Helvetica,sans-Serif" font-size="11.00" fill="#000000">timestamp[29,6]</text>
<polygon fill="none" stroke="#000000" points="201,-191.2 201,-213.2 357,-213.2 357,-191.2 201,-191.2"/>
<text text-anchor="start" x="221" y="-198.3" font-family="Helvetica,sans-Serif" font-size="11.00" fill="#000000">created_by</text>
<polygon fill="none" stroke="#000000" points="357,-191.2 357,-213.2 441,-213.2 441,-191.2 357,-191.2"/>
<text text-anchor="start" x="360" y="-198.9" font-family="Helvetica,sans-Serif" font-size="11.00" fill="#000000">varchar[64]</text>
<polygon fill="none" stroke="#000000" points="201,-169.2 201,-191.2 357,-191.2 357,-169.2 201,-169.2"/>
<text text-anchor="start" x="221" y="-176.3" font-family="Helvetica,sans-Serif" font-size="11.00" fill="#000000">last_modified_at</text>
<polygon fill="none" stroke="#000000" points="357,-169.2 357,-191.2 441,-191.2 441,-169.2 357,-169.2"/>
<text text-anchor="start" x="359.8807" y="-176.9" font-family="Helvetica,sans-Serif" font-size="11.00" fill="#000000">timestamp[29,6]</text>
<polygon fill="none" stroke="#000000" points="201,-147.2 201,-169.2 357,-169.2 357,-147.2 201,-147.2"/>
<text text-anchor="start" x="221" y="-154.3" font-family="Helvetica,sans-Serif" font-size="11.00" fill="#000000">last_modified_by</text>
<polygon fill="none" stroke="#000000" points="357,-147.2 357,-169.2 441,-169.2 441,-147.2 357,-147.2"/>
<text text-anchor="start" x="360" y="-154.9" font-family="Helvetica,sans-Serif" font-size="11.00" fill="#000000">varchar[64]</text>
<polygon fill="none" stroke="#000000" points="201,-125.2 201,-147.2 357,-147.2 357,-125.2 201,-125.2"/>
<text text-anchor="start" x="221" y="-132.3" font-family="Helvetica,sans-Serif" font-size="11.00" fill="#000000">sensitive</text>
<polygon fill="none" stroke="#000000" points="357,-125.2 357,-147.2 441,-147.2 441,-125.2 357,-125.2"/>
<text text-anchor="start" x="360" y="-132.9" font-family="Helvetica,sans-Serif" font-size="11.00" fill="#000000">bool[1]</text>
<polygon fill="none" stroke="#000000" points="201,-103.2 201,-125.2 357,-125.2 357,-103.2 201,-103.2"/>
<text text-anchor="start" x="221" y="-110.3" font-family="Helvetica,sans-Serif" font-size="11.00" fill="#000000">restricted_use</text>
<polygon fill="none" stroke="#000000" points="357,-103.2 357,-125.2 441,-125.2 441,-103.2 357,-103.2"/>
<text text-anchor="start" x="360" y="-110.9" font-family="Helvetica,sans-Serif" font-size="11.00" fill="#000000">bool[1]</text>
<polygon fill="#ffffff" stroke="transparent" points="201,-81.2 201,-103.2 357,-103.2 357,-81.2 201,-81.2"/>
<polygon fill="none" stroke="#000000" points="201,-81.2 201,-103.2 357,-103.2 357,-81.2 201,-81.2"/>
<text text-anchor="start" x="221" y="-88.3" font-family="Helvetica,sans-Serif" font-size="11.00" fill="#000000">sync_to_nomis</text>
<polygon fill="none" stroke="#000000" points="357,-81.2 357,-103.2 441,-103.2 441,-81.2 357,-81.2"/>
<text text-anchor="start" x="360" y="-88.9" font-family="Helvetica,sans-Serif" font-size="11.00" fill="#000000">bool[1]</text>
<polygon fill="none" stroke="#000000" points="201,-59.2 201,-81.2 357,-81.2 357,-59.2 201,-59.2"/>
<text text-anchor="start" x="221" y="-66.3" font-family="Helvetica,sans-Serif" font-size="11.00" fill="#000000">dps_user_selectable</text>
<polygon fill="none" stroke="#000000" points="357,-59.2 357,-81.2 441,-81.2 441,-59.2 357,-59.2"/>
<text text-anchor="start" x="360" y="-66.9" font-family="Helvetica,sans-Serif" font-size="11.00" fill="#000000">bool[1]</text>
<polygon fill="#ffffff" stroke="transparent" points="201,-40.2 201,-59.2 264,-59.2 264,-40.2 201,-40.2"/>
<polygon fill="none" stroke="#000000" points="201,-40.2 201,-59.2 264,-59.2 264,-40.2 201,-40.2"/>
<text text-anchor="start" x="204" y="-46.3" font-family="Helvetica,sans-Serif" font-size="11.00" fill="#000000">&lt; 1</text>
<polygon fill="#ffffff" stroke="transparent" points="264,-40.2 264,-59.2 357,-59.2 357,-40.2 264,-40.2"/>
<polygon fill="none" stroke="#000000" points="264,-40.2 264,-59.2 357,-59.2 357,-40.2 264,-40.2"/>
<text text-anchor="start" x="309.3807" y="-46.3" font-family="Helvetica,sans-Serif" font-size="11.00" fill="#000000">406 rows</text>
<polygon fill="#ffffff" stroke="transparent" points="357,-40.2 357,-59.2 441,-59.2 441,-40.2 357,-40.2"/>
<polygon fill="none" stroke="#000000" points="357,-40.2 357,-59.2 441,-59.2 441,-40.2 357,-40.2"/>
<text text-anchor="start" x="422.4053" y="-46.3" font-family="Helvetica,sans-Serif" font-size="11.00" fill="#000000">1 &gt;</text>
<polygon fill="none" stroke="#000000" stroke-width="2" points="200,-39.2 200,-369.2 442,-369.2 442,-39.2 200,-39.2"/>
</a>
</g>
</g>
<!-- case_note&#45;&gt;case_note_sub_type -->
<g id="edge1" class="edge">
<title>case_note:w&#45;&gt;case_note_sub_type:e</title>
<path fill="none" stroke="#000000" d="M478.0156,-334.2C465.6771,-334.2 458.1667,-334.2 441,-334.2"/>
<polygon fill="#000000" stroke="#000000" points="484.5,-334.2001 492.5,-337.8 488.5,-334.2 492.5,-334.2 492.5,-334.2 492.5,-334.2 488.5,-334.2 492.5,-330.6 484.5,-334.2001 484.5,-334.2001"/>
<ellipse fill="none" stroke="#000000" cx="481.3" cy="-334.2001" rx="3.2" ry="3.2"/>
</g>
<!-- case_note_type -->
<g id="node4" class="node">
<title>case_note_type</title>
<g id="a_node4"><a xlink:href="../../tables/case_note_type.html" xlink:title="case_note_type" target="_top">
<polygon fill="#ffffff" stroke="transparent" points="8,-263.7 8,-346.7 150,-346.7 150,-263.7 8,-263.7"/>
<polygon fill="#f5f5f5" stroke="transparent" points="8,-323.2 8,-346.2 150,-346.2 150,-323.2 8,-323.2"/>
<polygon fill="none" stroke="#000000" points="8,-323.2 8,-346.2 150,-346.2 150,-323.2 8,-323.2"/>
<text text-anchor="start" x="13" y="-331.8" font-family="Helvetica,sans-Serif" font-weight="bold" font-size="11.00" fill="#000000">case_note_type</text>
<text text-anchor="start" x="115.5219" y="-331.3" font-family="Helvetica,sans-Serif" font-size="11.00" fill="#000000">[table]</text>
<polygon fill="none" stroke="#000000" points="8,-301.2 8,-323.2 150,-323.2 150,-301.2 8,-301.2"/>
<image xlink:href="../../images/primaryKeys.png" width="11px" height="12px" preserveAspectRatio="xMinYMin meet" x="13" y="-318.2"/>
<text text-anchor="start" x="32" y="-308.3" font-family="Helvetica,sans-Serif" font-size="11.00" fill="#000000">code</text>
<polygon fill="none" stroke="#000000" points="8,-282.2 8,-301.2 150,-301.2 150,-282.2 8,-282.2"/>
<text text-anchor="start" x="11" y="-288.3" font-family="Helvetica,sans-Serif" font-size="11.00" fill="#000000">...</text>
<polygon fill="#ffffff" stroke="transparent" points="8,-263.2 8,-282.2 52,-282.2 52,-263.2 8,-263.2"/>
<polygon fill="none" stroke="#000000" points="8,-263.2 8,-282.2 52,-282.2 52,-263.2 8,-263.2"/>
<text text-anchor="start" x="11" y="-269.3" font-family="Helvetica,sans-Serif" font-size="11.00" fill="#000000"> &#160;</text>
<polygon fill="#ffffff" stroke="transparent" points="52,-263.2 52,-282.2 112,-282.2 112,-263.2 52,-263.2"/>
<polygon fill="none" stroke="#000000" points="52,-263.2 52,-282.2 112,-282.2 112,-263.2 52,-263.2"/>
<text text-anchor="start" x="70.4956" y="-269.3" font-family="Helvetica,sans-Serif" font-size="11.00" fill="#000000">66 rows</text>
<polygon fill="#ffffff" stroke="transparent" points="112,-263.2 112,-282.2 150,-282.2 150,-263.2 112,-263.2"/>
<polygon fill="none" stroke="#000000" points="112,-263.2 112,-282.2 150,-282.2 150,-263.2 112,-263.2"/>
<text text-anchor="start" x="131.4053" y="-269.3" font-family="Helvetica,sans-Serif" font-size="11.00" fill="#000000">1 &gt;</text>
</a>
</g>
</g>
<!-- case_note_sub_type&#45;&gt;case_note_type -->
<g id="edge3" class="edge">
<title>case_note_sub_type:w&#45;&gt;case_note_type:e</title>
<path fill="none" stroke="#000000" d="M186.276,-312.2C174.2815,-312.2 166.8229,-312.2 150,-312.2"/>
<polygon fill="#000000" stroke="#000000" points="193,-312.2001 201,-315.8 197,-312.2 201,-312.2 201,-312.2 201,-312.2 197,-312.2 201,-308.6 193,-312.2001 193,-312.2001"/>
<ellipse fill="none" stroke="#000000" cx="189.8" cy="-312.2001" rx="3.2" ry="3.2"/>
</g>
<!-- case_note_amendment -->
<g id="node3" class="node">
<title>case_note_amendment</title>
<g id="a_node3"><a xlink:href="../../tables/case_note_amendment.html" xlink:title="case_note_amendment" target="_top">
<polygon fill="#ffffff" stroke="transparent" points="686,-394.7 686,-455.7 878,-455.7 878,-394.7 686,-394.7"/>
<polygon fill="#f5f5f5" stroke="transparent" points="686,-432.2 686,-455.2 878,-455.2 878,-432.2 686,-432.2"/>
<polygon fill="none" stroke="#000000" points="686,-432.2 686,-455.2 878,-455.2 878,-432.2 686,-432.2"/>
<text text-anchor="start" x="691" y="-440.8" font-family="Helvetica,sans-Serif" font-weight="bold" font-size="11.00" fill="#000000">case_note_amendment</text>
<text text-anchor="start" x="843.5219" y="-440.3" font-family="Helvetica,sans-Serif" font-size="11.00" fill="#000000">[table]</text>
<polygon fill="none" stroke="#000000" points="686,-413.2 686,-432.2 878,-432.2 878,-413.2 686,-413.2"/>
<text text-anchor="start" x="689" y="-419.3" font-family="Helvetica,sans-Serif" font-size="11.00" fill="#000000">...</text>
<polygon fill="#ffffff" stroke="transparent" points="686,-394.2 686,-413.2 780,-413.2 780,-394.2 686,-394.2"/>
<polygon fill="none" stroke="#000000" points="686,-394.2 686,-413.2 780,-413.2 780,-394.2 686,-394.2"/>
<text text-anchor="start" x="689" y="-400.3" font-family="Helvetica,sans-Serif" font-size="11.00" fill="#000000">&lt; 1</text>
<polygon fill="#ffffff" stroke="transparent" points="780,-394.2 780,-413.2 829,-413.2 829,-394.2 780,-394.2"/>
<polygon fill="none" stroke="#000000" points="780,-394.2 780,-413.2 829,-413.2 829,-394.2 780,-394.2"/>
<text text-anchor="start" x="819.8862" y="-400.3" font-family="Helvetica,sans-Serif" font-size="11.00" fill="#000000"> &#160;</text>
<polygon fill="#ffffff" stroke="transparent" points="829,-394.2 829,-413.2 878,-413.2 878,-394.2 829,-394.2"/>
<polygon fill="none" stroke="#000000" points="829,-394.2 829,-413.2 878,-413.2 878,-394.2 829,-394.2"/>
<text text-anchor="start" x="868.8862" y="-400.3" font-family="Helvetica,sans-Serif" font-size="11.00" fill="#000000"> &#160;</text>
</a>
</g>
</g>
<!-- case_note_amendment&#45;&gt;case_note -->
<g id="edge2" class="edge">
<title>case_note_amendment:w&#45;&gt;case_note:e</title>
<path fill="none" stroke="#000000" d="M671.2829,-422.2C660.2886,-422.2 653.1615,-422.2 637.5,-422.2"/>
<polygon fill="#000000" stroke="#000000" points="678,-422.2001 686,-425.8 682,-422.2 686,-422.2 686,-422.2 686,-422.2 682,-422.2 686,-418.6 678,-422.2001 678,-422.2001"/>
<ellipse fill="none" stroke="#000000" cx="674.8" cy="-422.2001" rx="3.2" ry="3.2"/>
</g>
</g>
</svg>
