<?xml version="1.0" encoding="UTF-8" standalone="no"?>
<!DOCTYPE svg PUBLIC "-//W3C//DTD SVG 1.1//EN"
 "http://www.w3.org/Graphics/SVG/1.1/DTD/svg11.dtd">
<!-- Generated by graphviz version 2.40.1 (20161225.0304)
 -->
<!-- Title: oneDegreeRelationshipsDiagram Pages: 1 -->
<svg width="513pt" height="311pt"
 viewBox="0.00 0.00 513.00 310.70" xmlns="http://www.w3.org/2000/svg" xmlns:xlink="http://www.w3.org/1999/xlink">
<g id="graph0" class="graph" transform="scale(1 1) rotate(0) translate(4 306.7)">
<title>oneDegreeRelationshipsDiagram</title>
<polygon fill="#ffffff" stroke="transparent" points="-4,4 -4,-306.7 509,-306.7 509,4 -4,4"/>
<text text-anchor="middle" x="72.4936" y="-7.3" font-family="Helvetica,sans-Serif" font-size="11.00" fill="#000000">Generated by SchemaSpy</text>
<!-- case_note_amendment -->
<g id="node1" class="node">
<title>case_note_amendment</title>
<g id="a_node1"><a xlink:href="../../tables/case_note_amendment.html" xlink:title="case_note_amendment" target="_top">
<polygon fill="#ffffff" stroke="transparent" points="212,-54.7 212,-298.7 497,-298.7 497,-54.7 212,-54.7"/>
<polygon fill="#f5f5f5" stroke="transparent" points="214.5,-273.7 214.5,-296.7 495.5,-296.7 495.5,-273.7 214.5,-273.7"/>
<polygon fill="none" stroke="#000000" points="214.5,-273.7 214.5,-296.7 495.5,-296.7 495.5,-273.7 214.5,-273.7"/>
<text text-anchor="start" x="219.5" y="-282.3" font-family="Helvetica,sans-Serif" font-weight="bold" font-size="11.00" fill="#000000">case_note_amendment</text>
<text text-anchor="start" x="460.5437" y="-281.8" font-family="Helvetica,sans-Serif" font-size="11.00" fill="#000000">[table]</text>
<polygon fill="#ffffff" stroke="transparent" points="214.5,-251.7 214.5,-273.7 401.5,-273.7 401.5,-251.7 214.5,-251.7"/>
<polygon fill="none" stroke="#000000" points="214.5,-251.7 214.5,-273.7 401.5,-273.7 401.5,-251.7 214.5,-251.7"/>
<image xlink:href="../../images/foreignKeys.png" width="11px" height="12px" preserveAspectRatio="xMinYMin meet" x="219.5" y="-268.7"/>
<text text-anchor="start" x="234.5" y="-258.8" font-family="Helvetica,sans-Serif" font-size="11.00" fill="#000000">case_note_id</text>
<polygon fill="none" stroke="#000000" points="401.5,-251.7 401.5,-273.7 495.5,-273.7 495.5,-251.7 401.5,-251.7"/>
<text text-anchor="start" x="404.4758" y="-259.4" font-family="Helvetica,sans-Serif" font-size="11.00" fill="#000000">uuid[2147483647]</text>
<polygon fill="none" stroke="#000000" points="214.5,-229.7 214.5,-251.7 401.5,-251.7 401.5,-229.7 214.5,-229.7"/>
<text text-anchor="start" x="234.5" y="-236.8" font-family="Helvetica,sans-Serif" font-size="11.00" fill="#000000">author_username</text>
<polygon fill="none" stroke="#000000" points="401.5,-229.7 401.5,-251.7 495.5,-251.7 495.5,-229.7 401.5,-229.7"/>
<text text-anchor="start" x="404.5" y="-237.4" font-family="Helvetica,sans-Serif" font-size="11.00" fill="#000000">varchar[64]</text>
<polygon fill="none" stroke="#000000" points="214.5,-207.7 214.5,-229.7 401.5,-229.7 401.5,-207.7 214.5,-207.7"/>
<text text-anchor="start" x="234.5" y="-214.8" font-family="Helvetica,sans-Serif" font-size="11.00" fill="#000000">author_name</text>
<polygon fill="none" stroke="#000000" points="401.5,-207.7 401.5,-229.7 495.5,-229.7 495.5,-207.7 401.5,-207.7"/>
<text text-anchor="start" x="404.5" y="-215.4" font-family="Helvetica,sans-Serif" font-size="11.00" fill="#000000">varchar[80]</text>
<polygon fill="none" stroke="#000000" points="214.5,-185.7 214.5,-207.7 401.5,-207.7 401.5,-185.7 214.5,-185.7"/>
<text text-anchor="start" x="234.5" y="-192.8" font-family="Helvetica,sans-Serif" font-size="11.00" fill="#000000">note_text</text>
<polygon fill="none" stroke="#000000" points="401.5,-185.7 401.5,-207.7 495.5,-207.7 495.5,-185.7 401.5,-185.7"/>
<text text-anchor="start" x="404.5" y="-193.4" font-family="Helvetica,sans-Serif" font-size="11.00" fill="#000000">text[2147483647]</text>
<polygon fill="#ffffff" stroke="transparent" points="214.5,-163.7 214.5,-185.7 401.5,-185.7 401.5,-163.7 214.5,-163.7"/>
<polygon fill="none" stroke="#000000" points="214.5,-163.7 214.5,-185.7 401.5,-185.7 401.5,-163.7 214.5,-163.7"/>
<text text-anchor="start" x="234.5" y="-170.8" font-family="Helvetica,sans-Serif" font-size="11.00" fill="#000000">created_at</text>
<polygon fill="none" stroke="#000000" points="401.5,-163.7 401.5,-185.7 495.5,-185.7 495.5,-163.7 401.5,-163.7"/>
<text text-anchor="start" x="404.5" y="-171.4" font-family="Helvetica,sans-Serif" font-size="11.00" fill="#000000">timestamp[29,6]</text>
<polygon fill="none" stroke="#000000" points="214.5,-141.7 214.5,-163.7 401.5,-163.7 401.5,-141.7 214.5,-141.7"/>
<text text-anchor="start" x="234.5" y="-148.8" font-family="Helvetica,sans-Serif" font-size="11.00" fill="#000000">created_by</text>
<polygon fill="none" stroke="#000000" points="401.5,-141.7 401.5,-163.7 495.5,-163.7 495.5,-141.7 401.5,-141.7"/>
<text text-anchor="start" x="404.5" y="-149.4" font-family="Helvetica,sans-Serif" font-size="11.00" fill="#000000">varchar[64]</text>
<polygon fill="none" stroke="#000000" points="214.5,-119.7 214.5,-141.7 401.5,-141.7 401.5,-119.7 214.5,-119.7"/>
<text text-anchor="start" x="234.5" y="-126.8" font-family="Helvetica,sans-Serif" font-size="11.00" fill="#000000">author_user_id</text>
<polygon fill="none" stroke="#000000" points="401.5,-119.7 401.5,-141.7 495.5,-141.7 495.5,-119.7 401.5,-119.7"/>
<text text-anchor="start" x="404.5" y="-127.4" font-family="Helvetica,sans-Serif" font-size="11.00" fill="#000000">varchar[64]</text>
<polygon fill="none" stroke="#000000" points="214.5,-97.7 214.5,-119.7 401.5,-119.7 401.5,-97.7 214.5,-97.7"/>
<image xlink:href="../../images/primaryKeys.png" width="11px" height="12px" preserveAspectRatio="xMinYMin meet" x="219.5" y="-114.7"/>
<text text-anchor="start" x="234.5" y="-104.8" font-family="Helvetica,sans-Serif" font-size="11.00" fill="#000000">id</text>
<polygon fill="none" stroke="#000000" points="401.5,-97.7 401.5,-119.7 495.5,-119.7 495.5,-97.7 401.5,-97.7"/>
<text text-anchor="start" x="404.4758" y="-105.4" font-family="Helvetica,sans-Serif" font-size="11.00" fill="#000000">uuid[2147483647]</text>
<polygon fill="none" stroke="#000000" points="214.5,-75.7 214.5,-97.7 401.5,-97.7 401.5,-75.7 214.5,-75.7"/>
<text text-anchor="start" x="234.5" y="-82.8" font-family="Helvetica,sans-Serif" font-size="11.00" fill="#000000">system</text>
<polygon fill="none" stroke="#000000" points="401.5,-75.7 401.5,-97.7 495.5,-97.7 495.5,-75.7 401.5,-75.7"/>
<text text-anchor="start" x="404.5" y="-83.4" font-family="Helvetica,sans-Serif" font-size="11.00" fill="#000000">varchar[6]</text>
<polygon fill="#ffffff" stroke="transparent" points="214.5,-56.7 214.5,-75.7 495.5,-75.7 495.5,-56.7 214.5,-56.7"/>
<polygon fill="none" stroke="#000000" points="214.5,-56.7 214.5,-75.7 495.5,-75.7 495.5,-56.7 214.5,-56.7"/>
<polygon fill="#ffffff" stroke="transparent" points="215.5,-57.7 215.5,-74.7 311.5,-74.7 311.5,-57.7 215.5,-57.7"/>
<text text-anchor="start" x="217.5" y="-62.8" font-family="Helvetica,sans-Serif" font-size="11.00" fill="#000000">&lt; 1</text>
<polygon fill="#ffffff" stroke="transparent" points="311.5,-57.7 311.5,-74.7 398.5,-74.7 398.5,-57.7 311.5,-57.7"/>
<text text-anchor="start" x="351.9431" y="-62.8" font-family="Helvetica,sans-Serif" font-size="11.00" fill="#000000"> &#160;</text>
<polygon fill="#ffffff" stroke="transparent" points="398.5,-57.7 398.5,-74.7 494.5,-74.7 494.5,-57.7 398.5,-57.7"/>
<text text-anchor="start" x="476.9053" y="-62.8" font-family="Helvetica,sans-Serif" font-size="11.00" fill="#000000">0 &gt;</text>
<polygon fill="#000000" stroke="#000000" points="311.5,-57.7 311.5,-74.7 311.5,-74.7 311.5,-57.7 311.5,-57.7"/>
<polygon fill="#000000" stroke="#000000" points="398.5,-57.7 398.5,-74.7 398.5,-74.7 398.5,-57.7 398.5,-57.7"/>
<polygon fill="none" stroke="#000000" stroke-width="2" points="213,-55.7 213,-297.7 496,-297.7 496,-55.7 213,-55.7"/>
</a>
</g>
</g>
<!-- case_note -->
<g id="node2" class="node">
<title>case_note</title>
<g id="a_node2"><a xlink:href="../../tables/case_note.html" xlink:title="case_note" target="_top">
<polygon fill="#ffffff" stroke="transparent" points="8,-38.2 8,-297.2 163,-297.2 163,-38.2 8,-38.2"/>
<polygon fill="#f5f5f5" stroke="transparent" points="8.5,-273.7 8.5,-296.7 163.5,-296.7 163.5,-273.7 8.5,-273.7"/>
<polygon fill="none" stroke="#000000" points="8.5,-273.7 8.5,-296.7 163.5,-296.7 163.5,-273.7 8.5,-273.7"/>
<text text-anchor="start" x="13.5" y="-282.3" font-family="Helvetica,sans-Serif" font-weight="bold" font-size="11.00" fill="#000000">case_note</text>
<text text-anchor="start" x="128.5437" y="-281.8" font-family="Helvetica,sans-Serif" font-size="11.00" fill="#000000">[table]</text>
<polygon fill="none" stroke="#000000" points="8.5,-251.7 8.5,-273.7 163.5,-273.7 163.5,-251.7 8.5,-251.7"/>
<image xlink:href="../../images/primaryKeys.png" width="11px" height="12px" preserveAspectRatio="xMinYMin meet" x="13.5" y="-268.7"/>
<text text-anchor="start" x="28.5" y="-258.8" font-family="Helvetica,sans-Serif" font-size="11.00" fill="#000000">id</text>
<polygon fill="#ffffff" stroke="transparent" points="8.5,-229.7 8.5,-251.7 163.5,-251.7 163.5,-229.7 8.5,-229.7"/>
<polygon fill="none" stroke="#000000" points="8.5,-229.7 8.5,-251.7 163.5,-251.7 163.5,-229.7 8.5,-229.7"/>
<text text-anchor="start" x="28.5" y="-236.8" font-family="Helvetica,sans-Serif" font-size="11.00" fill="#000000">person_identifier</text>
<polygon fill="#ffffff" stroke="transparent" points="8.5,-207.7 8.5,-229.7 163.5,-229.7 163.5,-207.7 8.5,-207.7"/>
<polygon fill="none" stroke="#000000" points="8.5,-207.7 8.5,-229.7 163.5,-229.7 163.5,-207.7 8.5,-207.7"/>
<text text-anchor="start" x="28.5" y="-214.8" font-family="Helvetica,sans-Serif" font-size="11.00" fill="#000000">location_id</text>
<polygon fill="#ffffff" stroke="transparent" points="8.5,-185.7 8.5,-207.7 163.5,-207.7 163.5,-185.7 8.5,-185.7"/>
<polygon fill="none" stroke="#000000" points="8.5,-185.7 8.5,-207.7 163.5,-207.7 163.5,-185.7 8.5,-185.7"/>
<text text-anchor="start" x="28.5" y="-192.8" font-family="Helvetica,sans-Serif" font-size="11.00" fill="#000000">author_username</text>
<polygon fill="#ffffff" stroke="transparent" points="8.5,-163.7 8.5,-185.7 163.5,-185.7 163.5,-163.7 8.5,-163.7"/>
<polygon fill="none" stroke="#000000" points="8.5,-163.7 8.5,-185.7 163.5,-185.7 163.5,-163.7 8.5,-163.7"/>
<image xlink:href="../../images/foreignKeys.png" width="11px" height="12px" preserveAspectRatio="xMinYMin meet" x="13.5" y="-180.7"/>
<text text-anchor="start" x="28.5" y="-170.8" font-family="Helvetica,sans-Serif" font-size="11.00" fill="#000000">sub_type_id</text>
<polygon fill="#ffffff" stroke="transparent" points="8.5,-141.7 8.5,-163.7 163.5,-163.7 163.5,-141.7 8.5,-141.7"/>
<polygon fill="none" stroke="#000000" points="8.5,-141.7 8.5,-163.7 163.5,-163.7 163.5,-141.7 8.5,-141.7"/>
<text text-anchor="start" x="28.5" y="-148.8" font-family="Helvetica,sans-Serif" font-size="11.00" fill="#000000">occurred_at</text>
<polygon fill="#ffffff" stroke="transparent" points="8.5,-119.7 8.5,-141.7 163.5,-141.7 163.5,-119.7 8.5,-119.7"/>
<polygon fill="none" stroke="#000000" points="8.5,-119.7 8.5,-141.7 163.5,-141.7 163.5,-119.7 8.5,-119.7"/>
<text text-anchor="start" x="28.5" y="-126.8" font-family="Helvetica,sans-Serif" font-size="11.00" fill="#000000">created_at</text>
<polygon fill="#ffffff" stroke="transparent" points="8.5,-97.7 8.5,-119.7 163.5,-119.7 163.5,-97.7 8.5,-97.7"/>
<polygon fill="none" stroke="#000000" points="8.5,-97.7 8.5,-119.7 163.5,-119.7 163.5,-97.7 8.5,-97.7"/>
<text text-anchor="start" x="28.5" y="-104.8" font-family="Helvetica,sans-Serif" font-size="11.00" fill="#000000">legacy_id</text>
<polygon fill="#ffffff" stroke="transparent" points="8.5,-75.7 8.5,-97.7 163.5,-97.7 163.5,-75.7 8.5,-75.7"/>
<polygon fill="none" stroke="#000000" points="8.5,-75.7 8.5,-97.7 163.5,-97.7 163.5,-75.7 8.5,-75.7"/>
<text text-anchor="start" x="28.5" y="-82.8" font-family="Helvetica,sans-Serif" font-size="11.00" fill="#000000">author_user_id</text>
<polygon fill="none" stroke="#000000" points="8.5,-56.7 8.5,-75.7 163.5,-75.7 163.5,-56.7 8.5,-56.7"/>
<text text-anchor="start" x="11.5" y="-62.8" font-family="Helvetica,sans-Serif" font-size="11.00" fill="#000000">...</text>
<polygon fill="#ffffff" stroke="transparent" points="8.5,-37.7 8.5,-56.7 163.5,-56.7 163.5,-37.7 8.5,-37.7"/>
<polygon fill="none" stroke="#000000" points="8.5,-37.7 8.5,-56.7 163.5,-56.7 163.5,-37.7 8.5,-37.7"/>
<polygon fill="#ffffff" stroke="transparent" points="9.5,-38.7 9.5,-55.7 63.5,-55.7 63.5,-38.7 9.5,-38.7"/>
<text text-anchor="start" x="11.5" y="-43.8" font-family="Helvetica,sans-Serif" font-size="11.00" fill="#000000">&lt; 1</text>
<polygon fill="#ffffff" stroke="transparent" points="63.5,-38.7 63.5,-55.7 108.5,-55.7 108.5,-38.7 63.5,-38.7"/>
<text text-anchor="start" x="82.9431" y="-43.8" font-family="Helvetica,sans-Serif" font-size="11.00" fill="#000000"> &#160;</text>
<polygon fill="#ffffff" stroke="transparent" points="108.5,-38.7 108.5,-55.7 162.5,-55.7 162.5,-38.7 108.5,-38.7"/>
<text text-anchor="start" x="144.9053" y="-43.8" font-family="Helvetica,sans-Serif" font-size="11.00" fill="#000000">1 &gt;</text>
<polygon fill="#000000" stroke="#000000" points="63.5,-38.7 63.5,-55.7 63.5,-55.7 63.5,-38.7 63.5,-38.7"/>
<polygon fill="#000000" stroke="#000000" points="108.5,-38.7 108.5,-55.7 108.5,-55.7 108.5,-38.7 108.5,-38.7"/>
</a>
</g>
</g>
<!-- case_note_amendment&#45;&gt;case_note -->
<g id="edge1" class="edge">
<title>case_note_amendment:w&#45;&gt;case_note:e</title>
<path fill="none" stroke="#000000" d="M199.776,-262.7C187.7815,-262.7 180.3229,-262.7 163.5,-262.7"/>
<polygon fill="#000000" stroke="#000000" points="206.5,-262.7001 214.5,-266.3 210.5,-262.7 214.5,-262.7 214.5,-262.7 214.5,-262.7 210.5,-262.7 214.5,-259.1 206.5,-262.7001 206.5,-262.7001"/>
<ellipse fill="none" stroke="#000000" cx="203.3" cy="-262.7001" rx="3.2" ry="3.2"/>
</g>
</g>
</svg>
