<?xml version="1.0" encoding="UTF-8" standalone="no"?>
<!DOCTYPE svg PUBLIC "-//W3C//DTD SVG 1.1//EN"
 "http://www.w3.org/Graphics/SVG/1.1/DTD/svg11.dtd">
<!-- Generated by graphviz version 2.40.1 (20161225.0304)
 -->
<!-- Title: twoDegreesRelationshipsDiagramImplied Pages: 1 -->
<svg width="920pt" height="404pt"
 viewBox="0.00 0.00 920.00 404.20" xmlns="http://www.w3.org/2000/svg" xmlns:xlink="http://www.w3.org/1999/xlink">
<g id="graph0" class="graph" transform="scale(1 1) rotate(0) translate(4 400.2)">
<title>twoDegreesRelationshipsDiagramImplied</title>
<polygon fill="#ffffff" stroke="transparent" points="-4,4 -4,-400.2 916,-400.2 916,4 -4,4"/>
<text text-anchor="middle" x="72.4936" y="-7.3" font-family="Helvetica,sans-Serif" font-size="11.00" fill="#000000">Generated by SchemaSpy</text>
<!-- case_note -->
<g id="node1" class="node">
<title>case_note</title>
<g id="a_node1"><a xlink:href="../../tables/case_note.html" xlink:title="case_note" target="_top">
<polygon fill="#ffffff" stroke="transparent" points="420,-38.2 420,-392.2 663,-392.2 663,-38.2 420,-38.2"/>
<polygon fill="#f5f5f5" stroke="transparent" points="422.5,-367.2 422.5,-390.2 661.5,-390.2 661.5,-367.2 422.5,-367.2"/>
<polygon fill="none" stroke="#000000" points="422.5,-367.2 422.5,-390.2 661.5,-390.2 661.5,-367.2 422.5,-367.2"/>
<text text-anchor="start" x="427.5" y="-375.8" font-family="Helvetica,sans-Serif" font-weight="bold" font-size="11.00" fill="#000000">case_note</text>
<text text-anchor="start" x="626.5437" y="-375.3" font-family="Helvetica,sans-Serif" font-size="11.00" fill="#000000">[table]</text>
<polygon fill="none" stroke="#000000" points="422.5,-345.2 422.5,-367.2 567.5,-367.2 567.5,-345.2 422.5,-345.2"/>
<image xlink:href="../../images/primaryKeys.png" width="11px" height="12px" preserveAspectRatio="xMinYMin meet" x="427.5" y="-362.2"/>
<text text-anchor="start" x="442.5" y="-352.3" font-family="Helvetica,sans-Serif" font-size="11.00" fill="#000000">id</text>
<polygon fill="none" stroke="#000000" points="567.5,-345.2 567.5,-367.2 661.5,-367.2 661.5,-345.2 567.5,-345.2"/>
<text text-anchor="start" x="570.4758" y="-352.9" font-family="Helvetica,sans-Serif" font-size="11.00" fill="#000000">uuid[2147483647]</text>
<polygon fill="#ffffff" stroke="transparent" points="422.5,-323.2 422.5,-345.2 567.5,-345.2 567.5,-323.2 422.5,-323.2"/>
<polygon fill="none" stroke="#000000" points="422.5,-323.2 422.5,-345.2 567.5,-345.2 567.5,-323.2 422.5,-323.2"/>
<text text-anchor="start" x="442.5" y="-330.3" font-family="Helvetica,sans-Serif" font-size="11.00" fill="#000000">person_identifier</text>
<polygon fill="none" stroke="#000000" points="567.5,-323.2 567.5,-345.2 661.5,-345.2 661.5,-323.2 567.5,-323.2"/>
<text text-anchor="start" x="570.5" y="-330.9" font-family="Helvetica,sans-Serif" font-size="11.00" fill="#000000">varchar[12]</text>
<polygon fill="#ffffff" stroke="transparent" points="422.5,-301.2 422.5,-323.2 567.5,-323.2 567.5,-301.2 422.5,-301.2"/>
<polygon fill="none" stroke="#000000" points="422.5,-301.2 422.5,-323.2 567.5,-323.2 567.5,-301.2 422.5,-301.2"/>
<text text-anchor="start" x="442.5" y="-308.3" font-family="Helvetica,sans-Serif" font-size="11.00" fill="#000000">location_id</text>
<polygon fill="none" stroke="#000000" points="567.5,-301.2 567.5,-323.2 661.5,-323.2 661.5,-301.2 567.5,-301.2"/>
<text text-anchor="start" x="570.5" y="-308.9" font-family="Helvetica,sans-Serif" font-size="11.00" fill="#000000">varchar[12]</text>
<polygon fill="#ffffff" stroke="transparent" points="422.5,-279.2 422.5,-301.2 567.5,-301.2 567.5,-279.2 422.5,-279.2"/>
<polygon fill="none" stroke="#000000" points="422.5,-279.2 422.5,-301.2 567.5,-301.2 567.5,-279.2 422.5,-279.2"/>
<text text-anchor="start" x="442.5" y="-286.3" font-family="Helvetica,sans-Serif" font-size="11.00" fill="#000000">author_username</text>
<polygon fill="none" stroke="#000000" points="567.5,-279.2 567.5,-301.2 661.5,-301.2 661.5,-279.2 567.5,-279.2"/>
<text text-anchor="start" x="570.5" y="-286.9" font-family="Helvetica,sans-Serif" font-size="11.00" fill="#000000">varchar[64]</text>
<polygon fill="none" stroke="#000000" points="422.5,-257.2 422.5,-279.2 567.5,-279.2 567.5,-257.2 422.5,-257.2"/>
<text text-anchor="start" x="442.5" y="-264.3" font-family="Helvetica,sans-Serif" font-size="11.00" fill="#000000">author_name</text>
<polygon fill="none" stroke="#000000" points="567.5,-257.2 567.5,-279.2 661.5,-279.2 661.5,-257.2 567.5,-257.2"/>
<text text-anchor="start" x="570.5" y="-264.9" font-family="Helvetica,sans-Serif" font-size="11.00" fill="#000000">varchar[80]</text>
<polygon fill="#ffffff" stroke="transparent" points="422.5,-235.2 422.5,-257.2 567.5,-257.2 567.5,-235.2 422.5,-235.2"/>
<polygon fill="none" stroke="#000000" points="422.5,-235.2 422.5,-257.2 567.5,-257.2 567.5,-235.2 422.5,-235.2"/>
<image xlink:href="../../images/foreignKeys.png" width="11px" height="12px" preserveAspectRatio="xMinYMin meet" x="427.5" y="-252.2"/>
<text text-anchor="start" x="442.5" y="-242.3" font-family="Helvetica,sans-Serif" font-size="11.00" fill="#000000">sub_type_id</text>
<polygon fill="none" stroke="#000000" points="567.5,-235.2 567.5,-257.2 661.5,-257.2 661.5,-235.2 567.5,-235.2"/>
<text text-anchor="start" x="570.5" y="-242.9" font-family="Helvetica,sans-Serif" font-size="11.00" fill="#000000">int4[10]</text>
<polygon fill="#ffffff" stroke="transparent" points="422.5,-213.2 422.5,-235.2 567.5,-235.2 567.5,-213.2 422.5,-213.2"/>
<polygon fill="none" stroke="#000000" points="422.5,-213.2 422.5,-235.2 567.5,-235.2 567.5,-213.2 422.5,-213.2"/>
<text text-anchor="start" x="442.5" y="-220.3" font-family="Helvetica,sans-Serif" font-size="11.00" fill="#000000">occurred_at</text>
<polygon fill="none" stroke="#000000" points="567.5,-213.2 567.5,-235.2 661.5,-235.2 661.5,-213.2 567.5,-213.2"/>
<text text-anchor="start" x="570.5" y="-220.9" font-family="Helvetica,sans-Serif" font-size="11.00" fill="#000000">timestamp[29,6]</text>
<polygon fill="none" stroke="#000000" points="422.5,-191.2 422.5,-213.2 567.5,-213.2 567.5,-191.2 422.5,-191.2"/>
<text text-anchor="start" x="442.5" y="-198.3" font-family="Helvetica,sans-Serif" font-size="11.00" fill="#000000">note_text</text>
<polygon fill="none" stroke="#000000" points="567.5,-191.2 567.5,-213.2 661.5,-213.2 661.5,-191.2 567.5,-191.2"/>
<text text-anchor="start" x="570.5" y="-198.9" font-family="Helvetica,sans-Serif" font-size="11.00" fill="#000000">text[2147483647]</text>
<polygon fill="#ffffff" stroke="transparent" points="422.5,-169.2 422.5,-191.2 567.5,-191.2 567.5,-169.2 422.5,-169.2"/>
<polygon fill="none" stroke="#000000" points="422.5,-169.2 422.5,-191.2 567.5,-191.2 567.5,-169.2 422.5,-169.2"/>
<text text-anchor="start" x="442.5" y="-176.3" font-family="Helvetica,sans-Serif" font-size="11.00" fill="#000000">created_at</text>
<polygon fill="none" stroke="#000000" points="567.5,-169.2 567.5,-191.2 661.5,-191.2 661.5,-169.2 567.5,-169.2"/>
<text text-anchor="start" x="570.5" y="-176.9" font-family="Helvetica,sans-Serif" font-size="11.00" fill="#000000">timestamp[29,6]</text>
<polygon fill="none" stroke="#000000" points="422.5,-147.2 422.5,-169.2 567.5,-169.2 567.5,-147.2 422.5,-147.2"/>
<text text-anchor="start" x="442.5" y="-154.3" font-family="Helvetica,sans-Serif" font-size="11.00" fill="#000000">created_by</text>
<polygon fill="none" stroke="#000000" points="567.5,-147.2 567.5,-169.2 661.5,-169.2 661.5,-147.2 567.5,-147.2"/>
<text text-anchor="start" x="570.5" y="-154.9" font-family="Helvetica,sans-Serif" font-size="11.00" fill="#000000">varchar[64]</text>
<polygon fill="#ffffff" stroke="transparent" points="422.5,-125.2 422.5,-147.2 567.5,-147.2 567.5,-125.2 422.5,-125.2"/>
<polygon fill="none" stroke="#000000" points="422.5,-125.2 422.5,-147.2 567.5,-147.2 567.5,-125.2 422.5,-125.2"/>
<text text-anchor="start" x="442.5" y="-132.3" font-family="Helvetica,sans-Serif" font-size="11.00" fill="#000000">legacy_id</text>
<polygon fill="none" stroke="#000000" points="567.5,-125.2 567.5,-147.2 661.5,-147.2 661.5,-125.2 567.5,-125.2"/>
<text text-anchor="start" x="570.5" y="-132.9" font-family="Helvetica,sans-Serif" font-size="11.00" fill="#000000">bigserial[19]</text>
<polygon fill="#ffffff" stroke="transparent" points="422.5,-103.2 422.5,-125.2 567.5,-125.2 567.5,-103.2 422.5,-103.2"/>
<polygon fill="none" stroke="#000000" points="422.5,-103.2 422.5,-125.2 567.5,-125.2 567.5,-103.2 422.5,-103.2"/>
<text text-anchor="start" x="442.5" y="-110.3" font-family="Helvetica,sans-Serif" font-size="11.00" fill="#000000">author_user_id</text>
<polygon fill="none" stroke="#000000" points="567.5,-103.2 567.5,-125.2 661.5,-125.2 661.5,-103.2 567.5,-103.2"/>
<text text-anchor="start" x="570.5" y="-110.9" font-family="Helvetica,sans-Serif" font-size="11.00" fill="#000000">varchar[64]</text>
<polygon fill="none" stroke="#000000" points="422.5,-81.2 422.5,-103.2 567.5,-103.2 567.5,-81.2 422.5,-81.2"/>
<text text-anchor="start" x="442.5" y="-88.3" font-family="Helvetica,sans-Serif" font-size="11.00" fill="#000000">system_generated</text>
<polygon fill="none" stroke="#000000" points="567.5,-81.2 567.5,-103.2 661.5,-103.2 661.5,-81.2 567.5,-81.2"/>
<text text-anchor="start" x="570.5" y="-88.9" font-family="Helvetica,sans-Serif" font-size="11.00" fill="#000000">bool[1]</text>
<polygon fill="none" stroke="#000000" points="422.5,-59.2 422.5,-81.2 567.5,-81.2 567.5,-59.2 422.5,-59.2"/>
<text text-anchor="start" x="442.5" y="-66.3" font-family="Helvetica,sans-Serif" font-size="11.00" fill="#000000">system</text>
<polygon fill="none" stroke="#000000" points="567.5,-59.2 567.5,-81.2 661.5,-81.2 661.5,-59.2 567.5,-59.2"/>
<text text-anchor="start" x="570.5" y="-66.9" font-family="Helvetica,sans-Serif" font-size="11.00" fill="#000000">varchar[6]</text>
<polygon fill="#ffffff" stroke="transparent" points="422.5,-40.2 422.5,-59.2 499.5,-59.2 499.5,-40.2 422.5,-40.2"/>
<polygon fill="none" stroke="#000000" points="422.5,-40.2 422.5,-59.2 499.5,-59.2 499.5,-40.2 422.5,-40.2"/>
<text text-anchor="start" x="425.5" y="-46.3" font-family="Helvetica,sans-Serif" font-size="11.00" fill="#000000">&lt; 1</text>
<polygon fill="#ffffff" stroke="transparent" points="499.5,-40.2 499.5,-59.2 567.5,-59.2 567.5,-40.2 499.5,-40.2"/>
<polygon fill="none" stroke="#000000" points="499.5,-40.2 499.5,-59.2 567.5,-59.2 567.5,-40.2 499.5,-40.2"/>
<text text-anchor="start" x="558.3862" y="-46.3" font-family="Helvetica,sans-Serif" font-size="11.00" fill="#000000"> &#160;</text>
<polygon fill="#ffffff" stroke="transparent" points="567.5,-40.2 567.5,-59.2 661.5,-59.2 661.5,-40.2 567.5,-40.2"/>
<polygon fill="none" stroke="#000000" points="567.5,-40.2 567.5,-59.2 661.5,-59.2 661.5,-40.2 567.5,-40.2"/>
<text text-anchor="start" x="642.9053" y="-46.3" font-family="Helvetica,sans-Serif" font-size="11.00" fill="#000000">1 &gt;</text>
<polygon fill="none" stroke="#000000" stroke-width="2" points="421,-39.2 421,-391.2 662,-391.2 662,-39.2 421,-39.2"/>
</a>
</g>
</g>
<!-- case_note_sub_type -->
<g id="node2" class="node">
<title>case_note_sub_type</title>
<g id="a_node2"><a xlink:href="../../tables/case_note_sub_type.html" xlink:title="case_note_sub_type" target="_top">
<polygon fill="#ffffff" stroke="transparent" points="199,-131.7 199,-280.7 371,-280.7 371,-131.7 199,-131.7"/>
<polygon fill="#f5f5f5" stroke="transparent" points="199,-257.2 199,-280.2 371,-280.2 371,-257.2 199,-257.2"/>
<polygon fill="none" stroke="#000000" points="199,-257.2 199,-280.2 371,-280.2 371,-257.2 199,-257.2"/>
<text text-anchor="start" x="204" y="-265.8" font-family="Helvetica,sans-Serif" font-weight="bold" font-size="11.00" fill="#000000">case_note_sub_type</text>
<text text-anchor="start" x="336.5219" y="-265.3" font-family="Helvetica,sans-Serif" font-size="11.00" fill="#000000">[table]</text>
<polygon fill="none" stroke="#000000" points="199,-235.2 199,-257.2 371,-257.2 371,-235.2 199,-235.2"/>
<image xlink:href="../../images/primaryKeys.png" width="11px" height="12px" preserveAspectRatio="xMinYMin meet" x="204" y="-252.2"/>
<text text-anchor="start" x="227" y="-242.3" font-family="Helvetica,sans-Serif" font-size="11.00" fill="#000000">id</text>
<polygon fill="#ffffff" stroke="transparent" points="199,-213.2 199,-235.2 371,-235.2 371,-213.2 199,-213.2"/>
<polygon fill="none" stroke="#000000" points="199,-213.2 199,-235.2 371,-235.2 371,-213.2 199,-213.2"/>
<image xlink:href="../../images/foreignKeys.png" width="11px" height="12px" preserveAspectRatio="xMinYMin meet" x="204" y="-230.2"/>
<text text-anchor="start" x="227" y="-220.3" font-family="Helvetica,sans-Serif" font-size="11.00" fill="#000000">type_code</text>
<polygon fill="#ffffff" stroke="transparent" points="199,-191.2 199,-213.2 371,-213.2 371,-191.2 199,-191.2"/>
<polygon fill="none" stroke="#000000" points="199,-191.2 199,-213.2 371,-213.2 371,-191.2 199,-191.2"/>
<image xlink:href="../../images/foreignKeys.png" width="11px" height="12px" preserveAspectRatio="xMinYMin meet" x="204" y="-208.2"/>
<text text-anchor="start" x="227" y="-198.3" font-family="Helvetica,sans-Serif" font-size="11.00" fill="#000000">code</text>
<polygon fill="#ffffff" stroke="transparent" points="199,-169.2 199,-191.2 371,-191.2 371,-169.2 199,-169.2"/>
<polygon fill="none" stroke="#000000" points="199,-169.2 199,-191.2 371,-191.2 371,-169.2 199,-169.2"/>
<text text-anchor="start" x="227" y="-176.3" font-family="Helvetica,sans-Serif" font-size="11.00" fill="#000000">sync_to_nomis</text>
<polygon fill="none" stroke="#000000" points="199,-150.2 199,-169.2 371,-169.2 371,-150.2 199,-150.2"/>
<text text-anchor="start" x="202" y="-156.3" font-family="Helvetica,sans-Serif" font-size="11.00" fill="#000000">...</text>
<polygon fill="#ffffff" stroke="transparent" points="199,-131.2 199,-150.2 260,-150.2 260,-131.2 199,-131.2"/>
<polygon fill="none" stroke="#000000" points="199,-131.2 199,-150.2 260,-150.2 260,-131.2 199,-131.2"/>
<text text-anchor="start" x="202" y="-137.3" font-family="Helvetica,sans-Serif" font-size="11.00" fill="#000000">&lt; 2</text>
<polygon fill="#ffffff" stroke="transparent" points="260,-131.2 260,-150.2 330,-150.2 330,-131.2 260,-131.2"/>
<polygon fill="none" stroke="#000000" points="260,-131.2 260,-150.2 330,-150.2 330,-131.2 260,-131.2"/>
<text text-anchor="start" x="282.3807" y="-137.3" font-family="Helvetica,sans-Serif" font-size="11.00" fill="#000000">386 rows</text>
<polygon fill="#ffffff" stroke="transparent" points="330,-131.2 330,-150.2 371,-150.2 371,-131.2 330,-131.2"/>
<polygon fill="none" stroke="#000000" points="330,-131.2 330,-150.2 371,-150.2 371,-131.2 330,-131.2"/>
<text text-anchor="start" x="352.4053" y="-137.3" font-family="Helvetica,sans-Serif" font-size="11.00" fill="#000000">1 &gt;</text>
</a>
</g>
</g>
<!-- case_note&#45;&gt;case_note_sub_type -->
<g id="edge1" class="edge">
<title>case_note:w&#45;&gt;case_note_sub_type:e</title>
<path fill="none" stroke="#000000" d="M408.0156,-246.2C395.6771,-246.2 388.1667,-246.2 371,-246.2"/>
<polygon fill="#000000" stroke="#000000" points="414.5,-246.2001 422.5,-249.8 418.5,-246.2 422.5,-246.2 422.5,-246.2 422.5,-246.2 418.5,-246.2 422.5,-242.6 414.5,-246.2001 414.5,-246.2001"/>
<ellipse fill="none" stroke="#000000" cx="411.3" cy="-246.2001" rx="3.2" ry="3.2"/>
</g>
<!-- case_note_type -->
<g id="node4" class="node">
<title>case_note_type</title>
<g id="a_node4"><a xlink:href="../../tables/case_note_type.html" xlink:title="case_note_type" target="_top">
<polygon fill="#ffffff" stroke="transparent" points="8,-185.7 8,-246.7 150,-246.7 150,-185.7 8,-185.7"/>
<polygon fill="#f5f5f5" stroke="transparent" points="8,-223.2 8,-246.2 150,-246.2 150,-223.2 8,-223.2"/>
<polygon fill="none" stroke="#000000" points="8,-223.2 8,-246.2 150,-246.2 150,-223.2 8,-223.2"/>
<text text-anchor="start" x="13" y="-231.8" font-family="Helvetica,sans-Serif" font-weight="bold" font-size="11.00" fill="#000000">case_note_type</text>
<text text-anchor="start" x="115.5219" y="-231.3" font-family="Helvetica,sans-Serif" font-size="11.00" fill="#000000">[table]</text>
<polygon fill="none" stroke="#000000" points="8,-204.2 8,-223.2 150,-223.2 150,-204.2 8,-204.2"/>
<text text-anchor="start" x="11" y="-210.3" font-family="Helvetica,sans-Serif" font-size="11.00" fill="#000000">...</text>
<polygon fill="#ffffff" stroke="transparent" points="8,-185.2 8,-204.2 68,-204.2 68,-185.2 8,-185.2"/>
<polygon fill="none" stroke="#000000" points="8,-185.2 8,-204.2 68,-204.2 68,-185.2 8,-185.2"/>
<text text-anchor="start" x="11" y="-191.3" font-family="Helvetica,sans-Serif" font-size="11.00" fill="#000000"> &#160;</text>
<polygon fill="#ffffff" stroke="transparent" points="68,-185.2 68,-204.2 104,-204.2 104,-185.2 68,-185.2"/>
<polygon fill="none" stroke="#000000" points="68,-185.2 68,-204.2 104,-204.2 104,-185.2 68,-185.2"/>
<text text-anchor="start" x="94.8862" y="-191.3" font-family="Helvetica,sans-Serif" font-size="11.00" fill="#000000"> &#160;</text>
<polygon fill="#ffffff" stroke="transparent" points="104,-185.2 104,-204.2 150,-204.2 150,-185.2 104,-185.2"/>
<polygon fill="none" stroke="#000000" points="104,-185.2 104,-204.2 150,-204.2 150,-185.2 104,-185.2"/>
<text text-anchor="start" x="131.4053" y="-191.3" font-family="Helvetica,sans-Serif" font-size="11.00" fill="#000000">2 &gt;</text>
</a>
</g>
</g>
<!-- case_note_sub_type&#45;&gt;case_note_type -->
<g id="edge3" class="edge">
<title>case_note_sub_type:w&#45;&gt;case_note_type:e</title>
<path fill="none" stroke="#000000" stroke-dasharray="5,2" d="M184.7027,-204.0164C173.2382,-207.1407 166.5655,-213.2 150,-213.2"/>
<polygon fill="#000000" stroke="#000000" points="191.0638,-203.2083 199.4537,-205.7713 195.0319,-202.7042 199,-202.2 199,-202.2 199,-202.2 195.0319,-202.7042 198.5463,-198.6287 191.0638,-203.2083 191.0638,-203.2083"/>
<ellipse fill="none" stroke="#000000" cx="187.8893" cy="-203.6116" rx="3.2" ry="3.2"/>
</g>
<!-- case_note_sub_type&#45;&gt;case_note_type -->
<g id="edge4" class="edge">
<title>case_note_sub_type:w&#45;&gt;case_note_type:e</title>
<path fill="none" stroke="#000000" d="M184.7027,-222.3836C173.2382,-219.2593 166.5655,-213.2 150,-213.2"/>
<polygon fill="#000000" stroke="#000000" points="191.0638,-223.1917 198.5463,-227.7713 195.0319,-223.6958 199,-224.2 199,-224.2 199,-224.2 195.0319,-223.6958 199.4537,-220.6287 191.0638,-223.1917 191.0638,-223.1917"/>
<ellipse fill="none" stroke="#000000" cx="187.8893" cy="-222.7884" rx="3.2" ry="3.2"/>
</g>
<!-- case_note_amendment -->
<g id="node3" class="node">
<title>case_note_amendment</title>
<g id="a_node3"><a xlink:href="../../tables/case_note_amendment.html" xlink:title="case_note_amendment" target="_top">
<polygon fill="#ffffff" stroke="transparent" points="712,-263.7 712,-390.7 904,-390.7 904,-263.7 712,-263.7"/>
<polygon fill="#f5f5f5" stroke="transparent" points="712,-367.2 712,-390.2 904,-390.2 904,-367.2 712,-367.2"/>
<polygon fill="none" stroke="#000000" points="712,-367.2 712,-390.2 904,-390.2 904,-367.2 712,-367.2"/>
<text text-anchor="start" x="717" y="-375.8" font-family="Helvetica,sans-Serif" font-weight="bold" font-size="11.00" fill="#000000">case_note_amendment</text>
<text text-anchor="start" x="869.5219" y="-375.3" font-family="Helvetica,sans-Serif" font-size="11.00" fill="#000000">[table]</text>
<polygon fill="#ffffff" stroke="transparent" points="712,-345.2 712,-367.2 904,-367.2 904,-345.2 712,-345.2"/>
<polygon fill="none" stroke="#000000" points="712,-345.2 712,-367.2 904,-367.2 904,-345.2 712,-345.2"/>
<image xlink:href="../../images/foreignKeys.png" width="11px" height="12px" preserveAspectRatio="xMinYMin meet" x="717" y="-362.2"/>
<text text-anchor="start" x="741" y="-352.3" font-family="Helvetica,sans-Serif" font-size="11.00" fill="#000000">case_note_id</text>
<polygon fill="#ffffff" stroke="transparent" points="712,-323.2 712,-345.2 904,-345.2 904,-323.2 712,-323.2"/>
<polygon fill="none" stroke="#000000" points="712,-323.2 712,-345.2 904,-345.2 904,-323.2 712,-323.2"/>
<text text-anchor="start" x="741" y="-330.3" font-family="Helvetica,sans-Serif" font-size="11.00" fill="#000000">created_at</text>
<polygon fill="none" stroke="#000000" points="712,-301.2 712,-323.2 904,-323.2 904,-301.2 712,-301.2"/>
<image xlink:href="../../images/primaryKeys.png" width="11px" height="12px" preserveAspectRatio="xMinYMin meet" x="717" y="-318.2"/>
<text text-anchor="start" x="741" y="-308.3" font-family="Helvetica,sans-Serif" font-size="11.00" fill="#000000">id</text>
<polygon fill="none" stroke="#000000" points="712,-282.2 712,-301.2 904,-301.2 904,-282.2 712,-282.2"/>
<text text-anchor="start" x="715" y="-288.3" font-family="Helvetica,sans-Serif" font-size="11.00" fill="#000000">...</text>
<polygon fill="#ffffff" stroke="transparent" points="712,-263.2 712,-282.2 806,-282.2 806,-263.2 712,-263.2"/>
<polygon fill="none" stroke="#000000" points="712,-263.2 712,-282.2 806,-282.2 806,-263.2 712,-263.2"/>
<text text-anchor="start" x="715" y="-269.3" font-family="Helvetica,sans-Serif" font-size="11.00" fill="#000000">&lt; 1</text>
<polygon fill="#ffffff" stroke="transparent" points="806,-263.2 806,-282.2 855,-282.2 855,-263.2 806,-263.2"/>
<polygon fill="none" stroke="#000000" points="806,-263.2 806,-282.2 855,-282.2 855,-263.2 806,-263.2"/>
<text text-anchor="start" x="845.8862" y="-269.3" font-family="Helvetica,sans-Serif" font-size="11.00" fill="#000000"> &#160;</text>
<polygon fill="#ffffff" stroke="transparent" points="855,-263.2 855,-282.2 904,-282.2 904,-263.2 855,-263.2"/>
<polygon fill="none" stroke="#000000" points="855,-263.2 855,-282.2 904,-282.2 904,-263.2 855,-263.2"/>
<text text-anchor="start" x="894.8862" y="-269.3" font-family="Helvetica,sans-Serif" font-size="11.00" fill="#000000"> &#160;</text>
</a>
</g>
</g>
<!-- case_note_amendment&#45;&gt;case_note -->
<g id="edge2" class="edge">
<title>case_note_amendment:w&#45;&gt;case_note:e</title>
<path fill="none" stroke="#000000" d="M697.4203,-356.2C685.5435,-356.2 678.158,-356.2 661.5,-356.2"/>
<polygon fill="#000000" stroke="#000000" points="704,-356.2001 712,-359.8 708,-356.2 712,-356.2 712,-356.2 712,-356.2 708,-356.2 712,-352.6 704,-356.2001 704,-356.2001"/>
<ellipse fill="none" stroke="#000000" cx="700.8" cy="-356.2001" rx="3.2" ry="3.2"/>
</g>
</g>
</svg>
