<?xml version="1.0" encoding="UTF-8" standalone="no"?>
<!DOCTYPE svg PUBLIC "-//W3C//DTD SVG 1.1//EN"
 "http://www.w3.org/Graphics/SVG/1.1/DTD/svg11.dtd">
<!-- Generated by graphviz version 2.40.1 (20161225.0304)
 -->
<!-- Title: oneDegreeRelationshipsDiagramImplied Pages: 1 -->
<svg width="729pt" height="404pt"
 viewBox="0.00 0.00 729.00 404.20" xmlns="http://www.w3.org/2000/svg" xmlns:xlink="http://www.w3.org/1999/xlink">
<g id="graph0" class="graph" transform="scale(1 1) rotate(0) translate(4 400.2)">
<title>oneDegreeRelationshipsDiagramImplied</title>
<polygon fill="#ffffff" stroke="transparent" points="-4,4 -4,-400.2 725,-400.2 725,4 -4,4"/>
<text text-anchor="middle" x="72.4936" y="-7.3" font-family="Helvetica,sans-Serif" font-size="11.00" fill="#000000">Generated by SchemaSpy</text>
<!-- case_note -->
<g id="node1" class="node">
<title>case_note</title>
<g id="a_node1"><a xlink:href="../../tables/case_note.html" xlink:title="case_note" target="_top">
<polygon fill="#ffffff" stroke="transparent" points="229,-38.2 229,-392.2 472,-392.2 472,-38.2 229,-38.2"/>
<polygon fill="#f5f5f5" stroke="transparent" points="231.5,-367.2 231.5,-390.2 470.5,-390.2 470.5,-367.2 231.5,-367.2"/>
<polygon fill="none" stroke="#000000" points="231.5,-367.2 231.5,-390.2 470.5,-390.2 470.5,-367.2 231.5,-367.2"/>
<text text-anchor="start" x="236.5" y="-375.8" font-family="Helvetica,sans-Serif" font-weight="bold" font-size="11.00" fill="#000000">case_note</text>
<text text-anchor="start" x="435.5437" y="-375.3" font-family="Helvetica,sans-Serif" font-size="11.00" fill="#000000">[table]</text>
<polygon fill="none" stroke="#000000" points="231.5,-345.2 231.5,-367.2 376.5,-367.2 376.5,-345.2 231.5,-345.2"/>
<image xlink:href="../../images/primaryKeys.png" width="11px" height="12px" preserveAspectRatio="xMinYMin meet" x="236.5" y="-362.2"/>
<text text-anchor="start" x="251.5" y="-352.3" font-family="Helvetica,sans-Serif" font-size="11.00" fill="#000000">id</text>
<polygon fill="none" stroke="#000000" points="376.5,-345.2 376.5,-367.2 470.5,-367.2 470.5,-345.2 376.5,-345.2"/>
<text text-anchor="start" x="379.4758" y="-352.9" font-family="Helvetica,sans-Serif" font-size="11.00" fill="#000000">uuid[2147483647]</text>
<polygon fill="#ffffff" stroke="transparent" points="231.5,-323.2 231.5,-345.2 376.5,-345.2 376.5,-323.2 231.5,-323.2"/>
<polygon fill="none" stroke="#000000" points="231.5,-323.2 231.5,-345.2 376.5,-345.2 376.5,-323.2 231.5,-323.2"/>
<text text-anchor="start" x="251.5" y="-330.3" font-family="Helvetica,sans-Serif" font-size="11.00" fill="#000000">person_identifier</text>
<polygon fill="none" stroke="#000000" points="376.5,-323.2 376.5,-345.2 470.5,-345.2 470.5,-323.2 376.5,-323.2"/>
<text text-anchor="start" x="379.5" y="-330.9" font-family="Helvetica,sans-Serif" font-size="11.00" fill="#000000">varchar[12]</text>
<polygon fill="#ffffff" stroke="transparent" points="231.5,-301.2 231.5,-323.2 376.5,-323.2 376.5,-301.2 231.5,-301.2"/>
<polygon fill="none" stroke="#000000" points="231.5,-301.2 231.5,-323.2 376.5,-323.2 376.5,-301.2 231.5,-301.2"/>
<text text-anchor="start" x="251.5" y="-308.3" font-family="Helvetica,sans-Serif" font-size="11.00" fill="#000000">location_id</text>
<polygon fill="none" stroke="#000000" points="376.5,-301.2 376.5,-323.2 470.5,-323.2 470.5,-301.2 376.5,-301.2"/>
<text text-anchor="start" x="379.5" y="-308.9" font-family="Helvetica,sans-Serif" font-size="11.00" fill="#000000">varchar[12]</text>
<polygon fill="#ffffff" stroke="transparent" points="231.5,-279.2 231.5,-301.2 376.5,-301.2 376.5,-279.2 231.5,-279.2"/>
<polygon fill="none" stroke="#000000" points="231.5,-279.2 231.5,-301.2 376.5,-301.2 376.5,-279.2 231.5,-279.2"/>
<text text-anchor="start" x="251.5" y="-286.3" font-family="Helvetica,sans-Serif" font-size="11.00" fill="#000000">author_username</text>
<polygon fill="none" stroke="#000000" points="376.5,-279.2 376.5,-301.2 470.5,-301.2 470.5,-279.2 376.5,-279.2"/>
<text text-anchor="start" x="379.5" y="-286.9" font-family="Helvetica,sans-Serif" font-size="11.00" fill="#000000">varchar[64]</text>
<polygon fill="none" stroke="#000000" points="231.5,-257.2 231.5,-279.2 376.5,-279.2 376.5,-257.2 231.5,-257.2"/>
<text text-anchor="start" x="251.5" y="-264.3" font-family="Helvetica,sans-Serif" font-size="11.00" fill="#000000">author_name</text>
<polygon fill="none" stroke="#000000" points="376.5,-257.2 376.5,-279.2 470.5,-279.2 470.5,-257.2 376.5,-257.2"/>
<text text-anchor="start" x="379.5" y="-264.9" font-family="Helvetica,sans-Serif" font-size="11.00" fill="#000000">varchar[80]</text>
<polygon fill="#ffffff" stroke="transparent" points="231.5,-235.2 231.5,-257.2 376.5,-257.2 376.5,-235.2 231.5,-235.2"/>
<polygon fill="none" stroke="#000000" points="231.5,-235.2 231.5,-257.2 376.5,-257.2 376.5,-235.2 231.5,-235.2"/>
<image xlink:href="../../images/foreignKeys.png" width="11px" height="12px" preserveAspectRatio="xMinYMin meet" x="236.5" y="-252.2"/>
<text text-anchor="start" x="251.5" y="-242.3" font-family="Helvetica,sans-Serif" font-size="11.00" fill="#000000">sub_type_id</text>
<polygon fill="none" stroke="#000000" points="376.5,-235.2 376.5,-257.2 470.5,-257.2 470.5,-235.2 376.5,-235.2"/>
<text text-anchor="start" x="379.5" y="-242.9" font-family="Helvetica,sans-Serif" font-size="11.00" fill="#000000">int4[10]</text>
<polygon fill="#ffffff" stroke="transparent" points="231.5,-213.2 231.5,-235.2 376.5,-235.2 376.5,-213.2 231.5,-213.2"/>
<polygon fill="none" stroke="#000000" points="231.5,-213.2 231.5,-235.2 376.5,-235.2 376.5,-213.2 231.5,-213.2"/>
<text text-anchor="start" x="251.5" y="-220.3" font-family="Helvetica,sans-Serif" font-size="11.00" fill="#000000">occurred_at</text>
<polygon fill="none" stroke="#000000" points="376.5,-213.2 376.5,-235.2 470.5,-235.2 470.5,-213.2 376.5,-213.2"/>
<text text-anchor="start" x="379.5" y="-220.9" font-family="Helvetica,sans-Serif" font-size="11.00" fill="#000000">timestamp[29,6]</text>
<polygon fill="none" stroke="#000000" points="231.5,-191.2 231.5,-213.2 376.5,-213.2 376.5,-191.2 231.5,-191.2"/>
<text text-anchor="start" x="251.5" y="-198.3" font-family="Helvetica,sans-Serif" font-size="11.00" fill="#000000">note_text</text>
<polygon fill="none" stroke="#000000" points="376.5,-191.2 376.5,-213.2 470.5,-213.2 470.5,-191.2 376.5,-191.2"/>
<text text-anchor="start" x="379.5" y="-198.9" font-family="Helvetica,sans-Serif" font-size="11.00" fill="#000000">text[2147483647]</text>
<polygon fill="#ffffff" stroke="transparent" points="231.5,-169.2 231.5,-191.2 376.5,-191.2 376.5,-169.2 231.5,-169.2"/>
<polygon fill="none" stroke="#000000" points="231.5,-169.2 231.5,-191.2 376.5,-191.2 376.5,-169.2 231.5,-169.2"/>
<text text-anchor="start" x="251.5" y="-176.3" font-family="Helvetica,sans-Serif" font-size="11.00" fill="#000000">created_at</text>
<polygon fill="none" stroke="#000000" points="376.5,-169.2 376.5,-191.2 470.5,-191.2 470.5,-169.2 376.5,-169.2"/>
<text text-anchor="start" x="379.5" y="-176.9" font-family="Helvetica,sans-Serif" font-size="11.00" fill="#000000">timestamp[29,6]</text>
<polygon fill="none" stroke="#000000" points="231.5,-147.2 231.5,-169.2 376.5,-169.2 376.5,-147.2 231.5,-147.2"/>
<text text-anchor="start" x="251.5" y="-154.3" font-family="Helvetica,sans-Serif" font-size="11.00" fill="#000000">created_by</text>
<polygon fill="none" stroke="#000000" points="376.5,-147.2 376.5,-169.2 470.5,-169.2 470.5,-147.2 376.5,-147.2"/>
<text text-anchor="start" x="379.5" y="-154.9" font-family="Helvetica,sans-Serif" font-size="11.00" fill="#000000">varchar[64]</text>
<polygon fill="#ffffff" stroke="transparent" points="231.5,-125.2 231.5,-147.2 376.5,-147.2 376.5,-125.2 231.5,-125.2"/>
<polygon fill="none" stroke="#000000" points="231.5,-125.2 231.5,-147.2 376.5,-147.2 376.5,-125.2 231.5,-125.2"/>
<text text-anchor="start" x="251.5" y="-132.3" font-family="Helvetica,sans-Serif" font-size="11.00" fill="#000000">legacy_id</text>
<polygon fill="none" stroke="#000000" points="376.5,-125.2 376.5,-147.2 470.5,-147.2 470.5,-125.2 376.5,-125.2"/>
<text text-anchor="start" x="379.5" y="-132.9" font-family="Helvetica,sans-Serif" font-size="11.00" fill="#000000">bigserial[19]</text>
<polygon fill="#ffffff" stroke="transparent" points="231.5,-103.2 231.5,-125.2 376.5,-125.2 376.5,-103.2 231.5,-103.2"/>
<polygon fill="none" stroke="#000000" points="231.5,-103.2 231.5,-125.2 376.5,-125.2 376.5,-103.2 231.5,-103.2"/>
<text text-anchor="start" x="251.5" y="-110.3" font-family="Helvetica,sans-Serif" font-size="11.00" fill="#000000">author_user_id</text>
<polygon fill="none" stroke="#000000" points="376.5,-103.2 376.5,-125.2 470.5,-125.2 470.5,-103.2 376.5,-103.2"/>
<text text-anchor="start" x="379.5" y="-110.9" font-family="Helvetica,sans-Serif" font-size="11.00" fill="#000000">varchar[64]</text>
<polygon fill="none" stroke="#000000" points="231.5,-81.2 231.5,-103.2 376.5,-103.2 376.5,-81.2 231.5,-81.2"/>
<text text-anchor="start" x="251.5" y="-88.3" font-family="Helvetica,sans-Serif" font-size="11.00" fill="#000000">system_generated</text>
<polygon fill="none" stroke="#000000" points="376.5,-81.2 376.5,-103.2 470.5,-103.2 470.5,-81.2 376.5,-81.2"/>
<text text-anchor="start" x="379.5" y="-88.9" font-family="Helvetica,sans-Serif" font-size="11.00" fill="#000000">bool[1]</text>
<polygon fill="none" stroke="#000000" points="231.5,-59.2 231.5,-81.2 376.5,-81.2 376.5,-59.2 231.5,-59.2"/>
<text text-anchor="start" x="251.5" y="-66.3" font-family="Helvetica,sans-Serif" font-size="11.00" fill="#000000">system</text>
<polygon fill="none" stroke="#000000" points="376.5,-59.2 376.5,-81.2 470.5,-81.2 470.5,-59.2 376.5,-59.2"/>
<text text-anchor="start" x="379.5" y="-66.9" font-family="Helvetica,sans-Serif" font-size="11.00" fill="#000000">varchar[6]</text>
<polygon fill="#ffffff" stroke="transparent" points="231.5,-40.2 231.5,-59.2 308.5,-59.2 308.5,-40.2 231.5,-40.2"/>
<polygon fill="none" stroke="#000000" points="231.5,-40.2 231.5,-59.2 308.5,-59.2 308.5,-40.2 231.5,-40.2"/>
<text text-anchor="start" x="234.5" y="-46.3" font-family="Helvetica,sans-Serif" font-size="11.00" fill="#000000">&lt; 1</text>
<polygon fill="#ffffff" stroke="transparent" points="308.5,-40.2 308.5,-59.2 376.5,-59.2 376.5,-40.2 308.5,-40.2"/>
<polygon fill="none" stroke="#000000" points="308.5,-40.2 308.5,-59.2 376.5,-59.2 376.5,-40.2 308.5,-40.2"/>
<text text-anchor="start" x="367.3862" y="-46.3" font-family="Helvetica,sans-Serif" font-size="11.00" fill="#000000"> &#160;</text>
<polygon fill="#ffffff" stroke="transparent" points="376.5,-40.2 376.5,-59.2 470.5,-59.2 470.5,-40.2 376.5,-40.2"/>
<polygon fill="none" stroke="#000000" points="376.5,-40.2 376.5,-59.2 470.5,-59.2 470.5,-40.2 376.5,-40.2"/>
<text text-anchor="start" x="451.9053" y="-46.3" font-family="Helvetica,sans-Serif" font-size="11.00" fill="#000000">1 &gt;</text>
<polygon fill="none" stroke="#000000" stroke-width="2" points="230,-39.2 230,-391.2 471,-391.2 471,-39.2 230,-39.2"/>
</a>
</g>
</g>
<!-- case_note_sub_type -->
<g id="node2" class="node">
<title>case_note_sub_type</title>
<g id="a_node2"><a xlink:href="../../tables/case_note_sub_type.html" xlink:title="case_note_sub_type" target="_top">
<polygon fill="#ffffff" stroke="transparent" points="8,-131.7 8,-280.7 180,-280.7 180,-131.7 8,-131.7"/>
<polygon fill="#f5f5f5" stroke="transparent" points="8,-257.2 8,-280.2 180,-280.2 180,-257.2 8,-257.2"/>
<polygon fill="none" stroke="#000000" points="8,-257.2 8,-280.2 180,-280.2 180,-257.2 8,-257.2"/>
<text text-anchor="start" x="13" y="-265.8" font-family="Helvetica,sans-Serif" font-weight="bold" font-size="11.00" fill="#000000">case_note_sub_type</text>
<text text-anchor="start" x="145.5219" y="-265.3" font-family="Helvetica,sans-Serif" font-size="11.00" fill="#000000">[table]</text>
<polygon fill="none" stroke="#000000" points="8,-235.2 8,-257.2 180,-257.2 180,-235.2 8,-235.2"/>
<image xlink:href="../../images/primaryKeys.png" width="11px" height="12px" preserveAspectRatio="xMinYMin meet" x="13" y="-252.2"/>
<text text-anchor="start" x="36" y="-242.3" font-family="Helvetica,sans-Serif" font-size="11.00" fill="#000000">id</text>
<polygon fill="#ffffff" stroke="transparent" points="8,-213.2 8,-235.2 180,-235.2 180,-213.2 8,-213.2"/>
<polygon fill="none" stroke="#000000" points="8,-213.2 8,-235.2 180,-235.2 180,-213.2 8,-213.2"/>
<image xlink:href="../../images/foreignKeys.png" width="11px" height="12px" preserveAspectRatio="xMinYMin meet" x="13" y="-230.2"/>
<text text-anchor="start" x="36" y="-220.3" font-family="Helvetica,sans-Serif" font-size="11.00" fill="#000000">type_code</text>
<polygon fill="#ffffff" stroke="transparent" points="8,-191.2 8,-213.2 180,-213.2 180,-191.2 8,-191.2"/>
<polygon fill="none" stroke="#000000" points="8,-191.2 8,-213.2 180,-213.2 180,-191.2 8,-191.2"/>
<image xlink:href="../../images/foreignKeys.png" width="11px" height="12px" preserveAspectRatio="xMinYMin meet" x="13" y="-208.2"/>
<text text-anchor="start" x="36" y="-198.3" font-family="Helvetica,sans-Serif" font-size="11.00" fill="#000000">code</text>
<polygon fill="#ffffff" stroke="transparent" points="8,-169.2 8,-191.2 180,-191.2 180,-169.2 8,-169.2"/>
<polygon fill="none" stroke="#000000" points="8,-169.2 8,-191.2 180,-191.2 180,-169.2 8,-169.2"/>
<text text-anchor="start" x="36" y="-176.3" font-family="Helvetica,sans-Serif" font-size="11.00" fill="#000000">sync_to_nomis</text>
<polygon fill="none" stroke="#000000" points="8,-150.2 8,-169.2 180,-169.2 180,-150.2 8,-150.2"/>
<text text-anchor="start" x="11" y="-156.3" font-family="Helvetica,sans-Serif" font-size="11.00" fill="#000000">...</text>
<polygon fill="#ffffff" stroke="transparent" points="8,-131.2 8,-150.2 69,-150.2 69,-131.2 8,-131.2"/>
<polygon fill="none" stroke="#000000" points="8,-131.2 8,-150.2 69,-150.2 69,-131.2 8,-131.2"/>
<text text-anchor="start" x="11" y="-137.3" font-family="Helvetica,sans-Serif" font-size="11.00" fill="#000000">&lt; 1</text>
<polygon fill="#ffffff" stroke="transparent" points="69,-131.2 69,-150.2 139,-150.2 139,-131.2 69,-131.2"/>
<polygon fill="none" stroke="#000000" points="69,-131.2 69,-150.2 139,-150.2 139,-131.2 69,-131.2"/>
<text text-anchor="start" x="91.3807" y="-137.3" font-family="Helvetica,sans-Serif" font-size="11.00" fill="#000000">406 rows</text>
<polygon fill="#ffffff" stroke="transparent" points="139,-131.2 139,-150.2 180,-150.2 180,-131.2 139,-131.2"/>
<polygon fill="none" stroke="#000000" points="139,-131.2 139,-150.2 180,-150.2 180,-131.2 139,-131.2"/>
<text text-anchor="start" x="161.4053" y="-137.3" font-family="Helvetica,sans-Serif" font-size="11.00" fill="#000000">1 &gt;</text>
</a>
</g>
</g>
<!-- case_note&#45;&gt;case_note_sub_type -->
<g id="edge1" class="edge">
<title>case_note:w&#45;&gt;case_note_sub_type:e</title>
<path fill="none" stroke="#000000" d="M217.0156,-246.2C204.6771,-246.2 197.1667,-246.2 180,-246.2"/>
<polygon fill="#000000" stroke="#000000" points="223.5,-246.2001 231.5,-249.8 227.5,-246.2 231.5,-246.2 231.5,-246.2 231.5,-246.2 227.5,-246.2 231.5,-242.6 223.5,-246.2001 223.5,-246.2001"/>
<ellipse fill="none" stroke="#000000" cx="220.3" cy="-246.2001" rx="3.2" ry="3.2"/>
</g>
<!-- case_note_amendment -->
<g id="node3" class="node">
<title>case_note_amendment</title>
<g id="a_node3"><a xlink:href="../../tables/case_note_amendment.html" xlink:title="case_note_amendment" target="_top">
<polygon fill="#ffffff" stroke="transparent" points="521,-263.7 521,-390.7 713,-390.7 713,-263.7 521,-263.7"/>
<polygon fill="#f5f5f5" stroke="transparent" points="521,-367.2 521,-390.2 713,-390.2 713,-367.2 521,-367.2"/>
<polygon fill="none" stroke="#000000" points="521,-367.2 521,-390.2 713,-390.2 713,-367.2 521,-367.2"/>
<text text-anchor="start" x="526" y="-375.8" font-family="Helvetica,sans-Serif" font-weight="bold" font-size="11.00" fill="#000000">case_note_amendment</text>
<text text-anchor="start" x="678.5219" y="-375.3" font-family="Helvetica,sans-Serif" font-size="11.00" fill="#000000">[table]</text>
<polygon fill="#ffffff" stroke="transparent" points="521,-345.2 521,-367.2 713,-367.2 713,-345.2 521,-345.2"/>
<polygon fill="none" stroke="#000000" points="521,-345.2 521,-367.2 713,-367.2 713,-345.2 521,-345.2"/>
<image xlink:href="../../images/foreignKeys.png" width="11px" height="12px" preserveAspectRatio="xMinYMin meet" x="526" y="-362.2"/>
<text text-anchor="start" x="550" y="-352.3" font-family="Helvetica,sans-Serif" font-size="11.00" fill="#000000">case_note_id</text>
<polygon fill="#ffffff" stroke="transparent" points="521,-323.2 521,-345.2 713,-345.2 713,-323.2 521,-323.2"/>
<polygon fill="none" stroke="#000000" points="521,-323.2 521,-345.2 713,-345.2 713,-323.2 521,-323.2"/>
<text text-anchor="start" x="550" y="-330.3" font-family="Helvetica,sans-Serif" font-size="11.00" fill="#000000">created_at</text>
<polygon fill="none" stroke="#000000" points="521,-301.2 521,-323.2 713,-323.2 713,-301.2 521,-301.2"/>
<image xlink:href="../../images/primaryKeys.png" width="11px" height="12px" preserveAspectRatio="xMinYMin meet" x="526" y="-318.2"/>
<text text-anchor="start" x="550" y="-308.3" font-family="Helvetica,sans-Serif" font-size="11.00" fill="#000000">id</text>
<polygon fill="none" stroke="#000000" points="521,-282.2 521,-301.2 713,-301.2 713,-282.2 521,-282.2"/>
<text text-anchor="start" x="524" y="-288.3" font-family="Helvetica,sans-Serif" font-size="11.00" fill="#000000">...</text>
<polygon fill="#ffffff" stroke="transparent" points="521,-263.2 521,-282.2 615,-282.2 615,-263.2 521,-263.2"/>
<polygon fill="none" stroke="#000000" points="521,-263.2 521,-282.2 615,-282.2 615,-263.2 521,-263.2"/>
<text text-anchor="start" x="524" y="-269.3" font-family="Helvetica,sans-Serif" font-size="11.00" fill="#000000">&lt; 1</text>
<polygon fill="#ffffff" stroke="transparent" points="615,-263.2 615,-282.2 664,-282.2 664,-263.2 615,-263.2"/>
<polygon fill="none" stroke="#000000" points="615,-263.2 615,-282.2 664,-282.2 664,-263.2 615,-263.2"/>
<text text-anchor="start" x="654.8862" y="-269.3" font-family="Helvetica,sans-Serif" font-size="11.00" fill="#000000"> &#160;</text>
<polygon fill="#ffffff" stroke="transparent" points="664,-263.2 664,-282.2 713,-282.2 713,-263.2 664,-263.2"/>
<polygon fill="none" stroke="#000000" points="664,-263.2 664,-282.2 713,-282.2 713,-263.2 664,-263.2"/>
<text text-anchor="start" x="703.8862" y="-269.3" font-family="Helvetica,sans-Serif" font-size="11.00" fill="#000000"> &#160;</text>
</a>
</g>
</g>
<!-- case_note_amendment&#45;&gt;case_note -->
<g id="edge2" class="edge">
<title>case_note_amendment:w&#45;&gt;case_note:e</title>
<path fill="none" stroke="#000000" d="M506.4203,-356.2C494.5435,-356.2 487.158,-356.2 470.5,-356.2"/>
<polygon fill="#000000" stroke="#000000" points="513,-356.2001 521,-359.8 517,-356.2 521,-356.2 521,-356.2 521,-356.2 517,-356.2 521,-352.6 513,-356.2001 513,-356.2001"/>
<ellipse fill="none" stroke="#000000" cx="509.8" cy="-356.2001" rx="3.2" ry="3.2"/>
</g>
</g>
</svg>
