<?xml version="1.0" encoding="UTF-8" standalone="no"?>
<!DOCTYPE svg PUBLIC "-//W3C//DTD SVG 1.1//EN"
 "http://www.w3.org/Graphics/SVG/1.1/DTD/svg11.dtd">
<!-- Generated by graphviz version 2.40.1 (20161225.0304)
 -->
<!-- Title: twoDegreesRelationshipsDiagram Pages: 1 -->
<svg width="622pt" height="249pt"
 viewBox="0.00 0.00 622.00 248.70" xmlns="http://www.w3.org/2000/svg" xmlns:xlink="http://www.w3.org/1999/xlink">
<g id="graph0" class="graph" transform="scale(1 1) rotate(0) translate(4 244.7)">
<title>twoDegreesRelationshipsDiagram</title>
<polygon fill="#ffffff" stroke="transparent" points="-4,4 -4,-244.7 618,-244.7 618,4 -4,4"/>
<text text-anchor="middle" x="72.4936" y="-7.3" font-family="Helvetica,sans-Serif" font-size="11.00" fill="#000000">Generated by SchemaSpy</text>
<!-- case_note -->
<g id="node1" class="node">
<title>case_note</title>
<g id="a_node1"><a xlink:href="../../tables/case_note.html" xlink:title="case_note" target="_top">
<polygon fill="#ffffff" stroke="transparent" points="500,-174.7 500,-235.7 606,-235.7 606,-174.7 500,-174.7"/>
<polygon fill="#f5f5f5" stroke="transparent" points="500,-212.2 500,-235.2 606,-235.2 606,-212.2 500,-212.2"/>
<polygon fill="none" stroke="#000000" points="500,-212.2 500,-235.2 606,-235.2 606,-212.2 500,-212.2"/>
<text text-anchor="start" x="505" y="-220.8" font-family="Helvetica,sans-Serif" font-weight="bold" font-size="11.00" fill="#000000">case_note</text>
<text text-anchor="start" x="571.5219" y="-220.3" font-family="Helvetica,sans-Serif" font-size="11.00" fill="#000000">[table]</text>
<polygon fill="none" stroke="#000000" points="500,-193.2 500,-212.2 606,-212.2 606,-193.2 500,-193.2"/>
<text text-anchor="start" x="503" y="-199.3" font-family="Helvetica,sans-Serif" font-size="11.00" fill="#000000">...</text>
<polygon fill="#ffffff" stroke="transparent" points="500,-174.2 500,-193.2 547,-193.2 547,-174.2 500,-174.2"/>
<polygon fill="none" stroke="#000000" points="500,-174.2 500,-193.2 547,-193.2 547,-174.2 500,-174.2"/>
<text text-anchor="start" x="503" y="-180.3" font-family="Helvetica,sans-Serif" font-size="11.00" fill="#000000">&lt; 1</text>
<polygon fill="#ffffff" stroke="transparent" points="547,-174.2 547,-193.2 572,-193.2 572,-174.2 547,-174.2"/>
<polygon fill="none" stroke="#000000" points="547,-174.2 547,-193.2 572,-193.2 572,-174.2 547,-174.2"/>
<text text-anchor="start" x="562.8862" y="-180.3" font-family="Helvetica,sans-Serif" font-size="11.00" fill="#000000"> &#160;</text>
<polygon fill="#ffffff" stroke="transparent" points="572,-174.2 572,-193.2 606,-193.2 606,-174.2 572,-174.2"/>
<polygon fill="none" stroke="#000000" points="572,-174.2 572,-193.2 606,-193.2 606,-174.2 572,-174.2"/>
<text text-anchor="start" x="587.4053" y="-180.3" font-family="Helvetica,sans-Serif" font-size="11.00" fill="#000000">1 &gt;</text>
</a>
</g>
</g>
<!-- case_note_sub_type -->
<g id="node2" class="node">
<title>case_note_sub_type</title>
<g id="a_node2"><a xlink:href="../../tables/case_note_sub_type.html" xlink:title="case_note_sub_type" target="_top">
<polygon fill="#ffffff" stroke="transparent" points="279,-87.7 279,-236.7 451,-236.7 451,-87.7 279,-87.7"/>
<polygon fill="#f5f5f5" stroke="transparent" points="279,-213.2 279,-236.2 451,-236.2 451,-213.2 279,-213.2"/>
<polygon fill="none" stroke="#000000" points="279,-213.2 279,-236.2 451,-236.2 451,-213.2 279,-213.2"/>
<text text-anchor="start" x="284" y="-221.8" font-family="Helvetica,sans-Serif" font-weight="bold" font-size="11.00" fill="#000000">case_note_sub_type</text>
<text text-anchor="start" x="416.5219" y="-221.3" font-family="Helvetica,sans-Serif" font-size="11.00" fill="#000000">[table]</text>
<polygon fill="none" stroke="#000000" points="279,-191.2 279,-213.2 451,-213.2 451,-191.2 279,-191.2"/>
<image xlink:href="../../images/primaryKeys.png" width="11px" height="12px" preserveAspectRatio="xMinYMin meet" x="284" y="-208.2"/>
<text text-anchor="start" x="307" y="-198.3" font-family="Helvetica,sans-Serif" font-size="11.00" fill="#000000">id</text>
<polygon fill="#ffffff" stroke="transparent" points="279,-169.2 279,-191.2 451,-191.2 451,-169.2 279,-169.2"/>
<polygon fill="none" stroke="#000000" points="279,-169.2 279,-191.2 451,-191.2 451,-169.2 279,-169.2"/>
<image xlink:href="../../images/foreignKeys.png" width="11px" height="12px" preserveAspectRatio="xMinYMin meet" x="284" y="-186.2"/>
<text text-anchor="start" x="307" y="-176.3" font-family="Helvetica,sans-Serif" font-size="11.00" fill="#000000">type_code</text>
<polygon fill="#ffffff" stroke="transparent" points="279,-147.2 279,-169.2 451,-169.2 451,-147.2 279,-147.2"/>
<polygon fill="none" stroke="#000000" points="279,-147.2 279,-169.2 451,-169.2 451,-147.2 279,-147.2"/>
<image xlink:href="../../images/foreignKeys.png" width="11px" height="12px" preserveAspectRatio="xMinYMin meet" x="284" y="-164.2"/>
<text text-anchor="start" x="307" y="-154.3" font-family="Helvetica,sans-Serif" font-size="11.00" fill="#000000">code</text>
<polygon fill="#ffffff" stroke="transparent" points="279,-125.2 279,-147.2 451,-147.2 451,-125.2 279,-125.2"/>
<polygon fill="none" stroke="#000000" points="279,-125.2 279,-147.2 451,-147.2 451,-125.2 279,-125.2"/>
<text text-anchor="start" x="307" y="-132.3" font-family="Helvetica,sans-Serif" font-size="11.00" fill="#000000">sync_to_nomis</text>
<polygon fill="none" stroke="#000000" points="279,-106.2 279,-125.2 451,-125.2 451,-106.2 279,-106.2"/>
<text text-anchor="start" x="282" y="-112.3" font-family="Helvetica,sans-Serif" font-size="11.00" fill="#000000">...</text>
<polygon fill="#ffffff" stroke="transparent" points="279,-87.2 279,-106.2 340,-106.2 340,-87.2 279,-87.2"/>
<polygon fill="none" stroke="#000000" points="279,-87.2 279,-106.2 340,-106.2 340,-87.2 279,-87.2"/>
<text text-anchor="start" x="282" y="-93.3" font-family="Helvetica,sans-Serif" font-size="11.00" fill="#000000">&lt; 1</text>
<polygon fill="#ffffff" stroke="transparent" points="340,-87.2 340,-106.2 410,-106.2 410,-87.2 340,-87.2"/>
<polygon fill="none" stroke="#000000" points="340,-87.2 340,-106.2 410,-106.2 410,-87.2 340,-87.2"/>
<text text-anchor="start" x="362.3807" y="-93.3" font-family="Helvetica,sans-Serif" font-size="11.00" fill="#000000">386 rows</text>
<polygon fill="#ffffff" stroke="transparent" points="410,-87.2 410,-106.2 451,-106.2 451,-87.2 410,-87.2"/>
<polygon fill="none" stroke="#000000" points="410,-87.2 410,-106.2 451,-106.2 451,-87.2 410,-87.2"/>
<text text-anchor="start" x="432.4053" y="-93.3" font-family="Helvetica,sans-Serif" font-size="11.00" fill="#000000">1 &gt;</text>
</a>
</g>
</g>
<!-- case_note&#45;&gt;case_note_sub_type -->
<g id="edge1" class="edge">
<title>case_note:w&#45;&gt;case_note_sub_type:e</title>
<path fill="none" stroke="#000000" d="M485.4909,-202.2C474.1774,-202.2 466.9931,-202.2 451,-202.2"/>
<polygon fill="#000000" stroke="#000000" points="492,-202.2001 500,-205.8 496,-202.2 500,-202.2 500,-202.2 500,-202.2 496,-202.2 500,-198.6 492,-202.2001 492,-202.2001"/>
<ellipse fill="none" stroke="#000000" cx="488.8" cy="-202.2001" rx="3.2" ry="3.2"/>
</g>
<!-- case_note_type -->
<g id="node3" class="node">
<title>case_note_type</title>
<g id="a_node3"><a xlink:href="../../tables/case_note_type.html" xlink:title="case_note_type" target="_top">
<polygon fill="#ffffff" stroke="transparent" points="8,-38.2 8,-216.2 230,-216.2 230,-38.2 8,-38.2"/>
<polygon fill="#f5f5f5" stroke="transparent" points="10,-191.2 10,-214.2 228,-214.2 228,-191.2 10,-191.2"/>
<polygon fill="none" stroke="#000000" points="10,-191.2 10,-214.2 228,-214.2 228,-191.2 10,-191.2"/>
<text text-anchor="start" x="15" y="-199.8" font-family="Helvetica,sans-Serif" font-weight="bold" font-size="11.00" fill="#000000">case_note_type</text>
<text text-anchor="start" x="193.0437" y="-199.3" font-family="Helvetica,sans-Serif" font-size="11.00" fill="#000000">[table]</text>
<polygon fill="none" stroke="#000000" points="10,-169.2 10,-191.2 144,-191.2 144,-169.2 10,-169.2"/>
<image xlink:href="../../images/primaryKeys.png" width="11px" height="12px" preserveAspectRatio="xMinYMin meet" x="15" y="-186.2"/>
<text text-anchor="start" x="30" y="-176.3" font-family="Helvetica,sans-Serif" font-size="11.00" fill="#000000">code</text>
<polygon fill="none" stroke="#000000" points="144,-169.2 144,-191.2 228,-191.2 228,-169.2 144,-169.2"/>
<text text-anchor="start" x="147" y="-176.9" font-family="Helvetica,sans-Serif" font-size="11.00" fill="#000000">varchar[12]</text>
<polygon fill="none" stroke="#000000" points="10,-147.2 10,-169.2 144,-169.2 144,-147.2 10,-147.2"/>
<text text-anchor="start" x="30" y="-154.3" font-family="Helvetica,sans-Serif" font-size="11.00" fill="#000000">description</text>
<polygon fill="none" stroke="#000000" points="144,-147.2 144,-169.2 228,-169.2 228,-147.2 144,-147.2"/>
<text text-anchor="start" x="147" y="-154.9" font-family="Helvetica,sans-Serif" font-size="11.00" fill="#000000">varchar[80]</text>
<polygon fill="none" stroke="#000000" points="10,-125.2 10,-147.2 144,-147.2 144,-125.2 10,-125.2"/>
<text text-anchor="start" x="30" y="-132.3" font-family="Helvetica,sans-Serif" font-size="11.00" fill="#000000">created_at</text>
<polygon fill="none" stroke="#000000" points="144,-125.2 144,-147.2 228,-147.2 228,-125.2 144,-125.2"/>
<text text-anchor="start" x="146.8807" y="-132.9" font-family="Helvetica,sans-Serif" font-size="11.00" fill="#000000">timestamp[29,6]</text>
<polygon fill="none" stroke="#000000" points="10,-103.2 10,-125.2 144,-125.2 144,-103.2 10,-103.2"/>
<text text-anchor="start" x="30" y="-110.3" font-family="Helvetica,sans-Serif" font-size="11.00" fill="#000000">created_by</text>
<polygon fill="none" stroke="#000000" points="144,-103.2 144,-125.2 228,-125.2 228,-103.2 144,-103.2"/>
<text text-anchor="start" x="147" y="-110.9" font-family="Helvetica,sans-Serif" font-size="11.00" fill="#000000">varchar[64]</text>
<polygon fill="none" stroke="#000000" points="10,-81.2 10,-103.2 144,-103.2 144,-81.2 10,-81.2"/>
<text text-anchor="start" x="30" y="-88.3" font-family="Helvetica,sans-Serif" font-size="11.00" fill="#000000">last_modified_at</text>
<polygon fill="none" stroke="#000000" points="144,-81.2 144,-103.2 228,-103.2 228,-81.2 144,-81.2"/>
<text text-anchor="start" x="146.8807" y="-88.9" font-family="Helvetica,sans-Serif" font-size="11.00" fill="#000000">timestamp[29,6]</text>
<polygon fill="none" stroke="#000000" points="10,-59.2 10,-81.2 144,-81.2 144,-59.2 10,-59.2"/>
<text text-anchor="start" x="30" y="-66.3" font-family="Helvetica,sans-Serif" font-size="11.00" fill="#000000">last_modified_by</text>
<polygon fill="none" stroke="#000000" points="144,-59.2 144,-81.2 228,-81.2 228,-59.2 144,-59.2"/>
<text text-anchor="start" x="147" y="-66.9" font-family="Helvetica,sans-Serif" font-size="11.00" fill="#000000">varchar[64]</text>
<polygon fill="#ffffff" stroke="transparent" points="10,-40.2 10,-59.2 81,-59.2 81,-40.2 10,-40.2"/>
<polygon fill="none" stroke="#000000" points="10,-40.2 10,-59.2 81,-59.2 81,-40.2 10,-40.2"/>
<text text-anchor="start" x="13" y="-46.3" font-family="Helvetica,sans-Serif" font-size="11.00" fill="#000000">&lt; 0</text>
<polygon fill="#ffffff" stroke="transparent" points="81,-40.2 81,-59.2 144,-59.2 144,-40.2 81,-40.2"/>
<polygon fill="none" stroke="#000000" points="81,-40.2 81,-59.2 144,-59.2 144,-40.2 81,-40.2"/>
<text text-anchor="start" x="134.8862" y="-46.3" font-family="Helvetica,sans-Serif" font-size="11.00" fill="#000000"> &#160;</text>
<polygon fill="#ffffff" stroke="transparent" points="144,-40.2 144,-59.2 228,-59.2 228,-40.2 144,-40.2"/>
<polygon fill="none" stroke="#000000" points="144,-40.2 144,-59.2 228,-59.2 228,-40.2 144,-40.2"/>
<text text-anchor="start" x="209.4053" y="-46.3" font-family="Helvetica,sans-Serif" font-size="11.00" fill="#000000">1 &gt;</text>
<polygon fill="none" stroke="#000000" stroke-width="2" points="9,-39.2 9,-215.2 229,-215.2 229,-39.2 9,-39.2"/>
</a>
</g>
</g>
<!-- case_note_sub_type&#45;&gt;case_note_type -->
<g id="edge2" class="edge">
<title>case_note_sub_type:w&#45;&gt;case_note_type:e</title>
<path fill="none" stroke="#000000" d="M264.276,-180.2C252.2815,-180.2 244.8229,-180.2 228,-180.2"/>
<polygon fill="#000000" stroke="#000000" points="271,-180.2001 279,-183.8 275,-180.2 279,-180.2 279,-180.2 279,-180.2 275,-180.2 279,-176.6 271,-180.2001 271,-180.2001"/>
<ellipse fill="none" stroke="#000000" cx="267.8" cy="-180.2001" rx="3.2" ry="3.2"/>
</g>
</g>
</svg>
