<?xml version="1.0" encoding="UTF-8" standalone="no"?>
<!DOCTYPE svg PUBLIC "-//W3C//DTD SVG 1.1//EN"
 "http://www.w3.org/Graphics/SVG/1.1/DTD/svg11.dtd">
<!-- Generated by graphviz version 2.40.1 (20161225.0304)
 -->
<!-- Title: twoDegreesRelationshipsDiagramImplied Pages: 1 -->
<svg width="622pt" height="260pt"
 viewBox="0.00 0.00 622.00 259.70" xmlns="http://www.w3.org/2000/svg" xmlns:xlink="http://www.w3.org/1999/xlink">
<g id="graph0" class="graph" transform="scale(1 1) rotate(0) translate(4 255.7)">
<title>twoDegreesRelationshipsDiagramImplied</title>
<polygon fill="#ffffff" stroke="transparent" points="-4,4 -4,-255.7 618,-255.7 618,4 -4,4"/>
<text text-anchor="middle" x="72.4936" y="-7.3" font-family="Helvetica,sans-Serif" font-size="11.00" fill="#000000">Generated by SchemaSpy</text>
<!-- case_note -->
<g id="node1" class="node">
<title>case_note</title>
<g id="a_node1"><a xlink:href="../../tables/case_note.html" xlink:title="case_note" target="_top">
<polygon fill="#ffffff" stroke="transparent" points="500,-185.7 500,-246.7 606,-246.7 606,-185.7 500,-185.7"/>
<polygon fill="#f5f5f5" stroke="transparent" points="500,-223.2 500,-246.2 606,-246.2 606,-223.2 500,-223.2"/>
<polygon fill="none" stroke="#000000" points="500,-223.2 500,-246.2 606,-246.2 606,-223.2 500,-223.2"/>
<text text-anchor="start" x="505" y="-231.8" font-family="Helvetica,sans-Serif" font-weight="bold" font-size="11.00" fill="#000000">case_note</text>
<text text-anchor="start" x="571.5219" y="-231.3" font-family="Helvetica,sans-Serif" font-size="11.00" fill="#000000">[table]</text>
<polygon fill="none" stroke="#000000" points="500,-204.2 500,-223.2 606,-223.2 606,-204.2 500,-204.2"/>
<text text-anchor="start" x="503" y="-210.3" font-family="Helvetica,sans-Serif" font-size="11.00" fill="#000000">...</text>
<polygon fill="#ffffff" stroke="transparent" points="500,-185.2 500,-204.2 547,-204.2 547,-185.2 500,-185.2"/>
<polygon fill="none" stroke="#000000" points="500,-185.2 500,-204.2 547,-204.2 547,-185.2 500,-185.2"/>
<text text-anchor="start" x="503" y="-191.3" font-family="Helvetica,sans-Serif" font-size="11.00" fill="#000000">&lt; 1</text>
<polygon fill="#ffffff" stroke="transparent" points="547,-185.2 547,-204.2 572,-204.2 572,-185.2 547,-185.2"/>
<polygon fill="none" stroke="#000000" points="547,-185.2 547,-204.2 572,-204.2 572,-185.2 547,-185.2"/>
<text text-anchor="start" x="562.8862" y="-191.3" font-family="Helvetica,sans-Serif" font-size="11.00" fill="#000000"> &#160;</text>
<polygon fill="#ffffff" stroke="transparent" points="572,-185.2 572,-204.2 606,-204.2 606,-185.2 572,-185.2"/>
<polygon fill="none" stroke="#000000" points="572,-185.2 572,-204.2 606,-204.2 606,-185.2 572,-185.2"/>
<text text-anchor="start" x="587.4053" y="-191.3" font-family="Helvetica,sans-Serif" font-size="11.00" fill="#000000">1 &gt;</text>
</a>
</g>
</g>
<!-- case_note_sub_type -->
<g id="node2" class="node">
<title>case_note_sub_type</title>
<g id="a_node2"><a xlink:href="../../tables/case_note_sub_type.html" xlink:title="case_note_sub_type" target="_top">
<polygon fill="#ffffff" stroke="transparent" points="279,-98.7 279,-247.7 451,-247.7 451,-98.7 279,-98.7"/>
<polygon fill="#f5f5f5" stroke="transparent" points="279,-224.2 279,-247.2 451,-247.2 451,-224.2 279,-224.2"/>
<polygon fill="none" stroke="#000000" points="279,-224.2 279,-247.2 451,-247.2 451,-224.2 279,-224.2"/>
<text text-anchor="start" x="284" y="-232.8" font-family="Helvetica,sans-Serif" font-weight="bold" font-size="11.00" fill="#000000">case_note_sub_type</text>
<text text-anchor="start" x="416.5219" y="-232.3" font-family="Helvetica,sans-Serif" font-size="11.00" fill="#000000">[table]</text>
<polygon fill="none" stroke="#000000" points="279,-202.2 279,-224.2 451,-224.2 451,-202.2 279,-202.2"/>
<image xlink:href="../../images/primaryKeys.png" width="11px" height="12px" preserveAspectRatio="xMinYMin meet" x="284" y="-219.2"/>
<text text-anchor="start" x="307" y="-209.3" font-family="Helvetica,sans-Serif" font-size="11.00" fill="#000000">id</text>
<polygon fill="#ffffff" stroke="transparent" points="279,-180.2 279,-202.2 451,-202.2 451,-180.2 279,-180.2"/>
<polygon fill="none" stroke="#000000" points="279,-180.2 279,-202.2 451,-202.2 451,-180.2 279,-180.2"/>
<image xlink:href="../../images/foreignKeys.png" width="11px" height="12px" preserveAspectRatio="xMinYMin meet" x="284" y="-197.2"/>
<text text-anchor="start" x="307" y="-187.3" font-family="Helvetica,sans-Serif" font-size="11.00" fill="#000000">type_code</text>
<polygon fill="#ffffff" stroke="transparent" points="279,-158.2 279,-180.2 451,-180.2 451,-158.2 279,-158.2"/>
<polygon fill="none" stroke="#000000" points="279,-158.2 279,-180.2 451,-180.2 451,-158.2 279,-158.2"/>
<image xlink:href="../../images/foreignKeys.png" width="11px" height="12px" preserveAspectRatio="xMinYMin meet" x="284" y="-175.2"/>
<text text-anchor="start" x="307" y="-165.3" font-family="Helvetica,sans-Serif" font-size="11.00" fill="#000000">code</text>
<polygon fill="#ffffff" stroke="transparent" points="279,-136.2 279,-158.2 451,-158.2 451,-136.2 279,-136.2"/>
<polygon fill="none" stroke="#000000" points="279,-136.2 279,-158.2 451,-158.2 451,-136.2 279,-136.2"/>
<text text-anchor="start" x="307" y="-143.3" font-family="Helvetica,sans-Serif" font-size="11.00" fill="#000000">sync_to_nomis</text>
<polygon fill="none" stroke="#000000" points="279,-117.2 279,-136.2 451,-136.2 451,-117.2 279,-117.2"/>
<text text-anchor="start" x="282" y="-123.3" font-family="Helvetica,sans-Serif" font-size="11.00" fill="#000000">...</text>
<polygon fill="#ffffff" stroke="transparent" points="279,-98.2 279,-117.2 340,-117.2 340,-98.2 279,-98.2"/>
<polygon fill="none" stroke="#000000" points="279,-98.2 279,-117.2 340,-117.2 340,-98.2 279,-98.2"/>
<text text-anchor="start" x="282" y="-104.3" font-family="Helvetica,sans-Serif" font-size="11.00" fill="#000000">&lt; 2</text>
<polygon fill="#ffffff" stroke="transparent" points="340,-98.2 340,-117.2 410,-117.2 410,-98.2 340,-98.2"/>
<polygon fill="none" stroke="#000000" points="340,-98.2 340,-117.2 410,-117.2 410,-98.2 340,-98.2"/>
<text text-anchor="start" x="362.3807" y="-104.3" font-family="Helvetica,sans-Serif" font-size="11.00" fill="#000000">400 rows</text>
<polygon fill="#ffffff" stroke="transparent" points="410,-98.2 410,-117.2 451,-117.2 451,-98.2 410,-98.2"/>
<polygon fill="none" stroke="#000000" points="410,-98.2 410,-117.2 451,-117.2 451,-98.2 410,-98.2"/>
<text text-anchor="start" x="432.4053" y="-104.3" font-family="Helvetica,sans-Serif" font-size="11.00" fill="#000000">1 &gt;</text>
</a>
</g>
</g>
<!-- case_note&#45;&gt;case_note_sub_type -->
<g id="edge1" class="edge">
<title>case_note:w&#45;&gt;case_note_sub_type:e</title>
<path fill="none" stroke="#000000" d="M485.4909,-213.2C474.1774,-213.2 466.9931,-213.2 451,-213.2"/>
<polygon fill="#000000" stroke="#000000" points="492,-213.2001 500,-216.8 496,-213.2 500,-213.2 500,-213.2 500,-213.2 496,-213.2 500,-209.6 492,-213.2001 492,-213.2001"/>
<ellipse fill="none" stroke="#000000" cx="488.8" cy="-213.2001" rx="3.2" ry="3.2"/>
</g>
<!-- case_note_type -->
<g id="node3" class="node">
<title>case_note_type</title>
<g id="a_node3"><a xlink:href="../../tables/case_note_type.html" xlink:title="case_note_type" target="_top">
<polygon fill="#ffffff" stroke="transparent" points="8,-38.2 8,-216.2 230,-216.2 230,-38.2 8,-38.2"/>
<polygon fill="#f5f5f5" stroke="transparent" points="10,-191.2 10,-214.2 228,-214.2 228,-191.2 10,-191.2"/>
<polygon fill="none" stroke="#000000" points="10,-191.2 10,-214.2 228,-214.2 228,-191.2 10,-191.2"/>
<text text-anchor="start" x="15" y="-199.8" font-family="Helvetica,sans-Serif" font-weight="bold" font-size="11.00" fill="#000000">case_note_type</text>
<text text-anchor="start" x="193.0437" y="-199.3" font-family="Helvetica,sans-Serif" font-size="11.00" fill="#000000">[table]</text>
<polygon fill="none" stroke="#000000" points="10,-169.2 10,-191.2 144,-191.2 144,-169.2 10,-169.2"/>
<image xlink:href="../../images/primaryKeys.png" width="11px" height="12px" preserveAspectRatio="xMinYMin meet" x="15" y="-186.2"/>
<text text-anchor="start" x="30" y="-176.3" font-family="Helvetica,sans-Serif" font-size="11.00" fill="#000000">code</text>
<polygon fill="none" stroke="#000000" points="144,-169.2 144,-191.2 228,-191.2 228,-169.2 144,-169.2"/>
<text text-anchor="start" x="147" y="-176.9" font-family="Helvetica,sans-Serif" font-size="11.00" fill="#000000">varchar[12]</text>
<polygon fill="none" stroke="#000000" points="10,-147.2 10,-169.2 144,-169.2 144,-147.2 10,-147.2"/>
<text text-anchor="start" x="30" y="-154.3" font-family="Helvetica,sans-Serif" font-size="11.00" fill="#000000">description</text>
<polygon fill="none" stroke="#000000" points="144,-147.2 144,-169.2 228,-169.2 228,-147.2 144,-147.2"/>
<text text-anchor="start" x="147" y="-154.9" font-family="Helvetica,sans-Serif" font-size="11.00" fill="#000000">varchar[80]</text>
<polygon fill="none" stroke="#000000" points="10,-125.2 10,-147.2 144,-147.2 144,-125.2 10,-125.2"/>
<text text-anchor="start" x="30" y="-132.3" font-family="Helvetica,sans-Serif" font-size="11.00" fill="#000000">created_at</text>
<polygon fill="none" stroke="#000000" points="144,-125.2 144,-147.2 228,-147.2 228,-125.2 144,-125.2"/>
<text text-anchor="start" x="146.8807" y="-132.9" font-family="Helvetica,sans-Serif" font-size="11.00" fill="#000000">timestamp[29,6]</text>
<polygon fill="none" stroke="#000000" points="10,-103.2 10,-125.2 144,-125.2 144,-103.2 10,-103.2"/>
<text text-anchor="start" x="30" y="-110.3" font-family="Helvetica,sans-Serif" font-size="11.00" fill="#000000">created_by</text>
<polygon fill="none" stroke="#000000" points="144,-103.2 144,-125.2 228,-125.2 228,-103.2 144,-103.2"/>
<text text-anchor="start" x="147" y="-110.9" font-family="Helvetica,sans-Serif" font-size="11.00" fill="#000000">varchar[64]</text>
<polygon fill="none" stroke="#000000" points="10,-81.2 10,-103.2 144,-103.2 144,-81.2 10,-81.2"/>
<text text-anchor="start" x="30" y="-88.3" font-family="Helvetica,sans-Serif" font-size="11.00" fill="#000000">last_modified_at</text>
<polygon fill="none" stroke="#000000" points="144,-81.2 144,-103.2 228,-103.2 228,-81.2 144,-81.2"/>
<text text-anchor="start" x="146.8807" y="-88.9" font-family="Helvetica,sans-Serif" font-size="11.00" fill="#000000">timestamp[29,6]</text>
<polygon fill="none" stroke="#000000" points="10,-59.2 10,-81.2 144,-81.2 144,-59.2 10,-59.2"/>
<text text-anchor="start" x="30" y="-66.3" font-family="Helvetica,sans-Serif" font-size="11.00" fill="#000000">last_modified_by</text>
<polygon fill="none" stroke="#000000" points="144,-59.2 144,-81.2 228,-81.2 228,-59.2 144,-59.2"/>
<text text-anchor="start" x="147" y="-66.9" font-family="Helvetica,sans-Serif" font-size="11.00" fill="#000000">varchar[64]</text>
<polygon fill="#ffffff" stroke="transparent" points="10,-40.2 10,-59.2 65,-59.2 65,-40.2 10,-40.2"/>
<polygon fill="none" stroke="#000000" points="10,-40.2 10,-59.2 65,-59.2 65,-40.2 10,-40.2"/>
<text text-anchor="start" x="13" y="-46.3" font-family="Helvetica,sans-Serif" font-size="11.00" fill="#000000">&lt; 0</text>
<polygon fill="#ffffff" stroke="transparent" points="65,-40.2 65,-59.2 144,-59.2 144,-40.2 65,-40.2"/>
<polygon fill="none" stroke="#000000" points="65,-40.2 65,-59.2 144,-59.2 144,-40.2 65,-40.2"/>
<text text-anchor="start" x="102.4956" y="-46.3" font-family="Helvetica,sans-Serif" font-size="11.00" fill="#000000">65 rows</text>
<polygon fill="#ffffff" stroke="transparent" points="144,-40.2 144,-59.2 228,-59.2 228,-40.2 144,-40.2"/>
<polygon fill="none" stroke="#000000" points="144,-40.2 144,-59.2 228,-59.2 228,-40.2 144,-40.2"/>
<text text-anchor="start" x="209.4053" y="-46.3" font-family="Helvetica,sans-Serif" font-size="11.00" fill="#000000">2 &gt;</text>
<polygon fill="none" stroke="#000000" stroke-width="2" points="9,-39.2 9,-215.2 229,-215.2 229,-39.2 9,-39.2"/>
</a>
</g>
</g>
<!-- case_note_sub_type&#45;&gt;case_note_type -->
<g id="edge2" class="edge">
<title>case_note_sub_type:w&#45;&gt;case_note_type:e</title>
<path fill="none" stroke="#000000" stroke-dasharray="5,2" d="M264.5097,-170.9188C252.3398,-174.0125 245.3909,-180.2 228,-180.2"/>
<polygon fill="#000000" stroke="#000000" points="271.0557,-170.1424 279.4241,-172.7749 275.0278,-169.6712 279,-169.2 279,-169.2 279,-169.2 275.0278,-169.6712 278.5759,-165.6251 271.0557,-170.1424 271.0557,-170.1424"/>
<ellipse fill="none" stroke="#000000" cx="267.878" cy="-170.5193" rx="3.2" ry="3.2"/>
</g>
<!-- case_note_sub_type&#45;&gt;case_note_type -->
<g id="edge3" class="edge">
<title>case_note_sub_type:w&#45;&gt;case_note_type:e</title>
<path fill="none" stroke="#000000" d="M264.5097,-189.4813C252.3398,-186.3875 245.3909,-180.2 228,-180.2"/>
<polygon fill="#000000" stroke="#000000" points="271.0557,-190.2576 278.5759,-194.7749 275.0278,-190.7288 279,-191.2 279,-191.2 279,-191.2 275.0278,-190.7288 279.4241,-187.6251 271.0557,-190.2576 271.0557,-190.2576"/>
<ellipse fill="none" stroke="#000000" cx="267.878" cy="-189.8807" rx="3.2" ry="3.2"/>
</g>
</g>
</svg>
