<?xml version="1.0" encoding="UTF-8" standalone="no"?>
<!DOCTYPE svg PUBLIC "-//W3C//DTD SVG 1.1//EN"
 "http://www.w3.org/Graphics/SVG/1.1/DTD/svg11.dtd">
<!-- Generated by graphviz version 2.40.1 (20161225.0304)
 -->
<!-- Title: oneDegreeRelationshipsDiagram Pages: 1 -->
<svg width="487pt" height="249pt"
 viewBox="0.00 0.00 487.00 248.70" xmlns="http://www.w3.org/2000/svg" xmlns:xlink="http://www.w3.org/1999/xlink">
<g id="graph0" class="graph" transform="scale(1 1) rotate(0) translate(4 244.7)">
<title>oneDegreeRelationshipsDiagram</title>
<polygon fill="#ffffff" stroke="transparent" points="-4,4 -4,-244.7 483,-244.7 483,4 -4,4"/>
<text text-anchor="middle" x="72.4936" y="-7.3" font-family="Helvetica,sans-Serif" font-size="11.00" fill="#000000">Generated by SchemaSpy</text>
<!-- case_note_sub_type -->
<g id="node1" class="node">
<title>case_note_sub_type</title>
<g id="a_node1"><a xlink:href="../../tables/case_note_sub_type.html" xlink:title="case_note_sub_type" target="_top">
<polygon fill="#ffffff" stroke="transparent" points="288,-87.7 288,-236.7 471,-236.7 471,-87.7 288,-87.7"/>
<polygon fill="#f5f5f5" stroke="transparent" points="288.5,-213.2 288.5,-236.2 471.5,-236.2 471.5,-213.2 288.5,-213.2"/>
<polygon fill="none" stroke="#000000" points="288.5,-213.2 288.5,-236.2 471.5,-236.2 471.5,-213.2 288.5,-213.2"/>
<text text-anchor="start" x="293.5" y="-221.8" font-family="Helvetica,sans-Serif" font-weight="bold" font-size="11.00" fill="#000000">case_note_sub_type</text>
<text text-anchor="start" x="437.0219" y="-221.3" font-family="Helvetica,sans-Serif" font-size="11.00" fill="#000000">[table]</text>
<polygon fill="none" stroke="#000000" points="288.5,-191.2 288.5,-213.2 471.5,-213.2 471.5,-191.2 288.5,-191.2"/>
<image xlink:href="../../images/primaryKeys.png" width="11px" height="12px" preserveAspectRatio="xMinYMin meet" x="293.5" y="-208.2"/>
<text text-anchor="start" x="316.5" y="-198.3" font-family="Helvetica,sans-Serif" font-size="11.00" fill="#000000">id</text>
<polygon fill="#ffffff" stroke="transparent" points="288.5,-169.2 288.5,-191.2 471.5,-191.2 471.5,-169.2 288.5,-169.2"/>
<polygon fill="none" stroke="#000000" points="288.5,-169.2 288.5,-191.2 471.5,-191.2 471.5,-169.2 288.5,-169.2"/>
<image xlink:href="../../images/foreignKeys.png" width="11px" height="12px" preserveAspectRatio="xMinYMin meet" x="293.5" y="-186.2"/>
<text text-anchor="start" x="316.5" y="-176.3" font-family="Helvetica,sans-Serif" font-size="11.00" fill="#000000">type_code</text>
<polygon fill="#ffffff" stroke="transparent" points="288.5,-147.2 288.5,-169.2 471.5,-169.2 471.5,-147.2 288.5,-147.2"/>
<polygon fill="none" stroke="#000000" points="288.5,-147.2 288.5,-169.2 471.5,-169.2 471.5,-147.2 288.5,-147.2"/>
<image xlink:href="../../images/foreignKeys.png" width="11px" height="12px" preserveAspectRatio="xMinYMin meet" x="293.5" y="-164.2"/>
<text text-anchor="start" x="316.5" y="-154.3" font-family="Helvetica,sans-Serif" font-size="11.00" fill="#000000">code</text>
<polygon fill="#ffffff" stroke="transparent" points="288.5,-125.2 288.5,-147.2 471.5,-147.2 471.5,-125.2 288.5,-125.2"/>
<polygon fill="none" stroke="#000000" points="288.5,-125.2 288.5,-147.2 471.5,-147.2 471.5,-125.2 288.5,-125.2"/>
<text text-anchor="start" x="316.5" y="-132.3" font-family="Helvetica,sans-Serif" font-size="11.00" fill="#000000">sync_to_nomis</text>
<polygon fill="none" stroke="#000000" points="288.5,-106.2 288.5,-125.2 471.5,-125.2 471.5,-106.2 288.5,-106.2"/>
<text text-anchor="start" x="291.5" y="-112.3" font-family="Helvetica,sans-Serif" font-size="11.00" fill="#000000">...</text>
<polygon fill="#ffffff" stroke="transparent" points="288.5,-87.2 288.5,-106.2 471.5,-106.2 471.5,-87.2 288.5,-87.2"/>
<polygon fill="none" stroke="#000000" points="288.5,-87.2 288.5,-106.2 471.5,-106.2 471.5,-87.2 288.5,-87.2"/>
<polygon fill="#ffffff" stroke="transparent" points="289.5,-88.2 289.5,-105.2 340.5,-105.2 340.5,-88.2 289.5,-88.2"/>
<text text-anchor="start" x="291.5" y="-93.3" font-family="Helvetica,sans-Serif" font-size="11.00" fill="#000000">&lt; 1</text>
<polygon fill="#ffffff" stroke="transparent" points="340.5,-88.2 340.5,-105.2 420.5,-105.2 420.5,-88.2 340.5,-88.2"/>
<text text-anchor="start" x="358.1904" y="-93.3" font-family="Helvetica,sans-Serif" font-size="11.00" fill="#000000">386 rows</text>
<polygon fill="#ffffff" stroke="transparent" points="420.5,-88.2 420.5,-105.2 470.5,-105.2 470.5,-88.2 420.5,-88.2"/>
<text text-anchor="start" x="452.9053" y="-93.3" font-family="Helvetica,sans-Serif" font-size="11.00" fill="#000000">1 &gt;</text>
<polygon fill="#000000" stroke="#000000" points="340.5,-88.2 340.5,-105.2 340.5,-105.2 340.5,-88.2 340.5,-88.2"/>
<polygon fill="#000000" stroke="#000000" points="420.5,-88.2 420.5,-105.2 420.5,-105.2 420.5,-88.2 420.5,-88.2"/>
</a>
</g>
</g>
<!-- case_note_type -->
<g id="node2" class="node">
<title>case_note_type</title>
<g id="a_node2"><a xlink:href="../../tables/case_note_type.html" xlink:title="case_note_type" target="_top">
<polygon fill="#ffffff" stroke="transparent" points="8,-38.2 8,-216.2 239,-216.2 239,-38.2 8,-38.2"/>
<polygon fill="#f5f5f5" stroke="transparent" points="10.5,-191.2 10.5,-214.2 237.5,-214.2 237.5,-191.2 10.5,-191.2"/>
<polygon fill="none" stroke="#000000" points="10.5,-191.2 10.5,-214.2 237.5,-214.2 237.5,-191.2 10.5,-191.2"/>
<text text-anchor="start" x="15.5" y="-199.8" font-family="Helvetica,sans-Serif" font-weight="bold" font-size="11.00" fill="#000000">case_note_type</text>
<text text-anchor="start" x="202.5437" y="-199.3" font-family="Helvetica,sans-Serif" font-size="11.00" fill="#000000">[table]</text>
<polygon fill="none" stroke="#000000" points="10.5,-169.2 10.5,-191.2 153.5,-191.2 153.5,-169.2 10.5,-169.2"/>
<image xlink:href="../../images/primaryKeys.png" width="11px" height="12px" preserveAspectRatio="xMinYMin meet" x="15.5" y="-186.2"/>
<text text-anchor="start" x="30.5" y="-176.3" font-family="Helvetica,sans-Serif" font-size="11.00" fill="#000000">code</text>
<polygon fill="none" stroke="#000000" points="153.5,-169.2 153.5,-191.2 237.5,-191.2 237.5,-169.2 153.5,-169.2"/>
<text text-anchor="start" x="156.5" y="-176.9" font-family="Helvetica,sans-Serif" font-size="11.00" fill="#000000">varchar[12]</text>
<polygon fill="none" stroke="#000000" points="10.5,-147.2 10.5,-169.2 153.5,-169.2 153.5,-147.2 10.5,-147.2"/>
<text text-anchor="start" x="30.5" y="-154.3" font-family="Helvetica,sans-Serif" font-size="11.00" fill="#000000">description</text>
<polygon fill="none" stroke="#000000" points="153.5,-147.2 153.5,-169.2 237.5,-169.2 237.5,-147.2 153.5,-147.2"/>
<text text-anchor="start" x="156.5" y="-154.9" font-family="Helvetica,sans-Serif" font-size="11.00" fill="#000000">varchar[80]</text>
<polygon fill="none" stroke="#000000" points="10.5,-125.2 10.5,-147.2 153.5,-147.2 153.5,-125.2 10.5,-125.2"/>
<text text-anchor="start" x="30.5" y="-132.3" font-family="Helvetica,sans-Serif" font-size="11.00" fill="#000000">created_at</text>
<polygon fill="none" stroke="#000000" points="153.5,-125.2 153.5,-147.2 237.5,-147.2 237.5,-125.2 153.5,-125.2"/>
<text text-anchor="start" x="156.3807" y="-132.9" font-family="Helvetica,sans-Serif" font-size="11.00" fill="#000000">timestamp[29,6]</text>
<polygon fill="none" stroke="#000000" points="10.5,-103.2 10.5,-125.2 153.5,-125.2 153.5,-103.2 10.5,-103.2"/>
<text text-anchor="start" x="30.5" y="-110.3" font-family="Helvetica,sans-Serif" font-size="11.00" fill="#000000">created_by</text>
<polygon fill="none" stroke="#000000" points="153.5,-103.2 153.5,-125.2 237.5,-125.2 237.5,-103.2 153.5,-103.2"/>
<text text-anchor="start" x="156.5" y="-110.9" font-family="Helvetica,sans-Serif" font-size="11.00" fill="#000000">varchar[64]</text>
<polygon fill="none" stroke="#000000" points="10.5,-81.2 10.5,-103.2 153.5,-103.2 153.5,-81.2 10.5,-81.2"/>
<text text-anchor="start" x="30.5" y="-88.3" font-family="Helvetica,sans-Serif" font-size="11.00" fill="#000000">last_modified_at</text>
<polygon fill="none" stroke="#000000" points="153.5,-81.2 153.5,-103.2 237.5,-103.2 237.5,-81.2 153.5,-81.2"/>
<text text-anchor="start" x="156.3807" y="-88.9" font-family="Helvetica,sans-Serif" font-size="11.00" fill="#000000">timestamp[29,6]</text>
<polygon fill="none" stroke="#000000" points="10.5,-59.2 10.5,-81.2 153.5,-81.2 153.5,-59.2 10.5,-59.2"/>
<text text-anchor="start" x="30.5" y="-66.3" font-family="Helvetica,sans-Serif" font-size="11.00" fill="#000000">last_modified_by</text>
<polygon fill="none" stroke="#000000" points="153.5,-59.2 153.5,-81.2 237.5,-81.2 237.5,-59.2 153.5,-59.2"/>
<text text-anchor="start" x="156.5" y="-66.9" font-family="Helvetica,sans-Serif" font-size="11.00" fill="#000000">varchar[64]</text>
<polygon fill="#ffffff" stroke="transparent" points="10.5,-40.2 10.5,-59.2 237.5,-59.2 237.5,-40.2 10.5,-40.2"/>
<polygon fill="none" stroke="#000000" points="10.5,-40.2 10.5,-59.2 237.5,-59.2 237.5,-40.2 10.5,-40.2"/>
<polygon fill="#ffffff" stroke="transparent" points="11.5,-41.2 11.5,-58.2 89.5,-58.2 89.5,-41.2 11.5,-41.2"/>
<text text-anchor="start" x="13.5" y="-46.3" font-family="Helvetica,sans-Serif" font-size="11.00" fill="#000000">&lt; 0</text>
<polygon fill="#ffffff" stroke="transparent" points="89.5,-41.2 89.5,-58.2 158.5,-58.2 158.5,-41.2 89.5,-41.2"/>
<text text-anchor="start" x="120.9431" y="-46.3" font-family="Helvetica,sans-Serif" font-size="11.00" fill="#000000"> &#160;</text>
<polygon fill="#ffffff" stroke="transparent" points="158.5,-41.2 158.5,-58.2 236.5,-58.2 236.5,-41.2 158.5,-41.2"/>
<text text-anchor="start" x="218.9053" y="-46.3" font-family="Helvetica,sans-Serif" font-size="11.00" fill="#000000">1 &gt;</text>
<polygon fill="#000000" stroke="#000000" points="89.5,-41.2 89.5,-58.2 89.5,-58.2 89.5,-41.2 89.5,-41.2"/>
<polygon fill="#000000" stroke="#000000" points="158.5,-41.2 158.5,-58.2 158.5,-58.2 158.5,-41.2 158.5,-41.2"/>
<polygon fill="none" stroke="#000000" stroke-width="2" points="9,-39.2 9,-215.2 238,-215.2 238,-39.2 9,-39.2"/>
</a>
</g>
</g>
<!-- case_note_sub_type&#45;&gt;case_note_type -->
<g id="edge1" class="edge">
<title>case_note_sub_type:w&#45;&gt;case_note_type:e</title>
<path fill="none" stroke="#000000" d="M273.776,-180.2C261.7815,-180.2 254.3229,-180.2 237.5,-180.2"/>
<polygon fill="#000000" stroke="#000000" points="280.5,-180.2001 288.5,-183.8 284.5,-180.2 288.5,-180.2 288.5,-180.2 288.5,-180.2 284.5,-180.2 288.5,-176.6 280.5,-180.2001 280.5,-180.2001"/>
<ellipse fill="none" stroke="#000000" cx="277.3" cy="-180.2001" rx="3.2" ry="3.2"/>
</g>
</g>
</svg>
